<?xml version="1.0" encoding="UTF-8"?>
<svg id="Layer_1" xmlns="http://www.w3.org/2000/svg" version="1.1" viewBox="0 0 1920 1080">
  <!-- Generator: Adobe Illustrator 30.3.0, SVG Export Plug-In . SVG Version: 2.1.3 Build 182)  -->
  <defs>
    <style>
      .st0 {
        fill: #070707;
      }

      .st1 {
        fill: #040404;
      }

      .st2 {
        fill: #a2a2a2;
      }

      .st3 {
        fill: #060606;
      }

      .st4 {
        fill: #a6a6a6;
      }

      .st5 {
        fill: #0d0d0d;
      }

      .st6 {
        fill: #050505;
      }

      .st7 {
        fill: #a0a0a0;
      }

      .st8 {
        fill: #020202;
      }

      .st9 {
        fill: #a3a3a3;
      }

      .st10 {
        fill: #151515;
      }

      .st11 {
        fill: #080808;
      }

      .st12 {
        fill: #2a2a2a;
      }

      .st13 {
        fill: #0c0c0c;
      }

      .st14 {
        fill: #cbcbcb;
      }

      .st15 {
        fill: #0e0e0e;
      }

      .st16 {
        fill: #090909;
      }
    </style>
  </defs>
  <path class="st8" d="M873.59,584.39c.14-.13.16-.15,0,0h0Z"/>
  <path class="st1" d="M186.64,728.02c0-.79.15-1.48.41-2.07l.37-9.06.74-29.84.22-23.95-.71-24.48c-.62-21.29-2.24-41.47-.57-62.84l1.93-73.06,1.82-26.66.78-23.84,1.07-62.14-.45-27.4-.2-27.82-.73-22.65.11-28.84.48-19.6,2.13-46.39,1.43-54.2c.36-13.82-2.59-28.4-1.25-41.92l-2.57-1.86c-.45-.33-1.22.67-1.53,1.13l-.24,3.08,1.38,40.29-1.4,52.35-1.74,32.14-.64,23.71-.17,46.94.93,51.86.22,21.48-1,57.35-.79,23.16-.77,16.57c-.03.7-.24,2.51-.48,3.05-.32.73-1.67,1.11-3.04,1.72l-.77,5.75-10.95.76c-.68.05-2.19,2.13-1.75,2.67.59.73,2.36,1.41,3.33,1.4l12.28-.07-1.73,71.07c-.53,21.71-1.1,42.27.68,63.82l.67,23.38-.23,23.02-.7,30.87-.48,16.39.29,12.59c2.16-1.94,2.74-3.57,3.05-6.19l.56-4.8v-6.88Z"/>
  <g>
    <path class="st7" d="M422.85,784.5c-2.89.55-6.31,3.21-8.29,5.63-.24-3.02.86-6.34,2.35-9.22l-6.46-6.23c.4-6.61,3.94-12.09,10.15-13.18l-2.27-5.52c-.29-.71,2.19-2.27,2.77-1.79,4.07,3.35,2.74,8.42,7.34,14.5l7.25-8.21,7.27-6.83,15.86-18.28,9.97-11.7,23.69-26.7,8.03-8.28c7.22-7.44,12.89-14.95,20.59-21.79l7.7-8.77,23.84-24.56,7.13-7.73c-3.06-6.25-.84-11.51,4.51-15.93,2.11-1.74,5.09-6.21,9.07-4.03,3.22,1.77,6.27,13.06,4.32,19.5l9.79,8.3,25.73,23.43,20.75,18.49,40.7,32.71,11.5,13.75c4.93-1.77,9.28-2.85,14.11-2.58,8.33-17.42,18.26-33.19,29.64-48.58l17.16-26.23,15.34-24.72c4.87-7.84,8.85-15.36,14.7-22.71l2.35-13.49c.8-4.56,5.84-5.4,9.44-3.8l23.76-32.37,14.75-19.19,19.63-23.66,6.94-8.58,17.55-22.71,7.95-10.49c6.45-8.52,3.53-13.02,6.83-17.31.84-1.09,4.37-1.91,5.31-.93,1.77,1.86,2.98,3.52,6.56,2.56,2.15,7.36-2.46,7.91,3.29,16.65l10.6,16.12c10.06,15.29,18.68,30.95,28.98,46.12l11.73,17.28,7.08,11.61c9.83,1.53,6.14,8.35,11.31,18.28l-.15,4.44c11.85,18.03,22.23,36.6,30.68,56.59l7.71,15.92,8.78,18.19,8.31,19.72,4.92-2.52,4.97,4.54,5.38-8.34,20.91-34.65,13.47-20.71c4.61-7.08,10.54-15.15,11.42-23.47.49-4.57-1.24-8.85.83-13.7,1.29-3.03,7.65-4.8,9.53-7.5l8.05-13.83,10.18-20.88,12.05-22.88,21.81-41.06c-1.52-6.84,2.2-12.33,8.78-13.67l15.56-21.8,23.77-35.81,12.71-20.46,11.5-20.34,7.11-12.48,6.7-10.73,4.45-7.69c.56-.97,3.53-1.84,4.55-1.56s2.6,1.89,2.98,2.9l4.53,12.09c7.06,7.59,14.25,14.8,19.72,23.48,5.02,7.95,10.35,14.64,16.7,21.56,7.63,8.31,12.7,18.28,18.04,28.27.74,1.38,3.17,3.64,4.32,4.17,9.86-9.72,15.47-3.89,15.33-3.74l2.56-2.8c7.68-8.38,13.81-17.06,19.33-27.06,5.93-10.73,12.85-11.91,18.7-21.36,3.6-5.82,7.74-10.42,12.46-15.49,3.74-4.02,6.19-9.73,9.08-14.58l19.63-32.89,20.71-30.57,7.41-12.2,8.41-13.87c-1.27-8.15,1.76-16.04,6.65-21.92l11.89-2.16,15.16,23.85c7.19,11.32,15.41,20.96,21.69,32.97l37.09,70.96,31.18,67.73,10.08,4.37c2.98,6.03,4.48,13.94.54,19.91l-4.12,6.24c3.15,19.37,15.22,38.31,20.33,54.75,6.68,21.48,14.58,41.32,23.49,62.01l26.33,61.11,11.76,30.8,15.39,37.69c2.1-1.66,7.37-3.69,8.9-1.63,5.59,7.52,5.39,22.97,1.92,25.82-1.18.97-4.86.41-6.25-.47-6.49-3.3-9.45-10.07-6.61-17.13l-14.55-36.06-14.4-37.17-26.95-62.61c-8.7-20.22-16.31-39.6-22.84-60.59-3.14-10.1-8.74-19.08-12.16-29.01l-8.83-25.65-5.9-10.98c-3.64-6.76-3.8-13.8-.11-20.33l-31.96-69.22-34.08-64.82-29-46.95c-1.68,3.77-3.06,6.47-5.1,8.64s-6.35,1.46-8.57,2.1l-8.55,2.48-7.68,12.22-7.48,12.19-19.93,29.4-20.06,33.39c-3.07,5.11-5.46,11.02-9.44,15.29-4.5,4.82-8.62,9.22-12.06,14.76-6.42,10.33-12.68,10.83-19.46,22.68-4.42,7.72-9.13,14.67-14.63,21.47l-8.26,10.23c1.57,6.64.24,13.96-5.42,18.46-2.92,2.32-8.11,1.43-11.07-.7-2.24-1.61-4.42-6.17-4.13-9.57.5-5.97-1.78-8.14-4.38-12.52-5.67-9.58-10.45-19.9-18.33-28-7.25-7.45-12.46-15.49-18.28-24.07l-14.26-16.85c-1.33,2.78-3.16,5.9-5.54,7.4-1.66,1.05-6.63.2-7.99-1.18-1.58-1.61-3.17-5.04-4.5-7.94l-9.04,16.28-10.49,18.39-13.39,21.69-24.22,36.48-14.18,19.96c1.43,5.16,2.97,11.41.94,16.32l-4.48,10.85c-.41.99-2.23,2.65-3.18,2.8-3.53.58-2.54-6.28-6.08-9.6l-17.74,33.52-12.7,24.21-10.87,22.21-7.75,14.82c3.86.93,5.55,2.9,5.69,6.47.34,8.68-5.23,17.24-13.12,19.84l-3.21-2.39c-.58-.43-1.22,2.36-1.64,3.04l-19.23,31.16-12.72,20.42-11.09,18.78c-2.27,3.85-6.85,8.12-6.53,12.84.36,5.22,2.85,12.51-1.99,16.79-4,3.55-12.56-.17-14.5-4.53-2.93-6.08-3.55-11.43-.23-17.18-2.94-10.52-7.88-19.51-12.49-29.1l-9.69-20.15c-9.78-20.34-18.64-40.58-31.62-59.2-.45-.06-1.78-.23-.92-.12-1.31,3.01-2.31,5-3.71,5.94s-5.8.02-6.76-1.44c-4.9-7.48-8.1-21.83-1.58-28.77-.95-4.21-4.1-8.54-6.72-12.38l-13.48-19.73-27.24-43.68-11.7-18.13c-1.58,3.7-3.48,6.79-6.03,7.39-3.93.93-6.76-1.81-8.64-5.63l-7.64,10.39-16.56,21.62-16.81,20.17-21.12,26.29-20.57,27.99-9.07,13.31c2.81,6.32,1.73,12.52-3.23,16.51-2.7,2.17-5.61,2.28-8.7.25-3.88,4.42-7.04,10.32-10.37,15.75l-17.98,29.36-22.77,33.85-16.91,27.42-8.65,15.96c1.36,6.28,1.54,14.23-3.28,18.3-2.4,2.03-8.93,2.54-11.57,1.16-6.44-3.37,1.44-12.86-2.82-17.93l-13.12-15.6-18-14.26-23.19-18.87-20.15-18.08-25.34-22.97-9.91-8.22-11.83.67-14.66,15.06-14.54,15.43-18.36,18.78-12.96,14.72-7.12,7.4-22.26,25.08-13.29,15.53-20.73,22.58-8.78,9.79-7.09,10.98Z"/>
    <path class="st7" d="M410.16,778.75l-29-13.05-63.76-27.76-23.42-9.44c1.05-4.16,1.37-9.91-2.86-11.87-2.76-1.28-9.12-2.39-11.89-1.27-4.01,1.63-4.07,7.01-3.52,11.55l-25.92,5.55-23.57,5.4c-9.96,2.28-19.52,4.59-29.59,5.34v4.02l8.69-.69,26.19-5.48,19.32-4.49,25.46-5.27c1.47,2.41,3.05,4.84,4.61,5.67,5.94,3.17,8.94-5.89,15.67-3.06l24.67,10.36,27.41,11.83,31.45,13.82,29.42,13.29c.95-.57,2.27-1.45,2.82-1.98.56-.53-1.2-2.03-2.18-2.47Z"/>
    <path class="st2" d="M1726.92,709.5c-1.35,2.95-1.73,6.11-1.82,9.52l-.31,10.93c-.03.96-2.02,2.91-2.84,2.81-1.03-.12-2.13-2.2-2.07-3.36l.9-16.83c.15-2.81,2.15-5.64,4.93-6.55s6.12,1.47,7.44,4.28l2.23,4.73c1.84-4.45,5.06-9.83,11.38-8.63,2.03,2.93,3.33,8.03,4.44,12.07,2.02-9.63,8.08-16.15,17.37-15.63,8,.44,3.37,8.56,7.86,16.95l5.96,11.15c.31.58.18,3.2.09,3.84s-2.33,1.36-2.63.78l-1.62-3.16-6.33-12.37c-4.85,6.94-13.33,10.32-19.38,5.05l.46,7.22c.04.63-1.4,2.47-2.02,2.37-.83-.13-1.86-1.46-2.04-2.34l-4.3-22.16c-3.17,2.26-4.76,4.53-5.68,7.6l-4.01,13.41c-.26.89-1.73,2.12-2.5,2.09-4.11-.15,3.2-15.66-5.51-23.78ZM1768.05,717.47l1.9-10.27c-5.49-.64-8.78,1.19-11.3,4.24-2.06,2.5-4.37,8.64-1.49,11.13,3.03,2.62,10.24-1.6,10.89-5.1Z"/>
    <path class="st9" d="M1785.17,715.4l-2.23-1.78c-.6-.48-.12-2.07.43-2.6s3.17-.16,3.77.56l8.17,9.65,6.25-8.65,1.2-2.75c.25-.57,2.02-.12,2.51.27.66.52,1.11,3.01.59,3.78l-7.42,10.98,9,9.8c.49.54,1.08,2.87,1.19,3.57.14.92-2.54,1.47-3.2.75l-9.12-9.86-9.16,13.61c-.57.85-2.62,2.04-3.32,2.43s-2.38-2.08-1.92-2.76l11.36-16.79-8.1-10.22Z"/>
  </g>
  <g>
    <path class="st8" d="M1659.66,846.8c-3.81-3.16-8.36-2.77-11.92.84l-10.99-19.32-16.53-26.56-27.35-42.62-9.6-16.25c-5.93-10.04-11.94-18.95-16.97-29.47l-19.36-30.89-17.63-37.72c3.89-6.48-.41-17.43-3.29-19.57-1.02-.76-3.99.07-6.3.95l-9.98-22.89-12.23-28.99-10.01-20.96-11.54-31.68-10.03-32.16-9.01-32.25-8.51-29.4c-2.21-7.65-5.08-14.7-8.77-21.39,2.38-6.52,1.86-12.41-.64-12l-2.46.4c-2.34-1.61-5.46-2.55-8.29-1.72-9.27,2.71-6.44,14.75-7.04,20.98-.44,4.55-2.52,10.05-4.43,14.45l-18.96,43.62-12.35,30.14c-3.36,8.19-5.62,17.41-10.08,24.93-7.05,11.87-12.32,22.91-16.76,36.01-5.15,15.2-12.69,29.26-20.06,43.51l-8.77,16.95c-4.77,9.22-8.87,19.05-14.68,27.4-3.59-.55-5.52-.55-8.75.03l-24.39-49.64-5.69-11.78-8.2-17.67-10.35-20.81c-1.89-3.79-5.74-9.06-5.6-13.39.27-8.48,1.35-20.35-3.77-23.06-.7-.37-2.34,1.59-2.14,2.36l1.87,7.27c-3.47-1.33-6.39-2.7-8.75-2.84-2.12-.13-6.09,2.91-6.75,4.93-1.73,5.31-.35,10.3,1.1,15.24l-13.1,22.21-17.55,25.65-19.43,30.16-10.07,16.6-5.51.56c-6.61,3.52-6.48,10.44-7.48,16.58l-9.13,14.3c-6.29,9.85-13,18.15-20.34,27.04-8.39,10.15-14.43,21.98-21.95,32.44l-13,4.87c-3.3,1.23-3,7.19-2.99,10.12l-11.45,8.29-40.9,29.13-15.83,11.65c-1.41-2.74-3.52-5.47-5.26-5.53-2.59-.1-4.7,2.27-6.44,5.78-10.03-9.86-20.84-19.47-29.56-30.92l-13.83-18.17c-4.07-5.34-8.55-9.93-13.58-14.41l-24.57-21.84c.82-4.15,1.16-8.72-.45-12.6-1.01-2.43-3.88-3.81-6.25-2.98l-1.86-1.25-13.43-42.26-12.86-33.31c-3.97-10.28-5.41-21.11-10.4-31.13l2.59-11.63c.57-2.58-.83-7.84-3.43-8.77-5.57-1.99-10.06,2.88-11.43,7.62l-2.4,8.27c-1.36,4.7-6.78,8.42-9.6,12.39l-18.87,26.61-18.01,24.12-10.26,13.6-14.02,20.24c-2.38-.53-6.5-.78-8.66.25-1.75,3.97-.98,9.36-.31,13.92l-17.72,22.73-18.13,27.17-15.16,21.87-13,16.01-14.99,14.65c-2.24,2.19-3.74-1.95-9.41-1.8-4.71.13-5.62,8.36-7.92,6.99l-14.01-8.36c-16.06-9.58-32.02-16.93-49.27-24.03l-29.64-14.61-14.08-7.38c-3.86-2.03,2.06-13.01-6.1-17.71-2.58-1.48-7.38-.84-10.08.97-5.77,3.86-1.87,12.25-6.99,14.23l-80.11,30.93-15.96,5.79-20.41,7.31-13.88,4.83-1.92.77c-.48.19-.64-.64-.89-1.64l-1.04-2.78c-.27-.72-2.19-1.74-2.45-1l-1.28,3.63c0,1.77-.05,4.89-.1,1.7l-4.64-5.15c-2.89.55-6.31,3.21-8.29,5.63-1.06,1.3-2.07,4.22-2.86,6.23l-43.9.44c-16.85.17-33.09-.22-50-1.17l-23.36-1.31c-.73-4.72-3.01-5.64-6.81-7.36-1.44-.65-3.93-2.43-5.36-2.48-4.13-.16-5.55,7-9.59,8.84l-28-1.37-26.89-1.43-22.31-.9c.04.24.06.47.06.72v3.58l21.26.84,27.46,1.46,29.52,1.35,4.49,9.49c6.7,3.04,14.99-1.08,16.04-8.42l24.2,1.36,37.35,1.69,15.6-.95,41.07.31c4.15,4.06,10.62,7.69,15.95,2.65l1.04-7.38,21.2-8.32,19.81-7.05,16.61-6.04,81.93-31.68c1.51,3.18,3.73,6.84,6.48,8.06,6.12,2.71,10.43-5.35,10.46-5.35.03,0,1.32.64,1.64.81l12.05,6.41,30.97,15.28c16.92,7,32.73,14.37,48.46,23.68l16.45,9.74c1.15,3.3,2.5,8.34,6.58,9.78,2.65.93,7.48-.77,9.06-2.58,2.22-2.56,2.25-7.23,1.91-10.88l21.83-22.43,19.49-25.85,13.84-22.27,26.64-34.81c2.19,1,4.79,1.94,6.04,1.73,4.89-.82,7.12-8.88,3.34-16.18l9.66-15.08,13.33-17.77,10.42-13.03,14.12-20.07,16.3-22.65,4.11-4.12c.39-.36.85-.79,1.15-1.07l3.72,5.23c.87,1.22,4.51-.61,6.77-2.05,4.14,8.42,5.36,18.23,8.81,27.18l13.14,34.05,12.5,39.04c.29.92.7,1.81.27,2.04l-2.75,1.43c-4.23,2.2-5.56,11.81-2.45,16.89l5.87,1.16c3.07.61,5.93.78,9.44.08l23.97,21.12c5.26,4.64,9.89,9.31,14.12,14.87l14.7,19.31,6.03,7.25,24.65,24.97c-.11,9.12,8.81,17.57,12.67,12.88,3.08-3.74,3.11-9.62,2.41-14.58l11.92-9.01,11.98-8.8,23.67-16.43,19.37-14.54c3.19,2.58,5.16,2.41,8.75,2.03,2.23-.24,6.17.35,8.17-.96,3.6-2.36,6.57-13.86,2.85-19.76l20.51-30.58c7.59-9.16,14.34-17.64,20.76-27.77l6.24-9.83,1.46-1.69c.74-.86,2.21,5.24,4.85,3.69,6.46-3.8,9.5-11.57,7.09-19.25l8.98-15.42,15.62-23.23,16.36-26.01,8.94-12.57,11.2-18.8c4.58,1.9,3.35,7.53,7.95,7.04l4.32-6.71c.22-.34,1.92-1.28,2.09-.91l.87,1.86,6.23,13.32,11.11,20.76,3.59,9.76,6.29,12.39,24.1,49.09-.32,12.51c-.05,2.17,3.22,6.51,5.36,6.94,3.14.62,8.74-.5,10.37-2.59,3.57-4.58,1.85-11.19.82-15.94l14.87-28.53,8.03-15.4,18.37-38.28,7.73-21.29c2.85-7.86,8.76-14.22,11.84-21.96l9.43-23.72,12.93-31.51,21.21-49.69c.25-.58.71-2.45,1.17-2.22l3.01,1.53c4.68,2.38,8.3-2.86,10-6.59l.88-1.93c.22-.49,1.74.82,1.91,1.38l12.84,43.17,8.6,30.8,10.26,32.93,11.23,30.96,10.59,22.48,12.55,29.7,9.51,22.29c-4.93,6.74-6.15,15.01-1.7,18.09,3.16,2.19,10.01-1.04,10.98,1.1l1.73,3.81,7.53,14.26,10.67,22.24c5.9,9.59,12.83,18.29,17.91,28.28,4.59,9.03,9.39,17.04,14.6,25.69l7,11.63,19.4,30.94,13.7,21.23,15.37,24.82,9.76,17.15c5.17,9.08,1.25,17.3,7.75,21.94,3.39,2.42,8.69,1.08,11.24-1.59,4.11-4.31,4.62-15.4-2.01-20.89ZM1429.46,419.22c-.88.3-2.1-1.6-2.72-3.89l5.69,1.12c-.55.9-2.1,2.47-2.97,2.77Z"/>
    <path class="st1" d="M1739.37,839.03l4-1.33c.88-.29,2.89,2.04,2.89,3.14,0,4.74-4.13,10.68-9.76,11.57,1.13,3.15,2.4,6.04,4.04,7.04,1.95,1.19,6.29.94,8.16.26,12.77-4.57,3.83-13.65,11.95-20.93,2.39-2.14,7.39-3.34,10.12-1.22l2.31,7.9,4.78,21.12c.16.71-.24,2.65-.63,3.26-.48.75-3.15-.64-3.37-1.62l-3.18-14.35c-1.75,2.09-3.43,4.14-4.86,4.84s-5.04-.32-6.72-1.36c-3.26,3.69-8.25,7.01-13.7,7.31-6.43.36-10.33-3.66-12.32-9.03-2.44-6.58-1.35-14.1,6.27-16.62ZM1760.67,851.38c.17,1.48,2.48,4.03,3.44,3.42,2.98-1.88,4.64-8.92,1.65-13.84-4.39,1.56-5.66,5.31-5.09,10.42ZM1737.22,847.64l5.18-4.95c-2.95.13-5.02,2.29-5.18,4.95Z"/>
    <path class="st6" d="M1707.04,845.09c-4.9,8.52-3.63,24.77-7.49,20.36-.52-.6-1.27-2.14-1.24-2.96l.61-13.64,5.01-6.54c.71-.92,2.05-2.14,2.84-2.61s3.49.9,3.73,1.79l2.24,8.42,4.68-10.1c.49-1.06,3.7-2.25,4.69-1.82s2.34,2.47,2.37,4.03l.41,20.61c.02.8-1.34,2.44-1.79,2.86s-2.32-1.03-2.35-1.7l-.68-19.59-7.89,19.39c-.36.88-1.92,2.17-2.61,2.07-3.8-.52.44-11.94-2.51-20.55Z"/>
    <path class="st0" d="M1786.05,860.02c-.17.5-1.73,1.94-2.24,1.91-.68-.04-1.98-1.71-2.01-2.41l-.61-13.79c-.03-.61.56-2.27.95-2.7s2.16-.43,2.33.12l1.33,4.32c1.03-2.13,3.53-6.04,5.83-6.81,3.9-1.3,6.59,2.83,7.08,6.34l2.58,18.73c.14,1.01-1.06,3.54-1.59,4.21s-2.67.37-3.71.05c.26-8.76.2-16.69-2.49-25.55-1.96,1.76-3.3,3.72-4.14,6.13l-3.29,9.45Z"/>
  </g>
  <g>
    <path class="st7" d="M1659.56,885.05l-8.32-7.85c-.59-.55-1.83-2.86-2.4-2.47l-3,2.09-16.18-8.1-26.26-13.89-28.24-13.99c-10.26-5.08-20.01-8.73-29.88-14.6-7.28-4.33-15.76-6.81-23.48-10.51l-24.35-11.67c1.3-7.53-.66-18.82-4.31-20-1.58-.51-5.16.51-6.27,1.69l-5.06,5.35-22.38-14.79-11.12-7.49-20.19-13.91-31.44-20.9c5.24-6.04,5.4-14.88-.44-20.51-4.86-4.69-9.94,2.95-17.13,4.57l1.58,4.25-13.67,8.78c-7.52,4.83-13.81,12.03-21.6,16.2l-24.17,12.93-15.48,8.55c-.77.43-2.24,1.1-2.42.5l-.71-2.29c-.4-1.31-2.48-3.93-3.81-3.72-1.14.18-2.99,1.92-4.02,2.59-5.57,3.59-8.66,8.15-9.04,14.96-10.53,5.16-22.66,7.1-34,10.24l-15.79,4.37c-.37-3.69-.86-7.53-1.74-10.16-7.64-3.8-19.24,6.97-19.71,16.86l-18.93,5.83c-5.06,1.56-11.47,2.75-16.28,3.06-1.07-2.47-2.08-4.92-3.32-5.5-2.65-1.25-4.79,3.32-8.48,3.27l-43.06-13.84-2.11-9.14c-.27-1.18-2.09-3.42-3.18-3.7-1.09-.28-2.91.96-3.92,1.85l-5.15,4.51c-2.07,1.81-4.03,4.35-5.12,7.28l-48.56,21.17-16.26,7.38-14.31,5.62c-6.78-4.49-7.15,4.44-17.06.3l-31.24-13.04-11.37-5.16-29.22-14.14-21.14-10.62-10.49-4.92-11.22-4.37-7.37-2.89-2.09-9.19c-.83-3.67-7.03-5.33-9.41-2.35-3.16,3.96-4.75,8.46-6.29,13.63l-11.07.9-13.56.14-28.02,3.15c-.52-7.19-2.59-12.01-8.29-15.69l-9.92,12.68,1.51,12.45-23.47,14.76-23.78,18.31-18.41,11.51-16.16,9.64-5.08,4.52c-2.08-2.81-4.75-6.82-7.7-7.55-3.59-.88-6.5,3.47-8.44,5.89l-14.71-2.88-35.53-8.88-25.68-4.18-50.56-10.5c2.96-5.21,2.48-10.63-.49-15.48-2.21-3.61-5.85-5.35-10.04-4.47-8.64,1.8-4.2,11.75-13.51,15.96l-15.69,7.09-21.92,11.86-20.11,8.9c-14.59,6.46-28.62,11.24-44.35,14.65l-15.16,5.31-5.1-5.95-3.89-4.52c-.97-1.13-5.36.08-6.13,1.38-1.61,2.73-2.3,6.59-2.5,10.46l-32.54-7.77-37.86-9.5-29.52-6.51c-7.46-1.65-15.34-3.14-21.86-6.93.02-5.42-1.75-12.11-8.03-12.7-6.28-.59-9.63,6.71-11.34,11.84l-18.46,9.21-19.98,9.95-26.26,13.04-12.94,4.8c1.19.91,1.8,2.37,1.85,3.85,4.38-1.17,10.08-3.25,16.34-6.4l23.47-11.79,18.04-8.85c6.03-2.96,11.75-6.85,17.68-8.9,1.04,4.6,1.54,6.85,3.27,10.3,1.05,2.1,5.99,3.49,7.87,1.91,3.58-3.02,5.68-6.98,7.99-11.32l15.18,4.88,35.66,7.68,37.08,9.33,31.33,7.49c4.9,1.17,1.86,9.46,9.57,10.5,2.13.29,5.71,0,7.39-1.12,3.29-2.19,1.64-9,4.51-10.05l13.18-4.84,17.74-4.47,18.05-6.34,22.21-9.52,30.08-15.29,20.91-9.58c2.27,3.7,4.38,5.66,7.72,6.84l4.74,1.67c1.07.38,3-1.86,3.96-2.68l5.6,1.03,45.79,9.67,25.67,4.17,35.51,8.83,14.94,3.48c-.22,5.41.04,9.82,3.88,13.21,1.58,1.39,6.05.12,8.15-.59,7.97-2.67,1.65-8.7,8.48-13.44l9.76-6.77,11.8-6.9,16.27-10.36,24.57-18.61,21.27-13.27c4.99,1.37,12.57-4.26,15.07-10.19l31.24-3.2,23.87-1.11,9.05,10.49c6.72-3.03,4.17-12.95,10.54-10.63l13.83,5.04,10.46,4.88,21.02,10.61,41.42,19.48,32.01,13.55c-5.16,5.35-.67,14.17,3.89,18.46,1.02.96,4.82.68,5.98-.14l6.12-4.34c4.23-3,4.66-9.45,3.1-14.65l12.32-5.09,23.26-10.28,16.31-6.41,17.1-7.64,9.33-4.27c.8,3.82,2.84,8.07,5.83,8.19,5.37.23,7.14-4.65,9.32-8.8,2.85-.85,6.93.77,10.06,1.78l28.09,9.05,6.79,2.4c-2.71,4.35-3.59,7.39-2.06,10.83,1.04,2.33,5.28,5.29,8.54,3.98,4.59-1.84,12.29-9.04,12.36-8.65l-.64-3.96,30.66-8.67c.13,1.8.58,5.57,1.44,6.94,5.57,3.28,17.42-5.3,18.84-13.46l33.71-8.82,17.82-5.49c1.03,2.96,3.29,6.66,5.46,7.05,7.22,1.3,11.48-3.25,13.18-9.24.96-3.36,1.24-5.47.25-9.62l18.81-10.54,23-12.16c7.73-4.09,14.1-11.4,21.5-16.21l12.04-7.82,1.16,6.32c.2,1.09,3.21-.36,4.24-.42,3.37-.2,6.97,3.45,9.86,5.39l31.42,21.1,17.75,12.32,12.36,8.3,21.64,14.54c1.68,4.97,1.92,12.27,6.26,15.98,2.35,2.01,6.21-.57,8-3.4l26.52,12.25c7.79,3.6,16.19,6.19,23.51,10.52,10.05,5.95,20.11,9.67,30.57,14.87l22.51,11.18,12.95,6.72,32.02,16.86,1.82,12.11c.68,4.53,6.3,5.53,10.17,4.47,2.46-.67,5.25-2.19,6.38-3.74,1.07-1.47.98-6.19-.42-7.51Z"/>
    <path class="st2" d="M1706.95,907.73c-.14.79-1.07,2.51-1.43,3.07-.48.75-3.23-.78-3.14-1.79l1.02-11.4c.39-4.41,1.62-11.91,8.05-11.47,3.03.2,4.12,7.17,4.49,10.1,2.72-5.31,5.09-10.89,10.91-12.5,1.36.96,3.66,4.47,3.76,6.29l.87,15.11c.05.8-1.44,3.07-2.14,2.98-4.34-.53-.59-10.55-3.87-19.93l-8.9,15.95c-.51.92-1.89,1.99-2.6,2.03-3.93.22-.78-9.33-3.98-15.2l-3.02,16.78Z"/>
    <path class="st2" d="M1754.2,916.44l-.72-16.86-.14-3.19c-.03-.8,3.78-.34,3.9.42l1.19,7.61c1.74-5.72,4.83-12.22,11.54-13.34,2.56,1.12,5.5,5.1,6.2,8.22l4.47,19.91c.21.95-.57,3.24-.91,3.87s-2.99-.31-3.17-1.17l-4.6-22.26c-.23-1.1-1.73-3.13-2.54-3.58-.96-.54-3.78,1.66-4.17,2.82l-6.03,17.47c-.3.87-1.47,2.4-2.19,2.91s-2.78-1.71-2.83-2.81Z"/>
    <path class="st4" d="M1743.44,910.27c-3.44,2.65-.81-5.4-2.48-11.32l-.64-2.27c-.18-.63,2.75-1.01,3.23-.53,3.06,3.05,3.96,10.98-.11,14.11Z"/>
  </g>
  <g>
    <path class="st8" d="M1644.05,906.27l-3.33-.5-27.57-.06-9.98-.08-60.52-2.63-15.81-.59-31.72-3.4c-15.68-1.68-30.59-4.09-46.42-2.44-17.01,1.78-33.3,2.19-50.55.57l-59.59-5.59c-9.88-.93-19.21-.59-29.04-.04l-20.81,1.17c-19.53,1.1-38.45-.82-57.8-3.26-12.77-1.61-24.77-2.04-37.68-.6l-31.92.71-17.5-.23-21.66-.19-13.11.27-35.11,2.1-9.49.61-26.62,1.25-17.58.38-33.05-.86-39.96-1.36-46.31-1.97-58.91-1c-10.95-.19-21.06-.18-31.99.13l-24.47.7c-12.53,1.75-23.68,1.9-36.35,1.13l-8.14-.49c-12.92-.79-25.12-1.93-38.14-.97-16.34,1.21-31.98,1.15-48.33.05l-30.78.2-11.83-.07-20.2-.5c-9.51-.23-17.62.99-27.06,1.85l-21.42,1.97c-5.69.52-11.56-1.45-17.05-.04-8.07,2.08-15.83,2.16-24.12,2.86l-24.24,2.04-56.89,2.09-17.69,1.44-35.96.57-27.92-.7-26.31-2.01c-9.06-.69-17.89-.91-26.86-3.07-14.88-3.58-29.46-3.73-44.67-5.15l-27.83-2.61c-6.06-.57-11.38.29-17.34-1.47l-12.1-3.57.32-6.54c-.01-.34,0-.68.05-1.01l.65-13.2.35-19.16.1-27.09-.09-18.46c-.09-.36-.14-.73-.14-1.1v-6.01c0-.39.05-.76.13-1.11h-.22s.53-31.06.53-31.06l-.15-9.66-2.77-1.73-1.23,9.34-.6,39.64.31,20.3-.15,30.97-.34,16.09c-.14,6.55.02,12.71-2.17,18.78-.65,1.81-.86,4.26-.6,5.78l5.67-.74c.86-.11,2.38.49,3.34.84,6.1,2.27,13.3,4.63,20.23,4.75l18.76.32,16.22,2.1c14.5.39,27.88,1.48,41.9,4.67,8.62,1.97,17.39,2.81,26.1,3.4l27.99,1.91,32.3.69,31.48-.45,22.54-1.77,51.58-1.63,24.07-2.06c10.49-.9,20.01-1.52,30.55-3.46l14.27.67,19.56-2.03c9.61-1,17.97-1.98,27.43-1.82l20.55.34,16.4-.03,43.86.79,14.01.03c14.61.03,28.98-2.26,43.6-.92l17.16,1.58c12.97,1.2,24.92.54,37.98-1l28.22-1.2,17.65-.44,32.49,1.03.68,12.28c.17,2.99-.89,6.31-2.11,9.08l-1.1,2.5c-.32.73,2,2.54,2.59,2.01,4.06-3.69,5-8.8,4.79-14.75l-.4-11.06,33.05.5,40.96,1.76,14.69.52,39.64,1.3,27.23.5,36.5-1.31,12.66-.74,37.62-2.3,9.01-.19,23.78.19,16.47.27,35-.92c12.04-.32,23.02-.63,35.02.77,17.6,2.05,34.78,4.32,52.48,3.45l25.82-1.26c10.49-.51,20.34-1.02,30.84,0l26.85,2.58,30.9,2.87c18.01,1.68,35.24,1.29,53.09-.51,13.37-1.35,26.05.14,39.43,1.66l36.94,4.2,15.86.6,62.17,2.66,21.21-.55c2.94-.08,6.64.77,9.44,1.43,1.95.3,6.3-.28,8.19-.87.77-.24,1.33-3.53.52-3.65Z"/>
    <path class="st3" d="M139.01,134.13l-.18,2.31c-.62,8.01-11.33,16.03-17.13,12.07-1.74-1.18-2.92-4.83-3.25-7.13-2.38,3.45-5.02,6.53-8.98,8.23-1.54.66-5.85-.41-6.55-1.94l-2.54-5.59-3.62,10.04c-.28.78-1.4,1.98-2.01,2.43s-2.24-2.6-2.02-3.3l3.68-11.73,4.21.48c.31-4.53,1.14-11.25,5.08-13.43,5.88-3.26,13.36-.68,14.48,5.28l6.57-6.47,3.11-2.68c1.73-1.49,9.54,6.15,9.13,11.45ZM126.51,131.15c-4.34,3.75-4.81,10.16-2.19,14.19,1.84.11,4.93-1.37,6.32-2.54,5.03-4.21,5.46-10.68.93-15.03.15,2.29-.5,5.76-2.21,6.49-.93.39-2.89-2.69-2.84-3.11ZM106.98,145.86c6.57-2.1,9.89-8.75,8.44-14.66-.85-1.92-6.68-2.39-7.99-.53-2.91,4.14-3.62,10.6-.46,15.2Z"/>
    <path class="st6" d="M1663.14,991.6l.55-20.79-1.57-3.28c-.33-.69,1.68-2.18,2.39-1.9s2.86,1.98,2.9,2.75l.76,13.41c2.88-7.14,7.6-14.11,11.44-11.68.91.57,2.17,2.55,2.28,3.69l1.37,13.75c4.82-6.64,9.29-15.75,14.93-14.16.99.28,2.36,2.3,2.37,3.69l.19,21.21c0,.85-1.98,2.75-2.54,2.35s-1.5-1.95-1.51-2.72l-.37-20.14c-7.21,5.15-8.58,15.87-16.6,18.08l-2.31-21.98-8.48,16.49-1.89,2.39c-.52.66-3.95-.12-3.93-1.16Z"/>
    <path class="st6" d="M803.46,945.47c-1.89-7.08,3.35-11.81,8.86-14.27,3.86-1.72,6.43-1.32,10.12,1.08,1.59,1.03,5.4,3.55,4.44,5.8-1.58,3.69-3.69,5.97-6.54,9.2l8.1,2.74c2.19,8.35-8.82,18.39-18.54,20.57-2.4-3.28-5.05-7.6-4.82-11.6.27-4.6,4.32-8.16,7.67-11.63l-9.29-1.9ZM809.26,959.46c-.28,1.46,1.84,4.97,2.9,6.38,5.36-3,9.49-7.02,12.8-12.13l-8.24-3.7c-2.53,1.84-6.65,5.31-7.45,9.45ZM807.1,941.57l9.47,2.78c1.94-1.38,5.01-4.78,5.9-6.66-5.01-2.12-6.32-1.1-9.72.08-2.51.87-5.11,1.88-5.66,3.8Z"/>
    <path class="st6" d="M151,970.65l3.17-7.49-9.16-.51c-4.39-.25.06-11.15,9.06-16.94,2.57-1.66,9.06-2.09,11.78-2.13l5.92,6.35-10.64,9.37c1.98.16,5.86.54,6.91,2,2.12,2.97,2.24,8.62.03,11.8-4.44,6.37-12.28,8.31-15.83,4.5-1.36-1.46-1.92-5.31-1.23-6.94ZM154.6,974.43c3.92,1.6,6.89-.08,8.67-1.85,1.95-1.93,2.48-5.31,1.77-8.56-1.62-.21-5-.16-6.53.24-1.49,2.8-3.16,7.19-3.91,10.17ZM148.09,958.25l7.59.86,9.03-8.92c-3.48-3.43-9.04-1.73-12.06,2.17l-4.56,5.88Z"/>
    <path class="st6" d="M207.62,975.84l-2.14-12.89c.03-.91,2.52-2.2,3-1.38l2.63,4.42,3.39-7.24c.37-.8,2.79-1.77,3.69-1.63s2.85,1.94,2.95,2.85l1.06,9.57c2.67-6.09,5.21-11.83,10.54-16.64,1.51-1.36,5.91,1.46,6.22,3.46l3.02,20.04c.17,1.13-.61,3.28-1.55,3.8-5.2,2.93-1.71-12.39-5.98-23.4-7.68,8.01-7.87,20.98-16.99,22.32l-.25-16.27-5.52,14.32c-.25.65-2.1,2-2.55,1.56s-1.4-2-1.54-2.87Z"/>
    <path class="st3" d="M924.72,959.04l-.59-15.11-.56-4.55c-.13-1.04,4.36-1.18,4.47-.14l1.25,12.44,2.55-5.11c1.18-2.36,4.12-5.99,7.67-4.43,1.48,3.05,2.17,8.55,2.98,13.01,2.92-7.49,8.07-15.72,13.15-13.88.83.3,2.01,2.25,2.01,3.2l-.06,16.23c0,.67-2.46,2.14-2.85,1.63-.52-.69-1.38-2.44-1.38-3.43l-.03-12.8c-6.74,4.3-4.68,14.65-14.17,15.31l-2.55-14.28-7.08,13.33c-.39.73-2.94,1.83-3.55,1.38s-1.23-2.02-1.26-2.8Z"/>
    <path class="st0" d="M868,950.61l.07-1.85,3.26-8.74c.32-.87,2.32-2.24,3.08-1.97,4.12,1.42-3.16,7.79-1.36,15.47.86,3.67,4.42,6.64,7.43,6.44,3.8-.25,6.42-2.85,7.7-6.57,2.71-7.85-1.29-15.89-8.57-20.11-.54,1.23-2.78,2.92-3.74,2.22-2.19-1.59-.26-8.79,3.29-7.45,4.4,1.67,9,6.71,11.57,10.89,4.4,7.14,2.9,16.87-2.84,22.54-1.62,1.6-6.55,3.1-8.72,2.69-6.61-1.25-10.65-7.72-11.18-13.57Z"/>
    <path class="st0" d="M1622.75,967.31l-6.03,2.53c-1.37.58-4.21-1.49-4.91-3.27-2.35-6.01-.23-15.92,5.76-18.75,5.9-2.78,9.39,4.16,9.52,8.96l.73,26.79c.03.92-.92,2.79-1.51,3.35s-2.58-1.55-2.63-2.53l-.94-17.07ZM1621.72,958.28l-.79-7.48c-5.89,3.02-6.98,9.58-4.69,14.93,2.99-1.34,5.72-5.05,5.47-7.45Z"/>
    <path class="st3" d="M868.06,948.77l-.07,1.85c-5.82,11.31-20.78,15.05-20.91,11.02s12.07-1.78,16.83-13.32c-8.64-.93-15.68,4.09-16.42.44-.58-2.86,7.08-4.82,11.4-12.59l-7.59.09c-.87,0-2.69-.95-3.25-1.54s1.51-2.6,2.4-2.67l7.95-.58c1.07-.08,3.52.79,3.97,1.77s.42,3.64.23,4.77l-3.95,5.98,7.03.6c1.42.12,2.18,2.79,2.39,4.19Z"/>
    <path class="st0" d="M124.05,906.86c-3.24-3.78-4.01-8.12-3.17-12.71.95-5.24,3.32-7.89,7.97-10.07,4.95-2.32,12.33-2.46,14.61,4.17,1.5,4.36-.01,12.01-3.76,15.08l-7.79,6.4c-.83.68-4.24,1.36-4.9.59l-2.96-3.46ZM129.85,906.27l6.47-5.55c2.72-2.33,5.19-9.7,1.98-12.55-4.07-3.61-11.17,1.15-12.66,4.82-1.99,4.89-.52,10.85,4.21,13.28Z"/>
    <path class="st11" d="M102.34,503.41c-2.86-1.3-6.92,8.6-8.1,1.84l-3.15-18.06c8.31-3.24,18.5-3.77,17.74-.36-.17.77-1.48,1.9-2.37,1.97l-10.58.88,1.91,10.29c4.86-2.15,8.24-.41,10.33,3.48,1.61,2.98,3.04,8.09-.7,10.67-3.1,2.14-12.51,2.17-13.65-.7-.33-.83,1.4-2.19,2.41-2.23l9.14-.35c.66-2.35-.77-6.42-2.98-7.43Z"/>
    <path class="st11" d="M909.06,942.47c0,.81-.94,2.96-1.71,3.21s-1.92-.73-3.46-1.91c-3.98,4.21-6.3,9.74-3.23,12.72.82.79,4.21.92,4.86-.02,2.55-3.73,1.34-6.47,3.27-10.69.36-.78,2.96,0,3.37.88l7.09,15.12c.46.98.59,2.43.07,2.99s-3.15.08-3.51-.6l-4.44-8.24c-2.08,2.75-5.22,5.77-8.06,5.72-3.44-.06-7.48-2.84-8.08-6.59-1.14-7.15,4.34-16.43,12.14-16.39.96,0,1.69,2.5,1.68,3.8Z"/>
    <path class="st3" d="M1651.06,979.43c-1.78,3.35-5.72,7.13-8.82,4.16-5.15-4.93-3.53-14.22,1.89-18.68,3.54-2.91,11.11-.38,11.24,4.07l.57,20.78c.02.81-.44,2.62-.66,3.3s-3.04-.46-3.1-1.18l-1.11-12.45ZM1645.34,980.14l4.95-8.48-.83-3.18c-.2-.76-2.96-.17-3.52.48-2.28,2.68-4.35,8.36-.6,11.18Z"/>
    <path class="st0" d="M184.24,981.62c-3.84-1.47-6.99-4.84-7.91-7.62-1.5-4.55-.84-8.7,2.32-12.23,3.59-4.01,12.24-4.24,15.59-.29l3.28,15.36-4.74,1.43c-1.4,2.99-4.58,4.87-8.55,3.35ZM189.09,976.77c1.01-3.32,1.74-10.02,1.7-12.32l-6.55-.65c-4-.39-5.29,5.64-4.02,8.5s4.63,7.34,8.87,4.47Z"/>
    <path class="st0" d="M183.96,886.92c.86-.11,2.38.49,3.34.84-.57,0-2.19-.1-2.18.45l.02,2.09-.93,9.96.86,24.16c.04,1.13-2.36,3.61-3.03,3.01s-1.4-2.37-1.43-3.37l-.66-30.53c-9.56-1.55-15.58,2.45-20.96,1.1-.68-.17.47-3.27,1.2-3.4l17.4-3.02c.85-.15,3.55,1.75,4.14,1.14l2.23-2.44Z"/>
    <path class="st11" d="M119.81,511.54c-2.17-9.75,1.25-23.98,10.23-23.16,5.61,8.57,6.97,24.79-.72,27.31-3.18,1.04-8.46.56-9.51-4.15ZM124.01,510.84c.54,2.01,5.8.86,5.97-1.02.56-6.35.68-11.53-2.63-17.27l-.67,5.1-2.44,3.12c-1.53,1.96-1.08,6.87-.23,10.07Z"/>
    <path class="st16" d="M138.83,136.43l.18-2.31,2.4-3.2c2.32-3.93,5.1-6.03,9.27-4.22l1.25-2.76c.34-.74,2.96-.06,3.46.64,4.78,6.53,3.13,17-4.84,20.5-1.69.74-4.99,1-6.42.45s-3.19-3.39-3.62-4.9l-1.68-4.19ZM145,132.92c-1.01,1.34-1.32,7.25.75,8.23,3.2,1.42,6.69-2.08,7.37-4.45.87-3.07.54-6.44-.56-9.18l-2.14,6.79c-.19.6-2.6,1.51-3.05,1.05l-2.37-2.43Z"/>
    <path class="st0" d="M139,514.03c-3.12-7.24-.81-15.91,4.69-20.78,7.42.23,9.63,11.37,7.8,20.52-.42,2.08-3.55,4.79-5.38,4.98-2.57.27-5.79-1.69-7.1-4.73ZM146.11,515c3.12-6.06,2.21-12.35-1.13-17.07-3.79,5.53-5.32,13.58,1.13,17.07Z"/>
    <path class="st13" d="M189.88,123.62c-1.17,1.23-3.77,2.3-5.93,2.2-12.84-.59-18.68,9.64-19.49,1.67,5.59-3.51,14.48-7.05,21.49-6.25.82.09,2.6,1.6,2.96,1.07l1.21-1.78-.24,3.08Z"/>
    <path class="st15" d="M83.21,125.29c-.15-.9,1.61-3.41,2.34-3.04s1.99,1.87,2.13,2.72l3.14,20.1c.15.93-1.38,2.58-2.03,2.23s-2.14-1.92-2.28-2.73l-3.29-19.27Z"/>
    <path class="st5" d="M1642.74,927.73l-.25-14.03c-.02-.88,2.69-2.03,3.32-1.41s1.17,2.02,1.2,3.48l.37,15.1c.02.97-2.98,2-3.63,1.43-.8-.71-.97-2.05-1.02-4.57Z"/>
    <circle class="st12" cx="837.8" cy="957.79" r="2.74"/>
    <path class="st10" d="M835.16,937.55c-.83.26-2.66-3.47-1.9-3.92l2.91-1.71c.75-.44,2.75,1.42,2.74,2.3-.01.93-2.32,2.88-3.76,3.33Z"/>
  </g>
  <path class="st14" d="M1426.75,415.33l5.69,1.12c-.55.9-2.1,2.47-2.97,2.77s-2.1-1.6-2.72-3.89Z"/>
</svg>