<?xml version="1.0" encoding="UTF-8"?>
<svg id="Layer_1" xmlns="http://www.w3.org/2000/svg" version="1.1" viewBox="0 0 1920 550">
  <!-- Generator: Adobe Illustrator 30.3.0, SVG Export Plug-In . SVG Version: 2.1.3 Build 182)  -->
  <defs>
    <style>
      .st0 {
        fill: #f1f1f1;
      }

      .st1 {
        fill: #e0e0e0;
      }

      .st2 {
        fill: #5f5f5f;
      }

      .st3 {
        fill: #e6e6e6;
      }

      .st4 {
        fill: #e2e2e2;
      }

      .st5 {
        fill: #f6f6f6;
      }

      .st6 {
        fill: #ebebeb;
      }

      .st7 {
        fill: #f4f4f4;
      }

      .st8 {
        fill: #e5e5e5;
      }

      .st9 {
        fill: #5c5c5c;
      }

      .st10 {
        fill: #606060;
      }

      .st11 {
        fill: #5d5d5d;
      }

      .st12 {
        fill: #d7d7d7;
      }

      .st13 {
        fill: #f9f9f9;
      }

      .st14 {
        fill: #fafafa;
      }

      .st15 {
        fill: #e9e9e9;
      }

      .st16 {
        fill: #f8f8f8;
      }

      .st17 {
        fill: #f7f7f7;
      }

      .st18 {
        fill: #fefefe;
      }

      .st19 {
        fill: #5e5e5e;
      }

      .st20 {
        fill: #d5d5d5;
      }

      .st21 {
        fill: #f2f2f2;
      }

      .st22 {
        fill: #f5f5f5;
      }

      .st23 {
        fill: #e1e1e1;
      }

      .st24 {
        fill: #f3f3f3;
      }

      .st25 {
        fill: #fbfbfb;
      }

      .st26 {
        fill: #616161;
      }

      .st27 {
        fill: #ededed;
      }
    </style>
  </defs>
  <g>
    <path class="st10" d="M736.26,341.8c-4.78,5.26-9.95,8.44-17.05,10.57l1.95,30.64c.05.86-.88,2.98-1.69,3.19-4.57,1.21-9.61-27.13-7.28-43.78,1.27-9.12,10.13-17.99,16.88-17.75,3.96.14,6.97,2.3,8.39,5.5,3.02-3.52,6.33-6.54,9.28-6.99,5.11-.78,9.95.41,12.72,3.97,4.24,5.45,6.11,11.28,4.23,17.86-1.54,5.39-5.81,9.01-11.31,12.86l-4.95,3.47,1.47,21.89c.06.86-1.03,2.9-1.75,3.35s-2.79-1.24-2.98-2.06l-5.14-21.13-2.77-21.6h-.01ZM745.15,340.2l2.23,15.05c10.37-4.39,15.21-13,10.71-21.73-2.33-4.53-5.43-6.32-10.38-5.72-3.14.38-5.94,4.22-6.3,8,.36.6,3.59,3.31,3.74,4.4h0ZM719.56,347.01c6.15-1.89,11.66-4.41,13.51-10.14.55-1.69.18-5.17-.87-6.25-3.03-3.15-9.81.4-13.6,7.25l.96,9.14Z"/>
    <path class="st2" d="M619.62,361.68c1.37.8,4.35,2.24,5.83,2.58,2.67.61,2.29-7.63,9.06-6.66l-1.01-28.63-1.92-10.94c-.15-.88,2.88-2.38,3.42-1.66l2.53,3.46,1.6,33.4c6.92-4.84,14.26-8.85,20.56-4.14l6.86-31.26.53-6.19c6.99,1.9,6.88-5.97,11.91-6.11,1.69-.04,4.4,3.16,4.67,5.16l5.69,42.13c1.03,7.63-6.4,21.59-8.85,18.41-2.73-3.57,6.83-11.09,3.35-24.4l-18,3.74c-.32,15.25-7.42,24.69-8.47,21.45l-1.8-5.57c-2.86,2-7.23,4.63-11.43,5.24-5.24.78-9.91-2.98-11.77-6.79l-5.26,4.21c-1.97,1.57-14.14-1.76-14.02-14.31.08-7.27,5.65-14.62,11-13.82,3.83.58,4.66,10.16.83,17.72l-5.33,2.98h.01ZM666.92,344.73l16.94-2.7-5.2-31.16c-4.33,4.74-6.4,10-7.77,16.07l-3.99,17.79h.01ZM636.36,362.16c1.77,4.69,6.85,5.96,11.3,3.65,4.98-2.58,8.27-7.93,7.84-14.34-4.19.34-8.66,1.91-11.73,4.47l-7.43,6.22h0Z"/>
    <path class="st19" d="M568.94,326.89c.33-1.07,4.09-.3,4.48,1.13l7.5,27.52,2.36-12.7c.24-1.32,2-3.9,3.32-4.14,5.94-1.04,8.59,17.58,16.39,27.71,2.68-18.91.77-35.6-.61-53.77.12-.69,1.13-2.85,1.74-2.49l2.95,1.73,1.4,51.98c-.85,3.78-1.95,7.75-5.72,9.27-7.61-7.61-10.75-17.32-15.01-27.57l-2.65,18.93c-.16,1.14-1.23,3.21-1.88,3.78s-2.42.18-3.83-.16l-8.86-32.24c-1.65-1.85-2.44-6.29-1.61-8.99h.01Z"/>
    <path class="st19" d="M622.4,122.91c1.44,1.84,3.16,3.69,4.5,4.01,5.2,1.21,7.82-5.93,13.14-7.98v-34.25c-1.12-1.55-2.23-3.43-1.91-4.51s3.05-2.46,3.99-1.84,2.57,3.23,2.57,4.38l.18,30.37c2.46-2.45,7.56-5.74,10.66-4.02,8.34,4.61,9.11,23.28,1.5,24.65-8.38,1.51-14.79-10.51-16.52-9.14l-3.44,2.74c-3.37,2.69-6.95,5.03-11.44,4.21-3.55-.64-6.95-4.77-8.29-8.87-2.83-8.65-1.49-17.95,6.44-23,1.43-.92,4.66-1.62,6.07-1.18,6.45,2.01,4.27,18.39-7.47,24.44h0ZM644.09,120.89l11.72,9.24c3.36-7.24,1.83-12.29-2.64-17.44l-9.1,8.2h.01ZM621.71,118.02c5.64-4.01,7.32-9.12,6.89-14.89-6.47,1.29-9.56,8.87-6.89,14.89Z"/>
    <path class="st19" d="M577.07,114.61c-4.1-8.06-8.85-11.9-5.34-13.98,1.13-.67,4.09.52,4.67,1.74l12.97,27.18,2.34-19.47c.11-.95,1.35-3.03,2.06-3.62,3.72-3.14,5.73,9.9,11.69,17.33l3.61-26.4c.55-4.02,1.97-8.5,4.18-12.28.9-1.53,5.23,1.07,5.14,3.02-.08,1.53-1.8,3.58-3.61,4.94l-4.91,37.93c-.15,1.16-1.7,4.13-2.7,3.65s-2.31-2.14-3.04-3.43l-8.21-14.26-1.51,13.36c-.25,2.24-6.6,5.39-7.63,3.37l-9.71-19.1h0Z"/>
    <path class="st10" d="M722.01,131.93l.86,19.76c.04.95-1.33,3.16-2.19,3.36-1.07.25-2.7-2-2.77-3.4l-1.88-34.3c-.16-.97-2.61-3.43-1.79-3.87l4.3-2.27c2.2-1.16,5.4-6.17,7.97-6.01,5.91.38,8.95,5.28,11.11,10.44,3.09-8.7,9.61-13.59,17.14-12.32,8.48,1.43,12.53,7.71,12.37,16.77-.08,4.84-1.23,10.16-4.72,13.48s-8.87,4.36-14.94,4.47l.76,18.29c.04.9-3.78,1.83-3.98.93l-.96-4.14-6.17-24.29c-3.33,4.07-7.27,5.5-15.14,3.08h.03ZM747.22,132.94c4.96.51,9.26-.48,11.88-2.94,2.92-2.72,3.37-7.32,3.28-11.16-.14-5.92-2.74-9.67-7.76-10.75-4.62-1-9.9,2-11.01,6.64.64,1.17,2.2,4,2.33,5.29l1.3,12.91h0ZM722.2,126.52c3.94,1.75,7.71,2.28,9.62,1.12,3.26-6.91,1.62-14.81-4.73-17.38-2.68-1.08-5.57,7.94-4.89,16.26h0Z"/>
    <path class="st2" d="M688.82,117.56c-2.97,8.87-9.43,21.92-11.53,19.69l-2.09-2.22,5.97-29.86c2.76-7.51,5.81-13.64,10.2-20.1,1.97-2.9,3.06-6.74,6.13-9.59,1.34-1.25,5.13,2.48,5.43,4.54,2.44,16.36,6.17,56.33-2.89,54.32-3.8-.84-.03-4.84.09-6.54l1.05-14.57-12.39,4.31h.02ZM690.22,111.96l10.92-4.07-3.09-25.69-7.82,29.76h-.01Z"/>
    <path class="st2" d="M688.72,457.65c-.38,1.09-4.85.44-4.61-.65l4.25-19.11,7.82-25.79,7.36-7.92c1.2-1.3,3.78-3.06,5.19-2.69s3.81,3.2,4.12,4.67c3.39,16.22,4.88,47.34-3.32,55.13-.52.48-3.1-1.22-2.81-2.09,2.07-6.3,5.51-17.3,3.17-25.33l-15.39,7.23-5.77,16.52v.02ZM696.02,434.69c7.01-3.01,8.83-3.96,14.7-5.22l-2.94-23.41c-4.51,4.93-5.94,9.27-7.79,14.61l-3.98,14.03h.01Z"/>
    <path class="st2" d="M754.77,459.22l7.75-1.22-2.99-17.2-3.32-1.87c-.8-.45.88-2.94,1.79-3.15l5.1-1.17c1.12-.26,1.13-3.93,2.18-4.99,3.91-3.92,10.75-1.2,15.16,2.6,6.36,5.47,14.02,11.99,12.58,21.64-6.21,5.79-15.94,7.32-25.3,8.56l3.55,31.5c-.2.71-.7,2.56-1.21,2.44l-3.49-.85-3.95-32.45c-2.95.31-6.45.56-7.88-3.85l.02.02ZM767.52,457.81c8.06-1.08,14.28-2.83,21.43-5.93-1.63-7.34-5.57-11.13-10.9-15.29-2.71-2.11-6.24-4.9-9.62-3.52-1.81,8.22-1.64,15.73-.91,24.73h0Z"/>
    <path class="st2" d="M727.65,444.64c-.18-2.26-2.05-5.25-3.17-6.98l3.8-4.37c1.26-2.86,2.56-5.4,4.28-7.08,1.6-1.54,7.08-1.9,8.75-.43,7.6,6.65,8.96,21.06,2.91,25.31-2.65,1.85-6.51,2.02-10.49,1.24l1.7,29.54c.06,1.07-1.24,3.26-1.98,3.78s-2.75-1.7-2.84-2.79l-2.97-38.23h0ZM733.15,444.97c1.38,2.27,5.7,3.66,7.37,2.83,6.26-3.14.62-20.42-3.88-18.36-4.35,1.99-5.68,11.9-3.49,15.52h0Z"/>
    <path class="st19" d="M569.27,427.04l2.63-4.34c.47-.78,2.76,1.86,2.79,2.46,1.67,11.72,4.31,22.04,8.69,32.82l.8-26.87c.03-.95.89-3.17,1.7-3.66,1-.61,3.76.73,4.56,1.53l11.43,35.47c2.65-4.47,3.66-8.23,4.68-12.76,1.19-15.86.53-30.98-1.53-46.82l1-3.05c.22-.68,2.62-.89,2.93-.26s.9,2.29.93,3.11l1.87,40.51c.41,8.86-5.18,25.47-9.31,25.3-.89-.04-3.22-1.22-3.56-2.15l-5.53-14.76-4.5-13.85-1.06,21.6c-.06,1.32-1.87,3.88-2.96,4.21s-3.23-.49-4.75-1.27l-10.82-37.21h.01Z"/>
    <path class="st11" d="M639.99,403.97c-.15-.91.55-3.17,1.36-3.24,1.02-.08,3.4,1.63,3.52,2.75l3.61,32.91c2.63-2.27,6.79-5.27,9.86-5.77,7.54-1.23,11.43,3.5,12.68,9.71,1.46,7.28-.46,15.14-6.86,18.56s-14.49,2.53-19.45-3.5l-1.86-34.18-2.86-17.24h0ZM647.97,451.75c4.15,5.37,12.13,6.07,16.4.85,3.3-4.03,3.62-13.15-.76-16.21-5.67-3.95-11.14,2.25-12.77,6.99l-2.87,8.36h0Z"/>
    <path class="st11" d="M632.98,425.89c3.25,6.53-1.54,17.17-4.44,22.18-.41.7-4.17,2-3.56,2.45l3.11,2.31c.93.7,3.39,1.8,4.52,2,3.03.54,4.21-4.91,7.67-3.38.81.36.82,2.89.25,3.77-3.13,4.86-9.78,5.49-14.72,2.02-3.82-2.68-7.93-5.83-8.99-9.12-1.83-5.67-.73-10.5,1.97-15.24,2.45-4.31,8.44-9.67,14.2-6.97h0ZM626.02,444.35l3.77-14.34c-7.84,2.38-9.34,8.68-9.16,15.31l5.39-.96Z"/>
  </g>
  <g>
    <path class="st2" d="M1301.83,478.54l11.09-.63-1.18,1.82,20.57-.48,23.19.93c.93.04,2.79,1.17,3.33,1.82s-2.07,2.84-3,2.83l-23.75-.45-22.02-.42-29.39.09-33.94.17-7.25,1.47c-1.22.25-3.79-2.38-3.47-3.6s2.72-2.52,4.17-2.54l33.3-.33,28.35-.69h.01Z"/>
    <path class="st16" d="M1422.14,443c-2.33,1.19-5.48,1.42-6.11-.26-.51-1.36,2.37-3.64,4.71-4.88l-1.75-16c-.09-.81,1.41-2.99,2.16-2.72s2.64,1.95,2.73,2.74l1.4,11.87c12.79.56,16.67,7.4,13.46,7.99-4.64.85-7.74-4.53-12.28-2.1l4.55,26.45c.15.86-1.77,3.56-2.6,3.42-1.05-.18-2.05-1.77-2.3-3.2l-3.97-23.28v-.02Z"/>
    <path class="st16" d="M1454.66,441.35l7.59,1.5c2.37.46,5.46,1.17,6.94,2.22s2.21,5.73,1.64,7.5c-2.15,6.69-7.12,11.53-14,12.93-3.09.63-7.39-1.17-8.57-4.04-2.98-7.29-.8-15.69,6.39-20.09h0ZM1454.22,460.32c6.82,1.02,12.72-5.77,11.96-12.12-3.94-.29-8.54.17-12.47,1.41-2.8.88-3.15,10.16.51,10.72h0Z"/>
    <path class="st11" d="M1727.68,471.15l27.08,2.31,10.51.91c11.63,1,22.81,3.63,34.43,3.31,9.49-.26,18.06.73,27.4,2.28l20.74,3.47-.26,3.42c-.08,1.01-3.28,1.8-4.31,1.58l-27.39-5.85c-17.74.43-34.5-.48-51.77-3.69l-39.03-2.76-.78-3.44c-.18-.77,2.42-1.62,3.41-1.54h-.01Z"/>
    <path class="st13" d="M1728.73,439.12c7.99-5.7,15.44-13.81,12.99-23.96-6.49-4.01-11.95,4.28-15.82,1.55-2.32-1.63,2.65-6.42,12.22-7.5,4.9-.56,8.37,2.72,8.77,6.87.74,7.67-2.37,13.98-7.68,20.23,5.21.53,8.74,2.27,10.92,5.78s2.06,8.44.07,12.16c-3.08,5.77-8.54,8.86-15.11,8.89-4.52.02-9.98-5.11-8.47-9.77,1.42-.96,4.3,1.56,5.69,3.16,3.09,3.57,8.34,1.51,11.26-1.29,2.77-2.64,5.57-7.66,1.66-11.84-2.93-3.14-9.86-2.59-14.23-.77-.88.37-3.12-2.9-2.27-3.49v-.02Z"/>
    <path class="st13" d="M1822.38,414.09c10.27-9.77,17.27-7.75,16.63-5.3l-1.06,4.01c-.26.97-3.55-.69-4.58-.8-6.36,3-12.55,8.69-11.25,13.95.36,1.44,4.03,2.46,5.73,2.28,7.94-.88,6.22-11.02,9.98-13.55,1.01-.68,3.57,1.76,3.74,3.14l2.07,18.35,3.33,23.71c.16,1.14-1,4.18-1.73,3.68l-3.12-2.11-4.36-34.77c-2.88,3.36-6.34,6.43-9.48,6.48-3.56.05-8.8-1.54-10.11-4.49-2.56-5.76.36-10.93,4.21-14.58v-.02Z"/>
    <path class="st16" d="M1801.55,412.97c-9.77-1.8-18.21,7.59-19.2,2.05-.18-.98,1.26-3.16,2.26-3.45l13.65-3.93c1.56-.45,5.4,1.25,6.3,2.54,4.28,6.08-3.28,15.66-10.1,22.95l6.81,3.72c4.46,2.44,6.8,7.38,4.09,12.27-4.72,8.52-15.58,14.24-22.97,9.93-.8-.47-.93-2.76-.76-4.58,7.01,2.67,12.32.77,17.2-4.11,1.47-1.46,3.48-5.75,2.46-7.66l-12.61-7.53c1.31-7.43,11.27-11.44,12.87-22.22v.02Z"/>
    <path class="st7" d="M1765.94,458.8c-4.24,6.35-8.6-46.09-5.01-48.12.97-.55,3.7,1.56,3.96,2.66-.75,14.88.07,28.05,2.89,42.71l-1.84,2.75h0Z"/>
    <path class="st25" d="M1594.49,441.26c1.51-3.66,5.13-6.52,7.79-7.38,4.09-1.32,7.92-.1,11.41,1.73l-1.07-12.15c-.08-.88,1.11-2.84,1.85-3s3.2,1.16,3.33,2.12l3.38,24.6c.86,6.21,2.81,11.99,4.78,17.66l2.44,2.24c.68.63-.39,2.58-1.02,3.25s-3.89.26-4.26-.63l-4.49-10.88c-2.83,6.68-11.74,11.6-18.56,6.41-6.93-5.27-9.06-15.45-5.57-23.95h0ZM1598.08,444.94c-1.32,6.47.04,13.62,5.56,16.85,4.63,2.71,9.86-1.66,11.01-6.36l-3.98-2.34c2.83-4.43,2.55-10.29-1.65-14.01-3.59-3.17-9.86.57-10.92,5.85h0Z"/>
    <path class="st14" d="M1536.58,464.66c-11.43-10.49-5.59-33.78,7.92-45.74-.73-.82-.67-4.82.46-4.79,11.95.39,21.29,16.24,23.36,29.47,1.69,10.78-4.04,19.25-14.03,22.41-5.68,1.8-12.67,3.26-17.71-1.35ZM1540.77,461.79c3.59,2.37,9.49.76,13.2-.64,7.13-2.69,10.81-8.68,9.77-16.37-1.18-8.68-5.57-17.29-11.59-23.19l-7.02,3.55c-10.44,10.42-13.76,30.45-4.37,36.66h.01Z"/>
    <path class="st16" d="M1637.06,457.68c-.67.38-3.41.3-4.03.04s-1.74-2.16-1.17-2.52l3.42-2.2c3.92-2.53,4.34-8.76,2.28-13.51-8.91,3.54-9.32,20.55-2.13,24.88,9.82,5.89,15.53-2.35,17.67.94.52.8-.37,2.92-1.47,3.63-7.55,4.9-19.08,2.29-23.55-5.81-3.65-6.62-2.81-15.01.33-21.49,1.72-3.52,7.41-8.8,11.32-5.77,6.39,4.96,4.65,17.7-2.67,21.81h-.01Z"/>
    <path class="st5" d="M1660.83,443.5c-6.11,11.39,2.76,19.19-.15,24.69-.51.97-4.28-.09-4.48-1.19l-2.32-13.31c-.89-5.06,1.65-9.58,3.56-13.63,3.14-6.67,11.87-7.42,16.13-4.16.53.41,1.25,3.06.67,3.25-4.6,1.5-9.32-3.3-13.42,4.36Z"/>
    <path class="st22" d="M1580.74,436.1c-4.23,13.11,2.74,24.93-.57,30.07-.49.75-3.52.13-3.66-.76l-1.74-11.38.36-15.55c.09-3.79,3.26-7.04,6.76-7.06,2.6-.01,7.17,4,5.55,6.86-.77,1.35-4.38-.34-6.71-2.18h.01Z"/>
    <path class="st25" d="M853.11,462.2l-5.51,14.75c-5.59-.72-4.03-5.12-3.57-8.23,2.51-17.27,12.43-54.34,24.71-53.32,1.78.15,4.71,3.19,4.82,5.36l1.66,31.29.73,30.42-1.89,3.13c-.42.7-3.08-2.2-3.1-3.09l-.6-26.1c-9.53-1.08-12.18,6.02-17.26,5.77h0ZM854.14,456.32c6.44-3.17,10.13-4.24,16.22-5.24l-1.9-31.36c-10.38,5.12-12.37,25.23-14.31,36.6Z"/>
    <path class="st25" d="M927.9,457.54l-4.57-30.07,1.82-1.39c.59-.45,2.24,1.33,2.55,2.17l4.24,11.59c3.05,8.35,5.19,16.85,3.62,25.78-1.66,9.48,1.97,11.92-.39,14.27-.78.77-2.89-.54-4.65-1.73-3.1,3.66-8.86,8.15-13.78,4.75-8.29-5.72-8.56-19.48-1.5-25.9,4.02-3.65,7.94-3.18,12.65.52h0ZM917.73,461.18c-4.04,4.33-3.86,15.37,1.8,17.52,5.95,1.31,12.14-7.97,9.15-12.42l-3.63-.19c-1.41-.07.16-5.68-3.7-6.77-.7-.2-2.71.89-3.62,1.85Z"/>
    <path class="st25" d="M884.45,463.06c2.58-6.86,7.65-9.84,14.43-9.04l-4.03-21.17c-.14-.75.08-2.91.8-2.94l3.41-.17c4.45,10.7,7.7,20.69,8.31,32.25-1.3,6-.06,12.64,1.82,17.89l.46,2.9c.12.78-3.14.94-3.52.24l-3.37-6.08c-2.81,3.47-7.92,8.44-12.67,6.14-7.28-3.52-8.35-12.88-5.65-20.02h0ZM895.87,458.78c-6.27.76-7.32,6.12-7.9,9.47s.89,9.16,3.57,10.53c5.09.03,8.53-4.54,9.58-8.71l-3.7.38c-2.49.25,2.77-12.18-1.55-11.66h0Z"/>
    <path class="st14" d="M1269.2,447.7c-.42-13.59-7.01-24.97-9.67-20.29l-2.24,3.94-1.48,2.58c-.46.81-3.49.71-3.53-.22-.26-5.49,3.48-10.71,7.97-11.47,10.65-1.79,12.2,15.34,14.39,28.55l11.64,16.69c1.79,2.57,6.1,5.39,1.91,8.85-1.91-.61-4.64-3.8-6.04-5.95l-8.37-12.89-4.95,16.51c-.37,1.23-2.81,2.78-3.83,2.9-5.29.67-7.08-14.61-1.72-26.37.51-1.11,3.61-2.2,5.9-2.85h0ZM1265.52,469.26c2.55-5.79,3.29-10.73,3.14-16.53-4.36,4.07-4.32,11.19-3.14,16.53Z"/>
    <path class="st13" d="M1312.91,477.91l-11.09.63.65-4.72c7.45,1.5,15.56-1.58,19.01-8.31,2.84-5.54,1.26-12.92-2.57-17.39-5.26-6.13-13.27,5.3-14.2,3.03l-1.22-2.93c-.85-2.04-2.37-5.1-3.23-6.14-3.32.63-6.07-.14-6.41-2.24-.39-2.5,1.45-4.4,3.77-5.98,18.87-12.79,21.14-5.95,18.45-3.96-3.92,2.9-8.43,1.03-12.92,6.68l4.06,7.6c3.39-1.96,7.19-3.4,10.26-2.49,2.86.84,5.32,3.6,7.3,6.28,2.86,6.29,3.93,12.4,1.11,19.78-2.23,3.89-7.13,9.83-12.98,10.17h0Z"/>
    <path class="st13" d="M1337.6,428.92l2.05-4.89c.47-1.12,5.32.06,5,1.31-2.03,7.98-8.77,11.31-8.34,18.86l13.06.88-3.04-13.02c-.14-.6-.06-1.81,0-2.32.09-.76,3.95-.15,4.13.59l3.51,14.22,8.95.15c.35,4.96-3.75,6.26-8.42,5.98l1.27,13.57c.06.68-.22,2.42-.76,2.46l-3.53.24-1.86-16.73-9.18-.66c-2.14-.15-6.25-1.75-8.58-2.83-1.43-7.11,1.98-11.78,5.73-17.82h.02Z"/>
    <path class="st16" d="M1233.18,437.91l-2.51-15.95c-.11-.72,2.44-2.73,3-2.23.75.69,1.93,2.55,2.08,3.79,1.11,9.03,3.27,17.68,5.25,26.82l3.7,16.98c.21.94-1.83,4.19-2.52,3.71-.85-.6-1.8-2.2-2.08-3.42l-6.92-29.7Z"/>
    <path class="st14" d="M1009.02,448.76c5.71-3.16,7.98-7.4,10.68-12.41,3.84-7.13,6.41-14.79,2.58-23.07-5.59.63-10.03,4.09-14.14,7.88-9.56,8.83-4.73,18.17-8.54,18.5s-4.01-10.64,2-18.22c6.57-8.27,18.12-16.03,23.56-11.22,9.42,8.34-.39,36.96-15.43,43l2.16,20.86c.13,1.24-1.62,3.77-2.45,3.66-1.03-.14-2.25-1.83-2.36-2.89l-1.65-16.57-2.97-21.3c-.11-.79,2.69-2.51,3.11-1.94s1.53,2.22,1.66,3.04l1.77,10.69.02-.02Z"/>
    <path class="st25" d="M1088.02,466.35c-3.36-2.29-5.75-5.61-5.71-8.9.09-6.3,6.94-12.01,14.27-14.38l-1.78-22.02c-.04-.59,2.58-2.06,2.98-1.63l2.41,2.67c1.94,15.98,6.61,30.51,13.56,45.23-5.39,1.34-6.94-2.89-8.21-6.97-.58,1.65-1.8,5.66-3.23,6.78-3.79,2.96-10.15,2.04-14.3-.78h.01ZM1087.59,458.69c.92,4.6,9.94,7.76,11.96,3.84s-1.43-9.34-3.45-13.6c-3.81-.16-9.68,3.85-8.5,9.75h-.01Z"/>
    <path class="st5" d="M1169.71,464.97l9.74-1.74c-.08-2.85-.4-7.78-1.25-10.58-1.94-6.39-.72-13.31-5.49-26.47-.5-1.37-3-4.16-2.17-5.25,1.85-2.41,6.18.08,6.8,2.7l4.96,20.67,7.93-5.54c.51-.35,2.84-.02,2.94.6.14.82-.14,3.34-.84,3.79l-8.91,5.86.3,19.35-6.08-.84c-7.27,3.58-17.09,3.21-21.01-1.61-4.31-5.33,1.09-15.96,8.42-23.07l2.86,2.21c2.42,1.87-9.4,7.99-7.78,18.49,2.59.86,7.34,1.84,9.58,1.44h.01Z"/>
    <path class="st13" d="M1057.38,470.25c-4.8-5.51-1.43-12.77,2.78-16.9,4.2-4.14,10.84-6.11,15.47-4.23,1.72.7,2.17,4.6,2.72,6.02,1.2,3.09,2.98,6.67,1.96,9.7-2.94,8.68-18.09,10.98-22.94,5.41h0ZM1061.38,467.25c3.07,2.39,10.3.71,13.01-1.61.86-.74,2.05-3.63,1.53-4.58s-2.03-2.1-3.28-2.94l-5.29-3.58c-4.25.17-10.3,8.25-5.96,12.72h0Z"/>
    <path class="st17" d="M1115.85,446.44c.06-.79,3.22-2.06,3.43-1.46,2.43,6.91.78,14.32,6.22,21.65,9.53-5.3,6.35-15.37,8.21-20.3.25-.66,2.41-1.08,2.98-.68,3.08,2.18-1.89,12.22,7.24,20.56.61.56,1.33,2.64,1.45,3.31.15.88-3.03,1.98-3.61,1.3l-6.34-7.45c-1.62,2.47-4.58,6.13-8.06,7.48-6.67,2.59-12.44-12.12-11.51-24.41h.01Z"/>
    <path class="st13" d="M1037.79,454.92l-1.08,16.92c-.04.59-2.06,1.76-2.62,1.57-.74-.25-2.48-1.89-2.58-2.78l-1.77-15.29c-.67-5.8,1.57-11.17,5.4-14.22,5.13-4.09,16.05-4.46,16.35,1.19.19,3.55-8.97-2.53-15.09,4.13-2.23,2.43-1.86,5.42,1.39,8.47h0Z"/>
  </g>
  <g>
    <path class="st19" d="M1029.01,388.28c-1.19-.27-1.71-3.72-.81-4.25,1.09-.64,3.3-.61,4.87-.18l15.99,4.37,8.18-.56,30.17-1.21,28.57-.81,31.5-.15,1.59,3.44c.35.75-2.44,1.72-3.31,1.66-12.25-.92-24.46.51-36.71.55l-21.85.07-31.14,1.26c-2.43.09-6.4.59-8.67.07l-18.39-4.26h0Z"/>
    <path class="st25" d="M859.91,324.6c-8.62,2.08-12.43,13.7-14.04,23.93-1.02,6.52,2.4,11.15,5.96,16l8.79,11.99c3.88,3.61,12.35,1.11,16.3-2.26,4.8-4.09,8.42-10.81,8.96-17.24,1.37-16.21-6.9-38.99-19.02-36.15-.88.21-3.44-.7-3.27-1.5s1.54-2.65,2.56-3c14.41-4.92,24.4,19.18,24.8,36.86l3.94,1.38c3.1-8.39,7.9-14.47,14.49-12.17,2.13.74,4.99,4.25,5.56,6.43.15.56-1.55,2.89-2.02,2.54l-2.71-2.05-3.71-2.54c-.88-.61-3.43,1.68-4.08,2.72-5.66,8.95-.54,18.57-4.72,22.19-.75.65-2.74-1.41-3-2.37l-3.18-11.53c-3.41,7.74-5.44,15.93-12.53,20.75-5.95,4.04-14.64,6.44-20.89,2.29-3.44-2.28-5.73-8.86-8.57-11.64-8.31-8.15-10.23-17.59-6.92-28.7,2.67-8.98,7.59-18.46,16.5-22.31,1.05-.38,3.69,1.31,3.66,2.47s-1.69,3.62-2.9,3.92h.03Z"/>
    <path class="st14" d="M917.33,377.9c-9.08-15.49,4.44-34.04,10.96-30.76,1.24.62,2.15,2.17,4.07,4.98l-1.29-12.86-2.38-13.58c-.11-.64.94-3.59,1.52-3.4l3.43,1.1,3.73,24.81c1.08,7.23,2.52,15.02,5.55,21.67.77,1.71,2.95,3.75,2.45,5.14-.62,1.68-4.98,2.95-5.52,1.46l-4.18-11.69c-2.7,5.46-4.54,9.59-8.64,13.09-2.17,1.85-8.21,2.57-9.68.06h-.02ZM921.56,375.39c6.04-3.03,9.31-9.33,8.94-14.27-2.27-1.93-3.72-5.07-4.2-9.64-7.08,5.18-9.87,16.31-4.74,23.9h0Z"/>
    <path class="st14" d="M946.21,364.63c-.88.12-1.84-3.2-1.03-3.52l3.76-1.49-2.92-11.46c-.53-2.07,2.02-6.21,3.89-7.02,1.97-.85,6.42-.36,7.92,1.2,5.58,5.86,5.48,13.97-.99,18.95,3.22,5.79,8.26,10.16,15.19,9.06l1.35-6.99c6.82-4.35,2.88-14.16,9.34-16.96,6.55-2.83,17.88,4.69,14.8,7.32s-6.54-4.26-13.51-3.02c-4.6,10.27,2.57,20.67-1.67,23.08-1.21.69-3.95-2.75-4.68-4.28-1.34,3.27-4.68,6.22-8.71,5.83-7.59-.75-12.38-5.6-16.26-11.58l-6.47.89v-.02ZM954.3,357.12c2.36-2.35,3.19-5.14,2.72-7.18s-2.65-4.43-4.98-4.79c-2.1,3.63-.83,8.88,2.26,11.97Z"/>
    <path class="st14" d="M1379.26,367.14c-3.54-8.31-.12-16.23,7.11-20.45,2.88-1.68,6.8-2.98,9.43-3.63l-3.21-26.57c-.09-.76,1.42-3.24,2.19-3.16,1.03.11,2.94,1.73,3.07,2.8l4.65,36.48,3.77,14.3c.24.99-3.12,2.85-3.63,1.99l-2.84-4.75c-2.46,6.92-8.74,7.32-15.2,7.29-4.24-.01-9.42,1.37-13.97-.21-6.79-2.34-10.33-8.81-10.01-15.62.26-5.36,5.42-14,11.72-12.63,4.82,1.06,4.09,7.57,2.94,10.4-1.56,3.84-4.58,6.29-9.29,6.87,1.68,5.31,7.38,8.27,13.26,6.86v.02ZM1383.1,357.28c-1.88,4.53.41,8.96,4.24,9.54s7.39-1.87,8.58-5.52c1.71-5.26,2.02-8.78-3.08-12.49-3.66,1.16-8.02,4.33-9.74,8.48h0ZM1364.81,355.08c2.73.06,4.37-.59,5.84-2.72.81-1.16.9-3.11-.32-5.82l-5.53,8.54h0Z"/>
    <path class="st14" d="M1297.56,349.28c1.46-7.32,9.14-11.51,15.74-8.53,2.11.95,3.71,5.68,3.15,7.62-.19.65-2.46,2.38-2.84,1.83l-1.63-2.46-2.03-3.06c-.46-.7-3.14-.03-3.97.44-3.37,1.93-4.87,6.56-4.07,10.78.63,3.3,4.49,5.88,8.74,6.94l-.59-7.45-.2-2.5c-.06-.76,2.55-.88,3.53-.74l6.93,17.05c6.36,15.65,6.77,44.78-7.13,53.68-5.66,3.62-12.2,2.48-16.62-2.08-3.49-3.6-6.28-9.43-5.83-14.45,2.2-1.19,4.68,1.29,5.23,3.83,1.28,5.9,6.4,11.82,12.93,9.52,13.78-4.86,13.11-37.19,5.44-53.35-5.28,2.08-9.59,0-13.26-3.01-4.05-3.32-4.58-8.75-3.51-14.07h0Z"/>
    <path class="st14" d="M1243.05,347.26c3.56,3.67,13.78,3.25,15.23,10.72.74,3.83,1.58,6.93,4.65,8.91,5.63,3.64,18.11-4.92,16.6-11.7-1.18-5.28-15.81-3.53-25.11-6.88-.71-3.96,2.3-7.97,5.33-9.67l9.63-5.41c.97-.54,3.15-1.11,4.11-.98s2.16,2.69,2.35,3.68l-16.31,8.54,18.59,3.5c1.92.36,4.77,2.99,5.7,4.62,3.72,6.52-4.08,16.71-14.82,19.67-4.69,1.29-9.45-1.1-11.88-4.42-2.04,3.22-4.4,5.79-7.48,6.47-3.61.79-8.96-2.42-9.42-6.99-.06-.64,1.61-1.97,2.14-1.61l2.82,1.95,2.87,1.98c1.21.83,6.8-3.75,6.36-9.14-.5-6.09-12.52-5.76-15.47-10.73-3.46-5.86,2.74-14.67,9.17-13.59,1.23.21,1.86,4.03.82,4.67l-4.74,2.95c-.74.46-1.8,2.82-1.17,3.47l.02-.02Z"/>
    <path class="st13" d="M1329.2,369.79l-.59-19.85c-.02-.73.37-2.23.65-2.85.37-.84,3.61-.35,3.74.55l1.04,7.23,5.52-10.1c.43-.79,3.21-2.02,4.13-1.86,1.16.19,3.5,2.07,3.76,3.25l5.18,23.64c.21.95-.23,2.67-.67,3.39-.54.91-3.72-.37-4.06-1.95l-4.89-22.87c-3.24,5.02-4.28,9.01-6.21,14.43l-2.9,8.15c-.3.84-2.22,1.93-3.02,1.9s-1.63-2.13-1.66-3.05h-.02Z"/>
    <path class="st16" d="M1212.04,360.93c-6.36,2.88-10.13-5.56-9.29-10.75.71-4.34,2.08-7.68,4.55-10.21,2.25-2.31,8.29-4.16,10.53-1.54l5.89,6.89,5.2,21.9c.21.89-2.03,2.96-2.65,2.41s-2.01-2.18-2.27-3.07l-2.82-9.78-9.14,4.14v.02ZM1209.62,355.9c3.71,1.75,10.78-4.13,8.76-7.3l-4.22-6.58c-5.43-.24-9.56,10.62-4.52,13.88h-.01Z"/>
    <path class="st27" d="M1287.12,362.46l.63-8.06.56-2.54c.17-.78,3.51.38,3.65,1.16,1.77,9.84-2.32,13.96-3.69,12.21-.46-.58-1.21-2.05-1.15-2.77h0Z"/>
    <path class="st6" d="M1290.32,333.21c-3.96.8-4.81-6.2-1.64-10.01.72-.86,4.01,1.67,3.7,2.76l-2.07,7.24h0Z"/>
    <path class="st13" d="M1103.23,335.46c1.61-2.57,1.81-7.88.94-11-4.46-.07-8.16,2.72-10.47,6.31-.78,1.22-5.62-.15-5.07-1.41,2.56-5.81,9.83-10.32,16.11-9.62,4.29.47,5.47,6.87,4.72,10.69-1.54,7.92-5.78,13.88-10.43,20.86l9.53-1.07c1.41-.16,4.61.67,5.7,1.56,4.99,4.07,1.39,19.9-8.91,23.57-4.18,1.49-12.23-1.67-15.14-5.11-.45-.53.82-2.45,1.52-2.49,4.53-.3,8.71,4.69,12.51,2.99,5.97-2.67,8.22-9.53,6.97-15.73l-16.48,1.49c-1.73-.19-1.46-5.19-.51-6.7l8.98-14.33h0Z"/>
    <path class="st13" d="M1041.05,355.81c8.53-17.04,5.49-29.72,1.85-27.93l-9.61,4.73c-.72.35-3.01.16-3.64-.37-2.4-2.02,6.85-9.01,14.45-9.08,9.49-.09,8.91,20.12,1.63,34.18,3.77-.04,9,.24,11.16,1.8,4.42,3.17,3.22,7.94.92,11.64-5.29,8.5-19.46,13.92-23.64,7.79-.49-.72,1.77-2.43,2.66-2.37,8.04.53,17.27-3.28,18.59-13l-10.62-1.26c-1.31-.15-3.21-.52-4.04-1.01-1.02-.62-.36-3.82.28-5.12h0Z"/>
    <path class="st16" d="M1130.51,348.05c-3.7,1.68-8.39,2.81-11.7,1.51-6.64-2.62-7.06-15.67.6-22.29,2.83-2.44,9.04-4.52,12.31-1.34l3.6,10.16c.08,8.08.35,15.22,2.12,23.23l2.77,12.61c.21.94-2.2,3.11-3.04,2.83-1.05-.35-2.5-2.28-2.64-3.43l-1.15-9.17-2.87-14.11h0ZM1119.98,344.52c1.77,2.41,8.32-.06,9.45-2.58,2.74-6.16-2.46-12.55-4.09-12.43-4.54.32-9.31,9.6-5.35,15.02h-.01Z"/>
    <path class="st24" d="M1067.14,326.2l.56-5.05c.13-1.21,4.33,1.07,4.41,2.32l2.74,45.52.39,2.88c.1.78-1.53,2.33-2.15,1.85l-3.07-2.44-2.88-45.08h0Z"/>
  </g>
  <g>
    <path class="st26" d="M348.98,358.81c-6.19-3.94-7.53-12.38-6.76-18.86l5.63-9.22c3.58-5.87,10.72-6.8,17.12-4.99,5.5,1.55,9.08,6.62,10.87,13.33,2.75,10.36-4.66,20.89-15.82,22.87-2.72-.5-8.36-1.7-11.04-3.12h0Z"/>
    <path class="st26" d="M359.57,459.24c-4.89.22-15.37-6.12-16.42-15.65-.92-8.41,1.02-14.43,7.21-19.42,4.75-3.82,14.03-6.06,19.94-1.35,5.12,4.08,7.33,14.51,4.73,20.33-3.28,7.34-9.7,15.82-15.46,16.09h0Z"/>
  </g>
  <g>
    <path class="st13" d="M453.47,350.79c-.77-.61-3.32-1.64-3.18-2.46l.74-4.39c-.89-4.06-3.38-11.39-2.46-16.2.7-3.66,5.41-7.35,8.73-7.49,1.38-.06,2.77,3.97,2.17,5.2-.81,1.64-3,2.61-6.28,3.27-.44,4.1,1.15,10.54,3.43,14.69,3.52-1.71,7.81.32,7.52,3.84-.15,1.4-4.2,1.26-6.15.65,4.27,12.75,1.83,27.57-6.61,28.44-2.03.21-4.78-1.82-6.32-4.32l7.95-1.78c3.16-5.35,3.19-12.99.48-19.47h-.01Z"/>
    <path class="st13" d="M477.34,364.27c-9.39-3.06-8.46-19.35-2.68-23.34,1.77-1.22,5.18-1.25,7.86-1.03,8.18.66,13.63,7.51,12.51,14.96s-9.78,11.98-17.69,9.4h0ZM475.63,356.45c1.75,4.51,6.61,4.41,10.26,3.15,2.24-.78,5.13-4.28,4.55-7.46-.45-2.46-2.22-5.55-3.77-6.37-3.97-2.09-10.66,2.23-11.53,4.27-.48,1.14-.01,5.13.49,6.42h0Z"/>
    <path class="st16" d="M414.31,361.35l-1.73-9.83c-.2-1.1-.3-2.95-.17-3.84s2.81-1.51,3.34-.8l2.12,2.82.65,3.67c1.55-4.29,5.08-11.33,10.37-9.5,11.18,3.85,12.88,24.59,6.4,24.86-4.23.18,3.88-13.73-8.59-21.08l-6.45,14.2c-.51,1.13-2.14,2.96-3.22,3.23s-2.51-2.46-2.73-3.72h.01Z"/>
    <path class="st22" d="M394.17,328.04c-.15-1.13.82-4.31,1.57-3.82l3.04,1.98,5.01,39.6-1.82,2.4c-.54.7-2.8-1.38-2.93-2.44l-4.87-37.72Z"/>
    <path class="st13" d="M453.44,455.47l-3.45-16.71c-1.06-5.12,1.73-13.16,7.29-13.7,4.42-.43,5.66,5.97,5.01,9.07l-.79,3.72c-.18.85-2.37.59-3.47.33l-1.2-7.83c-1.49,1.84-2.74,5.9-2.22,8.26l3.03,13.42,4.87-1.87c1.08-.42,3.8,2.88,2.79,3.49l-5.15,3.13c-1.19.72-1.04,4.39-.64,6.02,2.77,11.48.11,24.09-6.82,24.02-.98-.01-2.37-2.04-2.5-2.81,2.01-1.58,5.66-4.94,5.52-7.29l-1.07-16.3-5.16,1.58c-1.07.33-2.32-1.79-2.75-3.39l6.7-3.16v.02Z"/>
    <path class="st16" d="M478.67,452.7l-2.26-3.49c3.87-4.6,10.74-5.35,15.61-.79,5.34,5.01,7.92,13.85,5.51,21.18-1.34,4.11-5.56,7.44-8.6,8.29-4.65,1.3-10.3.19-13.24-3.45-5.28-6.54-4.11-16.2,2.99-21.75h0ZM480.22,457.91c-3.48,2.83-4.47,10.21-.61,13.7,3.33,3.01,8.47,2.58,11.33-.16,4.84-4.63,2.84-14.98-2.12-19.61-1.98-1.85-5.63-1.97-7.86-.78l4.73,1.52c.9.29,1.08,2.51,1.07,3.82-.01,1.1-1.67,4.13-2.65,3.61l-3.91-2.09h.01Z"/>
    <path class="st17" d="M418.02,469.83l-1.19-15.31c-.13-1.69-.72-3.67-.63-4.84.11-1.4,4.93-1.17,5.23.2l1.33,6.03,4.26-7.15c.78-1.32,4.71-2.2,6.07-1.6,6.48,2.89,7.71,16.88,5.18,26.15-.19.69-3.26,1.39-3.48.7-1.88-5.76,2.86-15.02-3.7-22.87-3.42,5.16-5.51,12.28-8.21,17.55l-1.51,2.93c-.39.76-3.24-.62-3.33-1.8h-.01Z"/>
    <path class="st22" d="M399.13,466.83l-3.86-41.15c-.07-.8.39-2.71.75-3.3.49-.8,3.06.52,3.79,1.25l4.13,43.18-1.09,3.11c-.22.61-2.29.92-2.85.58-.75-.45-.67-1.57-.87-3.66h0Z"/>
  </g>
  <g>
    <circle class="st20" cx="186.81" cy="353.27" r="2.31"/>
    <path class="st14" d="M195.07,320.17c3.73-3.71,10.41-5.81,15.72-4.12,2.91,10.6-8.77-.72-12.66,9.12l3.94,11.82c7.26-4.91,15.91,2.17,20,11.24.9-11.98,8.08-27.16,14.97-26.83,1.05.05.77,3.74-.23,4.57-5.18,4.31-9.23,12.95-9.42,19.8,4.05-.11,8.67-.28,11.24.63,5.71,2.01,6.11,8.11,5.27,12.94-.9,5.19-3.43,8.77-8.11,9.94-4.19,1.04-10.25-1.08-11.68-6.08l-2.45-8.56c-2.97,6.54-13.65,10.55-18.29,7.55-.92-.6-.67-4.03.26-4.37,4.56.76,11.56.34,13.33-5.05,1.88-5.69-5.32-13.11-10.7-12.37-2.2,1.68-4.46,3.21-7.01,4.27l-4.42-14.58c-1.12-3.21-3.83-5.87.24-9.93h-.01ZM228.59,362.05c.31,1.68,4.81,3.48,6.33,2.75,6.02-2.94,5.34-12.56,2.75-13.58-3.18-1.26-7.7-.88-11.22-.44l2.13,11.27Z"/>
    <path class="st13" d="M83.52,345.42c.24-.82,2.35-3.48,3.05-3.17l4.39,1.91c4.41-7.38,6.26-18.76,2.63-27.62-5.99-1.78-10.26,4.66-12.08,9.5l-1.17,3.11c-.25.65-2.77.14-3.13-.45-2.17-3.65,3.63-14.17,10.96-16.76,1.62-.57,6.14-.45,7.62.41,6.83,3.98,5.03,24.44-1.08,36.05l5.68,10.42c.29.54-1.57,2.7-2.17,2.56s-2.21-.73-2.52-1.3l-3.37-6.19-6.12,8.19c-.57.75-4,1.06-4.8.54-.99-.64-1.94-3.18-1.57-4.42l3.67-12.79h-.01Z"/>
    <path class="st13" d="M127.15,348.3c-4.17-7.73-.48-16.8,5.11-22.84,1.92-2.08,6.44-2.64,9.39-1.77,2.7.8,5.65,4.32,6.96,7.23,3.21,7.14,2.02,13.38-3.64,18.4-4.69,4.16-14.04,5.96-17.8-1.03h-.01ZM133.68,331.69c-2.76,2.66-5.4,11.57-2,14.81,4.42,4.2,10.87-.05,13.01-4.11,2.34-4.44-.25-10.57-3.27-13.63l-3.4,3.49-4.34-.55h0Z"/>
    <path class="st13" d="M154.88,339.93c-1.79-8.67,3.25-25.26,8.76-26.52,4.78-1.09-4.56,12.14-4.77,23.66,3.01-.31,6.87-1.49,8.81-3.08l2.65-16.19c.48-.71,3.26-1.44,3.6-.52.46,1.22.98,3.97.8,5.14l-.73,4.65c-.18,1.16,1.71,2.18,3.61,3.6l-4.93,6.33c-2.82,3.63.17,12.87-3.94,12.75-.89-.03-2.35-1.99-2.34-2.94l.04-6.66c-3.55,1.74-9.95,2.58-11.56-.2h0Z"/>
    <path class="st7" d="M253.49,360.32l-4.9-31.14c-.45-.62-.59-3.75.24-3.62,1.04.15,2.69.77,4.3,1.46l4.95,31.64c-.13,1.99-1.45,5.71-2.99,6.17-.94.28-3.19-.12-3.86-.56s.45-2.31,2.28-3.96h-.01Z"/>
    <path class="st1" d="M119.76,350.3l-1.84-3.14c-.39-.66.9-2.57,1.65-2.4,3.03.68,4.64,1.72,5.35,5.03.16.76-1.42,2.27-2.2,2.21s-2.55-.98-2.96-1.69h.01Z"/>
    <path class="st27" d="M111.45,324.97c-1.14-1.28,3.25-4.68,5.4-3.7,1.05.47,1.31,3.86.57,4.78-.99,1.22-3.75,1.42-5.96-1.07h-.01Z"/>
    <path class="st14" d="M89.35,136.79c6.62-7.76,3.01-20.92-3.53-28.68-3.28-3.88-9.56.96-9.89,3.94-.09.81-3.32,1.63-3.62.87s-.79-3.05-.48-3.97c1.7-5.03,11.81-9.76,16.73-4.71,7.8,7.99,12.58,23.55,5.63,34.51l9.54,11.88c.45.56.07,3.97-.64,4.1l-3.94.73c-.76.14-3.67-1.41-3.33-2.09l1.78-3.6c-.77-1.38-4.28-4.91-6.04-6.18-4.3,5.82-8.93,11.44-13.55,10.01-3.39-1.05-2.59-10.49.76-16.21,1.59-2.7,6.74-2.39,10.58-.61h0ZM80.65,148.85l6.74-8.07c-2.42-.2-4.83-.33-5.42-.14,0,0-1.33,8.21-1.33,8.21Z"/>
    <path class="st13" d="M161.17,146.92l-2.1-2.93c-.5-.71.85-2.91,1.71-2.84,4.09.3,4.69,5.25,7.76,4.82,2.25-.32,7.18-6.39,7.46-10.83.14-2.3-4.14-6.28-6.12-5.39l-1.97,2.86c-.47.69-3.5.14-3.51-.77l-.13-29.14c4.3-6.09,14.76-2.73,18.49.83.53.51,1.47,3.81.83,4.08l-3.2,1.37c-2.73-4.42-6.93-5.63-11.86-4.3l.32,19.07c5.57,1.27,9.44,4.23,11.01,7.82,3.21,7.33-4.93,18.22-10.32,19.1-2.78.45-6.76-1.49-8.37-3.74h0Z"/>
    <path class="st16" d="M208.95,127.63l-1.66-19.89,13.65-4.3c.7-.22,3.87.56,3.82,1.28l-.29,3.94c-.14,1.8-6.11-1.63-12.13,3.37l.93,11.07c2.42-1.46,5.77-2.53,8.19-1.79,5.46,1.67,7.48,20.41.7,26.76-2.21,2.08-9.12.14-11.7-1.32l-2.75-1.56c-.57-.33-.58-2.35-.01-2.68.75-.44,2.88-.67,3.85-.38l8.45,2.46c2.11-7.22,2.06-11.75.09-19.42l-6.25,3.64-2.39,1.42c-.54.31-2.45-1.96-2.5-2.59h0Z"/>
    <path class="st16" d="M129.86,140.83c-3.8-10.41,1.09-20.89,9.52-26.45,10.01,4.98,13.97,17.94,10.64,27.3-1.31,3.69-6.78,5.07-10.24,5.19-3.11.11-8.47-2.08-9.92-6.03h.01ZM134.54,139.3c2.1,3.98,9.61,3.8,11.02.16,2.36-6.12-.13-15.92-6.03-18.89-5.26,3.32-8.1,12.83-4.98,18.73h0Z"/>
    <path class="st5" d="M229.97,137.7l14.4-27.05-10.88,3.04c-1.1.31-3.52-.36-3.99-1.29s1.31-3.31,2.35-3.56l13.48-3.19c1.13-.27,4.12,1.03,4.4,2.09s-.15,3.63-.67,4.6l-14.27,26.33-1.84,3.16c-.54.92-3.67-2.83-2.98-4.13h0Z"/>
    <path class="st0" d="M257.07,137.56l3.96-22.15.04-4.14c0-.83,2.16-.87,2.99-.73s2.53,2.48,2.35,3.38l-4.5,23.55c-.14.72-1.97,2.29-2.46,2.69s-2.53-1.81-2.39-2.62h0Z"/>
    <path class="st8" d="M111.52,147.26c-.69-.81,1.16-3.51,2.27-3.99,1.3-.56,4.2.22,4.41,1.52.25,1.44-.27,4.59-1.5,5s-4.13-1.3-5.18-2.53h0Z"/>
    <circle class="st4" cx="192.81" cy="144.87" r="3.41"/>
    <circle class="st3" cx="109.17" cy="116.26" r="3.02" transform="translate(-8.31 224.13) rotate(-89.36)"/>
    <path class="st25" d="M98.11,451.15c-.08-10.49-3.09-24.31-9.59-24.3-6.14.02-6.95,12.42-10.77,10.34s2.68-14.48,9.74-14.93c13.89-.89,17.64,23.95,13.41,40.32,2.79,1.5,4.79,3.35,4.72,5.16-.1,2.58-1.61,6.96-4.24,6.58-2.12-.31-3.71-4.73-3.91-6.82-3.65,3.69-8.65,7.13-14.16,7.26-4.09.1-7.1-3.66-6.54-7.6,1.05-7.45,4.63-14.29,10.71-18.45,3.5-2.39,7.14-1.02,10.63,2.45h0ZM81.86,470.05c7.9.1,14.42-6.42,13.69-12.07-.27-2.08-2.87-5.94-4.98-5.66-5.7,3.71-9.57,10.4-8.71,17.73h.01Z"/>
    <path class="st13" d="M171.46,449.19c.82-5.15.18-11.24-1.89-17.11-3,.71-5.57,4.34-6.33,6.55-.31.89-4.02,1.35-4.13.42l-.44-3.73c2.35-3.67,6.76-7.76,10.65-8,2.22-.14,5.91,4.27,6.09,6.43l1.43,17.11c4.08,7.09,10.22,16.29,7.22,21.52-.52.91-3.5-.18-3.68-1.33-.52-3.41-2.62-9.39-4.52-13.11l-6.81,16.41c-.46,1.13-3.22,2.45-4.23,2.7-7.9,1.92-7.44-22.92,6.65-27.84h0ZM165.03,471.89l6.36-18.12c-5.86,4.9-7.55,11.08-6.36,18.12Z"/>
    <path class="st16" d="M219.71,448.12c-2.13-3.7-12.55,1.47-12.4-.86.33-5.25,5.21-9.14,5.81-16.92-8.63-4.61-12.23,5.68-16.1,4.25-4.34-1.61,4.54-11.49,14.46-10.25,3.99.5,7.19,4.57,6.09,8.28l-2.74,9.23c1.9.18,5.97.84,7.48,1.94,1.69,1.23,3.07,5.16,3.12,8.04.14,8.73-8.5,17.78-17.33,16.83l-7.84-.85c-1.72-.19-4.55-3.24-5.18-4.97-.23-.65,1.92-3.1,2.46-2.64l2.45,2.05c5.26,4.39,14.15,1.84,18.1-2.89,2.2-2.64,3.73-7.55,1.62-11.22h0Z"/>
    <path class="st13" d="M135.09,462.9c-3.69-7.45-2.56-14.78-1.88-22.77.23-2.74-.04-7.46,2.02-8.6,3.05-1.68,7.01-.52,9.46,1.41,9.02,7.11,14.33,19.01,9.15,29.85-1.62,3.38-6.25,6.18-9.37,6.25-3.71.09-7.64-2.63-9.38-6.14ZM144.36,464.37c1.48-.17,4.58-2.22,5.22-3.63,4.01-8.93-.26-19.5-8.75-24.14-7.25,10.74-2.98,28.52,3.53,27.77Z"/>
    <path class="st13" d="M249.39,435.53l7.9-14.86-6.57,1.74c-1.16.31-3.18-1.52-4.47-3.61,3.45-1.76,7.97-2.99,12.15-2.7,3.34.23,3.9,5.78,2.59,8.16l-7.47,13.51,11.89.22c1.7.03,5.14,1.02,6.18,2.26,4.55,5.43-2.61,19.68-15.72,23.98-1.07.35-4.35-.14-4.4-1.08-.06-1.18.04-4.14.15-4.3,8.86,1.36,17.68-8.88,16.07-15.97l-14.7-.52c-1.05-.04-3.16-1.51-3.73-2.26s-.36-3.61.15-4.59h-.02Z"/>
    <path class="st13" d="M227.1,448.39c-4.65-1.48,10.01-11.19,8.14-21.34l-8.04,4.62c-.68.39-3.17.12-3.71-.48-.72-.79.4-3.44,1.33-3.94l8.27-4.43c.84-.45,3.88-.46,4.74.05,4.46,2.64,2.61,12.18-2.75,19.6l9.06-.6c3.35-.23,5.16,5.34,3.64,8.87-3.16,7.32-12.42,16.66-17.69,15.12-1.17-.34-2.28-1.79-3.63-4.24l7.26-1.06c4.77-3.06,8.64-7.44,9.98-14.12l-13.3,2.37c-.87.15-2.58-.2-3.3-.42h0Z"/>
    <path class="st12" d="M117.25,458.66c.64-2.64,5.22-3.3,6.45-1.61.74,1.02-.43,3.9-1.6,4.32-1.57.57-5.2-1.23-4.84-2.71h0Z"/>
    <circle class="st23" cx="116.22" cy="439.3" r="2.9" transform="translate(-324.42 550.33) rotate(-89.32)"/>
  </g>
  <g>
    <path class="st2" d="M1304.45,223.85c-.04-.98.43-3,.7-3.63.34-.86,3.59.18,3.68,1.21l1.76,19.94,16.21-.25,5.18-6.96c.93-1.26,5.02-1.05,6.44-.37,1.63.77,3.13,4.84,2.21,6.75-1.99,4.16-4.69,5.78-9.21,7.93.73,2.33,2.89,5.84,4.95,6.87,2.43,1.22,8.31.75,9.27-.89-.47-7.22.38-14.22,4.9-17.93,5.26-4.32,11.81-6.92,18.95-3.48.07-9.78.25-25.93,5.62-28.3.73-.32,2.61,1.88,2.86,3.01,1.9,8.61-.85,19.7-2.09,29.21-.94,7.18,2.78,16.24,4.87,22.47,1.29.63,4.44,3.18,3.89,4.16-1.46,2.61-7.32,1.38-8.57-2.68l-4.66-15.25c-3.57,7.22-7.64,14.42-14.68,16.42-2.48.7-7.84-1.5-10.28-1.5-5.17,0-9.94.88-14.24-2.28-3.17-2.32-4.73-6.24-5.97-11.71-3.92-1.52-10.34-1.05-15.14.1l1.26,17.93c.07,1.01-1.41,3.41-2.24,3.54s-2.28-1.78-2.37-2.71l-1.81-17.46c-.34-3.28-.65-4.38-.78-7.46l-.7-16.67h0ZM1355.76,257.75c8.42-5.05,14.88-17.47,9.89-20.7-3.63-2.34-9.79.45-12.3,3.41s-3.09,7.47-3.47,12.33l5.89,4.95h-.01Z"/>
    <path class="st9" d="M1281.83,230.94c1.36-1.12,6.23.08,6.76,1.91,1.83,6.27-1.38,13.96-7.51,17.18-.22,1.59.12,4.63.96,5.76,2.42,3.25,8.33,3.34,14.07-1.87.48-.43,2.74-.98,3.39-.97s1.94,1.52,1.59,2.07l-1.9,2.87c-3.11,2.75-6.12,4.34-10.09,4.93-7.61,1.13-12.37-4.09-13.48-11.45-2.7,0-7.07-1.66-7.34-4.28-.24-2.37,4.09-2.33,6.34-.56,1.26-5.91,1.68-11.02,7.2-15.57h0Z"/>
    <path class="st11" d="M1031.4,255.28l5.48-5.33c.48-8.71.73-18.38-2.27-26.71l-1.2-3.31c-.24-.67,1.18-1.84,1.88-1.9,5.48-.51,6.14,15.68,6.81,27l9.99-6.5c.53-.34,2.56.04,2.96.53.54.66-.29,2.88-1.04,3.44l-12.18,9.11c0,7.97-.3,16.2-4.91,19.72-.75.57-3.03-1.6-2.65-2.59,1.12-2.91,2.62-8.89,2.67-11.22l-4.19,1.84c-.94.42-2.11-3.34-1.35-4.08h-.01Z"/>
    <path class="st19" d="M1424.29,182.01l-3.21-2.66c-1.06-.88-5.07.67-6.32,1.88-3.21,3.15-4.77,10.99-1.49,16.13.75,1.16,3.21,3.05,4.5,3.07,4.02.02,11.9-10.34,11.35-15.84l-2.79-27.98c-.38-3.82.3-11.11,2.47-13.8,7.03-8.71,16.38,20.83,5.87,44.14l3.32,12.97c.15.59,1.72,2.24,2.13,2.69.56.6-1.89,2.82-2.73,2.49-3.05-1.2-5.39-6.79-5.99-10.87l-7.04,8.06c-1.2,1.38-4.89,2.98-6.75,2.99-6.03.03-5.49-6.54-13.85-4.6-5.6,1.3-13.5.54-16.51-5.32-2.71-5.28-.95-12.91,1.01-18.37,1.18-3.3,6.27-7.21,9.17-3.96,5.81,6.47,2.01,17.57-5.8,20.86,4.84,3.42,10.79,3.12,15.6,1.08-1.63-8.78.82-17.12,9.07-19.93,1.95-.66,5.89-.76,7.52-.03,2.1.93,3.72,4.23,4.28,6.73l-3.85.3.04-.02Z"/>
    <path class="st11" d="M1325.1,177.56l-4.3,2.5c-1.11.64-4.93.96-5.01-.32.65-3.33,4.57-5.85,8.54-7.36l-3.41-20.55c-.16-.97-3.17-3.15-2.58-3.81l2.27-2.55c.74-.82,4.11,1.01,4.33,2.31l3.95,23.17c10.54,4.79,17.47,16.03,15.25,28-.56,3.04-3.93,7.02-6.8,5.38-1.27-.73,1-4.33,1.57-5.79,2.96-7.48-1.84-17.61-8.8-21.31l-.82,24.55c-.03.76-1.86,3.19-2.45,3.65s-1.77.18-3.17-.23c1.42-9.41,1.75-16.69,1.41-27.63h.01Z"/>
    <path class="st19" d="M1347.48,194.78l-1.6-4.97c-.31-.97,3.84-1.47,4.19-2.44l4.07-11.37c.25-.69,2.16-1.98,2.87-2.14.94-.21,3.16,1.57,3.41,2.66l3.48,15.41,4.65-15.5c.47-1.56,3.19-3.75,4.63-3.86s4.28,2.29,4.57,3.82l2.79,14.34c.23,1.15.29,3.47,1.09,3.89l4.59,2.4c1.56.82-2.38,4.66-3.95,4.35s-4.62-2.51-4.98-4.12l-4.18-18.92-4.75,15.4c-.95,3.09-3.92,6.66-7.5,5.97l-3.99-16.49-4.88,14.08c-.23.67-3.16,1.74-3.37,1.07l-1.15-3.58v.02Z"/>
    <path class="st11" d="M1260.2,264.27l-1.53-49.26,2.52-1.72c.8-.54,2.12,2.48,2.27,3.32l1.46,46.71-2.05,3.34c-.47.76-2.71-1.9-2.66-2.39h0Z"/>
    <path class="st11" d="M1015.51,263.26l1.19-18.64.48-3.17c.11-.72,2.72-1.15,3.12-.54s1.25,2.75,1.19,3.57l-1.38,19.94c-.05.61-1.73,1.62-2.3,1.84s-2.38-2.17-2.33-2.99h.02Z"/>
    <path class="st11" d="M838.82,209.51c1.71-3.84,3.98-10.73,3.28-14.97l-3.49-20.93-18.51,8.39c-1.14.52-3.69-.34-3.7-1.22s1.25-2.87,2.15-3.28l34.48-15.86,11.22-7.02,3.23.64c.75.15.02,2.9-.71,3.35l-12.47,7.65-11.22,5.28,3.56,21.87c1.72,10.53-4.53,22.91-7.84,16.09h.01Z"/>
    <path class="st9" d="M912.49,179.32c-1.18,6.88-5.5,9.13-11.51,10.85-.38,2.66.5,7.82,2.23,9.82,13.55,4.72,18.15-8.79,23.3-6.97s-15.75,19.84-26.53,10.08c-7.63-6.9-4.3-30.37,8.34-30.57,2.01-.03,4.62,4.17,4.17,6.79h0Z"/>
    <path class="st19" d="M873.38,195.76l1.03-28.8c.05-1.43.6-3.26,1.5-3.8s3.39,1.7,3.36,2.74l-.52,16.28c2.26-1.68,4.5-3.34,6.48-4.06,7.99-2.87,11.21,22.17,6.44,27.14-.61.62-3.01-1.67-3.05-2.55-.32-6.5,2.6-14.32-3.47-20.46l-7.44,14.81c-.43.85-2.33,2.07-3.16,2.12s-1.2-2.16-1.15-3.4h-.01Z"/>
    <path class="st2" d="M905.07,251.8l-12.05,2.04c-1.15.2-4.07-.79-3.89-1.79s1.83-2.52,2.87-2.78l11.2-2.74-10.06-19.5c-.97-1.87-2.45-6.42-1.07-8.14,2.67-3.31,10.33,4.19,9.57,5.49l-2.17,3.79,8.73,18.17,12-1.43c3.09-.37,6.36-3.16,10.15-6.26l6.63,8.76c1.67-2.65,3.75-5.96,5.57-7.04,2.41-1.44,6.91.87,8.58,3.52,3.32-8.25,8.45-15.44,14.69-12.41,1.71.83,3.64,3.95,3.91,6.42.76,6.84-6.02,14.66-13.56,17.12.07,1.61,1.92,6.67,3.82,7.99,7.81,5.43,15.32-5.67,18.74-5.22.8.11,1.06,3.13.57,3.84-4.64,6.71-15.14,9.63-21.7,5.82-6.98-4.05-4.34-16.74-12.68-22.9-6.73,4.77-3.6,15.62,1.03,24.65-.39,1.1-4.08,1.72-4.68.74l-2.86-4.58c-4.82,7.77-17.04,5.06-20.46,1.38-3.92-4.22-3.08-10.69-1.45-16.55l-7,.77c2.08,14.72,4.89,25.47-6.3,36.27-1.63,1.56-5.67,3.12-7.6,2.94-2.14-.19-6.01-2.41-7.32-4.47l-1.77-2.76c-.46-.72,1.31-2.65,2.17-2.58,3.14.27,5.69,7.89,10.55,3.94,3.48-2.82,7.77-8.56,7.41-13.07l-1.58-19.45h0ZM962.63,244.77c2.45-2.14,3.24-7.29.77-9.26-5.38,2.12-8.29,8.14-6.87,14.6l6.1-5.34h.01ZM921.05,262.55c1.89,2.94,9.95,4.59,11.71,1.76,3.59-5.81.65-12.48-2.21-18.43-3.59.96-7.58,3.14-9.19,5.94s-2.15,7.86-.31,10.74h0Z"/>
    <path class="st19" d="M826.64,219.19c-.13-.8,1.29-3.1,1.92-3.08.84,0,2.63,1.48,2.8,2.53l4.33,26.85,5.91-4.84c1.12-.92,4.41-1.94,5.76-1.61,6.39,1.6,9.17,15.6,8.35,25.11-.64,7.31-5.77,12.06-12.75,12.8-4.73.5-8.68-1.45-11.33-4.92-2.86-3.76-1.21-7.82-.19-12.44,1.47-6.69-.46-13.73-1.56-20.48l-3.24-19.9h0ZM837.56,259.55c-2.22,2.75-4.31,7.16-1.78,10.34,2.11,2.65,7.19,2.77,10.18,1.45,7.58-3.38,6.3-17.56.99-27.82-5.01.98-8.18,5.86-8.95,9.91.67.91,2.26,2.79,1.75,3.42l-2.19,2.72h0Z"/>
    <path class="st11" d="M872.97,234.39c6.01,7.38-1.99,20.99-11.17,24.29,7.27,13.32,24.35,3.06,23.36,5.83l-1.45,4.09c-9.56,4.23-20.09,1.91-25.96-6.78-1.17-11.27,4-22.63,15.24-27.42h-.01Z"/>
    <path class="st11" d="M1563.9,212.21c2.31-20.51.32-39.76-2.93-59.9l2.14-2.91c.63-.85,2.87,2.12,2.99,3.26l3.61,34.65c5.36-1.27,10.31-5.38,14.31-10.38,3.74,2.46,1.67,6.96-1.33,8.8l-12.88,7.9-1.6,20.84c-.07.92-2.71,2.48-3.5,2.21-1.01-.33-1.41-2.58-.79-4.48h0Z"/>
    <path class="st19" d="M1494.7,198.95c-4.59-10.1-1.13-20.32,9.27-24.23l12.94,2.86c2.96,10.33-2.3,20.16-10.63,25.37-4.65,2.9-9.4.79-11.57-4h-.01ZM1502.36,199.18c8.33-2.78,11.12-11.33,10.57-18.72l-10.17,3.87c-2.7,1.03-4.87,4.98-5.17,7.2s2.17,8.53,4.78,7.66h0Z"/>
    <path class="st19" d="M1525.99,179.86c3.97.98,1.19,10.85,7.23,20.12,2.02-1.07,5.93-3.03,6.61-4.63l6.07-14.35c.29-.69,2.71-1.97,3.18-1.44,3.64,4.16,2.37,12.99,8.18,26.99.32.77.06,2.74-.22,3.51s-3.6-.45-3.87-1.3l-5.85-17.89c-2.23,5.07-4.95,9.09-9.25,12.19-2.71,1.96-6.56,1.86-8.71-1.06-3.86-5.24-5.86-11.84-5.72-18.17l.06-3.1c0-.62,1.69-1.02,2.3-.88h-.01Z"/>
    <path class="st11" d="M1101.21,256.79c1.14-18.7,20.55-23.92,21.23-20.01l.62,3.6c.17.96-3.63.44-4.71.61-7.33,1.18-13.65,10.28-12.01,17.9,1.07,4.97,8.79,6.41,13.16,5.38l16.14-3.82c-4.38-7.75-4.97-16.32.44-22.43,2.84-3.21,6.3-5.77,9.68-5.91,4.79-.2,8.2,1.9,11.05,5.77,5.69,7.72,5.02,19.21-3.21,24.56-4.9,3.19-11.36,2.34-15.74-.57-4.49,6.19-20.23,8.57-28.09,6.24-5.44-1.61-8.94-5.64-8.6-11.3h.02ZM1139.75,243.14c-2.87,4.45-3.91,8.14-.87,13.03,2.27,3.65,8.41,4.83,12.59,1.83,5.67-4.07,5.58-12.05,1.41-17.53-1.97-2.59-4.85-4.19-8.06-3.4-2.08.51-3.68,3.88-5.09,6.06h0Z"/>
    <path class="st19" d="M1167.03,256.88l-.31-20.63c-.01-.79,1.59-2.71,2.18-3.03s2.53.91,2.54,1.58l.28,9.3,5.15-11.8c.28-.65,2.75-1.56,3.42-1.34.89.3,2.52,1.92,2.73,3.04l3.11,16.65,11.14-16.58c.54-.79,2.7-2.09,3.65-2.03,1.18.08,3.45,2.37,3.52,3.69l1.49,25.49c.05.92-.22,3.04-.37,3.68s-1.69.86-2.33.73c-.86-.18-2-2.13-2.04-3.05l-.91-23.38-12.36,15.82c-1.4,1.79-5.98-.51-6.38-2.33l-2.79-12.87-6.02,18.81c-.28.87-2.43,2.43-3.29,2.56-1.07.16-2.41-2.19-2.44-4.32l-.02.02Z"/>
    <path class="st2" d="M1221.3,264.94c-1.88,10.9,6.11,15.8,2.93,20.59-.6.9-3.09,1.22-5.03,1.08-4.99-17.43-3.98-43,10.4-53.11,1.44-1.02,5.12-1.53,6.59-1.18,7.35,1.71,6.41,23.17-7.08,31.62-1.73,1.08-5.91,1-7.8,1.01h0ZM1222.41,258.85c.19,5.31,17.34-3.77,12.5-22.73-8.06,4.14-12.87,12.71-12.5,22.73Z"/>
    <path class="st11" d="M1105.91,187.49c-3.41-.33-10.06-3.05-9.06-7.58,1.66-7.48,10.41-12.07,17.76-11.51l-.34,5.15c-6.17-.31-10.46,1.55-13.04,7.76,8.45,3.32,15.54-.52,20.03,5.75,1.61-8.7,8.63-16.91,19.02-14.96l3.98,19.9c.58,2.88,3.29,4.58,6.21,5.72.66,1.12-1.74,4.58-3.17,4.65s-4.06-1.48-4.74-2.76l-3.02-5.68c-3.63,3.3-6.76,5.21-10.58,4.88s-6.92-3.97-7.92-8.67c-2.47,6.06-7.67,11-14.71,12.98-2.97.84-8.08-1.71-7.52-4.68.35-1.31,4-.76,5.72-.56,5.01.58,9.33-3.89,12-9.38l-10.62-1.02h0ZM1128.72,193.44c4.78,2.2,8.05-3.62,8.7-6.24.73-2.99-.09-8.95-2.8-10.09-6.93.44-12,13.53-5.9,16.33Z"/>
    <path class="st2" d="M1218.64,176.23c7.13,6.85,2.81,16.91,1.09,15.01-3.75-4.15-.1-11.43-6.8-11.73-1.11,3.16-1.88,8.8-1.27,12.44.85,5.03,7.11,7.62,10.78,5.06l2-8.5c.19-.79,2.83-1.86,2.71-2.66l-.6-3.94c-.17-1.07,3.07-2.95,3.57-1.97l2.54,5.03c2.93-4.06,7.2-9.27,13.4-7.16,9.39,3.18,13.64,18.37,9.29,17.36-.85-.2-2.02-1.41-2.53-2.29l-4.81-8.16c-.82-1.39-4.44-2.84-5.96-2.48s-4.03,2.7-4.53,4.19l-4.52,13.32c-3.38-.5-3.74-3.97-3.84-7.26-1.18,3.15-2.7,7.72-5.06,9.06-3.39,1.91-8.69,1.31-11.89-.96-8.45-6.02-6.01-21.67-1.67-24.82,1.58-1.14,6.64-.96,8.11.46h.01Z"/>
    <path class="st19" d="M1182.35,188.72c-.1-.84-2.87-2.78-3.58-3.25-.88-.6,2.5-3.57,2.35-4.74l-2.89-22.65-4.66-4.66c.83-.85,2.86-2.18,4.03-2.22,1.4-.05,4.34,2.28,4.58,3.74l3.56,20.89c12.04-.77,18.64,20.5,11.95,26.81-.81.76-3.16-2.27-2.89-3.58,1.47-7.1.27-15.43-8.34-18.92l1.77,18.81c.09.99-.4,3.01-.73,3.74s-3.45.08-3.55-.72l-1.61-13.28v.02Z"/>
    <path class="st19" d="M1038.01,198.22c-5.29-1.3-4.13-21.93,7.84-26.36l8.24,5.24,3.66,26.39c.14,1.02-.76,3.02-1.55,3.34s-2.83-1.4-2.96-2.24l-2.42-15.09c-2.24,4-6.08,10.38-12.81,8.73h0ZM1040.08,193.95c2.43-1.13,6.64-5.07,6.41-7.58l-.92-9.7c-5.05,4.62-5.99,10.89-5.49,17.28h0Z"/>
    <path class="st19" d="M977.07,187.68c-4.57-.73-.14-4.37,6-8.98l-2.49-18.73c-.64-.95-1.58-2.17-1.18-2.74l1.58-2.3c.53-.76,3.88,1.51,4,2.44l2.42,18.44c2.88-1.07,8.7-2.56,11.68-2.81.8-.07,1.9,3.43,1.13,3.68l-3.83,1.24c-2.32.76-8,2.02-8.01,5.43l-.03,24.82c-.01,1.05-2.85,3.18-3.42,2.52s-1.18-2.3-1.18-3.18l-.08-22.07c-1.85.84-5.1,2.49-6.61,2.24h0Z"/>
    <path class="st19" d="M1062.79,195.4l2.39-21.07-2.56-2.68c-.51-.55.34-2.54,1.06-2.75s3.53-.03,4.03.53c1.44,1.62,2.16,5.98,2.41,9.03l7.84-6.88c3.05-2.67,7.12-.49,8.94,2.84,3.57,6.53,5.09,18.18,1.28,23.28-.5.65-3.18-.71-3.11-1.63.43-5.53,1.75-15.5-3.78-20.91-11.05,6.07-9.71,20.75-18.5,20.23h0Z"/>
    <path class="st11" d="M1010.13,203.75c-.06.96-2.51,3.08-3.17,2.56s-1.72-2.45-1.69-3.55l.51-16.44c.12-3.78,0-4.2,2.45-7.05,2.5-2.89,5.3-7.82,9.01-9.01,5.74-1.84,9.98,4.34,11.16,8.67.22.81-.2,3.04-.62,3.69-1.98,3.12-4.15-5.39-8.48-8.23-4.92,3.03-7.74,8.14-8.11,13.77l-1.05,15.58h-.01Z"/>
    <path class="st9" d="M1153.07,187.36c1.23-13.22,14.83-20.92,16.47-17.38,2.09,4.52-14.66,7.47-10.78,20.48,7.52,6.1,13.69-3.54,17.42-3.11,3.05.35-2.43,10.26-13.21,9.97-6.16-.15-10.46-3.86-9.9-9.96h0Z"/>
    <path class="st9" d="M1198.5,171.16l-.22-8.2c-.02-.75-.67-2.86.01-3.08l3.58-1.15c.9-.29,2.18,2.83,2.05,3.78l-1.23,9.44c-.08.61-1.74,1.68-2.32,1.89s-1.85-2.03-1.87-2.68h0Z"/>
  </g>
  <path class="st18" d="M340.49,138.54c-8.02-9.85-7.72-26.2-3.51-29.31,4.67-3.43,10.81-7.8,16.75-7.78,6.52.03,14.53,6.07,17.19,11.62,6.02,12.51-2.83,24.77-14.22,29.05-6.7,2.51-11.54,2.15-16.21-3.59Z"/>
  <g>
    <path class="st14" d="M408.52,132.32c-.24,1.94,5.8,3.18,7.67,2l15.41-9.7c.98-.61,3.76,1.9,3.23,2.77s-1.96,2.69-2.88,3.23l-12.27,7.16c-5.01,2.93-11.92,2.17-16.45-2.1l5.75-40.06.03-7.17c9.94-3.22,24.4-8.92,27.64-4.39.54.76.49,3.85-.41,3.72l-4.59-.7-17.6,4.68-2.7,22.59c8.46-4.95,21.32-8.19,24.98-4.02.42.48.36,2.99-.29,3l-3.69.02c-4.01.03-8.96.85-12.64,2.29l-9.61,3.77-1.57,12.91h0Z"/>
    <path class="st17" d="M482.44,121.94c-3.31-10.57,4.6-16.68,6.65-15.89l4.3,1.66c2.26.87,6.24,1.61,7.88,2.86,4.23,3.24,4.97,14.3.19,18.2-2.7,2.2-6.86,2.76-10.45,1.49-4.36-1.55-7.48-4.8-8.58-8.33h0ZM487.42,112.7c-1.65,2.61-1.23,7.37.42,9.87,1.33,2.02,6.14,4.03,9.14,3.29s3.59-6.21,2.76-9.04c-.6-2.05-3.54-3.55-6.31-4.82l-2.88-1.31c-.5-.23-2.71,1.34-3.13,2h0Z"/>
    <path class="st22" d="M449.19,128.74c.03,1.08-2.45,3.39-3.31,3.18-4.62-1.15-.4-9.73-3.48-21.21l6.1-6.43c.71-.75,2.75-2.44,3.75-2.27,1.21.2,3.13,1.69,4.32,2.77.75.68.73,4.66-.31,4.49s-2.27-.65-4.7-1.61c-1.53,2.24-2.74,7.25-2.63,11.21l.27,9.87h0Z"/>
    <path class="st21" d="M467.28,109.59c-4.03,11.8,2.93,18.61-1.7,20.97-7.43,3.79-6.2-27,2.91-28.77,2.51-.48,6.97.63,8.47,2.08.4.38.58,3.52.03,3.56-.82.06-2.19.1-3.02-.05l-4.35-.82c-.91-.17-2.03,2.15-2.33,3.04h0Z"/>
    <path class="st22" d="M527.15,107.9c-9.6,10.43-2.62,20.67-5.09,24.69-.56.91-3.44-.79-3.78-1.87-5.08-16.04,5.91-31.99,13.94-28.99.68.26,1.37,2.59.72,2.96l-5.78,3.21h-.01Z"/>
  </g>
  <g>
    <path class="st13" d="M1040.65,113.53c-9.62-14.5-3.04-29.89,2.04-28.66,1.23.29,2.97,1.81,4.12,3l-6.16,4.96c4.38-1.33,8.65-3.37,12.33-2.97,6.57.7,8.81,6.84,7.05,12.04-1.98,5.87-4.9,11.13-10.39,14.03-3.23,1.7-7.09.48-8.99-2.39h0ZM1040.83,99.84c-.37,4.22,2.27,9.61,5.14,12.39,6.77-3,11.48-10.66,8.68-16.94-3.89-2.1-11.63.76-13.82,4.54h0Z"/>
    <path class="st16" d="M1001.31,93.7l9.03-4.82-1.56-20.7-1.29-3.97c-.3-.91,2.12-1.91,3.09-1.97s2.74,1.88,2.83,3.11l1.47,19.8,8.81-4.89c.92-.51,3.92-.26,4.16.59.3,1.07-.75,2.98-1.81,3.6l-10.63,6.18,2.6,22.33c.11.96-.68,3.08-1.04,3.73s-3.27-.46-3.35-1.13l-2.54-21.18c-3.61,1.02-5.97,4.2-9.76-.7v.02Z"/>
    <path class="st25" d="M1152.33,113.84l-1.97,1.12c-.56.32-2.6-1.18-2.8-1.79l-2.96-8.84-4.55,8.43c-.57,1.06-3.34,2.52-4.55,2.61s-3.98-1.79-4.32-2.99l-4.33-15.13-11.72,3.15c1.65,10.76,3.63,19.5,2.96,29.59-.46,7.05-5.29,14.12-12.56,14.59-8.88.58-16.61-8.61-16.78-18.68,2.2-1.3,4.91,1.11,5.41,3.59,1.32,6.48,6.68,12.05,13.8,9.47,8.72-3.16,5.41-24.46,2.26-36.92-1.88.14-4.63-.29-4.32-1.23s1.8-2.96,2.95-4.39l-3.26-14.61c-2.53-11.38-1.45-23.56,4.01-23.76s9.04,10.54,9.75,19.44c.36,4.56-2.85,9.49-7.85,8.41l2.06,9.52,16.89-3.07,4.97,18.34c6.07-6.94,4.31-16.42,8.36-17.31,1.16-.26,3.37,1.85,3.74,3.14l3.91,13.92.88,3.39h0ZM1111.13,83.61l3.87-5.16-4.4-15.06c-3.12,6.4-1.69,13.08.53,20.21h0Z"/>
    <path class="st14" d="M1175.75,102.32c-5.19-13.16-12.66-38.22-5.1-42.48,2.55-1.43,6.04-.72,9.04.63,4.13,1.86,7.23,7.73,5.71,10.67-.58,1.12-4.94,1.97-5.39.92s-.43-2.55-.38-4.81c.04-1.97-4.4-3.97-6.62-3.49-.6,2.7-1.41,7.2-.72,9.61l7.75,26.83c4.67-1.03,9.43-2.46,13.47-.7,4.17,6.85,4.57,17.08,1.63,16.73-.82-.1-2.31-1.47-2.49-2.38l-2.01-10.72-9.23,1.59c1.31,6.57,1.85,12.57-.1,18.73-1.74,5.45-7.29,9.42-13.13,7.44-3.49-1.19-6.85-5.74-7.13-8.69-.86-8.84,5.96-14.93,14.72-19.91h-.02ZM1176.54,123.03c1.81-5.91,1.57-10.35.47-15.83-5.95,2.93-9.95,6.57-11.33,12.29-.68,2.83,1.94,6.66,4.19,7.18,1.82.42,6-1.46,6.67-3.66h0Z"/>
    <path class="st5" d="M1203.18,66.74l-.59-3.74c-.11-.73,1.81-1.47,2.51-1.24s2.39,1.95,2.5,2.79l2.03,14.39c.8,15.02,2.42,28.61,5.33,43.27l-2.21,2.23c-.57.56-2.7-1.95-2.82-2.76l-3.87-27.6-2.88-27.33h0Z"/>
    <path class="st17" d="M1215.37,70.66c-.14-.64.18-2.55.46-3.11,1.26-2.47,5.93,2.41,6.93,14.5l3.42,41.15c.08.96-.74,2.81-1.38,3.52s-3.23-1.6-3.33-2.81l-3.31-40.62-2.79-12.62h0Z"/>
    <path class="st17" d="M1152.33,113.84l-.88-3.39.04-4.17-2.43-28.48-2.2-13.85c.66-.62,3.55-.85,4.23-.05.54.65,1.82,2.94,1.9,4l2.08,28.17,2.64,18.19-5.38-.43h0Z"/>
    <path class="st8" d="M1186.02,80.58c-.13-.98.94-3.13,1.8-3.56,1.07-.54,4.55.42,4.59,1.46-.33,1.79-.85,2.88-1.61,3.34-.96.58-4.63-.15-4.77-1.24Z"/>
    <path class="st19" d="M1492.54,128.22l-13.08,2.02-3.42.38c-.73.08-1.57-2.1-1.24-2.76s1.9-2.01,2.69-2.14l12.41-2.08c16.36-1.08,31.92.7,48.19,1.32l44.04,1.68,14.55.46,14.29-1.36c1.64-.15,3.95.63,4.81,1.71s.04,5.88-1.24,5.41c-2.15-.8-5.78-2.08-7.63-1.9l-9.15.89-16.17-.3-42.93-1.74-20.45-1.16-25.69-.45h0Z"/>
    <path class="st13" d="M1544.65,88.98c9.28-5.52,18.53-15.26,15.2-23.31-9.05-2.43-13.96,5.58-19.74,6.04-.87.07-2.62-2.37-1.91-2.88l3.32-2.38c5.15-3.69,15.26-9.26,21.27-4.14s.94,15.65-3.29,20.21l-7.7,8.31c5.01,1.85,13.2,3.44,17.04,7.29,5.73,5.76-.46,12.61-5.54,15.39-16.41,9.01-24.98,1.09-22.72-2,2.54-3.45,5.28,5.53,19.19-1.48,3.2-1.61,6.62-4.04,6.72-8.2-6.86-4.02-14.58-6.15-22.59-7.89-1.43-.3-.53-4.2.76-4.95h0Z"/>
    <path class="st13" d="M1488.3,87.29c-9.75-2.36,11.93-10.65,9.13-23.16-2.42-5.46-12.55-.05-14.1,5.01-.99.75-4.09-1.29-3.84-2.5,1.24-6.05,14.14-12.87,20.78-7.49,5.48,4.45,1.64,15.96-6.55,23.97l11.96,4.31c6.62,2.39,6.7,11.82,2.98,16.69-7.22,9.46-21.84,13.03-27.99,7.2-.83-.79-.84-5.3.11-4.88l4.09,1.77c7.39,3.2,17.39-1.65,20.93-8.89,2.19-4.47-1.28-8.13-5.34-9.12l-12.17-2.95v.02Z"/>
    <path class="st14" d="M1580.45,78.39c.18-9.68,5.69-17.06,15.23-17.12,2.61-.01,7.54,3.37,8.21,5.82l1.79,6.56c1.45,14.91,3.24,29.15,6.39,43.77.02.85-.05,2.9-.76,2.94l-3.58.21-5.84-36.8c-4.3,3.22-10.58,6.76-16.65,5.47-3.96-.85-4.87-6.58-4.79-10.83h0ZM1586.09,84.67c6.08.26,12.76-2.39,13.94-7.58-1.34-2.62-1.72-5.23-1.14-8.64-.07-1.93-5.49-2.78-7.64-1.72-5.84,2.85-7.26,10.83-5.16,17.95h0Z"/>
    <path class="st7" d="M1524.89,106.69c.49-12.47-.77-24.51-2.13-36.83l-.34-3.03c-.07-.63,1.8-1.16,2.4-.93,4.81,1.82,5.24,28.93,4.84,41.77-.04,1.3-3.1,3.44-3.91,2.79s-.94-1.96-.86-3.77h0Z"/>
    <path class="st14" d="M946.97,119.79c1.21,1.99,6.82.23,7.98-1.54,8.78-13.51-.4-27,2.78-47.8.12-.8,2.13-2.86,2.7-3.36,4.74-4.19,5.02,25.89,4.04,41.14-.18,2.79,2.44,7.24,3.72,9.34.5.82-2.09,3.25-2.89,2.66l-3.66-2.72c-5.34,6.87-12.45,10.6-17.87,6.23-2.04-1.65-2.9-5.52-3.09-8.85-.47-8.14,5.36-16.48,12.11-17.39,1.27-.17,3.58,1.18,4.07,1.93s-.21,3.47-1.1,3.47l-4.05.04c-5.2,2.24-8.62,10.46-4.76,16.85h.01Z"/>
    <path class="st13" d="M830.36,92.2c-.4-1.52,2.83-4.31,4.18-5.17l24.43-15.42c1.36,1.54,2.06,5.1,1.04,5.62l-5.24,2.65c-6.92,3.49-13.95,8.95-19.6,13.48l3.25,12.75,10.69-6.74c2.45-1.53,6.77-3.42,9.17-3.44.75-.01,3.22,2.13,2.71,2.7-2.78,3.13-4.98,1.65-10.48,5.62-4.09,2.95-7.42,4.72-12.25,6.68l2.11,20.87.55,3.03c.15.82-1.77,2.31-2.41,1.78l-2.78-2.37-3.31-34.07-2.09-7.96h.01Z"/>
    <path class="st13" d="M863.99,125.79c-6.25-.6-6.84-6.37-5.6-10.97,1.88-6.96,6.74-14.83,14.78-13.36l7.26,2.21,3.7,16.32c.48,2.12,3.6,5.24-1.28,7.06-1.61-2.28-3.52-6.66-5.21-10.85-2.46,4.62-7.11,10.22-13.65,9.59h0ZM864.26,121.71c7.22-2.1,9.8-7.74,10.73-12.6l-5.74-2.73c-4.24,3.21-9.12,10.28-4.99,15.33h0Z"/>
    <path class="st16" d="M905.22,89.76l-1.11-16.54c-.15-2.21-1.23-3.99-1.02-5.23.26-1.49,5.87-1.05,5.93.45l.77,20.78,4.25,40.37c-.51.8-2.32,2.65-3.1,2.21s-1.81-2.46-1.9-3.36l-3.83-38.67h0Z"/>
    <path class="st13" d="M918.69,101.36c1.68-2.13,4.71-3.88,6.5-4.22s6.33,1.15,6.89,3.1c1.97,6.83-2.04,14.04-8.97,17.24,3.89,6.11,11.07,3.3,10.83,7.22-.23,3.71-11.97,2.63-16.14-6.75-2.42-5.45-3.02-11.62.89-16.59h0ZM921.31,112.06c4.1-.15,8.04-6.53,6-10.24-5.34.08-8.23,6.67-6,10.24Z"/>
    <path class="st15" d="M889.38,125.35c-1.07-3.33,1.11-5.77,1.11-15.31,0-.8.74-2.26,1.21-2.74,2.24-2.31,6.32,7.1,1.47,16.94-.39.8-3.54,1.92-3.79,1.12h0Z"/>
    <path class="st6" d="M891.09,94.71c-1.16.1-2.49-2.87-2.38-4.02s2.47-3.36,3.74-3.05c1,.25,2.07,2.88,1.74,3.84s-2.09,3.15-3.1,3.23h0Z"/>
    <path class="st14" d="M1269.04,115.94c-2.84-12.12-.74-22.9,4.23-33.53-1.12-13.33,16.11-24.89,27.57-19.96,13.19,5.68,16.6,19.93,12.08,32.65-5.09,14.33-14.65,26.75-29.97,31.18-6.44,1.86-12.45-4.08-13.91-10.34h0ZM1277.94,121.07c2.12.94,6.13.32,8.13-.72,11.9-6.18,18.37-15.2,22.64-27.4,3.83-10.96-.1-24.12-12.25-26.87-4.09-.92-9.14.62-9.75,4.68-14.83,13.83-18.69,45.87-8.77,50.29h0Z"/>
    <path class="st25" d="M1350.14,88.43c3.85-3.53,7.2-3.51,12.46-1.44l-1.6-25.98c-.05-.83,2.49-2.53,2.9-1.96.56.79,1.8,2.88,1.91,3.84l4.91,43.63,4.03,2.34c1.58,2.45-3.1,7.73-5.97,5.51-1.68-1.72-2.45-7.13-2.83-10.12-4.91,7.58-11.41,12.35-17.43,8.12-5.8-4.07-6.38-16.6,1.63-23.93h0ZM1353.93,91.07c-4.95,4.25-7.15,12.13-2.83,16.93,2.45,2.73,7.12-.64,8.59-2.82,2.42-3.59-.32-5.93-.75-9.55l-.57-4.78c-.1-.88-3.75-.38-4.44.21h0Z"/>
    <path class="st13" d="M1383.1,81.02c1.2-.71,5.25-.87,6.24.06,5.88,5.52-1.08,15.75-8.2,23.58.3,3.06,4.58,5.93,7.42,5.52,7.82-1.16,7.91-5.45,11.39-6.25.94-.22,2,3,1.28,4.15-3.99,6.32-16.82,9.99-22.21,2.28l-5.22-7.46,2.2-9.66c1.1-4.83,2.07-9.25,7.11-12.22h0ZM1380.5,97.51c3.93-3.77,6.61-7.82,5.95-12.82-5.1,2.71-6.16,7.66-5.95,12.82Z"/>
    <path class="st17" d="M1325.75,114.75c-.07,1.33-2.9,3.61-3.7,2.9s-1.48-2.75-1.36-3.97l3.16-29.51c.29-2.66,3.47-6.31,5.65-8.13,2.82-2.34,6.92-2.18,9.73-.77,2.41,1.22,5.38,6.57,2.8,8.86-1.66.4-3.83-2.5-5.5-4.68-1.37-1.79-7.02,1.68-7.42,4.21l-2.51,15.71-.85,15.37h.01Z"/>
    <path class="st22" d="M1409.66,89.73c-2.81,13.7,1.46,26.88-2.72,26.39-1.08-.12-2.48-1.93-2.63-3.19l-1.44-11.91c-.29-2.41,1.48-7.16,1.81-9.95.77-6.6,7.1-13.9,12.37-14.76,3.68-.6,8.98,1.19,10.91,3.66.52.67.45,4.01-.37,3.92-4.79-.6-5.78-3.36-9.46-2.99-3.23.33-8.04,6.65-8.48,8.81h0Z"/>
  </g>
</svg>