<?xml version="1.0" encoding="UTF-8"?>
<svg id="Layer_1" xmlns="http://www.w3.org/2000/svg" version="1.1" viewBox="0 0 1920 700">
  <!-- Generator: Adobe Illustrator 30.3.0, SVG Export Plug-In . SVG Version: 2.1.3 Build 182)  -->
  <defs>
    <style>
      .st0 {
        fill: #f1f1f1;
      }

      .st1 {
        fill: #ddd;
      }

      .st2 {
        fill: #f6f6f6;
      }

      .st3 {
        fill: #e4e4e4;
      }

      .st4 {
        fill: #f4f4f4;
      }

      .st5 {
        fill: #606060;
      }

      .st6 {
        fill: #5d5d5d;
      }

      .st7 {
        fill: #e7e7e7;
      }

      .st8 {
        fill: #f9f9f9;
      }

      .st9 {
        fill: #fafafa;
      }

      .st10 {
        fill: #f7f7f7;
      }

      .st11 {
        fill: #5e5e5e;
      }

      .st12 {
        fill: #f2f2f2;
      }

      .st13 {
        fill: #f8f8f8;
      }

      .st14 {
        fill: #f5f5f5;
      }

      .st15 {
        fill: #f0f0f0;
      }

      .st16 {
        fill: #e2e2e2;
      }

      .st17 {
        fill: #f3f3f3;
      }

      .st18 {
        fill: #ededed;
      }

      .st19 {
        fill: #fbfbfb;
      }

      .st20 {
        fill: #cfcfcf;
      }

      .st21 {
        fill: #e8e8e8;
      }
    </style>
  </defs>
  <g>
    <path class="st5" d="M397.45,468.53c-.88-9.66.81-14.08,8.7-18.19s17.44-9.04,25.52-5.73c4.64,1.9,9.36,17.57,9.11,29.05-.22,10.24-5.9,15.17-14.59,19-3.77,1.66-8.7,4.47-12.78,4.61-3.34.11-8.59-3.58-11.03-6.85-4.62-6.19-4.24-14.34-4.93-21.89Z"/>
    <path class="st5" d="M400.03,237.63c1.77-5.85,3.92-14.35,7.87-18.74,7.1-7.89,17.7-3.47,24.52,1.44s10.11,9.7,11.82,17.01c2.78,11.87-2.38,18.94-12.24,24.15-5.53,2.92-9.32,4.85-15.93,3.04-12.09-3.31-19.98-13.86-16.05-26.91Z"/>
    <path class="st5" d="M396.27,356.37c-3.41-9.47-.21-17.88,6.87-22.64,2.91-6.99,9.21-9.54,16.47-7.61,6.34,1.69,12.8,5.11,15.54,11.55,4.86,11.38,3.25,24.94-5.22,34.34-4.29,4.76-14.38,7.78-20.12,3.72s-11-12.29-13.55-19.37Z"/>
  </g>
  <g>
    <path class="st9" d="M475.79,479.1c-15.17-31.46,6.09-64.85,16.03-64.83,1.63,0,3.56,3.01,4.87,4.74,9.3,3.02,19.88,10.3,21.45,21.34,2.51,17.54-6.56,36.27-21.64,44.82-6.84,3.87-17.27,1.08-20.72-6.06ZM487.69,480.88c14.48.73,26.08-21.25,25.01-37.96-.63-9.88-10.49-17.72-19.99-17.95-1.9-.05-6.27,1.88-8.28,2.83-12.86,18.28-9.28,52.45,3.26,53.08Z"/>
    <path class="st9" d="M480.72,377.32c-18.18-3.08-23.1-32.01-9.2-56.32,4.3-7.52,8.91-11.24,18.62-11.04,5.75.12,12.76,3.31,16.42,9.65,9.52,16.47,5.65,38.66-8.01,52.13-4.86,4.79-11.2,6.71-17.83,5.58ZM473.87,329.62c-8.23,14.92-5.2,39.03,7.02,41.81,4.57,1.04,9.99-.38,13.47-3.79,12.05-11.82,15.53-31.21,6.83-45.56-2.59-4.27-8.03-6.6-11.77-6.01-4.08.64-7.16,6.19-9.55,8.29l-6,5.26Z"/>
    <path class="st9" d="M544.19,412.16l1.6,50.15c5.04-15.15,16.13-38.59,24.11-35.94,1.05.35,1.41,4.08.74,5.14l-14.24,22.4c-2.3,3.62-1.95,9.66,2.39,11.56,4.47,1.96,10.54,1.64,15.27.91l3.43-.53c.95-.15,1.2,4.24.16,4.78-6.29,3.26-20.22,4.04-26.71-4.07l-5.83,11.54c-.58,1.14-3.88,3.34-4.61,2.47s-1.43-2.89-1.45-4.16l-.92-61.42c-.03-2.05-.64-4.38.04-5.5.81-1.35,5.96.63,6.02,2.67Z"/>
    <path class="st8" d="M531.67,230.35l-.16,24.92c.96-1.77,3.16-5.86,3.47-8.01,2.56-17.71,19.86-22.78,18.39-18.46l-.98,2.89-9.56,13.54c-.95,1.34-1.81,5.19-1.56,6.8.29,1.89,3.89,5,5.97,5.1l12.43.63c.84.04,3.06.66,3.86.95,6.12,2.24-9.69,10.78-26.04-.19l-5.58,12.01c-.34.74-4.12,1.83-4.47,1.09l-1.92-4.12.61-65.05c-.52-.96-1.46-4.8-.38-5.06l4.3-1.03c1.08-.26,2.18,3.14,2.16,4.36l-.55,29.62Z"/>
    <path class="st9" d="M475.87,221.61c2.41-4.87,3.96-6.12,8.61-6.8,7.01-1.03,13.89-.93,19.14,4.72,7.54,8.12,11.7,19.48,10.65,30.79-1.03,11.1-8.92,20.89-20.21,21.32-10.12.38-17.4-7.4-21.24-15.87-5.12-11.29-2.55-22.8,3.06-34.16ZM477.88,232.35c-3.63,8.44-2.14,18.08,2.67,25.8,3.08,4.93,9.39,8.62,15.09,7.53,5.38-1.03,10.52-5.79,11.99-11.82,2.91-11.99-1.31-25.42-11.52-32.66-1.72-1.22-7.47-1.5-9.26-.38-3.81,2.39-1.73,10.22-3.91,10.62l-5.07.93Z"/>
    <path class="st9" d="M536.71,313.59l1.54,28.22c6.33-9.28,15.85-19.83,18.88-16.71.77.79,1.1,3.78.43,4.93l-12.7,21.51,19.23.78c.84.03,3.04,1.59,3.6,2.18s.78,3.38-.03,3.42l-4.58.21-22.8-.37-2.95,1.96c-.78.52-2.59-1.32-3.76-2.41l-3.2-44.03,3.16-2.77c.79-.69,3.12,2,3.18,3.09Z"/>
  </g>
  <g>
    <path class="st6" d="M751.94,261.51c1.87,4.42,10.56,4.11,12.71.1l2.36-4.4c.57-1.07,3.57-.22,4.86.13l-4.28-56.66.27-4.48c.08-1.4,5.46.44,5.59,2.19l3.33,47.83,7.89-10.71c1.24-1.69,6.2-3.09,8.23-2.95,9.01.64,13.42,29.34,6.46,42.11-4.34,7.96-20.36,2.08-29.35-9.86-2.08,3.22-6.74,6.02-12.22,5.69-5.99-.36-14.06-4.35-16.75-10.13-4.27-9.13.83-20.14,9.23-25.08,1.59-.94,6.11-.98,7.58-.03,5.91,3.84,1.47,16.25-5.89,26.23ZM774.9,261c4.64,6.73,11.88,12.65,20.15,11.03,2.64-11.71,2.7-22.76-2.55-34.3-4.95,2.97-7.48,6.8-10.18,11.19l-7.42,12.07Z"/>
    <path class="st11" d="M773.84,475.7c-5.09-7.19-7.01-17.82-1.05-25.2,2.16-2.68,9.9-3.38,13.36-1.41s6.72,5.51,8.86,9.98l7.34,4.02.78-44.33c-1.83-2-3.36-3.81-3.93-5s2.76-3.29,4.07-3.47c8.41-1.2,6.14,28.27,5.52,46.93,6.53-2.2,14.76-7.84,21.23-3.25,9.21,6.53,7.32,28.74.3,32.6-9.94,5.46-21.28-8.19-32.08-18.76l2.6,19.41-2.12,3.82c-.48.87-3.25-1.69-3.49-2.79l-4.24-19.86c-2.29,4.3-3.95,8.01-6.09,9.71-2.55,2.03-8.87.73-11.08-2.4ZM806.54,467.32c5.04,6.37,11.65,13.3,20.25,14.62,4.95-5.12,5.1-18.57.01-23.17-7.4-1.71-14.27,3.44-20.26,8.55ZM782.14,473.33c2.18-4.07,3.46-12.48,2.66-16.93-.34-1.91-5.85-3.28-7.29-2.13-4.51,3.59-2.99,18.22,4.63,19.06Z"/>
    <path class="st11" d="M814.71,265.66c-.44,1.19-2.27,3.2-3.31,3.66-1.29.58-3.67-2.96-3.31-4.67l9.02-42.48,4.17-15.48c.39-1.43,4.94-2.92,5.37-1.62.52,1.56.54,3.82.65,8.08l4.8-14.13c.36-1.05,2.85-3.47,3.88-3.03l4.62,1.96c4.03,23.96,5.87,46.57,4.58,70.74-1.06,3.87-3.87,9.09-7,9.8-.78.18-3.77-.1-4.54-.21-1.01-.15-.79-3.29-.18-3.92,1.99-1.2,5.95-4.61,5.96-6.79l.14-26.33c-6.23,1.11-13.16,2.96-17.85,5.5l-7.03,18.92ZM825.01,238.43l14.76-3.32-3.91-28.14-10.85,31.45Z"/>
    <path class="st11" d="M820.59,372.28l-1.66,3.86c-.32.75-4.06.12-4.05-.69l.06-4.18,11.91-52.29-.32-4.92c-.07-1.11,1.81-1.56,4.62-2.08l1.86,11.81,6.26-17.66c.41-1.16,2.59-2.98,3.64-3.33s3.84,2.26,4.01,3.43l3.13,22.24,2.9,47.49c.12,1.97-2.23,5.61-3.23,6.86s-4.89,1.43-6.58.35c-1.46-.93,1.89-4.92,3.51-6.34,1.31-9.2.76-21.36-.96-31.05-6.52,3.95-10.73,6.12-17.2,6.67l-7.89,19.83ZM831.1,346.33l14.53-6.99-3.29-23.18-11.24,30.16Z"/>
    <path class="st11" d="M690.29,270.89c-5.34-14.43-14.61-41.14-11.69-49.21.42-1.15,4.33-2.15,4.5-.94l.75,5.47c1.55,11.38,4.43,21.9,9.04,33.3l3.52-24.57c.2-1.36,1.86-3.73,2.83-4.01,1.21-.34,4.53.72,5.15,1.93l10.02,19.6,6.37,13.14,3.01-52.55c.21-3.59,1.56-10.25,3.81-12.82.96-1.09,4.89-1.27,6.23-.72,1.61.66,4.12,5.36,2.45,5.86l-5.38,1.61c-1.09.33-1.12,3.23-1.21,4.85.09,19.69-.83,38.4-3.39,57.58l-3.61,5.28c-.93,1.36-5.36-1.29-6.09-2.9l-14.54-32.05-5.07,32.47c-.29,1.86-6,.55-6.69-1.31Z"/>
    <path class="st11" d="M676.78,328.95l3.27-3.74c.65-.75,2.74,2,3.15,3.22l13.49,39.96,3.18-24.39c.13-.98,1.58-3.08,2.32-3.32,3.82-1.27,9.25,6.15,12.27,13.04l9.64,22.02,1.95-62.75,2.49-5.69c.54-1.24,4.17.92,5.44,2.04s-.67,4.04-1.54,5.86l-1.7,48.03c-.38,10.82-2.38,22.39-7.78,21.54-1.33-.21-3.35-2.5-3.92-3.85l-13.46-31.6-3.88,26.82c-.21,1.46-2.08,4.6-3.2,4.42-1.39-.22-3.23-1.43-5.26-2.88l-16.45-48.73Z"/>
    <path class="st11" d="M874.6,299.43c.14,1.33-5.37,3.36-5.89,2.35l-2.69-5.2c-11.79-22.82-19.14-62.92-.95-69.96,7.07-2.74,12.71.13,17.7,4.73,8.4,7.75,10.45,21,.94,29.39-2.38,2.1-9.1,3.3-12.72,4.16l3.61,34.53ZM862.12,240.53c4.7,5.06,6.32,11.82,7.7,17.63,5.12,1.48,12.17-2.03,13.39-6.2,1.84-6.27.37-11.25-3.99-15.86-2.83-2.99-8.06-5.15-11.14-4.31s-7.56,6.2-5.96,8.75Z"/>
    <path class="st11" d="M679.48,502.68c-4.3-3.22,7.89-8.69,6.38-19.66l-5.06-36.97c-.34-2.45-5.29-5.07-2.02-9.57,6.78-9.31,16.18-15.26,27.72-18.07,5.38-1.31,12.33-3.21,17.53-1.16,14.37,5.67.19,29.6-10.39,44.25l-28.72,39.75c-.79,1.09-4.37,2.23-5.44,1.43ZM691.67,480.25c11.7-13.58,21.07-26.3,29.35-41.46,2.54-4.66,4.49-10.99,1.21-16.11-11.86-1.29-28.45,4.44-36.11,14.48l5.55,43.09Z"/>
    <path class="st11" d="M908.95,302l-7.42-37.07c-2.41-12.06-3.21-23.62,3.93-34.19,5.69-8.42,19.53-13.95,27.11-4.81,7.55,9.1,6.96,25.59.56,35.13-4.91,7.32-14.78,7.01-21.87,6.19l4.96,32.83c.18,1.18-1.24,3.86-1.98,4.7s-5-1.31-5.29-2.78ZM910.09,259.43c3.98,4.8,15.64,2.66,18.58-2.18,5.4-8.9,3.6-18.92.37-27.87-7.2-3.99-14.14-1.81-18.94,5.08-4.46,6.41-6.19,17.52,0,24.98Z"/>
    <path class="st11" d="M769.32,314.63c-.14-1.62-3.93-5.34-2.96-6.19l3.91-3.45c1.16-1.02,4.45,2.76,4.59,4.47l3.6,44.04c5.49-10.51,14.86-19.43,23.44-16.6,8.61,2.84,10.49,25.44-4.36,37.12-6.57,5.17-15.8,4.74-21.76-.48-5.56-5.47-8.36-14.18-3.22-21.65l-3.23-37.26ZM776.89,365.86c3.18,5.77,10.26,7.68,15.68,4.39,8.48-5.15,13.27-18.09,7.97-26.92-5.24-2.63-10.67,3.32-13.42,7.4l-10.23,15.13Z"/>
    <path class="st11" d="M866.91,377.8c-6.59-20.94-4.24-42.81,12.66-45.22,12.04-1.72,20.88,15.8,19.01,26.68-1.84,10.73-11.86,15.51-22.64,12.4l3.64,25.31c.19,1.32-1.5,4.35-2.46,4.91s-3.23-1.89-3.6-3.04l-6.62-21.03ZM874.64,363.61c4.95,4.97,14.04,4.03,16.69-1.35,3.87-7.88.05-19.35-8.02-23.37-4.26-2.12-12.7,3.67-12.38,8.54s2.02,11.81,3.71,16.18Z"/>
    <path class="st11" d="M908.69,360.61c.29-1.46,5.23-1.32,6.14-.62-2.66-4.27-2.36-7.46-1.56-12.49,1.05-6.62,2.37-12.53,8.43-14.23,6.95-1.95,12.04,1.64,15.21,8.21,2.9,6,5.68,12.4,2.38,19.14-2.61,5.33-8.98,8.54-15.9,10.95l4.59,29.78c.17,1.12-.43,3.88-.76,4.79-.43,1.21-4.59-.93-4.8-2.19l-5.51-32.48c-3.57-2.08-7.54-5.72-8.22-10.85ZM919.38,345.11l2.92,20.17c6.71-1.8,10.64-3.76,12.07-7.99,2.01-5.99-3.34-17.41-8.66-18.74-2.55-.64-6.78,3.45-6.33,6.56Z"/>
    <path class="st11" d="M944.57,441.25c5.92,6.2-3.94,21.6-20.08,26-2.15,4.48,5.3,14.95,12.11,16.37,4.36.9,9.84-1.41,13.49-3.79l3.07-2c.85-.56,3.09.89,3.15,1.9.35,6.14-16.98,14.02-26.62,7.13-7.58-5.42-12.68-14.34-13.57-23.72-1.2-12.71,7.5-23.98,20.35-24.85,2.25-.15,6.72,1.52,8.09,2.96ZM939.34,444.6c-9.68-1.5-18.64,6.92-17.01,17.37,9.83-4,19.38-9.48,17.01-17.37Z"/>
    <path class="st11" d="M719.65,489.18c-4.54-10.26-2.47-23.86,2.82-32.7,3.4-5.68,10.7-9.3,16.09-5.16,2.72,2.09,7.5,7.75,8.1,11.45l4.06,25.16c.17,1.03-1.4,3.42-2.15,3.76-.99.45-3.49-2.02-3.63-3.1l-1.79-14.24-11.11,14.33c-2.07,2.67-10.28,5.26-12.38.49ZM724.48,486.65c6.81-5.29,11.45-10.72,13.63-18.13l-1.76-12.36c-11.17-3.74-15.38,15.42-11.87,30.49Z"/>
    <path class="st11" d="M867.95,469.57c-4.16,7.75-14.05,12.78-20.73,6.85-8.31-7.38-6.31-22.55,2.43-28.41,5.42-3.63,11.81-4.57,16.67-1.41,4.34,2.82,8.15,7.81,8.26,14.32l.32,20.37c.03,1.63-4.13,2.43-5.06,1.78l-1.9-13.49ZM853.26,472.76c6.07,1.27,16.24-11.88,14.44-16.92-.72-2.03-4.64-5.02-6.95-5.16-6.03-.37-10.93,3.66-12.14,8.18s-1.83,12.54,4.65,13.9Z"/>
    <path class="st6" d="M754.27,336.23c3.39,1.55,4.3,12.48,1.21,17.55-1.24,2.03-6.09,2.98-9.22,3.54-4.24.75-1.45,12.96,5.45,14.16,6.53,1.14,7.84-6.04,12.89-7.64,1.21-.38,2.21,3.45,1.69,4.65-2.92,6.76-11.96,11.21-18.53,7.77-9.04-4.73-10.95-14.95-7.97-24.14,3.25-9.98,7.71-18.98,14.46-15.89Z"/>
    <path class="st11" d="M746.38,452.1c1.9-3.2,3.77-3.8,8.64-3.56l-2.77-27.37-1.28-4.39c-.29-.98,2.07-1.82,3.1-1.83s3.58,2.14,3.73,3.49l3.26,29.37,4.54,3.19c1.1.78-2.58,3.7-3.92,4.47l-1.04,23.7c-.04,1.02-1.33,3.38-1.84,4.03s-3.82.16-3.84-.66l-.12-4.34.94-22.5-9.38-3.6Z"/>
    <path class="st6" d="M900.97,469.88l-11.88-14.15c-2.73-3.25.64-9.39,3.86-11.86,1.49-1.15,3.91-2.05,5.16-1.6s.89,4.12.03,5.1l-4.65,5.36,9.18,9.92c4.4,4.76,7.97,11.16,3.79,17.82-2.61,4.15-10.42,7.72-15.01,6.56l-3.18-.8c-.94-.24-1.45-3.9-.5-4.07l4.7-.83c2.47-.43,5.74-1.47,7.94-2.56,2.03-1,2.08-7.07.56-8.87Z"/>
  </g>
  <g>
    <path class="st9" d="M1507.72,446.45c-5.32.5-10.55.13-10.96-4.77-.18-2.11,4.78-2.32,9.24-.98v-23.08c0-.96.95-3.38,1.36-4.14.54-1.01,4.3.07,4.34,1.42l.56,22.86,23.05-3.99,16.03.53c7.93,7.52,7.14,19.48-.57,26.4-2.08,1.86-4.93,3.97-6.89,4.13s-6.43-1.91-7.64-3.61c-4.28-6.03-3.63-13.66-.95-22.17l-21.86,4.91.66,30.4c.02,1.09-1.53,3.62-2.04,4.27-.68.87-3.83-.91-3.86-2.27l-.47-29.91ZM1542.16,459.01c3.32-1.2,7.08-5.15,8.3-8.13,1.34-3.3.73-9.57-3.4-11.07-2.82-.23-7.31,4.62-7.9,7.37-.74,3.48.12,8.46,2.99,11.84Z"/>
    <path class="st8" d="M1372.38,472.69c-8.76-8.92-8.82-22.89-3.16-33.81,3.78-7.29,12.05-11.26,19.44-11.96l-.62-4.29c-.51-3.54,10.89-.97,15.87,11.18,4.24,10.34,1.54,23.61-1.18,32.68l-.22,5.47c-.05,1.3-3.87.69-5.72,0-6.36,6.54-16.75,8.55-24.42.75ZM1394.97,465.84c-4.6-11.38-13.29-10.07-13.33-16.37,0-.93,4.27-1.78,4.97-1.16l12.1,10.62c2.85-10.38,2.51-22.73-5-30.14-.43,1.62-1.34,5.66-2.66,5.4l-5.13-1c-12.66,3.46-17.21,16.86-13.44,29.24,1.65,3.88,5.47,8.31,8.88,9.11,5.02,1.18,8.76-1.12,13.61-5.7Z"/>
    <path class="st8" d="M1029,481.85c20.79,5.88,26.39-15.04,28.11-10.11l1.43,4.12c-6.83,11.65-18.33,15.08-31.06,11.6-2.26-.13-6.54-1.12-7.71-2.66-1.33-1.76-1.98-6.65-1.12-9.1l16.72-47.57c11.07-6.68,23-6.25,35.3-3.74l4.24.87c.98.2.94,3.81.1,4.34-5.01,3.17-17.93-5.16-34.62,2.31l-15.71,43.78c-.39,1.08-.86,4.69.09,4.96l4.23,1.2Z"/>
    <path class="st9" d="M1602.95,412.2l1.35,38.96c.05,1.54,2.7,4.76,3.97,4.48,4.42-.97,2.42-17.28,22.02-23.7,1.64-.54,3.16,4.58,2.13,5.86l-12.9,16.19c2.25,3.8,7.37,7.89,11.5,9.73l7.81-3.67c.42,2.21.74,4.33.26,5.56-2.53,6.44-14.86,4.18-24.16-6.74-3.04,1.2-7.11,2.54-9.33,2.29-2.41-.27-6.17-4.69-6.37-7.32l-2.04-26.53-.68-13.72c-.08-1.65.43-4.11,1.55-4.92s4.82,1.72,4.88,3.53Z"/>
    <path class="st8" d="M1321.8,450.02c-6.36-4.89,7.32-25.64,30.1-27.59,2.15-.18,5.98,3.78,6.05,5.82.08,2.46-1.5,6.71-3.32,8.82-2.61,3.01-5.74,3.83-9.08,1.48l7.21-10.29c-12.25,1.27-21.05,6.71-27.18,17.27,13.63,11.58,33.26,8.51,34.48,20,.34,3.17-3.24,7.77-7.39,8.49-16.76,2.92-20-6.59-16.66-6.39l3.02.18,10.98.71c.9.06,3.35-1.45,4.02-2.07,4.19-3.86-16.88-4.63-32.23-16.44Z"/>
    <path class="st8" d="M1124.98,456.6c-.45,9.55-9.18,13.76-17.52,13.61,1.18,9.01,9.37,15.67,18.58,15.41,7.41-.21,8.11-6.53,12.63-8.9,1.16-.61,2.74,3.71,2.1,5.16-3.89,8.78-15.98,12.14-25.04,7.56-7.9-3.99-13.54-10.43-14.01-18.68-.69-12.18,10.79-23.38,19-21.77,1.95.38,4.4,4.69,4.26,7.6ZM1108.91,464.03c5.4.3,10.08-2.88,10.46-9.12-4.66.22-9.05,4.26-10.46,9.12Z"/>
    <path class="st13" d="M1264.8,439.15c4.68,2.16,7.56,13.3,2.48,20.08-2.83,3.79-8.33,4.76-14.85,5.15-.34,1.76,1.26,8.52,3.49,10.14,5.6,4.07,11.07-4.2,16.72-6.62.86-.37,2.17,3.06,1.71,4.01-2.54,5.25-12.05,11.64-18.92,8.87-13.02-5.25-11.41-31.71,1.4-41.01,1.44-1.04,6.42-1.34,7.97-.62ZM1253,458.13c6.64.39,9.68-1.43,10.95-5.11.9-2.59-.39-7.25-3.19-8.98-4.64,4.2-7.24,9.23-7.76,14.1Z"/>
    <path class="st13" d="M1411.4,424.24l-.16-5.67c-.04-1.49,6.1.85,6.06,2.36l-.73,29.37c-.16,6.26.06,15.56,3.17,19.91,9.94,4.17,14.92-7.8,21.44-9.93,1.29-.42,2.52,4.25,1.51,5.38-11.48,12.77-24.98,14.31-28.23,7.78-3.89-7.83-3.85-16.19-3.64-24.72l.59-24.48Z"/>
    <path class="st11" d="M1691.06,482.68c-2.14.06-5.96,3.01-7.88,2.3-2.86-1.05-6.98-3.96-6.18-7.99l40.29-1.18,29.42-.17c1.13,0,3.78,1.09,4.18,1.9.53,1.08.51,3.69.36,5.59l-24.02-1.53-36.16,1.09Z"/>
    <path class="st10" d="M1227.45,457.52l-5.65.51c-1.05.09-2.25-3.97-1.26-4.33l5.63-2.1-3.44-24.51-2.55-3.57c-.54-.75,1.5-2.51,2.42-2.58s4.78,1.16,4.93,2.06l4.26,24.35,9.67.27c1.14.03,3.94,2.49,3.44,3.56s-2.74,1.96-4.14,2.13l-7.68.96.85,21.23c.05,1.16-.82,4.06-1.21,4.9-.52,1.12-3.8,1.39-4.77.95l-.51-23.83Z"/>
    <path class="st10" d="M1146.96,476.61c-1.95-18.22,14.24-31.06,19.95-26.39,1.15.94,2.15,4.29,1.15,5.38-1.56,1.69-4.32,2.31-7.44,2.69-6.02.72-11.44,15.89-5.97,20.4,7.01,5.77,17.33-2.92,22.44-7.07l3-2.43c.82-.67,3.74.88,3.57,1.93-.93,5.81-13.66,14.83-24.41,15.41-6.51.35-11.61-3.45-12.3-9.92Z"/>
    <path class="st10" d="M1183.83,454.09c11.14-3.69,1.23,13.92,11.71,20.76,7.32-9.72,6.13-20.85,11.39-22.43,4.52-1.36,2.19,12.55,8.12,20.07,1.76,2.23,3.65,7.31,1.6,7.44-5.98.18-8.52-6.92-10.66-11.44-1.89,3.56-4.77,8.41-8.04,10.22-5.07,2.81-10.38-.63-11.88-5.74-1.68-5.71-2.15-12.95-2.23-18.88Z"/>
    <path class="st2" d="M1565.86,442.29c2.1-6.3,11.09-6.55,15.24-2.38l6.36-2.46c3.85,5.12,5.22,12.38,3.03,18.64s-8.06,9.17-14.29,6.37c-6.78-3.04-13.11-11.85-10.34-20.17ZM1571.21,444.82c-.6,4.38,3.72,13.73,10.52,12.32,3.74-.77,5.03-8.5,3.51-11.06-1.94,2.26-4.99,4.41-5.73,2.99l-3.09-5.98c-.52-1.01-5.07.64-5.22,1.72Z"/>
    <path class="st10" d="M1076.29,471.39c-3.3-6.08-10.5-4.1-10.43-8.98.02-1.21,3.72-2.83,4.86-2.2l8.87,4.88,8.51-10.03c.76-.9,3.27-1.78,4.13-1.24,1.07.68.79,4.16-.1,5.3l-8.35,10.7,9.21,6.2c.72.49,1.85,2.79,2.1,3.63.33,1.12-3.44,2.39-4.37,1.79l-9.4-5.97-5.94,14.69c-.3.75-2.13,2.17-2.78,2.55-.87.5-2.87-3.49-2.49-4.51l6.19-16.8Z"/>
    <path class="st13" d="M1739.14,447.54c-2.43,9.3-10.76,13.11-18,11.74-.53-4.28,3.34-6,8.06-6.97l-9.11-2.52c-1.93-.53-4.99-3.34-5.63-5.19-3.26-9.42,17.82-23.28,23.79-18.83,1.15.86-.09,5.09-1.71,5.3-5.99.8-14.78,4.34-16.86,12.43l19.47,4.04Z"/>
    <path class="st14" d="M1701.44,463.77l-3.11-56.75,3.67-1.36c.82-.3,2.24,2.54,2.3,3.61l2.83,50.61c.06,1.07-.81,3.49-1.32,4.24s-3.26.17-4.38-.35Z"/>
    <path class="st12" d="M1044.14,466.7l-6.22,1.41c-1.3-.08-1.78-4-.98-5.09s3.88-2.9,5.26-2.73l17.62,2.11c1,.12,2.66,2,2.98,2.91s-2.81,2.81-3.82,2.72l-14.85-1.32Z"/>
  </g>
  <g>
    <path class="st9" d="M1157.42,358.83c-1.41-6.32-2.47-13.2,1.07-19.31,5.65-9.76,17.3-13.82,22.98-7.87s-3.24,20.35-14.31,23.68c-.84.25-3.36-.99-3.88-1.7-3.55-4.9,15.43-6.34,13.37-18.42-5.06-1.89-12.2,4.31-13.7,8.52-4,11.21,5.44,25.37,12.58,28.08,5.04,1.91,12.32,1.34,15.01-2.21l2.44-3.65c.51-.76,3.59-.91,3.98-.09.52,1.09.56,4.27-.18,5.52-3.83,6.52-12.4,8.53-20.4,6.84-6.49-1.37-11.89-6.45-16.35-14.35-3.12,5.69-7.41,9.61-12.99,9.53-6.28-.09-10.72-3.72-12.38-10.03-5.38-10.59-2.79-22.64,7.36-29.18l4.71.22c.93.04,2.07,3.04,1.27,3.52l-4.41,2.63c-9.95,5.93-5.1,23.92.98,26.67,1.54.7,5.84-.31,7.01-1.66l5.86-6.75Z"/>
    <path class="st9" d="M1585.52,301.41l1.58,59.16,8.08-7.06c-.48-17.85,18.3-27.52,21.42-21.95.84,1.5.3,5.64-.85,7.01l-14.09,16.86c7.89,16.07,24.2,5.58,23.59,8.92l-.83,4.56c-10.48,4.81-20.82.91-27.02-9.18l-6.31,5.87c-1.06.98-4.38,2.35-5.81,2.09-1.71-.31-3.74-4.12-3.82-6.27l-2.03-59.12-.05-4.75c0-1.02,3.35-1.67,3.8-.76l2.33,4.63Z"/>
    <path class="st9" d="M1311.36,335.24c4.02-7.03,12.12-7.66,17-3.81l-2.81-27.85c-.13-1.31,1.78-4.22,2.72-4.76,1.17-.68,4.3,2.16,4.45,3.6l3.06,30.59c1.22,12.23,2.14,22.88,6.12,34.43.34.98.53,2.86.5,3.77s-3.69,1.76-4.09.97l-4.65-9.29c-1.66,6.36-7.47,13.66-13.99,10.77-9.68-4.3-14.49-27.61-8.31-38.41ZM1322.48,369.16c8.52-7.05,9.73-21.89,4.99-31.15-.93-1.82-5.56-3.51-7.27-2.96-8.54,2.74-7.72,24.8,2.29,34.11Z"/>
    <path class="st19" d="M1795.24,337.32l-18.49-7.97c-1.58-.68-4.11-4.05-4.31-5.72-.97-7.89,14.11-15.53,27.55-13.38l1.92,8c2.42-1.08,8.8-2.7,12.09-1.94,2.07.48,2.21,7.08.72,8.77l-11.39,12.81c.04,6.37.83,13.1-3.22,18.63-2.66,3.63-9.8,7.85-15.54,6.24-4.99-1.41-3.64-8.68-1.11-11.64l11.8-13.78ZM1800.01,333.13l9.02-11.01-18.27,6.41,9.25,4.6ZM1778.03,322.89l9.21,4.99c2.25-5.62,5.54-7.17,11.28-8.13l-3.27-3.7c-6.85-.12-12.31,1.56-17.23,6.84ZM1786.71,356.67c6.65.42,12.49-4.99,10.07-12.68l-10.07,12.68Z"/>
    <path class="st9" d="M1035.38,377.61l-3.6-47.83c-1.89-.27-5.46-.89-5.2-1.93l1.16-4.57c2.66-10.48,9.69-16.31,20.49-17.11,4.4-.33,11.98-1.49,15.85.61,11.13,6.04,11.7,19.74,5.4,29.83s-18.38,14.57-29.88,15.39l1.24,23.42c.05.91-1.78,3.92-2.52,3.57l-2.95-1.38ZM1037.84,331.83l1.44,14.12c11.13-.48,20.79-4.28,25.98-13.76,3.45-6.29,4.05-15.18-2.98-19.76-4.88-3.18-28.14-1.1-28,11.79,1.34,1.66,3.33,5.38,3.55,7.6Z"/>
    <path class="st11" d="M1698.5,386.28c-1.5.24-4.27,1.32-4.47.51l-1.14-4.44c-.28-1.08,3.09-1.8,4.42-2.01,31.49-4.78,62.17-7.32,94.03-6.83,10.24.16,18.58-2.13,28.25-4.97l16.49-1.99.45,3.94c.12,1.02-2.9,2.21-4.35,2.23-6.6.09-14.73,2.71-22.26,4.55-12.52,3.06-25.86,1.84-38.85,2.13-24.42.54-47.84,2.9-72.57,6.86Z"/>
    <path class="st8" d="M1716.18,340.72c9.37-3.97,16.25-16.22,11.82-25.55-11.13-3.73-16.74,10.09-20.38,11.96-.96.5-3.85-1.07-3.6-2.12,1.39-5.85,10.11-14.9,18.64-16.48,6.47-1.2,11.25,2.26,12.33,8.5,1.32,7.7-1.82,15.25-6.66,21.73l11.31,3.63c2.55.82,5.2,6.07,4.91,8.55-1.63,14.11-30.86,22.81-35.5,16.65-.61-.81.85-3.75,1.92-3.76,8.96-.13,24.08-2.98,28.26-13.61-10.55-10.03-21.27-1.91-24.56-4.17-1.13-.77.21-4.79,1.5-5.33Z"/>
    <path class="st8" d="M1489.03,334.84c-.95.3-4.11-.09-4.5-.95-.52-1.13,1-3.7,2.17-4.22l8.59-3.79-4.38-24.4-2.2-3.55c-.48-.77,1.4-2.51,2.29-2.68,1.18-.22,4.88,1.73,5.12,2.98l4.7,24.32,13.69-4.77c.85-.3,3.71-.05,4.56.1,1.12.2.97,3.91-.08,4.32l-16.99,6.59,3.1,34.48c.32,3.59-2.16,10.04-6.68,9.82-1.82-.09-.03-5.56.1-7.58.71-10.48-.87-21.42-2.28-32.98l-7.21,2.3Z"/>
    <path class="st8" d="M1269.33,372.69c-10.62,2.31-19.41-17.08-13.56-35.67,1.93-6.14,6.83-8.53,13.22-8.95,4.08-.26,9.67,4.05,11.42,9.38,4.75,14.49-.61,32.95-11.08,35.23ZM1268.24,366.92c7.29-2.31,11.78-21.91,4.22-31.57l-4.74,5.03c-.91.97-3.33-2.56-3.82-5.35-9.35,11.41-1.23,33.64,4.35,31.88Z"/>
    <path class="st8" d="M1105.78,331.45c3.42-3.02,13.63-3.4,15.12.8l3.84,10.82c2.59,7.29,3.56,17.48,7.15,23.8l3.34,2.79c.81.68.39,2.48-.38,3.21-4.32,4.07-9.97-4.12-13.07-15.44-3.07,2.6-7.84,5.62-11.18,5.23-4.33-.51-8.93-3.32-10.73-7.28-3.76-8.26-1.55-17.33,5.91-23.93ZM1104.24,350.44c.4,2.85,3.62,5.93,5.64,6.22,1.74.25,6.49-1.32,6.86-3.08l2.21-10.48c-2.18-1.49-3.76-2.37-3.72-3.3l.24-4.71c-7.62-.6-12.51,6.35-11.23,15.35Z"/>
    <path class="st13" d="M1342.67,350.25c.89-18.78,15.59-24.24,18.93-20.69,6.17,6.54,1.46,24.19-9.91,32.87,1.43,2.04,5.47,5.22,7.99,5.29,3.33.09,7.43-2.76,9.79-5.2l3.19-3.31c.66-.68,3.58,1.93,3.27,2.96-1.88,6.06-10.84,13.14-18.22,11.16-10.6-2.84-15.53-12.64-15.03-23.09ZM1349.25,356.31c6.58-5.34,10.57-13.34,8.47-22.07-8.22,4.27-10.61,13.18-8.47,22.07Z"/>
    <path class="st8" d="M1524.71,354.52c-8.05-8.74-7.55-20.56,1.59-28.24,1.92-1.61,5.33-3.88,7.48-4.07,2.33-.21,6.73,2.64,8.03,4.85,5.23,8.88,5.42,20.28-1.16,27.52-4.97,5.46-11.72,4.53-15.94-.06ZM1533.05,353.07c7.07-3.83,8.01-12.02,5.65-18.79-2.48-2.16-8.8-2.4-11.76-.52-4.44,7.43-1.39,16.25,6.11,19.31Z"/>
    <path class="st8" d="M1548.01,340.82c-.52-9.27,10.08-15.43,18.31-12.4,7.1,2.61,11,12.24,10.79,20.31-.13,4.77-3.75,9.94-7.06,11.15-4.45,1.64-11.61.93-15.13-3.1-3.16-3.62-6.6-10.27-6.92-15.96ZM1554.51,337.82c-1.61,1.72.41,6.94,1.21,9.51,1.82,5.84,7.25,9.31,12.67,6.67,2.3-1.12,3.8-7.09,2.83-9.46-1.16-2.81-8.81-10.75-10.36-10.99s-4.14,1.91-6.35,4.28Z"/>
    <path class="st10" d="M1083.19,303.67c.16-1.16,3.02-3.95,3.92-3.36s2.25,3.16,2.06,4.31l-2.18,12.76,4.3,54.69c.07.78-.77,3.97-1.66,3.58l-4.22-1.86-4.29-54.92,2.07-15.19Z"/>
    <path class="st10" d="M1836.52,356.51c-4.01,4.08-13.42,4.54-18.11,2.66-1.48-.59-2.02-5.07-1.3-6.42.86-1.62,4.79-3.09,6.23-1.95l4.36,3.46c.99.79,4.63-2.94,3.52-3.34l-14.58-12.96c4.33-7.4,11.1-9.72,18.16-9.85l5.04-.09c1.04-.02,1.44,2.96.87,3.84-2.89,4.47-9.55,1.05-16.97,5.69l11.02,8.24c2.62,1.96,5.25,7.18,1.76,10.74Z"/>
    <path class="st13" d="M1289.45,372.29l-4-21.43c-.36-1.92,1.11-5.38,1.97-7.41l5.61-13.24c2.6-6.14,11.07-6.54,15.92-2.77,1,.78,2.5,2.75,2.98,3.73.61,1.23-2.82,3.92-3.91,3.15-1.64-1.14-5.07-3.23-6.74-3.12-1.95.14-4.79,3.41-5.66,5.94-5.47,15.82,1.4,30.44-1.86,37.27-.5,1.06-4.08-.92-4.31-2.13Z"/>
    <path class="st10" d="M1387.24,334c-11.42,17.31,4.73,37.58-7.76,38.03-4.68-16.99-3.4-42.51,9.07-45.84,6.18-1.65,11.19.48,15.46,4.63l-.45,3.61c-.38,3.05-12-6.97-16.33-.42Z"/>
    <path class="st0" d="M1758.55,358.54c-1.07,1.3-5.36,1.05-6.04-.14s.38-4.09,1.56-5.09l3.84-3.25c.88-.75,4.58,1.45,4.23,2.55-.44,1.38-2.02,4.02-3.59,5.93Z"/>
  </g>
  <g>
    <path class="st9" d="M1549.38,237.92c2.39-9.78,12.32-16.09,16.22-13.22,4.72,3.48-7.42,6.6-9.14,10.45-1.06,2.39-.72,7.8-.24,10.3,2.45,8.5,8.66,14.78,17.26,12.76,6.99-6.95,6.19-16.74,2.76-25.45l-1.27-3.24c-.29-.75,1.23-2.14,1.98-2.44,4.77-1.87,10.04,14.3,6.77,25.15-1.83,6.06-5.83,11.9-12.21,12.24-10.46.57-18.48-8.1-20.42-17.22l-3.83,9.91c-2.6,6.72-23.18-.32-27.64-19.55-1.33-5.76,2.39-16.04,8.65-14.76l10.45,2.15c5.72,1.18,9.08,6.42,10.66,12.92ZM1526.67,238.03c.45,8.08,8.85,16.17,16.03,14.97,3.74-5.82,2.06-18.32-4.31-21.84-3.89-2.15-11.96,2.4-11.71,6.87Z"/>
    <path class="st8" d="M1029.42,249.63l-4.4-45.22-.18-4.47c-.04-.88,2.66-1.16,3.45-.75,1.04.55,2.6,2.77,2.7,4.08l2.18,28.21,22.91-8.31,1.81-24.81c.08-1.16,4.02-2.49,4.38-1.49s1.08,3.92,1.03,5.08l-.82,20c2.19,1.42,5.13,3.5,5.05,4.99s-2.64,3.99-3.99,5.6l3.68,29.52c.15,1.17-.82,3.4-1.55,4.18s-4.03-1.98-4.21-3.34l-4.52-33.53-22.89,8.29,3.66,32.42c.15,1.36-2.21,4.91-3.54,4.65s-3.14-2.99-3.24-4.45l-1.5-20.67Z"/>
    <path class="st8" d="M1278.76,192.4c3.97,1.19,4.21,13.15.85,16.64-.96.99-4.45-1.85-4.33-3.23l.72-8.6c-5.58.98-9.8,4.34-12.26,9.42-6.94,14.28-10.44,30.04-8.68,46.2,10.16.2,17.72-5.52,23.77-12.55l5.42-2.85-6.4-10.4c10.7-13.05,17.31,31.67,10.22,35.07-1,.48-2.83-2.03-2.89-3.14l-.78-15.85c-7.83,8.44-14.87,13.92-25.62,15.64-4.86.78-9.72-3.12-9.94-8.41-1.1-25.7,10.14-63.87,29.94-57.93Z"/>
    <path class="st11" d="M1713.86,262.86c-2.19.23-6.24,2.2-8.04,1.37-2.93-1.36-5.04-4.2-4.17-8.27l9.03.94,107.77-6.68c14.41,2.19,26.09-3.99,28.46.85.47.96-1.76,3.92-2.95,3.98l-25.46,1.27c-35.37,1.77-69.58,2.87-104.63,6.54Z"/>
    <path class="st8" d="M1169.41,260.49c.08-3.43.19-10.7-.42-13.89l-7.44-38.49c-1.31-6.76,5.88-14.33,12.4-15.58,7.55-1.45,19.36-.68,24.59,5.51,7.18,8.5.42,21.71-8.06,26.35l-18.4,10.06c9.3,28.86-2.78,30.37-2.67,26.04ZM1170.52,228.64l19.29-10.58c3.31-3.56,8.63-10.63,4.28-15.87-3.57-4.3-12.88-5-18.92-4.03-3.17.51-8.26,6-7.8,9.14l3.15,21.33Z"/>
    <path class="st14" d="M1110.8,217.16c-1.11.7-4.52-2.27-3.75-3.06l4.28-4.38c.46-.47,2.58-1.86,3.22-2.21.8-.45-2.26-2.74-3.14-2.5l-28.49,7.65c-1.06.29-3.56-.57-3.98-1.57s1.48-4.04,2.55-4.32l29.36-7.58c2.88-.74,6.17,2.66,7.64,5.66l31.23-6.24c.82-.16,4.04,1.86,3.64,2.48s-2.11,3.04-2.84,3.19l-24.06,4.89,4.81,6.42,3.76,39.01-1.7,3.86c-.46,1.05-4.18.05-4.28-1.18l-2.2-28.19c-.59-7.53-2-12.49-4.2-19.44l-11.84,7.52Z"/>
    <path class="st8" d="M1776.08,212.57c-11.27-4.08,9.95-11.72,15.84-24.74-11.97-.67-20.74,5.92-27.45,14.3-14.31-5.69,23.08-27.13,31.4-18.28,5.49,5.83-4.95,16.47-14.47,24.37l23.07,9.13c5.49,2.17,2.64,10.55-1.02,13.66-5.76,4.89-12.79,7.71-20.46,7.81-3.92.05-7.23-3.43-5.79-7.47,10.09,3.1,20.24.7,24.88-9.36l-26-9.4Z"/>
    <path class="st13" d="M1707.47,211.08l15.86-21.37c.68-.91,3.47-2.06,4.52-2.16,1.31-.12,1.81,3.54.95,4.66l-14.38,18.71,18.27-3.12,1.03-15.78c.05-.78,2.15-2.71,2.85-3.07s2.93,1.55,2.88,2.33l-.86,15.64,10.07,2.93c.65.19.67,4.2.02,4.39-.98.29-2.94.69-3.96.52l-6.12-1.01-.81,29.41c-.02.89-1.83,3.32-2.71,3.3-1.18-.02-3.11-2.47-3.08-3.91l.69-28.79-19.7,3.81c-.93.18-3.57-.16-4.46-.34-1.17-.24-1.97-4.94-1.07-6.16Z"/>
    <path class="st8" d="M1326.46,194.08c1.5-.18,3.81.53,4.62,1.39s-1.89,4.24-3.2,4.39l-17.34,1.98c-1.64.19-5.02,1.15-5.63,2.32-.73,1.4-.95,4.29-.86,6.42l1.66,41.59,15.52-4.18c11.67-3.14,20.79-4.15,17.49.18-.45.59-1.99,1.85-2.7,2.05l-23.27,6.56c-2.47.7-7.3,1.36-9.05.25s-3.95-4.98-4.04-7.33l-1.38-37.82c-.12-3.21-.06-7.77,1.23-10.09,1.39-2.5,6.41-5.31,9.24-5.64l17.73-2.07Z"/>
    <path class="st10" d="M1487.97,231.62c-3.81,2.35-8.2,3.95-9.5-.27-.71-2.32,5.19-4.82,8.62-4.56l-.98-37.63,4.6-.36c.94-.07,1.41,2.35,1.44,3.31l.74,31.04,10.38-3.79c.77-.28,3.17.5,3.83,1,.87.66-.4,3.5-1.44,4l-11.89,5.68,2.94,28.37c.09.91-1.24,4.38-2.01,4.31-1.01-.1-2.28-.81-3.59-1.66l-3.12-29.45Z"/>
    <path class="st10" d="M1578.63,191.3l-.16-4.32c-.04-.97,3.1-1.88,3.65-1.08l2.29,3.36,12.29,68.72-.78,3.5c-.24,1.1-3.95-.06-4.71-.82l-12.57-69.36Z"/>
    <path class="st10" d="M1829.6,216.79c-5.16-2.08-11.37-6.25-12.36-12.33-.65-4,6.08-7.08,9.46-7.23l5.95-.26c1.25-.05,2.55,2.94,3.15,4.99l-13.31,2.53c5.86,9.69,25.78,7.47,21.93,19-2.78,8.32-16.29,14.53-24.08,9.25-2.71-2.15,3.32-7.34,6.76-6.3,2.02.61,5.6,1.12,7.02.36,1.66-.88,4.02-4.01,5.15-6.14l-9.65-3.89Z"/>
    <path class="st10" d="M1593.33,236.42c-1.64-16.85,27.82-28.4,23.44-21.08-3.68,6.15-16.95,8.76-17.37,19.77-.15,3.94,6.48,9.68,10.49,11.06l15.99,5.53c1.06.37,2.68,2.61,2.54,3.65-.71,5.32-33.74-5-35.1-18.94Z"/>
    <path class="st14" d="M1376.34,256.18c-6.05,3.55,2.27-23.07-2.99-41.11-2.75-.9-6.49-4.67-4.98-5.93,4.27-3.55,10.07.45,10.95,5.47,2.42,13.84,3.27,37.91-2.98,41.57Z"/>
    <path class="st2" d="M1097.04,221.64l-.59-4.72c-.13-1.06,2.04-2.12,3.12-2.14s3.5,2.51,3.59,3.85l2.48,35.95,1.07,4.85c.2.89-2.87,1.4-3.66.94-6.75-3.94-4.5-26.72-6-38.73Z"/>
    <path class="st17" d="M1358.82,205.05l-4.27-1c-.98-.23.28-3.27.93-4.44l37.62-8.65,4.09,1.86c.88.4.23,3.95,0,3.86l-38.38,8.36Z"/>
    <path class="st4" d="M1336.32,224.08c-15.12.62-23.25,13.45-29.16,10.51-.77-.39-1.73-2.88-1.01-3.36l4.07-2.69c28.04-18.52,31.4-4.68,26.1-4.46Z"/>
    <path class="st1" d="M1758.6,235.3c-1.56-.74-1.95-6.29-.51-6.9,2.05-.87,4.58.99,5,2.72.6,2.53-1.58,5.56-4.49,4.18Z"/>
  </g>
  <g>
    <path class="st9" d="M267.14,438.36l-12.48,3.73c-.92.28-2.68.49-3.5.5s-2.33-3.04-1.63-3.46l4.23-2.61c3.77-2.33,13.56-5.87,16.86-1.69,5.93,7.52,1.95,18.09.33,26.4l16.29,9.16c-.87-9.76,4.28-17.24,11.76-21.79l-3.92-3.63c-.66-.61.97-2.91,2.15-4.23,16.64,7.09,21.77,26.28,13.84,41.79-3.92,2.93-8.5,5.23-12.93,4.47-4.19-.72-7.91-5.15-9.79-10.17l-6.57-1.56c-3.93-3.27-8.36-6.21-13.01-8.46l-6.12,7.43c-.9,1.09-4.54,1.69-5.75,1.07-1.46-.75-2.92-4.61-2.44-6.23,2.61-8.97,16.5-4.24,12.69-30.72ZM294.07,475.58c.8,2.46,4.28,5.77,6.37,5.76,9.27-.06,11.09-15.34,4.45-28.22-9.36,2.78-14.44,11.42-10.83,22.47Z"/>
    <path class="st8" d="M220.08,458c-2.32-5.9-.78-14.62,3.36-18.86,5.31-5.44,14.77-6.05,22.67-5.06.16,7.34-2.98,13.01-6.56,19.45,4.2.68,8.7,2.97,9.84,6.45,3,9.18-12.58,21.05-18.83,15.97-2.8-2.28-1.01-10.25-.06-14.1-3-.37-9.51-1.53-10.42-3.84ZM234.8,471.65c2.78-1.5,7.33-5.05,8.81-7.51.59-.97-.58-3.92-1.72-4.24s-4.98.43-5.19,1.55l-1.91,10.2ZM233.29,453.37l5.95-12.56c-2.89-.46-8.8-.15-11,1.91-2.88,2.7-3.6,8.49-3.25,12.25,1.76.85,7.48.14,8.31-1.6Z"/>
    <path class="st8" d="M308.7,330.85c-11.41,15.84-6.8,34.35,2.27,36.06,2.01.38,5.84-1.92,7.31-4.15,8.42-12.74,5.62-30.49-5.59-40.68-1.19-.57-4.92-2.74-3.81-3.35l5.52-3.01c15.47,12.36,18.92,33.85,8.86,50.61-3.25,3.41-7.25,6.37-11.3,6.45-3.59.07-8.8-2.93-11.23-6.38-10.82-15.31-.06-40.84,6.9-40.71,1.38.03,1.95,3.94,1.06,5.18Z"/>
    <path class="st8" d="M169.07,361.81c-1.38-8.91,3.9-16.01,7.88-23.16l5.87-10.52c5.89-1.71,19.17-.68,21.68,7.46,4.65,15.04-7.95,31.09-21.92,35.38-6.64,2.04-12.45-2.28-13.51-9.16ZM174.67,360.49c.12,3.89,4.59,5.83,7.32,4.76,11.27-4.43,18.87-15.13,17.62-27.51-2.05-2.82-8.76-5.05-11.86-4.39l-7.34,10.41c-3.2,4.54-5.93,10.41-5.74,16.73Z"/>
    <path class="st8" d="M261.54,203.98l-15.27,8.21c-1.05.57-3.61.36-4.49-.2s.29-3.92,1.27-4.51l12.92-7.7c5.21-3.11,10.71.49,12.27,5.42,3.28,10.41,1.82,21.74-1.45,31.8l7.95,3.57c1.68.75,2.54,5.89,1.37,7.29l-2.62,3.14c-2.06,2.47-2.91-6.73-5.87-7.56-5.99-1.68-11.38,19.09-19.28,12.36-1.16-.99-1.69-4.91-.64-6.02l11.09-11.71c7.9-8.34,7.19-21.55,2.76-34.1Z"/>
    <path class="st8" d="M179.79,217.08c-.88-1.48-4.45-3.84-6.27-3.67-4.57.43-15.46,12.18-14.28,5.42,1.41-8.1,11.27-12.56,18.41-10.59,2.72.75,6.18,3.46,7.12,5.45,1.03,2.18-.3,7.29-2.06,9.05l-7.22,7.2c4.41,1.22,9.87,2.59,12.36,5.25,3.82,4.09,3.07,11.01.59,15.53-5,9.12-22.16,9.85-24.67,3.39-.3-.78-.41-3.19-.38-3.97.1-3.84,7.65,5.17,16.5.99,3.23-1.53,6.6-7.59,3.49-11.82-3.5-4.76-14.78-1.47-17.16-5.81-.49-.89.47-3.45,1.25-4.22l12.32-12.18Z"/>
    <path class="st13" d="M132.61,487.86c-4.88-3.63,4.73-7.26,10.96-19.8,4.13-8.31,9.84-15.11,7.43-26.14l-15.59,14.74c-.9.85-3.09,1.45-4.09,1.47s-1.31-4.33-.61-5.03l13.21-13.19c2.56-2.56,9.63-4.09,12.07-1.38,2.24,2.48,2.74,9.7,1.32,12.93l-10.52,23.81,11.42,3.49c1.05.32.41,4.98-.7,5.14-4.68.64-12-7.31-19.32,2.63-.83,1.13-4.54,2.12-5.58,1.35Z"/>
    <path class="st8" d="M286.1,243.28c-7.1-10.45-5.45-22.8.9-33.39,1.73-2.89,6.66-4.27,10.09-3.42,2.99.75,6.86,3.74,8.17,7,6.27,15.63,5.57,32.17-7.88,35.73-3.47.92-8.6-1.99-11.27-5.92ZM296.07,243.38c14.33-2.79,3.52-35.7-1.14-31.06l-3.84,3.82c-7.84,7.8-2.1,28.62,4.99,27.24Z"/>
    <path class="st13" d="M247.74,323.14l3.06-3.89c.6-.77,3.24.82,3.73,1.67,2.71,4.63-7.03,8.04-9.95,20.29,9.25.36,18.23,6,18.44,11.29.26,6.52-8.2,14.34-17.23,12.68-10.57-1.95-12.57-23.53,1.96-42.04ZM247.75,359.37c4.25.81,10.2-3.72,8.65-7.04-1.11-2.37-7.41-5.26-9.25-4.61l-3.91,6c-.81,1.25,2.82,5.32,4.5,5.64Z"/>
    <path class="st13" d="M151.39,331.39c-9.71,1.78-15.04,10.08-19.68,7.61-.93-.5-.13-4.78.89-5.27l20.02-9.46c1.2-.57,5.09.3,6,1.23s.42,4.79-.32,5.92l-7.26,11.09,8.28,3.45c1.79.75,2.1,5.99,1.52,8.13-2.07,7.57-12.08,16.42-18.18,12.58-.88-.55.24-4.14,1.25-4.39,4.08-1.02,11.82-4.91,11.48-12.38l-11.3-1.46c-10.28-1.33,1.24-7.11,7.32-17.06Z"/>
    <path class="st13" d="M275.86,343.6l2.78-13c.28-1.3-1.19-5.7-2.48-5.86l-6.4-.8c-1.13-.14-2.56-1.97-2.62-3.02-.08-1.31,2.7-3.6,4.2-3.52,5.05.27,11.58,3.21,12.45,8.96.92,6.06-.87,13.11-1.83,18.92,3.66,2.68,7.92,8.35,7.33,12.25-.16,1.08-2.52,4.62-3.2,3.9-.85-.9-2.07-2.73-2.79-4.2l-2.82-5.81c-1.46-3.01-4.73,9.08-11.19,8.43-2.29-.23-4.89-4.18-4.91-6.83-.02-2.4.93-6.82,2.53-7.74s4.21-1.15,8.95-1.68Z"/>
    <path class="st10" d="M193.62,443.63c-.83-5.13-6.91-4.46-10.47-1.36-6.4,5.58-13.32,6.48-14.27,2.85-.25-.95.14-3.69,1.12-3.8l4.22-.47c4.31-2.6,8.98-5.82,14.24-6.84,3.93-.77,8.63,1.99,10.23,5.4,1.16,2.47-.24,6.79-2.26,10.11-9.23,9.4-15.25,19.52-19.14,32.45-.68.62-3.8,1.49-4.57.67-3.96-4.24,9.5-28.08,20.89-39.01Z"/>
    <path class="st14" d="M234.25,256.48c1.03-14.62-1.74-28.59-3.35-42.55l-.6-5.18c-.17-1.49,5.82-1.63,6.04.21l4.24,35.65-.93,15.11c-.07,1.06-4.02,3.17-4.79,2.43-.97-.93-.83-2.46-.6-5.66Z"/>
    <path class="st2" d="M106.83,492.54c-4.05-2.74,4.17-19.82-3-47.21l-1.12-4.27c-.22-.85,2.92-1.47,3.6-.9l3.15,2.62c5.43,18.51,4.04,54.28-2.63,49.77Z"/>
    <path class="st10" d="M87.87,500.72c-4.26,2.83.43-29.48-5.96-46.33l-1.91-3.71c-.42-.81,1.48-2.96,2.33-2.65l4.45,1.65c4.55,16,5.92,31.92,4.66,48.68l-3.56,2.36Z"/>
    <path class="st17" d="M79.33,374.28c2.71-9.23,2.5-16.28.42-23.84,2.8-3.77,3.02-7.78.37-12.04l.34-5.31c.07-1.08,2.83-.75,4.46-.44,3.59,9.11,3.57,18.29,3.18,28.03-.26,6.49.47,12.2-5.2,17.62l-3.58-4.02Z"/>
    <path class="st15" d="M85.4,272.34l1.07-38.93-.92-7.48c4.07-1.16,7.17,2.23,6.8,5.9l-1.14,41.53-1.98,1.41c-.68.49-2.34-1.06-3.82-2.44Z"/>
    <path class="st4" d="M106.34,263.78l.99-44.55,3.24-1.39c.93-.4,2.91,2.4,2.87,3.6l-1.24,37.27c-.05,1.63-.54,3.94-1.2,4.72s-2.79.56-4.66.36Z"/>
    <path class="st0" d="M198.79,209.58c-.02-1.94.9-4.55,1.93-5,1.29-.56,3.88,2.76,3.89,4.36l.36,37.66c.01,1.28-.9,3.34-1.79,3.94-1.11.75-4.06-1.95-4.07-3.57l-.31-37.4Z"/>
    <path class="st4" d="M100.78,333.3v-4.53c.02-1.04,3.48-1.72,4.29-1.08s1.27,2.35,1.39,4.19l1.91,30.86c.07,1.05-.6,3.51-.89,4.29-.39,1.06-4.36-.46-4.46-1.83l-2.24-31.89Z"/>
    <path class="st7" d="M125.23,487.31c-.74.86-4.98,1.04-4.94-.06l.24-6.58c.08-2.22,2.81-6.56,5.21-4.81,2.26,1.64,1.55,9.06-.51,11.45Z"/>
    <path class="st18" d="M124.73,357.09c-.14,1.21-4.42,2.74-5.24,1.89-1.02-1.06-2.46-3.43-2.82-4.89s3.24-3.63,5.03-4c1.47-.31,3.31,4.68,3.04,7.01Z"/>
    <path class="st3" d="M216.34,357.81c.24-1.39,4.29-1.77,5.7-1.5s2.93,3.65,2.51,5.56c-.31,1.42-5.09,2.03-6.33,1.26s-2.19-3.48-1.88-5.32Z"/>
    <circle class="st1" cx="131.84" cy="245.84" r="3.83"/>
    <path class="st18" d="M120.71,448.79c-1.98.1-5.89-3.88-6.14-5.38,1.91-2.21,4.88-2.2,7.62-.7,1.88,1.03,2.48,5.9-1.47,6.09Z"/>
    <path class="st7" d="M200.4,476.7c-1.59-1.14-3.9-5.21-3.05-6.24.76-.92,3.75-2,4.93-1.88,1.48.15,2.64,3.45,2.68,5.07.04,1.49-3.37,3.92-4.57,3.06Z"/>
    <circle class="st21" cx="219.32" cy="247.98" r="3.5"/>
    <circle class="st20" cx="117.54" cy="336.17" r="3.38"/>
    <circle class="st16" cx="134.41" cy="220.04" r="3.32"/>
  </g>
</svg>