<?xml version="1.0" encoding="UTF-8"?>
<svg id="Layer_1" xmlns="http://www.w3.org/2000/svg" version="1.1" viewBox="0 0 1920 800">
  <!-- Generator: Adobe Illustrator 30.3.0, SVG Export Plug-In . SVG Version: 2.1.3 Build 182)  -->
  <defs>
    <style>
      .st0 {
        fill: #f1f1f1;
      }

      .st1 {
        fill: #dfdfdf;
      }

      .st2 {
        fill: #5f5f5f;
      }

      .st3 {
        fill: #efefef;
      }

      .st4 {
        fill: #f6f6f6;
      }

      .st5 {
        fill: #ebebeb;
      }

      .st6 {
        fill: #f4f4f4;
      }

      .st7 {
        fill: #5c5c5c;
      }

      .st8 {
        fill: #606060;
      }

      .st9 {
        fill: #5d5d5d;
      }

      .st10 {
        fill: #f9f9f9;
      }

      .st11 {
        fill: #fafafa;
      }

      .st12 {
        fill: #e9e9e9;
      }

      .st13 {
        fill: #f8f8f8;
      }

      .st14 {
        fill: #f7f7f7;
      }

      .st15 {
        fill: #fefefe;
      }

      .st16 {
        fill: #5e5e5e;
      }

      .st17 {
        fill: #f2f2f2;
      }

      .st18 {
        fill: #f5f5f5;
      }

      .st19 {
        fill: #f3f3f3;
      }

      .st20 {
        fill: #fbfbfb;
      }

      .st21 {
        fill: #e8e8e8;
      }

      .st22 {
        fill: #ececec;
      }

      .st23 {
        fill: #fdfdfd;
      }
    </style>
  </defs>
  <g>
    <path class="st2" d="M606.22,469.13c-1.06,0-3.09-2.21-2.73-2.98s2.41-2.05,3.36-2.08l36.09-.88c15.85-1.88,30.84-1.06,46.71-1.36l24.12-.45c13.85-.26,26.72-2.76,40.52-2.49l54.34,1.04,43.03.55,16.54.3c23.97-.8,47.13,1.23,70.28,6.6l1.21,2.26c.38.71-1.66,1.89-2.82,2.4-23.16-5.63-46.09-7.07-69.86-6.59l-34.04.12-27.82-1.1-52.07-.8c-13.7-.21-26.45,1.2-40.22,2.63l-23.2.34c-20.18-1.16-39.02.73-58.73,2.48h-24.71Z"/>
    <path class="st2" d="M615.34,403.28c14.85,1.42,26.82-.8,40.66-1.4l32.47-1.4,39.66-.75,29.16-1.07,33.81.42,21.03.28,28.05.7,54.23,3.1,26.24,4.03,17.42-.34c.84-.02,2.96.41,3.67.67s.25,3.07-.5,3.23l-3.15.67c-14.88,3.16-29.06-1.33-43.91-3.41-24.17-3.4-48.18-2.94-72.65-3.49l-31.49-.7-31.62-.33-29.14,1-41.7.86-30.31,1.23-39.75,2.06c-1.75.09-3.47-.03-4.51-.34-1.25-.38.84-5.16,2.31-5.02h.02Z"/>
    <path class="st2" d="M719.76,650.28c-1-.02-2.37-2.51-1.74-3.03.8-.66,3.23-1.96,4.45-1.93l21.99.52c18.73.45,36.79,3.07,55.27.7l26.74-3.43c30.8-1.26,60.87.6,91.76,2.09l39.72,1.91,10.69.97,98.92,2.61,74.93,2.26,28.99.84,29.26.29c26.4-1.32,51.69-.68,78.05,1.41,21.38,1.7,41.72.41,63.02,1.04l39.74,1.17,51.63.3c.65,1.57.2,4.84-.83,4.8l-4.65-.22-47.38-.09-38.51-1.14-64.13-1.05-46.68-2.2-47.83.82-40.83-1.21-70.01-2.06-57.33-1.61-75.69-3.03-50.15-2.3-35.06-1.2c-18.57-.64-35.84.94-54.17,3.64-17.75,2.62-35.09-.09-53.23-.4l-26.95-.45v-.02h0Z"/>
    <path class="st8" d="M681.72,568.68c-3.09.05-8.11-1.65-9.55-2.63,1.52-5.24,6.13-2.21,9.26-2.25l63.01-.97c23.01-.35,44.97-4.81,67.91-4.51l61.64.81,85.2-.19,100.74-.77,59.02.31,32.8-.11c5.32-.02,10.27-1.42,15.56-2.72l12.42.81,78.09,5.2c1.35.09,2.89.52,3.62,1.02s-1.51,3.54-2.39,4.01l-28.48-1.53-54.38-4.26c-6.22-.49-11.95,1.56-17.99,1.66l-29.84.51-33.98.2-131.65.34-87.3.3-63.27-.82c-22.89-.3-44.74,3.06-67.65,4.52l-62.78,1.06h-.01Z"/>
    <rect class="st8" x="606.61" y="11.55" width="7.37" height="272.93" transform="translate(459.83 757.71) rotate(-89.77)"/>
    <path class="st2" d="M558.14,210.88l21.95,1.98,44.76,2.22,29.24-.79,47.05,4.05,35.28,1.01,20.31-.32c.98-.02,3.26,1.86,3.86,2.46s-.62,2.83-1.71,2.81l-21.31-.25-36.6-.86c-18.14-.43-35.96-4.88-54.52-3.98-22.89,1.1-44.46.68-67.01-1.44l-19.9-1.87c-.87-.08-3.93,1.37-4.16.54l-.92-3.35c-.23-.83,2.62-2.3,3.66-2.21h.02Z"/>
    <path class="st8" d="M633.94,284.87l-9.75.47c-1.2.06-2.67-2.57-2.13-3.6s2.99-1.94,4.42-1.96l49.25-.8,76.78,4.48c.91.31,3.35,1.37,3.14,2.17l-.77,3.04-40.08-2.48-15.73-1.12-39.74-.84-25.4.66v-.02h.01Z"/>
    <path class="st2" d="M621.92,353.02c-2.2,0-4.41.08-5.44-.61-1.31-.88-.46-5.23,1.04-5.21l20.8.35,27.77.88,32.23-2.6c9.31-.75,18.4,1.92,27.8,2.42l19.48,1.05c.86.05,2.5.38,3.14.67.86.39.11,3.09-.45,4.04-10.5.23-19.42-.17-29.17-2.1-9.39-1.96-18.39-1.2-27.87-.59l-28.39,1.83-40.93-.14h0Z"/>
  </g>
  <g>
    <path class="st2" d="M73.59,236.7c.54,0,2.72-.07,2.77.4l.43,3.88-28.91,1.02,2.19,30.04,5.26,61.57,2.3,26.25,4.28,92.64.62,36.31-.31,32.58-.25,20.79,17.49-1.56c2.76-.25,7.45,3.11,6.56,6.27-.59,2.11-4.31.29-5.69-1.38l-17.97,1.45,2.18,40.55,1.53,30.8,23.31-2.49c1.07-.11,3.14.74,3.74,1.14.8.53-.09,3.6-1.16,3.7l-20.87,1.93c-3,.28-6.87,2.53-9.5.21l-4.06-74.96-4.02-2.66c-.92-.61,2.3-3.17,3.41-3.59l.93-27.61-.2-25.13-.55-36.33-4.26-92.45-2.29-26.49-5.56-65.15-2.76-38.6c-.56-7.9-.51-15.6-2.54-23.02l-.87-3.18c-.2-.72,2.13-1.65,2.75-1.22l2.93,2.02c1.95,11.02,2.53,20.62,2.6,32.47l26.49-.2h0Z"/>
    <path class="st2" d="M142.55,309.88l-25.01.53,1.16,16.23,1.99,37.49,24.83-1.27c.72-.04,2.57,1.23,2.95,1.78.51.73-1.78,2.85-2.9,2.92l-25.48,1.61.9,18.06.87,34.69,24.53.68c1.06.03,3.45,1.83,3.18,2.66l-1.16,3.6c-.33,1.03-3.26-.7-4.29-1.52l-12.24-.31c-3.22-.08-6.67-.05-9.64,1.05l-.38,31.48,2.56,28.25,23.7,1.26c.96.05,3.3.67,4.14.96s.32,3.33-.23,3.99l-16.57-.67-16.09.19-.23-8.29-2.21-25.61.36-30.53-1.36-47.31-.53-20.17-1.09-28-1.87-24.6-4.17-39.67c-.07-.15,1.55-2.38,2.02-2l3.07,2.46,3.84,35.61c10.21.44,19.31.02,28.65-1.91,1.39-.29,2.98,3.66,2.09,4.68-1.05,1.21-3.2,1.65-5.42,1.7l.03-.02h0Z"/>
    <path class="st2" d="M135.47,544.56c3.03,9.38,15.72-1.82,16.12,1.91.1.99-.56,3.16-1.37,3.78-5.8,4.47-16.55,4.64-19.24-3.49-2.87-8.66,7.32-17.6,14.36-18,1.35-.08,3.86,2,4.84,2.94,1.99-4.91,10.87-9.76,15.52-4.3,4.98,5.86,5.6,15.14,7.81,22.64l14.99-19.54c-2.8-1.96-7.01-6.59-5.81-9.09,2.83-5.87,9.51-4.43,13.75-6.73,3.91-2.12,8.62-5.14,13.23-4.45,1.36.2,1.87,4.7.87,5.77l-12.32,13.23c3.51,3.6,7.64,10.11,4.74,15.45-5.01,9.21-21.27,15.5-28.51,7.54-.41,1.17-4.38,2.7-4.75,1.38l-3.59-12.83c-3.6,3.69-6.88,5.54-10.77,4.52-4.26-1.12-7.01-3.55-6.65-9.19l-7.26-1.34c-2.63,1.63-6.93,6.84-5.97,9.8h0ZM179.32,550.41c9.11,2.06,14.25-2.31,19.34-6.77,1-4.41-.35-9.58-5.29-10.82l-14.04,17.6h-.01ZM155.29,540.23c3.8.68,5.82-1.24,7.13-2.96,1.09-1.43,1.53-5.09-.25-6.35-2.73-1.93-5.84.16-7.17,1.74-1.62,1.92-2.05,7.15.29,7.58h0Z"/>
    <path class="st2" d="M230.17,444.35c2.85.82,5.31-9.95.6-19.85l-13,5.75,1.7,9.26c.12.66-1.21,2.83-1.88,2.75s-2.29-1.09-2.46-1.73l-1.8-6.6c-2.97,2.88-6.78,4.35-10.32,3.02s-5.73-5.62-4.61-10.17c.99-4.02,5.71-7.59,8.92-8.07,5.49-.82,9.97.57,13.38,4.88l9.21-3.76c-2.61-9.15-1.45-18.58,7.19-23.15,2.01-1.07,5.75-.64,7.14.57,1.93,1.67,1.32,6.66-.8,7.84l-2.97,1.66c-.63.35-2.1-1.82-1.81-2.48l1.4-3.25c-6.7,2.14-8.14,10.49-5.33,16.9,1.83-1,6.03-1.65,6.42-.17.65,2.41-2.94,4.48-5.4,4.87,3.22,11.45,4.61,23.81-4.34,26.37-3.29.94-8.5-1.59-9.31-4.11-.21-.65,1.02-2.66,1.59-2.48l2.83.9,3.68,1.06h-.03,0ZM205.64,432.62c4.8-.46,6.82-6.72,4.76-9.43-2.53.08-6.24,1.85-7.16,3.44s.38,6.18,2.4,5.98h0Z"/>
    <path class="st2" d="M191.82,636.37l4.9-12.39-9.51-7.46c-4.15-4.59-1.8-14.41,3.56-17.43,4.94-2.79,11.42.06,15.72,2.64,2.09-.82,6.2-2.45,7.96-1.84,2.42.84.75,5.24-.45,7.01l-10.85,15.85c1.3,4.06,2.27,7.71,1.07,11.05-1.71,4.76-7.68,8.32-11.53,6.13-.61-.34-1.13-2.88-.86-3.55h-.01ZM190.77,613.31l8.32,6.23,8.82-12.74-12.28,2.04c-.94.16-2.82-3.72-1.9-3.97l4.93-1.34c-1.99-1.07-5.87-.62-7.18,1.17-1.19,1.62-2.32,7.39-.71,8.6h0Z"/>
    <path class="st2" d="M266.85,340.59c-1.08-1.05-2.11-5.08-.54-5.41,3.21-.67,5.64,3.18,5.65,6.47l.02,15.84c5.12-6.66,12.25-12.69,20.31-9.05,6.27,2.83,5.45,10.79,4.05,16.52-2.26,9.26-11.72,16.5-20.98,11.52l-8.43-4.54-.08-31.35h0ZM276.12,371.93c6.92,3.44,13.3-.56,15.32-7.26,1.29-4.25,1.71-8.77-.85-12.24-8.12-1.38-14.57,4.75-14.96,11.78,2.59,1.9,2.42,4.32.49,7.72Z"/>
    <path class="st2" d="M106.02,210.67l3.48-4.19c.84-1.01,3.6,3.45,2.71,4.55l-12.53,15.3,16.02,1.88-.35-14.29-.72-3.36c-.18-.84,1.71-1.95,2.55-1.78s2.93,2.13,2.94,2.99l.22,14.37,3.82-.53c.91-.13,1.38,3.46.74,4.22l-4.06,4.81,1.18,20.15c.05.82-.74,2.5-1.45,2.93-.88.54-3.35-1.29-3.41-2.51l-1.1-21.2c-8.96-4.1-16.29-.9-20.57-3.42-.98-.58-1.31-4.4-.61-5.32l11.13-14.6h0Z"/>
    <path class="st16" d="M270.63,424.31c3.05-5.3,2.52-14.34.75-19.66-.64-.78-3.97-2.04-4.57-1.31l-3.04,3.68-1.86,2.5c-.41.56-3.08-.85-3.13-1.59-.16-2.69,2.86-7.49,5.73-8.73,3.25-1.39,8.32-1.41,10.49,2.52,3.86,7,3.02,15.56.74,23.31l9.18,6.05c.73.48.72,3.81-.16,3.82s-2.93-.39-3.77-.86l-7.03-3.9c-4.04,10.16-12.11,16.14-15.69,12.22-.98-1.07-1.78-4.25-1.41-5.92,1.39-6.25,5.3-12.05,13.77-12.14h0Z"/>
    <path class="st2" d="M262.56,459.62l1.85-2.44c.54-.72,3.19,1.79,3.21,2.73l.25,17.41c3.99-6.72,11.63-12.18,18.45-7.21,5.48,4,3.51,13.76.06,18.9-5.21,7.78-13.18,12.86-18.81,9.24-3.43-2.21,1.1-8.61-5.57-9.19l.56-29.45h0ZM272.18,494.63c6.98-2.32,15.32-11.1,11.93-19.72-1.05-2.66-7.21-1.77-8.92.59l-8.41,11.62,4.26-.13c2.16-.06-2.05,8.7,1.15,7.64h0Z"/>
    <path class="st2" d="M194.75,232.98c-1.01.1-3.71-3.69-2.75-3.93l4.23-1.08,5.05-1.31c.59-.15-7.53-19.88,7.66-25.16,2.07-.72,6.19.49,6.73,2.15.9,2.73-.26,5.84-2.92,7.21l-3.83-4.73c-5.69,4.64-5.73,11.08-2.78,18.08l11.33-6.97c.85-.52,3.76-.6,4.09.34s-.49,3.11-1.42,3.7l-12.63,7.95c2.66,10.73.24,21.6-6.47,22.85-2.91.54-7.39-1.24-9.49-3.75-.73-.87-1.17-4.04-.12-4.21s3.29.46,4.2,1.07l3.31,2.26c1.92,1.31,6.64-5.09,4.29-15.26l-8.5.81.02-.02h0Z"/>
    <path class="st2" d="M204.78,344.29l-9.11,7.2c-.56.44-2.77,1.14-3.43,1.09s-1.62-1.36-1.62-2.03c0-.89.92-2.29,1.86-2.98l9.46-6.98c.86-.63,3.7-.87,4.69-.51,1.19.43,3.36,3.23,3.17,4.5l-2.24,14.72c6.82,4.35,11.72,15.97,9.62,20.72-.47,1.06-4.36-.1-4.49-1.35-.54-5.06-2.13-12.21-7.34-14.65-5.37,8.76-13.97,16.35-16.31,12.34-3.07-5.29,3.65-15.73,12.91-17.04,2.03-4.94,2.92-7.99,2.84-15.01v-.02h-.01Z"/>
    <path class="st2" d="M117.77,616.58c-3.79.91-9.82-.44-8.94-2.85l4.88-13.35c1.46-4,2.85-9.89,7.64-9.24l3.97,8.96c-1.19,3.27-2.65,8.2-2.57,11.57,8.4,1.34,12.76,1.9,12.95,8.48.03,1.06-3.02,2.31-3.84,1.72-1.13-3.04-5.4-6.81-9.14-4.46l.87,16.61c.05,1.01-1.52,3.14-2.24,3.6s-3.09.3-3.02-.55l.31-4.19-.88-16.29h0Z"/>
    <path class="st2" d="M166.21,439.21l12.28-2.47-1.38-16.06c-2.18,3.99-3.63,6.71-6.41,6.27l-5.15-21.88c4.35-7.76,14.21-6.5,21.19-3.98l3.93,1.42c.77.28.29,2.42-.27,3.01-3.72,3.93-11.3-5.83-19.81.55l2.97,10.58c9.1-4.43,10.77,8.94,9.12,22.64-6.09,3.3-14.49,5.58-18.4,3.46-.96-.52.84-3.33,1.92-3.55h.01Z"/>
    <path class="st9" d="M193.16,479.01c4.87-11.2,15.38-17.51,18.17-14.28,3.51,4.07-2.28,18.25-10.59,22.38,9.22,3.44,11.31-5.1,15.71-6,.74-.15,2.34,1.7,1.96,2.35l-1.58,2.64c-4.8,8.03-18.19,8.51-22.49,2.5-1.56-2.18-2.26-7.1-1.18-9.59h0Z"/>
    <path class="st2" d="M133.19,232.74c-4.22-4.85-2.43-11.12.47-15.7,2.34-3.71,9.2-6.09,13.67-5.28,1.2.22,2.87,2.38,2.87,3.43s-1.42,3.6-2.42,3.31l-4.87-1.42c-1.91-.56-5.38,2.37-6.28,4.17s-1.46,6.83,0,8.26c3.22,3.11,8.16,4.16,11.62,4.51l1.77-14.01c.57-1.19,4.81.45,5.19,1.83,3.68,13.21-5.54,16.52.44,26,.75,1.18-.96,4.66-2.34,4.71s-3.81-2.4-3.96-3.89l-.98-9.6c-5.57-1.07-11.44-2.03-15.17-6.31h-.01Z"/>
    <path class="st16" d="M99.98,187.83c-6.92-.5-7.85-13.48-4.63-25.99,2.29-8.91,10.89-13.67,16.61-12.18,9.67,2.52,2.18,39.19-11.98,38.17h0ZM101.13,183c6.34-1.38,13.38-20.07,8.85-29.42-16.39,7.34-12.11,30.14-8.85,29.42Z"/>
    <path class="st16" d="M122.8,170.47c-1.5-.78-1.65-6.13-.61-7.63l10.38-15.04,2.17-3.53c.48-.78,3.52.49,3.5,1.41l-.07,4.13c.84.62,3.99,1.38,4.29,2.69l1.41,6.06,2.07,4.32c.45.94-2.31,2.64-3.41,3.47l-4.24,20.23c-.2.96-2.75,2.88-3.41,2.34s-1.39-2.32-1.22-3.18l3.23-16.42c-4.65,2.01-9.55,3.52-14.09,1.15h0ZM125.8,166.8c5.78-.49,7.58-1.29,11.36-2.88,1.77-4.69,2.08-7.95-1.21-12.37,0,0-10.15,15.25-10.15,15.25Z"/>
    <path class="st2" d="M144.13,620.86c-3.78,3.06-1.81-13.24-4.53-17.24l-3.71-5.45,11.04-6.36c.48-.28,2.56-.44,3.12-.43.84.02,1.36,3.09.67,3.52l-6.73,4.17,2.32,13.06c2.44-.9,6.86-1.24,9.62-.07,6.05,2.56,8.24,16.55,3.7,22.16-4.27,5.28-14.07,3.51-17.83.46-.56-.45-.58-3.69.15-3.55l3.61.66c3.07.56,8.26,2.28,10.68-1.14,3.33-4.72-.92-16.94-5.1-14.92-1.22.59-3.07,1.94-4.51,3.11l-2.49,2.02h0Z"/>
    <path class="st7" d="M182.32,469.01c2.8,4.04,2.12,8.64-.63,11.55-2.45,2.59-5.42,6.41-10.79,2.59-.31,1.07-.61,4.34-.53,6.51.07,1.92,5.86,2.11,7.34.63l7.98-8.02c.49-.49,2.78-.15,3.03.5,1.21,3.2-4.8,9.25-9.44,12.09-4.96,3.03-11.96,1.37-13.31-3.91-2.13-8.31,1.79-16.5,7.72-22.27,2.05-2,6.89-2.17,8.63.34h0Z"/>
    <path class="st16" d="M243.64,465.19c-6.83-3.78-8.74,5.14-14.85,4.26-6.9-1,11.87-15.5,18.3-8.66.85.9,1.17,4.88.44,6.04l-7.14,11.45c3.64-.39,11.29.24,11.31,4.99.04,7.73-9.15,14.07-16.51,13.23-1.2-.14-3.2-1.62-3.19-2.54.05-4.37,10.35,1.17,15.38-10.48l-11.73-.26c-.84-.02-2.75-.54-3.51-.84s.27-2.86.91-3.67l10.6-13.51h-.01Z"/>
    <path class="st16" d="M176.98,292.17c-4.31-.69-6.64.76-9,2.77l-2.89,2.46c-.85.72-3.75-2.67-2.91-3.8,4.67-6.29,15.96-9.06,18.53-4.4.6,1.08.73,4.69,0,5.85l-7.99,12.43,12.09.98c1.3.11,4.03,2.6,3.95,3.84s-1.19,3.52-2.22,4.71c-4.7,5.41-10.73,7.77-15.76,3.84-.7-.55.08-3.41.68-3.68,5.99,1.47,8.07.82,11.89-4.3l-15.03-.45c-.78-.02-2.9-.98-2.8-1.68s.7-2.57,1.14-3.22l10.33-15.35h0Z"/>
    <path class="st2" d="M34.46,180.33c-4.16-.29-8.59-6.39-8.58-9.98.03-9.69,9.59-16.59,17.65-16.38,1.89,2.77,3.33,4.19,6.06,6.37-4.69,12.66,2.86,22.22.3,23.03l-3.13.98-3.76-9.73c-1.88,2.05-5.29,5.94-8.55,5.71h0ZM35.22,176.14l8.97-14.67c-6.44-2.72-9.68-.11-12.26,4.06-2.29,3.7-1.6,7.8,3.29,10.61h0Z"/>
    <path class="st16" d="M260.72,303.18c-3.23-3.72-2.57-10.97-.28-14.67,3.76-6.07,11.3-7.43,16.46-2.96l2.91,7.27,1.95,22.64.24,3.17c.07.94-3.87,1.27-4.04.34l-2.77-14.71c-4.35,1.82-10.5,3.48-14.46-1.09h-.01ZM271.87,300.23c2.05-2.01,3.72-6.74,3.27-8.74-2.14-2.62-5.9-4.39-8.19-3.24-4.5,2.25-4.62,11.37-1.41,12.74,1.2.51,5.34.2,6.33-.76h0Z"/>
    <path class="st2" d="M65.69,178.28c-8.55-29.34,10.55-37.81,10.19-32.97s-4.89,4.88-6.64,10.92c10.17,3.64,14.13,13.95,9.86,23.16-1.04,2.25-4.98,4.08-7.25,3.96-2.11-.11-5.46-2.67-6.16-5.06h0ZM72.61,179.26c6.58-5.79,3.17-15.15-3.74-17.68-1.1,6.23-.62,13.15,3.74,17.68Z"/>
    <path class="st16" d="M207.24,292.68c-5.37,1.38-8.35,2.59-12.04,5.02l-2.41,1.59c-.73.48-2.51-.59-2.8-1.42-1.58-4.61,18.4-13.53,21.45-8.25.57.99.69,3.52.15,4.67l-4.13,8.7c4.75,1.47,11.28,3.36,12.75,7.65.05,6.64-8.78,11.13-14.48,10.13-.91-.16-2.97-1.59-3.54-2.25s.17-2.84.76-3.77c4.97,2.29,9.56,1.45,12.55-3.66l-15.76-5.97,7.5-12.45h0Z"/>
    <path class="st16" d="M122.87,523.62l-16.26,4.4c-1.11.3-3.66-.02-4.64-.54s-.7-4.04.18-4.72,2.2-.37,4.52-.36c9.82.04,18.59-7.6,21.36-3.49s-8.68,17.08-13.05,36.17c-.4,1.73-.73,3.05-1.2,4.05s-4.32-1.9-4.04-3.12c2.44-10.86,7.28-22.11,13.15-32.37l-.02-.02h0Z"/>
    <path class="st2" d="M248.43,289.19l-15.65,5.29c-1.65.56-3.12,1.22-4.19,1.13-1.28-.1-2.79-4.09-1.9-4.56l23.03-7.37c1.05-.34,3.67.21,4.19.98s.57,3.51.04,4.49l-12.52,23.16-1.08,3.47c-.28.89-2.88.67-3.55.03s-1.02-3.14-.58-3.96l12.21-22.67h0Z"/>
    <path class="st16" d="M226.72,362.86c6.54-11.77,18.91-13.51,17.52-10.06-2,4.98-15.54,6.96-13.61,16.68.64,3.22,6.84,4.59,9.95,3.61,6.87-2.16,6.73-6.2,10.87-8.06.79-.35,1.72,2.68,1.31,3.58-3.45,7.63-14.16,12.38-22.3,7.7-4.99-2.86-6.76-8.01-3.74-13.46h0Z"/>
    <path class="st9" d="M167.7,635.17l-1.61-35.38-.97-3.81c-.22-.86,3.08-1.72,3.56-.98l2.2,3.33,1.5,33.87-.8,3.13c-.18.69-2.62.24-3.89-.17h.01Z"/>
    <path class="st9" d="M164.38,241.41c2.16-8.9,11.95-15.97,13.27-12.16,1.44,4.15-10.3,7.76-8.28,15.74,1.67,6.6,12.7-1.22,14.75.91.62.64-.14,3.33-.88,3.86-5.25,3.76-13.4,3.45-17.07-.18-1.38-1.37-2.37-5.75-1.78-8.17h-.01Z"/>
    <path class="st9" d="M173.14,364.84l-2.78-12.63c-.33-1.52-.92-3.43-.64-4.48.33-1.25,4.73-1,4.98.27l3.56,18.73c1.27,6.69,1.39,14.24-1.55,16.11-4.69,2.98-1.19-7.22-3.56-18h0Z"/>
  </g>
  <g>
    <path class="st20" d="M545.34,365.28c-3.52-15.22,7.68-17.55,8.67-25.49,4.49-7.83,13.5-.14,19.38-4.98,4.29,3.1,5.97,10.1,6.97,15.74l3.02,17.08c.36,2.04,3.07,4.74,4.82,5.41,2.11.82,6.25.35,7.39-1.1l2.66-3.41c.7-.89,4.08,1.27,3.71,2.63-1.17,4.31-7.01,7.88-11.95,7.19-5.58-.78-9.38-3.76-11.21-9.88l-2.58-8.63-3.53,8.8,2.96,9.09c.19.6-.99,2.79-1.37,3.29-.51.66-2.47-.74-2.81-1.55l-2.74-6.6c-3.95,2.08-8.47,4.84-11.81,4.21-6.7-1.25-10.55-7.38-11.57-11.82v.02h0ZM565.77,367.93c.98-3.74-3.62-6.3-5.4-8.76-.66-1.66,4.39-3.26,5.48-1.85l4.06,5.26c2.42-5.57,4.42-15.11-1.52-20.29-7.66.19-16.48,6.92-18.52,14.54-1.82,6.76,1.63,14.09,7.83,15.42,2.11.45,7.54-2.32,8.07-4.32h0Z"/>
    <path class="st20" d="M463.9,194.98c-.08-.75.77-2.23,1.22-2.75.6-.69,3.87,1.03,4.03,2.07l3,19.84,2.97,12.95c.26,1.14,2.84,2.8,3.9,2.59,4.2-.84-3.44-12.39,5-18.77,1.19-.9,4.93-1.53,6.32-1.04,5.15,1.83,4.03,11.96-2.71,20.1,0,2.71,5.11,6.6,7.45,5.04,1.59-1.06,5.12-1.9,5.36-.63.46,2.4-2.53,5.4-4.34,5.79-1.98.43-6.04-.29-7.38-1.62l-5.63-5.59c-4.38,2.62-8.77,1.74-11.67-2.59-2.33,3.72-4.73,6.41-8.14,7.19-3.14.73-8.65-1.33-9.94-4.65-3.58-9.2-3.68-20.51,3.63-24.25,2.36-1.21,5.45-1.03,8.52.85l-1.59-14.52h0ZM485.98,224.67c2.03-4.02,2.84-7.29,2.78-10.4-5.13,1.96-5.77,6.49-2.78,10.4ZM456.15,214.7l.66,14.47c.07,1.55,3.33,3.73,4.79,3.81s4.54-2.11,4.75-3.68l1.51-11.17-6.37,7.13c-1.2-1.32-2.36-3.09-1.87-3.86l2.32-3.61c.6-.93.37-4.63-.7-4.92s-2.1.32-5.09,1.83h0Z"/>
    <path class="st11" d="M535.46,298.64c0-.07.09-1.85.08-1.73,0,.09-.98-.14-1.43-.24-.92-4.73-.14-10.74,3.33-14.85l11.74-13.88c2.47,5.93,3.31,6.33,7.03,9.17l8.4,11.09-.78-10.75c-.07-.9.82-2.73,1.56-3.16s3.06,1.44,3.13,2.28l.94,10.4c.36,3.99,1.64,9.07,4.91,11.36,3.77,2.64,10.35,1.57,13.66-.55l3.19-2.04c.89-.57,2.01,3.08,1.17,4.18-5,6.56-18.74,7.14-25.15-1.61.79,6.06-2.24,10.45-7.84,11.23-9.68,3.2-21.24-1.43-23.94-10.9h0ZM548.17,291.24c-.02-.87,2.08-3.04,2.99-3.1,3.97-.26,7.48,3.77,10,6.88-.99-5.4-5.13-13.69-10.68-15.69-5.46-1.97-9.98,5.65-11.41,10.1-1.73,5.38,1.37,10.85,4.94,13.34,4.39,3.06,10.46,4.22,14.67,1.52-1.36-13.54-10.46-9.77-10.53-13.05h.02Z"/>
    <path class="st10" d="M437.58,462.32c-.28-.79.18-3.18.66-3.75.63-.75,3.47.5,3.83,1.67l6.83,22.3c3.33,2.94,10.73,5.52,15.21,5.52,2.02-3.6,4.18-7.07,7.3-8.06s8.63,1.11,9.14,3.89c.98,5.35-5.05,6.66-8.73,8.03-.64,5.6,7.42,9.34,12.17,8.59.89-.14,3.06,2.13,2.48,2.75-5.18,5.58-16.3.18-20.56-10.05l-15.28-3.21,1.54,14.75c.08.81-.82,3.05-1.25,3.62s-2.86.48-2.97-.21l-.47-3.06c-2.28-14.71-4.58-28.08-9.9-42.78h0Z"/>
    <path class="st11" d="M549.89,446.99c-3.95,1.71-12.17-1.97-14.07-6-6.19-13.1,3.61-27.34,17.44-31.49l7.34,5.43c6.56,4.85,5.79,15.23,2.33,22.08-.93,1.84.56,6.5.82,8.49.09.66-2.54,2.07-2.93,1.51l-2.54-3.63-8.38,3.63v-.02h-.01ZM556.55,438.46l-8.56-13.91c1.19-2.03,5.24-1.17,6.47.77l4.88,7.7c2.2-4.55,1.97-11.71-1.91-14.64-2.39-.14-5.71-.68-7.8-1.33-8.26,2.41-13.5,13.75-9.5,21.79.96,1.89,6.02,4.08,8.01,4.02l8.42-4.37v-.03h-.01Z"/>
    <path class="st18" d="M431.46,228.34c-1.96,8.17-17.63,11.89-21.52,6.83-4.9-6.39-1.46-16.43,4.2-20.94l-2.61-2.54c-.53-.52,1.22-3.61,1.89-3.3,1.97.91,6.08,3.28,7.76,4.96l9.89,9.91c-.67-8.36,3.5-16.91,10.89-17.69,1.25-.13,3.64.58,4.53,1s.63,3.73.11,4.07c-2.8-.05-6.3-.05-7.69,1.39-1.61,1.67-3.08,6.18-2.65,8.29l2.81,13.86c.21,1.02-1.21,3.71-2.1,3.82s-3.36-.84-3.57-1.71l-1.92-7.96h-.02ZM413.93,232.28c3.14,1.21,10.2-.83,11.99-3.79,1.37-2.26-2.41-7.41-3.95-7.93l-3.66,2.53c-.76.53-2.61-1.56-3.56-2.59-1.55,2.52-3.85,8.09-.82,11.77h0Z"/>
    <path class="st11" d="M375.88,438.81l-2.95-3.29.12-5.09c-.32-5.21,2.15-9.12,7.38-10.81,1.41-.46,4.51-.85,5.96-.79s3.87,3.14,3.65,4.69c-.77,5.42-4.64,9.93-9.48,13.51l6.49,5.52c2.92,2.49,10.51.07,10.04-3.83-.51-4.26-1.72-7.98-.25-12.07,1.2-3.35,5.15-7.23,9.08-8.03.92-.19,3.57,1.16,3.76,2.05.67,3.02-6.41,1.99-8.84,8.68-.74,2.03.5,7.3,2.51,8.27,6.49,3.15,14.7-1.5,14.65,2.52s-8.91,4.75-16.93,2.15c-2.02,2.19-4.42,4.82-6.87,5.59-2.6.82-8.39.27-10.52-1.72l-7.83-7.34h.03ZM379.22,432.03c3.11-2.99,4.23-4.45,6.22-8.39l-6.21,1.94c-1.86.58-1.88,5.47,0,6.45h-.01Z"/>
    <path class="st10" d="M560.95,503.02c-5.3,4.2-12.19,2.06-17.09-2.59-6.91-6.57-7.82-15.42-2.31-23.37,2.44-3.52,5.83-7.16,9.83-7.11s8.76,2.34,10.85,6.13c3.68,6.68,4.04,14.02,1.65,21.38l2.48,6.5c.35.91-1.18,3.63-2.12,3.55s-1.79-1.35-3.29-4.48h0ZM551.81,493.14l-3.56-2.56c-.7-.5,1.93-3.31,2.68-2.92l9.07,4.73c1.48-5.53.13-15.58-6.16-16.88-6.99-1.44-11.81,8.04-11.02,13.6.96,6.72,6.96,12.8,14.75,10.58-.26-2.58-3.17-4.68-5.77-6.55h.01Z"/>
    <path class="st10" d="M516.32,356.01c-2.73-5.72,1.58-11.88,5.35-14.62,4.25-3.09,10.76-5.56,15.79-2.74,2.97,1.67,2.53,8.36-.9,9.36-1.43.42-2.58-3.19-2.18-5.54-5.79-.97-14.45,3.46-14.02,11.17,3.13,4.85,10.5,7.28,16.25,9.3,4.34,1.53,10.38,6.06,7.64,10.98-4.88,8.8-22.8,14.66-27.3,10.32-4.05-3.9,15-1.82,23.4-12.09-3.99-7.53-19.37-6.37-24.03-16.14h0Z"/>
    <path class="st10" d="M274.65,258.11c-1.24-12.15-3.16-21.85-6.36-33.15l3.83-5.61c3.36-4.93,9.03-10.88,15.94-8.96,5.8,1.61,6.92,9.41,6.26,14.65-1.17,9.25-7.05,15.96-16.79,16.7l1.53,13.42c.09.76-.64,3.47-1.3,3.38l-3.11-.42h0ZM277.65,236.66c6.85-.18,9.79-5.1,11.08-8.51,1.47-3.88,1.76-11.33-1.99-12.73-5.16-1.93-9.13,4.22-11.07,7.33-2.38,3.81-1.38,11.75,1.98,13.91h0Z"/>
    <path class="st10" d="M332.64,469.92c-2.89,2.39-5.28-5.84-11.15-1.99-2.32,1.52-3.73,5.12-3.5,7.69l.75,8.27c11.54-3.25,18.61,3.42,15.87,5.1s-15.01-4.11-16.16,1.21l-2.45,11.36c5.88-2.18,12.98-4.7,17.8-4.32.94.07,3.28,3.04,2.77,3.75l-2.05,2.82c-.52.71-2.49-1.17-3.55-2.08l-11.98,3.89c-1.65.54-4.93.7-6.3.03s-1.71-4.66-1.31-6.24c5.35-21.22-2.95-30.55,9.27-36.27,3.62-1.7,10.36-.43,12.63,2.25.69.82.1,3.93-.64,4.54h0Z"/>
    <path class="st10" d="M324.43,442.19l10.53-4.82c.84-.39,2.5-.53,3.31-.39s1.73,2.75,1.04,3.19l-3.25,2.06c-5,3.17-12.38,5.28-17.8,2.41-1.14-.67.65-4.11,1.07-5.54,3.77-12.71-2.74-25.09,3.28-27.79,8.81-3.96,22.14,3.94,18.77,6.56-3.55,2.76-6.7-3.87-16.82-2.67l.87,10.17c5.98.28,11.23,2.88,13.33,6.71.32.58-.7,2.38-1.35,2.48-3.64.57-5.01-4.26-11.71-4.47l-1.28,12.08v.02h.01Z"/>
    <path class="st10" d="M534.11,296.68c.44.1,1.42.32,1.43.24.01-.12-.08,1.65-.08,1.73l-.77,2.37c-1.88,11.57-13.45,17.78-21.37,13.9l-3.64-1.78c-.87-.43.72-4.19,1.74-3.8,3.23,1.22,9.29,2.57,12.22.44,3.55-2.57,6.65-6.1,5.99-10.86-5.18-3.87-13.97-3.4-15.8-9.59-2.42-8.15,6.54-17.47,16.1-19.82,1.92-.47,5.57,2.28,5.46,4.2-.09,1.6-1.31,3.69-2.64,5.3l-3.34-4.51c-5.09,1.59-10.81,6.42-11.42,12.39,2.6,4.91,9.79,3.61,16.12,9.79h0Z"/>
    <path class="st13" d="M388.17,485.14c-2.28,6.81-7.59,8.59-13.92,10.02,1.64,3.2,5.29,6.82,8.64,7.13,4.23.4,7.99-.81,11.65-2.65l2.7-1.36c.74-.38,1.96,2.68,1.43,3.39-2.62,3.51-9.64,5.9-14.64,5.58-6.81-.44-11.76-4.72-13.98-10.05-2.76-6.64-.53-12.76,4.5-17.94,2.4-2.47,6.21-4.17,9.32-2.78,2.24,1,5.24,5.85,4.31,8.65h0ZM373.52,489.6c4.27.61,8.12-2.01,9.4-3.94.63-.95.2-3.37-.39-4.18-.47-.65-3.35-.64-3.78.03l-5.23,8.09h0Z"/>
    <path class="st13" d="M532.92,442.95c-5.21,11.68-21.29,12.53-18.91,9.04,3.07-4.5,9.68-2.53,14.96-11.36-5.77-3.23-11.88-6.18-14.58-12.06-2.52-5.5,1.25-10.85,5.44-13.9,3.77-2.75,7.96-5.22,12.71-2.99,1.78.84,1.52,5.12.12,6.1-2.38,1.68-5.2.61-7.2-.36-2.72-.2-7.83,5.17-6.96,8.09,2.89,9.65,18.34,8.62,14.42,17.43h0Z"/>
    <path class="st13" d="M318.11,248.39c-5.19-.29-10.11-12.04-4.38-21.38,1.63-2.66,5.89-4.87,10.51-5.27,2.04,3.17,4.96,7.16,5.81,10.02l3.9,13.07c.28.95.36,2.53.16,3.3s-2.58,1.77-2.94,1.06l-1.69-3.3-1.12-2.18c-.61-1.19-3.47,5.07-10.25,4.68ZM318.83,228.68c-3.86,3.28-4.44,11.97.2,14.47,3.28,1.21,8.24-5.68,6.21-7.87-.86-.58-4.37-1.62-3.99-2.55l1.38-3.35c.25-.61-.61-1.85-1.11-2.29-.34-.3-1.81.84-2.69,1.59h0Z"/>
    <path class="st10" d="M371.27,217.32c3.36,5.04-2.79,13.71-6.05,16.54,8.13,6.99,14.23-5.38,16.54-2.59.57.68.67,2.75.07,3.57-4.95,6.72-14.96,8.25-21.5,2.27-4.45-4.08-7-10.9-4.4-15.47,2.37-4.17,11.58-9.94,15.34-4.32h0ZM361.16,229.75c3.74-1.3,5.74-5.27,6.19-9.88-2.21.5-5.21,1.9-6.87,3.32-1.26,1.08-.98,5.4.68,6.56Z"/>
    <path class="st14" d="M532.07,493.78c-2.51,7.84-11.66,15.26-15.98,12.51-4-2.55,6.93-4.31,10.86-12.25l-6.71-5.06c-5.09-3.84-6.08-10.18-2.29-15.65,3.59-5.18,10.52-9.75,17.34-7.3,2.09.75,2.34,7.13-.23,8.35-1.2.57-3.1-2.17-3.47-4.17-4.76.26-10,3.95-11.1,9.58-1.03,5.3,8.39,7.08,11.58,13.99h0Z"/>
    <path class="st14" d="M345.12,489.15c-.71-.1-2.12-1.29-1.88-1.85,1.75-4.2,6.56-3.44,12.4-1.35l3.61-6.63c.4-.74,2.23-1.75,3.06-1.89,1.02-.17,1.71,2.89,1.22,3.91l-3.79,8.02,9.13,10.69c.56.66.1,4.16-.71,4.06s-2.49-.69-3.12-1.39l-7.55-8.46-3.9,13.02c-.24.79-3.09,1.6-3.44.83s-.92-3.1-.66-3.97l4-13.84-8.37-1.14h0Z"/>
    <path class="st6" d="M568.32,475.01c-.04-1.14.88-3.44,1.74-3.75,1.07-.37,3.15,2.28,3.18,3.59l.44,18.71c.1,4.11,2.35,8.51,5.18,9.8,8.97,4.08,11.17-2.5,14.55-4.32.83-.45,2.17,3,1.84,3.89-1.66,4.5-7.4,6.75-12.18,6.4-8.44-.62-13.71-6.07-14.03-14.62l-.72-19.69h0Z"/>
    <path class="st13" d="M372.94,435.52l2.95,3.29-1.66-.06c-.32.03-1.16,5.95-2.53,4.77l-2.21-1.92-4.7-5.23-3.25,8.13c-.33.84-1.65,2.05-2.44,2.46-.59.31-2.49-2.41-2.26-3.03l3.99-10.92c-5.42-5.97-13.65-4.42-12.15-8.74.29-.85,2.83-2.03,3.65-1.63l10.96,5.4,5.88-7.56c.53-.68,2.88-1.03,3.7-.79.55.16.9,2.21.58,2.69l-5.65,8.57c-1.09,1.65,4.07,5.88,5.14,4.57h0Z"/>
    <path class="st14" d="M570.22,411.29c.12-1.68.36-3.6.65-4.59.32-1.1,4.32.87,4.24,2.02l-.98,13.51c-.36,5.02-1.22,10.79,1.47,15.09,2.14,3.42,9.35,4.85,12.55,3.84l3.98-1.26c.86-.27,2.16,1.95,2.06,2.86-.55,4.85-12.56,4.99-19.88.16-3.1-2.04-5.8-7.95-5.53-11.63l1.45-19.99h0Z"/>
    <path class="st14" d="M426.27,443.02c-7.65-2.99-9.94-18.15-6.76-20.86.69-.59,3.57,1.01,3.51,1.97-.22,3.96.35,10.98,4.7,14.58,5.04-6.9,1.66-14.59,4.78-16.56.97-.61,3.18,1.4,3.63,2.48l5.47,13.37c.35.85.3,3.09-.33,3.7-.79.77-3.1-.61-3.74-1.51l-2.92-4.09c-1.4,3.54-5.13,8.17-8.34,6.92h0Z"/>
    <path class="st13" d="M469.86,420.56c3.5-.28,8.37,10.59,4.05,14.27-1.13.96-3.55,1.42-3.45,2.29l.52,4.29c.18,1.46,2.15,4.68,3.43,5.46,1.45.89,4.29-.32,6.82-.8l3.48-.66c.73-.14,1.38,2.52.81,2.99l-2.38,1.98c-3,1.49-7.07,2.26-9.94,1.23-10.49-3.78-9.77-30.55-3.35-31.06h.01Z"/>
    <path class="st13" d="M422.12,499.64c-8.69-11.47-8.26-21.31-5.66-19.87l2.87,1.59c1.13,6.35,2.81,11.1,7.67,16.04l3.86-9.81c.35-.88,1.71-2.9,2.64-2.73s2.48,1.77,2.91,2.8l5.65,13.64c.38.91-1.86,3.04-2.51,2.53s-2.25-1.94-2.67-2.69l-3.06-5.46-4.41,5.66c-1.1,1.42-6.17-.25-7.27-1.7h-.02Z"/>
    <path class="st4" d="M451.05,445.44c-.69-22.4-10.74-37.29-9.54-42.05.99-3.92,7.65,5.29,10.01,17.74l7.03,5.23c-.36,1.07-2.49,2.62-4.34,3.6l1.88,16.04c.12,1.01-2.04,3.5-2.94,3.43-1.12-.09-2.04-1.77-2.11-4h0Z"/>
    <path class="st19" d="M301.84,244.84l-5.38-32.09,2.97-2.05c.77-.53,2.32,1.9,2.38,2.95.46,9.19,1.98,18.47,4.27,27.51.75,2.97.6,7.99-1.02,9.74-3.17.41-3.96-3.65-3.21-6.07h-.01Z"/>
    <path class="st17" d="M516.19,208.24c-10.08,9.82-.04,24.84-2.12,28.59-3.3,5.94-14.65-21.87.32-33.78.86-.69,5.18.79,4.68,1.74s-1.58,2.18-2.88,3.45Z"/>
    <path class="st19" d="M347.2,218.01c5.35.41-5.67,10.46-2.05,20.57,1.63,4.55,10.52-3.52,11.56-.62.36.99-.34,3.51-1.33,4.28-4.1,3.17-12.21,4.14-14.73-1.92-3.33-8.01,1.96-22.66,6.55-22.3h0Z"/>
    <path class="st19" d="M412.7,495.72c-8.96,1.18-18.91-5.89-17.69-12.85.3-1.69,3.28-4.49,5.12-4.76.91-.13,3.33,1.29,3.77,2.08.55.98-2.02,2.75-3.72,3.55-.24,4.81,6.4,6.03,10.72,7.21l3.28.9c.9.25-.4,3.72-1.48,3.87h0Z"/>
    <path class="st11" d="M521.13,655.24c-3.13,1.64-8.94.55-11.63-1.71-2.18-1.83-5.13-6.5-4.93-9.9l.86-14.78c7.47-6.01,16.96-7.24,25.14.46l-.93-20.43c-.04-.88,1.29-3.1,2.15-3.24,1.08-.17,2.58,1.85,2.64,3.02l1.26,24.8c5.33-2.57,11.59-1.3,14.48,4.33,7.03,13.7,3.64,25.69,1.25,22.35-.5-.7-1.18-2.36-1.37-3.25l-3.48-15.97c-.34-1.58-3.24-3.62-4.76-4.06s-5.71,1.66-5.47,3.45l1.99,15.11c.11.82-.54,3.02-.87,3.74s-3.29-.42-3.41-1.2l-2.1-12.79c-3.17,4.18-6.42,7.77-10.8,10.06h-.02ZM509.95,637.1c-2.33,4.05-.26,12.18,4.81,13.74,4.41,1.36,9.5-2.8,11.32-5.66,2.28-3.57,2.49-9.44.1-12.83-2.52-3.57-8.35-4.59-11.87-2.86l-4.36,7.6h0Z"/>
    <path class="st13" d="M662.61,662.76c-5.6-10.61,2.07-24.78,8.74-24.31,4.47.32,6.6,8.75,4.85,17.01l4.72-.17-4-18.38c-.19-.89,2.76-2.77,3.26-2,2.09,3.18,3.43,8.39,4.27,12.8,1.45-4.18,4.53-10.89,9.74-12.04,9.1-2.01,12.91,26.48,8.39,31.26-.46.48-2.64.55-2.8-.09-1.04-4.37,1.41-13.97-3.93-26.54-3.55,1.73-5.02,4.52-6.3,8.32l-3.54,10.48-5.05-.64c-1.25,3.4-4.41,6.87-7.77,8.3s-8.69-.41-10.58-3.99h0ZM669.93,643.37c-4.7,5.23-5.52,11.29-3.36,16.7.57,1.43,4.28,2.92,5.43,1.98l4-3.27-5.56-.44c1.32-5.55,3.21-11.09-.5-14.97h-.01Z"/>
    <path class="st20" d="M575.3,636.74l-.57,3.77c-.82,5.49,3.78,8.21,7.74,11.66,4.1,3.57,4.68,11.57,5.6,17.16l-5.12,1.94c-2.29,6.84-7.5,13.94-12.63,14.3-2.29.16-6.35-1.7-7.01-3.66-1.52-4.44-1.4-10.63,2.96-13.01,1.9-.09,1.68,4.43,1.44,6.76l-.39,3.78c-.11,1.04,3.65,1.32,4.63.52,5.64-4.56,9.12-14.36,5.32-21.62l-7.22-13.8-6.12,4.37c-.56.4-3.25-.66-3.4-1.3s.17-2.13.69-2.56l5.79-4.82c-7.07-10.29-7.51-24.98-.43-28.13,5.02-2.24,10.6,3.44,11.45,6.93.21.85-1.47,3.47-2.04,3l-2.41-2.02-4.99-4.19c-3.48,5.54-2.6,10.1-.82,15.79,1.23,3.91,3.72,5.8,7.54,5.13h-.01Z"/>
    <path class="st4" d="M638.25,644.29c1.34-1.54,4.59-4.21,6.74-4.53,9.76-1.42,15.2,27.85,12.07,34.19-.42.85-3.47-.05-3.57-1.28-.83-10.44-3.3-27.79-7.04-27.24l-4.01.59c-.86.13-2.99-.3-3.6-.53l-.84.4,1.77,12.83c.08.56-.13,2.69-.26,3.13-.18.66-1.81.65-2.36.23l-2.61-2.03,2.06,9.44c.15.69-.86,2.4-1.44,2.81-.77.54-2.99-1.29-3.24-2.25l-3.04-11.39c-2.89,3.49-6.82,7.07-10.76,3.89-2.94-2.37-3-8.42-1.53-12.59,1.07-3.04,4.4-6.38,8.9-7.28,1.68-.33,5.29.63,5.75,1.99.55,1.63-.82,4.66-2.45,6.36l-3.46-3.48c-4.28,2.07-6.27,6.55-4.13,11.64l5.21-5.15c.76-.75,2.27-2.27,3.16-2.02l4.41,1.22c-1.77-13.49-2.99-27.65-10.34-38.81l-1.73-2.62c-.47-.72,1.04-2.9,1.84-2.58l3.71,1.48c5.3,10.68,8.31,21.82,10.2,33.8l.58-.23h0Z"/>
    <path class="st10" d="M479.83,652.17c-.08.88-2.79,2.83-3.15,2.29s-1.2-1.97-1.35-2.64l-3.57-15.92c-.25-1.11.42-5.25,1.41-4.76l4.24,2.06,4.1-5.74c1.07-1.5,5.21.38,7.22,1.75,6.19,8.62,7.72,19.08,7.58,29.83l-2.15,2.46c-3.95,4.53-.44-19.29-9.51-29.34-2.19.84-3.38,4.87-3.71,8.32l-1.11,11.7h0Z"/>
    <path class="st4" d="M604.18,645.28c1.15-.33,3.96,1.04,4.54,1.86s-.09,3.63-1.09,3.77l-4.59.67c-1.99.65-2.38,5.84-2.23,8.38.57,9.79,8.71,7.71,12.07,10.36.75.59-1.26,3.33-2.55,3.4-6.41.33-13.82-5.43-14.38-13.47-.43-6.17,1.31-12.97,8.23-14.97h0Z"/>
    <path class="st3" d="M549,626.54c-1.01-3.53-1.99-5.31-4.86-7.74-.23-1.08,2.41-3.29,3.74-3.29s4.31,2.07,4.46,3.43l1.03,9.7c.07.69-3.16,2.12-3.36,1.45l-1.01-3.55h0Z"/>
    <path class="st18" d="M652.7,638.25c-3.36-4.71-.22-7.58-3.45-13.06l3.62-1.62c1.14-.51,3.33,2.72,3.24,3.98l-.62,8.95c-.05.69-2.4,2.3-2.8,1.75h.01Z"/>
    <path class="st12" d="M574.73,640.51l.57-3.77,4.22-4.15c3.71,3.22,3.41,8.78.57,10.22-.97-.08-2.5-3.17-3.13-4.97l-2.23,2.67h0Z"/>
    <path class="st20" d="M322.03,620.82c5.27,4.45,3.34,10.4-.49,15.28l8.69,5.64c-.21-6.44-.42-11.15,3.04-16.13,2.55-3.67,7.73-6.08,13.24-6.47l-4.33-14.92c-.24-.84-.29-3.78.47-3.65l4.52.76,9.3,28.2,7.71,21.16c.32.87.08,3.45-.62,3.74-.94.38-3.2-.68-3.65-1.72l-5.15-11.91c-5.3,7.67-14.07,9.31-21.36,4.98-5.15.6-9.55-1.86-13.87-5.2-6.11-2.99-8.32-11.2-6.11-17.46.77-2.18,6.46-4.14,8.63-2.31h-.02ZM343.95,624.77c-2.53-1.1-7.13,3.41-8.19,5.95-1.2,2.88-1.37,9.24.93,10.91,4.95,3.6,10.13,1.38,13.38-2.77,2.2-2.8,2.51-8.25-.38-11.6l-5.75-2.49h.01ZM318.3,630.78c2.91.11,2.68-5.52.21-5.54-1.43-.01-1.52,4.96-.21,5.54Z"/>
    <path class="st11" d="M389.74,611.49c4.76-4.78,11.03,10.37,14.37,21.41l5.38,17.78c1.33.04,4.44-1.27,5.56-2.33s1.6-4.52,1.77-6.62c.49-6.16,5.92-12.73,12.64-10.3,3.38,1.22,4.22,7.59,2.78,10.93-1.34,3.11-4.61,5.9-8.68,7.91,3.94,4.33,10.81-.15,12.5-4.09.41-.96,3.44-.99,3.67-.1,1.18,4.47-5.67,10.38-10.86,10.74-4.86.34-7.95-1.86-10.64-5.31-2.23,1.97-5.53,4.82-7.4,5.86-3.49-1.28-6.12-5.39-7.04-8.74-3.05-11.07-6.28-21.61-11.26-31.9l-3.57-2.16c-.76-.46.16-2.44.78-3.07h0ZM421.49,645.33c5.92-.9,7.78-5.83,5.88-10.02-4.58,1.39-6.78,5.63-5.88,10.02Z"/>
    <path class="st10" d="M242.58,649.64c-.78,0-3.35-2.61-2.76-3.05.79-.59,2.65-1.6,3.63-1.76,7.3-1.23,12.23-5.56,10.35-13.35l-12.18-4.14c-3.01-1.02-7.83-3.97-7.04-7.73,3.55-16.71,20.98-30,27.75-23.43.9.88.78,5.04-.34,5.56s-3.15-.73-4.97-2.37c-8.86,3.06-15.08,11.36-18.09,21.25l12.06,4.71c2.17.85,5.38,2.12,6.5,3.58,1.35,1.77,1.61,6.25,1.13,8.8-1.33,7.07-8.96,11.93-16.05,11.93h0Z"/>
    <path class="st10" d="M280.64,603.11l-.71-4.02c-.13-.76,2.32-1.35,3.05-1.08s1.91,1.6,2.08,2.38l6.64,28.95,4.33-7.74c.5-.89,3.44-1.78,4.33-1.35s2.7,1.92,3.07,2.94l8.01,22.42-2.83,1.86c-.72.48-1.98-1.94-2.31-2.83l-6.91-18.89-5.02,11.4c-.31.7-1.54,2.42-2.19,2.19l-3.12-1.09-8.42-35.15h0Z"/>
    <path class="st13" d="M366.98,635.26c-.34-.58,2.51-2.54,3.53-2.1,5.38,2.31,4.45,10.34,10.45,15.9l2.68-14.84c.16-.91,1.39-2.67,2.05-3.22s3.25,1.3,3.59,2.15l7.88,19.61c.35.88-.51,3.51-.96,4.2s-2.96-.56-3.25-1.39l-5.08-14.44c-1.07,6.1-2.21,12.29-8.96,12.21-2.73-1.12-5.11-6.28-6.82-9.22l-5.13-8.86h.02Z"/>
    <path class="st18" d="M273.72,616.24c.63-.48,3.94.74,3.62,1.43-2.68,5.71-13.02,12.99-5.16,20.65,1.46,1.42,6.24,2.48,7.59.93,1.51-1.75,4.53-4.38,5.49-3.15,1.92,2.44-1.1,6.93-3.94,8.02-4.44,1.71-9.45.38-12.51-2.43-7.1-6.53-4.69-18.26,4.9-25.45h.01Z"/>
    <path class="st11" d="M448.36,294.58c.94-5.69-3.27-9.67-2.06-14.79.19-.8,3.95.15,4.14.96l3.84,16.52,12.32,1.44c-.04-7.09,3.39-10.48,9.51-13.24,2.16-.97,6.39-.65,8.05,1.06,4.29,4.41-1.99,12.21-10.53,16.8,7.22,4.28,11.9-2.97,14.98-.28.67.59-.26,3.04-1.15,3.65-5.7,3.91-15.29,4.84-19.05-3.01l-13.72-1.25,1.44,9.12c.14.89-.87,3.03-1.7,3.28s-2.71-1.4-2.9-2.28l-2.39-11.31c-.68-3.24-1.29-3.53-.77-6.66h-.01ZM472.45,298.26c4.95-2.61,6.94-5.23,8.43-8.53-5.15.14-10.55,3.32-8.43,8.53Z"/>
    <path class="st11" d="M358.6,295.78l6.51,2.94,7.32-12.86,2.92.89c.7.21.65,3.2.2,3.92l-6.65,10.91,4.1,4.13,3.18-5.73c1.29-2.34,3.6-4.75,5.48-5.65,2.54-1.21,8.84-.54,9.09,1.79.66,6.79-6.3,8.19-11.09,12.53l10.89-.08,2.1,2.3c.48.53-1.92,2.27-2.81,2.35l-15.87,1.37-7.53-9.4c-3.6,2.72-3.69,5.92-2.04,10.09-.97.63-3.03,1.5-4.17,1.59-1.38.1-3.18-4.18-2.61-5.48l4.02-9.09-7.1-2.25c-.79-.25-.67-2.94,0-3.39.84-.56,3.13-1.29,4.07-.86v-.02h-.01Z"/>
    <path class="st10" d="M353.17,282.92c3.7,4.4-9.44.67-17.57,5.8-3.64,2.3-8.06,5.84-4.38,10.95l16.59-4.53c.95-.26,3.86.62,3.71,1.56s-1.63,2.8-2.65,3.11l-14.08,4.36.47,5.97c.09,1.18,3.37,2.48,4.55,2l13.45-5.52c.52-.21,3.09-.3,3.28.19l1.09,2.84c.29.74-2.03,1.38-3,1.77l-14.1,5.58c-2.37.94-8.21-1.07-9.98-1.96.46-6.65-2.05-10.34-4.73-15.53-3.39-6.55,3.15-12.67,8.4-15.6,7.71-4.31,16.29-4.17,18.96-1h0Z"/>
    <path class="st13" d="M419.73,291.26l2.39,13.11c.18,1.01,2.67,2.9,3.66,3.19,1.18.35,4.11-1.08,4.63-2.28,2.77-6.25.54-10.03,3.24-12.71.83-.82,3.46,1.47,3.75,2.78l4.59,20.61c.12.55-.11,2.09-.24,2.6-.21.77-3.42-.25-3.67-1l-3.19-9.45c-2.18,2.02-6.27,4.61-9.38,4.38-2.6-.19-7.36-3.69-7.9-6.7l-2.46-13.86c-.13-.74,1.39-3.08,2.07-2.95s2.4,1.58,2.52,2.28h-.01Z"/>
    <path class="st14" d="M405.15,295.63c-4.16,1.5-7.1,7.47-5.6,11.97,1.74,5.21,8.3,1.56,12.6,1.83.69.04.85,2.71.25,3.3-3.61,3.55-14.6,4.11-17.25-2.98-2.7-7.21,1.14-14.25,7.08-18.47l3.34-2.38c.95-.67,2.95,2.39,3.04,3.56s-1.57,2.49-3.47,3.18h.01Z"/>
    <path class="st11" d="M316.18,557.6c-1.94,1.52.07,5.81-3.97,7.33-.86.32-3.07-1.86-3.21-2.93l-2.9-22.21,9.4-.53c1.67,6.62,2.57,11.23,6.63,17.32l6.03-13.62c.39-.88,2.07-2.35,2.84-2.64,4.18-1.58,9,18.96,3.9,26.26-.53.76-3.48-.11-3.75-.84,1.1-5.23,1.26-12.09.02-16.56-3,8.35-8.56,13.48-10.69,11.8l-4.3-3.38h0Z"/>
    <path class="st11" d="M347.13,562.54c-.17,1.05-.83,2.73-1.18,3.34-.46.82-3.71-.95-3.85-1.96l-2.11-15.73c-1.24-.95-3.1-4.34-1.93-4.86,2.26-1.01,5.45,1.02,7.17,2.59.37-2.2,4.53-6.8,6.17-5.01,2.4,2.62,2.93,7.22,3.91,11.07,1.81-3.3,5.88-8.49,9.98-6.14,10.77,6.17,7.82,28.17,2.99,24.69-3.3-2.37,3.77-12.68-5.7-21.02l-5.9,11.31-1.44,2.83c-.43.84-3.47-.94-3.65-1.92l-2.27-12.8-2.21,13.62h.02,0Z"/>
    <path class="st13" d="M268.76,522.82c.84.61,1.82,2.99,1.8,3.86s-1.89,2.63-2.62,2.14l-3.77-2.53c-9.29,2.19-19.42,24-14.1,31.43,3.94,5.49,15.91,2.61,19.32-2.01l2.06-2.79c.52-.71,3.17.09,3.4.94,1.87,7.1-15.93,16.23-27.65,8.57s7.87-49.53,21.56-39.6h0Z"/>
    <path class="st11" d="M285.1,564.17c-6.44-5.13-8.23-19.7-3.94-24.77,1.76-2.08,7.29-3.93,10.65-2.84,10.31,3.34,13.72,16.56,7.37,24.76-3.42,4.42-9.6,6.42-14.09,2.85h.01ZM284.86,548.55c-2.66,3.26.84,12.42,5.38,12.32,6.08-.14,7.7-6.4,7.27-10.68s-4.07-10-8.48-8.63c-1.07,2.54-2.48,4.92-4.16,6.99h0Z"/>
    <path class="st14" d="M392.37,574.67l2.47-8.83-5.76-36.48-2.12-3.88c-.47-.85,2.42-2.36,3.37-2.13s2.76,1.97,2.93,2.94l3.65,20.88,7.61-2.11c.78-.22,1.84,3.04,1.13,3.44l-3.21,1.79c-3.23,1.8-4.96,3.08-4.21,7.08,1.37,7.29,1.83,14.58-2.3,19.09-.63.69-3.86-.76-3.56-1.8h0Z"/>
    <path class="st22" d="M377.61,562.79c1.17-6.82-2.53-7.18-2.41-11.33.03-1.1,3.91-.94,4.61-.07,2.58,3.25,3.93,10.02,2.34,13.32-.4.83-2.68,1.99-3.5,1.93-1.03-.07-1.28-2.37-1.03-3.85h0Z"/>
    <path class="st3" d="M377.19,542.65l-3.44-6.58c-1.09-1.28-2.48-3.11-2.1-4.27.45-1.38,4.67-2.5,5.75-1.35,2.37,2.52,4.53,7.88-.21,12.2Z"/>
    <path class="st11" d="M519.87,577.85c-.42.99-2.71,2.8-3.49,2.24s-1.81-2.24-2.03-3.24l-4.05-18.1,3.38-.74c1.05-.23,2.49,2.6,2.67,3.67l1.12,6.64c3.08-2.63,4.14-3.44,7.96-3.88l8.23-11.09c1.08.01,3.37.6,3.29,1.51s-.84,3.28-1.37,4.05l-5.24,7.65,13.75,3.79c2.66-7.3,9.64-13.55,16.78-12.06.15,3.88.93,4.38,1.9,7.35l6.28,19.27c.32.97-1.89,3.74-2.6,3.2s-1.82-1.96-2.14-2.9l-3.33-9.63c-2.01,5.51-8.61,8.53-12.51,7-1.18-.46-3.4-3.03-3.9-3.65-2.1,4.03-6.02,8.29-10.13,11.25l-2.57-1.82c-2.14-1.51,6.19-5.94,9.65-13.68l-11.77-3.14.3,11.47c.02.89-2.59,3.1-3.2,2.48-3.16-3.22-.07-8.38-3.27-16.44l-3.69,8.79h-.02,0ZM556.1,574.69l1.45-10.96c-7.19.61-10.49,8.51-7.78,13.88.94,1.62,6.09-1.05,6.34-2.93h-.01Z"/>
    <path class="st11" d="M600.08,560.02l-6.18-5.82c4.62-3.75,9.51.42,10.59,4.35l3.67,13.24c2.75-5,3.8-7.19,6.23-9.81,2.05-2.2,8.52-3.17,11.09-.78,7.2,6.7,5.95,19-1.54,25.11-1.3,1.06-5.46,2.05-7.06,1.75-1.83-.35-3.85-2.58-5.48-5.13l-6.02-1.07-5.3-21.86v.02h0ZM615.4,568.26c-2.1,4.28-2.05,12.37,2.46,14.47,4.09,1.91,8.39-5.99,7.07-9.42l-3.09-8.06c-.63-1.63-5.21.47-6.45,3.01h.01Z"/>
    <path class="st10" d="M637.39,578.65c-3.67,2-2.32-8.7-5.95-16.21l-1.42-2.94c-.29-.6,2.44-2.52,2.91-2.05,1.52,1.55,3.92,5.11,5.12,7.16,1.21-4.77,4.43-11,9.76-11.76,2.21-.32,5.87,4.13,6.27,6.68l4.35,27.96c.19,1.24-1.2,3.65-2,4.03s-3.3-.29-3.29-1.17l.05-3.78c.12-9.71-1.93-19.4-4.94-29.15-8.35,5.25-4.85,17.96-10.85,21.24h-.01Z"/>
    <path class="st13" d="M492.54,575.37c-4.72-6.53-1.3-16.58,5.22-20.62,2.27-1.41,6.62-.8,8.68.93,1.61,1.35,1.63,4.69,2.14,7.51l3.8,20.88c.18,1.02-1,3.56-1.73,3.25s-2.49-1.57-2.67-2.33l-2.28-9.27c-4.36,2.31-9.96,4.05-13.16-.37v.02h0ZM496.14,572.46c1.31.82,5.38.57,6.34-.56s1.51-4.04,1.35-5.61l-.81-7.75c-7.07.42-9.15,8.81-6.88,13.92Z"/>
    <path class="st14" d="M585.71,539.61c-.64-3.66-2.19-6.53-4.16-9.55.14-.54,2.44-2.2,3.59-2.15s3.25,2.44,3.51,3.74l5.35,27.05,3.55,20.79c.11.64.02,2.63-.12,3.15-.21.77-2.15,1.31-2.92,1.11s-1.32-1.66-1.53-2.84l-7.28-41.31h.01Z"/>
    <path class="st18" d="M579.41,556.53c4.81.11-8.46,12.61-2.29,23.94,2.17,3.98,9.35-.29,12.96,1.43.79.38-.28,3.1-1.17,3.6-4.68,2.61-12.88,2.34-16.46-3.06-4.35-10.05.42-26.07,6.96-25.91h0Z"/>
    <path class="st4" d="M456.44,579.94l-2.77-38.87,2.05-3.36c.47-.78,2.87,1.7,3.01,2.33l2.26,37.4-1.17,3.07c-.32.84-3.12-.1-3.38-.56h0Z"/>
    <path class="st6" d="M479.18,574.64c-.02,1.45-.24,2.85-.54,3.49s-2.87.9-3.05.22l-.84-3.05-2.2-16.74c4.37-5.97,12.52-7.25,17.28-4.62.91.5,1.87,3.36,1.09,3.75-2.78,1.38-11.47-2.01-11.53,1.86l-.22,15.09h.01Z"/>
    <path class="st18" d="M441.03,541.92c-.94.58-2.97-2.3-2.37-3.24s2.6-3.29,3.81-3.6l15.42-3.88c6.55-1.65,13.46-2.98,16.51.76.55.67.28,3.19-.57,3.1l-4.26-.46c-5.3-.57-11.25,1.69-17.02,2.84-3.74.75-7.85,2.2-11.51,4.47h-.01Z"/>
    <path class="st12" d="M601.18,550.14c-1.86-.21-2.4-4.49-1.69-6.34l1.61-4.18c.34-.87,3.69-.77,4.1.08,1.23,2.56-.15,8.72-4.01,10.44h0Z"/>
    <path class="st10" d="M179.34,178.16l-6.03-31.23-1.86-2.83c-.39-.59,1.13-2.15,1.83-2.06,4.61.6,5.6,7.39,7.11,14.68l14.25-4.05-1.77-15.36-.44-3.8c-.13-1.12,4.53-1.01,4.68.11l2.22,16.53c.11.8,1.93,2.8,2.4,3.46s-1.84,2.8-1.77,3.65l1.66,19.34c.06.65-.67,3.18-1.28,3.26l-3.09.39c-.81.1-.33-2.9-.41-3.8l-1.78-19.03-13.14,4.29,3.04,18.56c.13.82-2.76,2.37-3.23,1.63l-2.37-3.74h-.02,0Z"/>
    <path class="st10" d="M262.64,145.83l-1-4.04c-.24-.98,4-1.42,4.42-.53l2.75,5.91,11.9-8c1.62-1.09,2.1-5.89,1.1-7.54-1.1-1.82-4.71-2.73-7.9-2.44-4.88.45-9.2,6.97-11.27,10.73-.5.91-4.29-.67-3.88-1.57l1.82-3.98c3.96-8.66,13.33-12.67,22.29-8.45,2.46,1.16,4.52,6.22,4.43,8.78-.11,2.87-2.18,7.99-4.98,9.66l-14.2,8.53-.23,17.66c-.01,1.07-1.61,3.16-2.46,3.48s-2.42-1.76-2.4-2.68l.31-16.12-3.9-1.24c-.84-.27.3-2.77,1.04-3.21l2.61-1.55c.65-.39-.2-2.42-.45-3.43v.03h0Z"/>
    <path class="st14" d="M243.57,174.52l.95-27.45-9.53,2.38c-.64.16-2.73-1.52-2.73-2.17,0-3.23,14.46-6.71,23.85-6.17.21,2.17.32,4.03-.6,4.12l-5.76.62-1.49,28.82c-.04.71-1,2.16-1.49,2.58-.65.55-3.23-1.71-3.2-2.72h0Z"/>
    <path class="st4" d="M218.89,185.22c-4.25-.49,2.19-18.74-1.02-32.86l-2.41-3.95c-.62-1.02,2.14-3.33,3.29-3.04,6.43,1.66,5.18,24.44,3.06,37.38-.17,1.07-2.07,2.56-2.92,2.47h0Z"/>
    <path class="st19" d="M206.72,147.15c-.94.23-1.98-3.21-1.2-3.74s2.73-1.79,3.71-2.02l19.1-4.51c.61.36,1.78,2.7,1.18,3.25-.75.68-2.95,2.2-4.05,2.46l-18.74,4.56Z"/>
    <path class="st10" d="M346.06,123.29c3.08,3.24-.93,9.75-2.59,9.07-1.09-.44-2.08-2.15-3.32-4.56-6.67,3.59-12.85,10.33-14.07,18.62-.75,5.09.41,10.92,4.23,13.87,4.19,3.23,9.78,3.22,15.94.64l-1.2-15.68c-.07-.85,2.55-2.55,3.25-1.97.88.72,2.18,2.86,2.26,4.13l.95,14.16c.18,2.69-.64,6.71-1.39,9.96-2.58.31-4.08-1.88-4.13-5.09-6.34,1.63-14.12,1.98-19.34-3-5.91-5.64-6.91-14.28-4.21-22.17,4.23-12.37,19.31-22.51,23.62-17.98Z"/>
    <path class="st13" d="M369.17,127.43c13.17-5.03,21.15-.53,18.44,1.56-3.57,2.75-7.72-.41-15.49,2.59-1.92,9.34-5.09,18.57-2.63,27.33,12.55,8.89,25.43-4.13,27.66,3.95-11.87,6.58-31.84,5.56-32.93-4.34-1.19-10.81.89-20.8,4.95-31.09h0Z"/>
    <path class="st18" d="M424.35,166.69l-3.28-28.55-.37-6.4-9.74,1.56c-.69.11-2.79-1.02-3.37-1.4-.78-.51.13-3.41,1.29-3.39,16,.3,26.14-14.52,27.42-4.03l-14.29,6.44,2.8,1.58c.83.47,1.08,2.43,1.25,3.97l3.16,29.22c.11.97-.78,2.95-1.57,3.19s-3.2-1.29-3.3-2.19h0Z"/>
    <path class="st0" d="M389.46,149.32c-8.27-6.02-14.01,6.65-15.51,3.6-.35-.72-.64-2.96-.26-3.78,2.82-6.12,15.23-9.33,17.19-3.59.28.83-.64,2.64-1.42,3.77h0Z"/>
    <path class="st11" d="M449.43,365.82c1.5-8.78-1.92-18.8-4.48-27.08.7-.66,2.46-1.56,3.2-1.21s2.59,2.3,2.77,3.28l4.33,22.66,10.41,2.27c.58-2.83,3.41-10.18,8.17-8.9,5.37,1.45,6.71,11.21,3.21,15.07-1.28,1.42-5.28,1.6-8.16,1.8-.14,1.03.16,4.89.72,6.27s3.66,2.86,5.26,2.86l11.87-.03,3.49.31c1.03.09-.75,4.05-1.8,4.1l-12.42.56c-3.63.17-7.89-2.43-9.58-4.53-2.75-3.41-2.91-7.45-1.87-13.22-2.22-.55-5.76-.97-9.19-1.08l.03,14.7c0,1.06-1.42,3.33-2.24,3.74-4.27,2.18-1.11-9.1-3.3-14.37-1.39-3.35-1.05-3.55-.43-7.18v-.02h0ZM469.79,368.91c3.94-.05,4.71-1.69,4.41-3.16-.19-.96-1.5-3.02-2.07-3.43l-2.35,6.59h.01Z"/>
    <path class="st18" d="M345.43,381.9c1.79,2.34-14.81,7.96-20.39,3.6-7.81-6.1-7.29-30.89,2.25-37.65,3.96-2.8,11.43-.04,15.45,2.08l-.65,3.13c-.54,2.62-9.71-3.77-13.55.06-2.08,2.08-3.49,7.01-2.71,9.14,11.86-3.29,26.99,1.95,24.37,4.6-3.58,3.63-9.78-1.94-19.25-.69-.63.7-2.07,3.69-2.77,3.34l-3.66-1.83.71,9.64c.1,1.41,1.77,4.06,2.99,4.71,5.13,2.71,12.91-5.76,17.21-.13Z"/>
    <path class="st13" d="M379.8,381.59c-2.84-5.58-1.71-11.64,2.41-15.29,2.93-2.6,11.25-5.71,14.06-.48,3.2,5.97-5.32,13.32-12.22,12.7,4.24,11.82,19.95,2.46,19.21,6.93-.97,5.84-17.85,7.16-23.46-3.86ZM383.07,373.42c5.03.69,8.2-2,9.05-5.52-4.34-.28-7.94,2.16-9.05,5.52Z"/>
    <path class="st14" d="M353.15,365.47c-.95-.64,1.79-4.11,2.99-3.83,3.95,2.52,8.27,6.52,12.01,10.21l5.07-6.79c.57-.77,3.25-.85,3.47,0s-.03,3.19-.56,3.96l-4.6,6.68,6.2,9.49c.54.82.21,3.45-.48,4.03s-2.8-.38-3.41-1.24l-5.36-7.63-4.16,9.25c-.4.88-2.16,2.02-2.97,2.25s-2.03-2.71-1.65-3.54l5.46-12.02c-2.79-3.61-6.97-7.4-12-10.83h-.01Z"/>
    <path class="st13" d="M419.19,366.75c.24-1.12,1.76-3.09,2.63-3.31,4.62-1.18-.81,12.25,5.59,13.68s5.45-9.33,8.52-12.19c.67-.62,2.64,1.75,2.77,2.72,1.6,11.61,5.13,13.66,5.79,17.66.16.95-4.02,1.19-4.47.38l-4.08-7.34-7.71,4.52c-6.48-1.65-10.76-8.19-9.05-16.12h0Z"/>
    <path class="st19" d="M407.72,364.21l3.56-1.95c.67-.37,2.61,1.55,2.33,2.26-1.9,4.95-7.8,4.49-8.71,10.45,4.58,3.97,15.55,4.15,12.05,7.01-4.33,3.54-13.65-.85-15.44-3.71-3.57-5.71,1.51-11.48,6.2-14.05h.01Z"/>
  </g>
  <g>
    <path class="st15" d="M776.01,170.74c.08-.79,2.05-2.54,1.71-3.23l-1.73-3.49c6.84-13.02-4.07-24.93,4.3-36.6,13.94,2.74,26.27,4.04,40.12,2.92l13.27,2.76,16.85-.62c6.96-.26,14.08-1.27,21.21-.36,20.37,2.6,39.99,3.56,60.54,3.17l30.35-.58,34.96.95,20.86-.12,13.06.05,50.12-.45,29.16-.35,79.07-.37,48.98-1.08,48.27,1.6c5.88.2,12.6,1.86,18.14.95,3.53-.58,4.57-.42,7.69-.1,10.13,1.06,20.68.15,30.9.24l13.14.11,33.88,1.66,30.33,1.45c3.89.19,6.55,0,8.53-4.08,4.99,4.6,10.61,3.41,16.66,3.34l34.04-.42,29-1.08c13.92-.52,27.55-.38,41.53-.04l34.48.84c1.97-2.59,4.67-2.74,6.88-.93l34.21,1.93,26.31,1.67,39.04,2.57c1.25.08,5.06,2.36,4.41,3.39l-2.84,4.44c3.21,4.28,4.8,8.83,5.96,15.28l3.98-26.2-6.02.78c-.88.11-2.75-.76-3.3-1.48s1.32-2.93,2.31-3.13l12.38-2.41c.59,1.97.39,5.29-.24,7.64-5.04,18.8-2.4,35.72-6.13,54.61-11.06-4.64-16.74-2.09-23.21-5.64-.87-.48-2.01,1.89-3.14,3.88l-8.83-3.98c-4.02-1.81-12.81-3.32-17.52-2.57l-27.55,4.35-17.83,1.73c-17.46,1.69-34.72,1.65-52.42.88-16.69-.72-32.04,1.72-48.56,2.52l-26.15,1.26-20.81-.71c-20.99-.71-40.94-1.97-62.02-.68-20.83,1.27-40.96-1.42-61.78-.78l-11.71.36-23.28.27-35.12.31-7.37-.35-60.23-1.26-27.23-.42-33.73-2.59-12.02-.07-21.43-.56-15.75.93-9.91.13-17.32-2.22-30.9-4.68-31.34-2.16-24.43-1.06-17.44-.25-16.55-.3-17.36-.47-43.05,2c-14.54.68-27.86-.25-42.28,2.21l-12.9.11-23.16.39c-5.41.09-11.96-.18-16.64-2.92-3.7-2.17-5.54-9.34-5.39-12.89h0ZM1695.04,188.55l3.59.3,1.6-16.25-12.85-8.27,7.56,11.07c1.4,2.05-3.22,12.88.1,13.16h0ZM1686.13,151.27l4.89-3.24-8.53-.82,3.64,4.06ZM1686.86,186.29l-16.99-14.03c4.77,6.97,13.15,16.11,16.99,14.03ZM1654.18,151.97c2.78-1.96,4.54-2.32,5.58-1.58l10.35,7.46,7.95,3.62-9.46-10.71c-.77-.87-1.98-4.29-1.97-4.3l-22.14-1.69,9.69,7.2h0ZM1652.44,181.01c1.43,1.78,4.64,2.6,6.79,1.85l-12.76-9.26,5.97,7.41ZM1611.82,143.4l17.69,12.34,20.29,14.03c-1.75-4.02-4.87-5.56-7.59-8.13l-18.69-17.61c-3.17-1.26-8.05-1.8-11.7-.64h0ZM1624.71,177.43l5.59,8.6,15.4-2.78-10.61-8.83,1.1,4.78c.21.93-3.1,2.25-3.96,1.84l-7.52-3.62h0ZM1639.65,149.49l3.16-4.77-9.84-.23,6.67,5h0ZM1584.77,184.83l-27.7-18.23-1.02,1.15,19.75,16.26c1.23,1.01,1.53,4.08.99,6.1l26.15-1.33c6.77-.34,13.36.65,19.13-2.6l-5.94-3.91-10.62,4.11-31.51-21.34,9.14,11.33,5.2,4.22c.74.6,1.22,3.2.85,4.1s-3.5.77-4.42.16v-.02ZM1584.08,143.08l32.27,24.11.9-.99-23.18-20.59c-2.81-2.5-5.38-4.39-9.99-2.53h0ZM1607.88,148.57l1.94-6.05-9.74-.1,7.8,6.16h0ZM1574.29,143.39c-.85-.61-4.5-1.11-4.86-.99l40.67,29.61c-4.54-7.51-11.49-11.04-18.4-16.04l-17.41-12.58ZM1557.75,141.91l-8.78.56,25.11,16.67c-3.57-5.22-7.86-7.66-13.06-11.04-1.65-1.84-2.12-2.73-3.27-6.2h0ZM1543.59,176.22l15.63,13.6h14.33l-24.79-17.58-26.19-16.24,21.04,20.21h-.02ZM1542.81,141.23l-15.06.56,39.15,25.31c-3.16-4.45-6.84-7.14-10.71-10.47l-9.55-8.2c-1.65-1.41-2.68-4.05-3.83-7.2h0ZM1539.11,189.94l9.21-.56-10.24-6.82c.82,2.04,1.49,2.93,1.41,3.72l-.37,3.66h-.01ZM1539.01,159.23l-.76-.02h-.79l-.76.02.76.02h.79l.76-.02ZM1472.32,182.83c.92.82,2.05,3.62,1.28,4.27s-3.9,1.43-4.93.97l-13.52-6.1c1.61,1.71,4.26,7.02,2.27,7.59-6.6,1.89-12.25-3.22-17-5.64-.12,3.03-.5,5.25-1.64,7.99l18.66,1.05,17.41.68,39.62-2.34,22.38-1.79c-3.67-3.96-6.6-3.1-10.67-1.9-5.27,0-11.21-4.69-15.64-7.29l-17.68-10.41c-4.43-2.61-8.64-5.5-13.64-7.59l19.75,16.25c.82.67,2.82,3.59,1.98,4.09l-3.85,2.28c-1.37.81-3.88,3.94-5.32,3.27l-5.42-2.52-25.74-13.38,11.71,10.52h0ZM1502.17,155.28l15.62,9.39c5.26,3.16,9.59,7.36,15.97,9.07l-24.77-24.66c-.87-.87-.9-4.39.2-4.57.83-.13,3.47,0,4.29.47l21.92,12.54-11.11-10.8c-.91-.88-1.91-3.83-2.33-5.53l-26.09,1.26c-5.29.25-9.83.26-14.73,1.49l21.02,11.34h0ZM1461.58,156.56c-1.93-3.16-3.61-4.34-6.56-6.48l-.83-3.38c-.16-.67,2.42-1.26,3.21-1.35,16.88,7.49,32.23,16.21,47.23,26.69l13.61,6.35-16.44-11.7-17.06-12.07-13.74-11.12-28.16-.25,18.73,13.31h.01ZM1428.94,144.73c14.75,10.24,28.27,20.72,44.97,28.06-12.13-9.74-24.34-17.73-37.17-26.22-2.19-1.45-4.91-2.39-7.8-1.84h0ZM1402.41,143.81l17.84,11.16c11.94,7.47,22.92,15.47,36.23,21.12-11.72-9.24-23.27-16.83-33.33-27.63l-2.19-4.83-18.55.18ZM1394.02,145.48c-2.47-1.59-3.8-5.08-7.04-2.27,17.12,12.78,33.14,24.51,51.98,34.73-5.39-6.01-11.63-9.93-17.6-14.81l-27.33-17.64h-.01ZM1405.8,191.55l11.87-.13,17.51-.05-26.34-13.75-4.26,5.93,1.21,8.01h.01ZM1364.72,141.84l31.38,22.1c11.48,8.09,23.87,14.23,36.63,20.75l-10.22-9.84-35.54-25.11c-7.44-5.26-6.94-9.76-22.26-7.9h.01ZM1394.73,169.18l-.48,1.76,8.25,8.14,1.21-1.24-8.98-8.67h0ZM1393.95,192.33l8.07-.73-8.41-6.58.34,7.31h0ZM1299.15,178.64l-3.01,5.32-8.72,2.45c-5.83-3.62-11.31-8.19-18.25-10.37l17.41,16.12,21.38-.23,48.97.22,34.49.05-20.45-13.95c1.07,4.66,1.53,8.67-.73,9.77-9.27-1.64-15.79-5.73-23.55-9.87l3.33,5.66c.61,1.03-2.36,4-3.75,3.63-6.82-1.79-15.04-5.98-21.33-9.32l.18,5.22c.08,2.16-8.11-1.78-11.35,5.01l-14.61-9.74v.03h-.01ZM1339.38,141.62l13.05,7.21c11.99.62,19.67,17.23,35.98,21.93-1.46-2.7-3.28-7.78-5.29-9.16l-16.42-11.31-13.87-8.54c-2.77-1.71-9.63-.76-13.45-.13h0ZM1299.94,143.94l21.5,11.95,10,5.92,20.16,10.19-6.95-8.08-34.2-23.15-17.71-.07,7.2,3.24h0ZM1283.48,139.58l-21.31-.7,25.08,13.54,25.5,14.19,26.99,13.31c-5.02-6.1-11.45-8.92-17.76-13.12-6.59-4.4-13.44-7.89-21.47-8.93-.8-.1-2.71-1.31-2.55-2.06l.74-3.32-10.64-6.81c-1.73-1.11-3.55-3.84-4.6-6.09h.02ZM1320.64,141.65l6.85,4.44-1.19-4.24c-.3-1.08-4.13-.69-5.65-.2h-.01ZM1271.96,154.49l17.79,11.63c8.67,5.67,17.64,9.71,27.84,12.52-15.75-12.83-32.57-21.87-50.4-30.49l-9.22-4.46c3.72,4.24,8.51,7.21,13.99,10.8ZM1242.85,141.19c10.66,12.98,22.81,22.21,35.45,31.99,4.42,3.42,9.35,6.34,14.98,6.03-7.37-8.67-15.84-14.02-24.4-19.99l-12.98-9.06-13.05-8.97h0ZM1267.77,188.11l1.31,4.55,9.01-.88-20.92-15.7c-.8-.62-1.08-.89-2.88,1.8l13.47,10.22h.01ZM1258.72,191.23c.93.89,4.38,1.01,5.15.58l-21.12-15.82,15.97,15.24h0ZM1251.82,139.54l4.42,2.91-.86-3.2c-.13-.47-.92-.29-3.56.29ZM1229.64,155.25c4.03,7.91,12.16,11.41,19.93,14.62l-19.93-14.62ZM1210.36,176.41l-10.29-8.96-25.02-18.62c6.9,10.55,16.99,16.68,26.34,24.28l22.6,18.37,22.19-.17-39.95-27.46c5.77,10.27,24.18,16.7,25.42,25.53-2.64,1.31-6.42-.79-8.71-2.67l-12.58-10.3ZM1209.73,159.77c10.59,8.18,20.22,15.84,31.81,22.37l-16.92-13.63c-4.51-3.63-8.91-7.6-14.88-8.75h-.01ZM1195.6,142.8l12.91,8.31-3.02-8.35c6.1-.68,10.53.32,15.61,2.34l12.72,5.08c.95-1.9,1.54-3.2,2.5-3.21l4.74-.03-6.71-8.76-27.89.61-35.16.61c3.67,3.14,8.71,7.67,12.45,8.73l17.29,4.88-8.49-5.87c-.93-.65-1.87-3.47-1.28-4.35s3.44-.59,4.33-.01v.02h0ZM1144.84,150.52l12.04,10.99,18.65,14.09,10.66,8.05c2.6,1.96,3.76,3.25,3.52,7.22l26.35.3-8.05-5.46c0,1.3-1.82,4.73-2.7,4.1l-22.41-15.66-27.1-17.44-10.97-6.18h0ZM1132.75,184.63l-3.55,2.94,5.01.43,33.81,2.48,17.82-.74-31.84-22.91-22.45-14.33c8.52,9.72,18.27,16.14,28.7,23.35l9.72,8.37c.56.48.35,3.59-.38,3.48l-3.24-.49-31.69-20.88-22.64-15.29c3.49,5.68,8.45,8.01,13.7,11.59l23.96,16.33c.82.56,2.48,4.29,1.46,4.35l-4.54.28-48.88-30.34-1.07,1.47,30.34,22.79c2.02,1.51,4.85,5.48,5.76,7.14v-.02h0ZM1152.65,149.03l.72-4.31c.09-.51,2.81-.53,3.36-.28l10.87,4.97-4.75-10.46-28.03.3,17.84,9.78h0ZM1098.45,148.57l.02-5.15c0-.93,3.66-2.08,4.56-1.66l14.34,6.61.14-4.68c.03-1.06,3.63-1.06,4.65-.6l9.47,4.32-2.85-8.21-19.06.6-27.42.38,16.16,8.38h-.01ZM1115.8,181.28c2.49,1.63,3.8,3.29,5.17,6.82l7.48-1.54-15.46-9.09c-2.91-1.71-5.9-3.2-10.12-4.67l12.92,8.47h0ZM1057.07,150.68l24.84,20.51,21,15.49,11.75.46-22.38-13.54-24.21-17.78c-3.08-2.26-7.26-3.69-11.01-5.15h.01ZM1069.26,146.31l33.09,19.44-16.54-13.62-14.4-11.67-21.67.5c9.18,6.55,13.61,1.87,19.52,5.34h0ZM1095.64,152.23l-.76-.02h-.79l-.76.02.76.02h.79l.76-.02ZM1029.61,154.2c-4.67-3.46-10.46-5.57-15.85-7.34,8.18,8.94,16.71,16.44,26.2,23.03l13.19,9.16c.72.5,2.6,1.85,2.49,2.66l-.54,3.89c12.7,1.86,25.13,4.02,39.06,1.14l-15.94-9.54-39.73-23.79c9.55,9.22,20.24,14.82,31.15,22l11.12,7.32c.76.5-1.21,4.4-2.02,3.97l-3.52-1.87c-16.32-8.68-30.34-19.34-45.59-30.63h-.02ZM1061.8,160.39l-.76-.02h-.79l-.76.02.76.02h.79l.76-.02ZM1050.09,140.57l-28.43-.37c12.91,5.06,24.13,11.62,36.65,18.74l-13.28-14.79,5.06-3.58ZM1044.66,182.06c1.56,1.63,4.56,2.52,6.81,1.74l-11.78-6.92,4.97,5.18h0ZM1038.37,175.44l-2.75-1.78c-.3-.2-.32,1.05-.06,1.31l1.15,1.15c.25.25,1.96-.49,1.66-.68ZM970.58,149.51c9.43,9.93,19.49,16.55,30.19,23.48l7.98,7.35,22.16.74-8.94-5.75c-.74-.47-3.61.34-4.86.83l-26.53-16.16c-6.63-4.04-12.33-8.53-20-10.48h0ZM992.16,140.54l19.36,11.22c-3.26-3.86-5.96-7.16-3.32-11.5l-16.04.28ZM992.48,176.03c2.87,2.03,4.72,4.1,7.72,2.96l-36.73-25.41-1.04,1.28,30.04,21.18h.01ZM978.87,177.91l6.37-.09-14.03-9.04,7.66,9.13h0ZM958.53,146.04l1.73-5.33c.21-.65,2.88-.74,3.59-.42l14.6,6.63c-.16-1.39-.58-3.63.29-4.2l3.9-2.57-22.21-.8-11.07,1.01,9.17,5.67h0ZM954.52,176.5c-16.34-6.57-28.5-19.04-44.67-26.09,8.05,9.97,18.23,16.18,28.46,23.35l2.22,3.69,13.02.28,18.97.43-18.63-12.08-12.79-9.61-1.75.33,17.61,15.33c.67.58,2.01,3.29,1.29,3.47l-3.72.92v-.02h-.01ZM874.54,161.67l-15.82-11.15,20.78,21.59c.65.67-1.83,3.72-2.57,3.25l-3.44-2.13-21.87-13.6,10.33,9.94c2.57,2.48,3.69,5.39,3.12,9.18,6.54,1.19,14.4.08,21.71-.24l31.54-1.38,15.51-.26-10.66-7.15,1.32,4.71c.19.66-1.44,1.98-2.08,1.73l-3.03-1.18-16.5-10.11-10.33-6.24,10.37,10.26c.53.52,1.18,2.41,1.29,3.02s-1.88,1.86-2.43,1.57l-7.62-4.07c-.35,1.38-1.08,4.32-2.11,4.16-.82-.13-2.83-.9-3.56-1.45l-13.95-10.45ZM932.4,157.65l-8.95-14.02c3.59-1.51,4.52-1.09,7.66,0l.72-3.72-26.94.36,10.52,7.16,17,10.22h0ZM897.85,145.18l2.54-5.95-8.37.35,5.83,5.6ZM867.16,143.99l.85-4.82c.11-.63,3.27-.56,3.9-.17l21.95,13.52-11.17-14.25c-7.33-1.45-14.35-1.59-22.29-1.41l6.76,7.14h0ZM850.18,179.59l11.13-1.18-30.38-23.65c5.6,10.84,17.66,15.05,19.24,24.82h.01ZM820.43,148.06c-.72-1.2-.3-4.66.79-5.14s4.12-.27,5.05.58l11.71,10.78,1.39-1.15-7.12-7.86c-1.36-1.5-1.21-4.87,1.05-5.9l22.59,16.02-12.96-17.9-9.38,1.01c-8.57-3.87-20.42-4.34-30.24-1.85l23.72,22.47-6.6-11.05h0ZM802.75,148.81c4.21,12.85,17.41,21.5,22.74,32.54h8.54l12.32-1.84-13.58-9.01c-2.21-1.46-3.54-4.69-7.21-4.62l8.77,9.95c.78.89.78,3.6.19,4.46-.48.69-3.04-.22-3.81-1.06l-27.97-30.43h.01ZM799.15,172.72l3.68,9.33,14.73-.57-8.57-9.8.28,5.65c.04.86-3.1,1.02-3.76.49l-6.37-5.11h.01ZM799.09,135.77c1.28-.12,1.73-.17.5-.05-3.03.29-3.23.3-.5.05ZM793.11,145.65c-1.28-5.7-2.29-7.17-.16-11.11l-12.28-1.83,12.44,12.94h0Z"/>
    <path class="st23" d="M843.53,209.74l33.33-1.18,20.49-1.02c14.37-.72,28.61.21,42.88.36l10.25.11c3.03.03,8.64-.13,11.73-.61,1.15-.18,3.45-2.92,4.46-2.39l4.69,2.44,31.61,1.74,31.87,2.46,58.23,1.08,42.14,3.77,32.82.38,44.42,1.78,24.56,1.43,49.87,1.03,40.94,1,20.77.15,11.95.52,49.03,1.45,19.83.79,23.25,3.3,21.16.4c-3.11-3.58-5.03-5.49-2.57-9.53l9.3,7.63,10.8,1.09,16.09.99c-.79,2.53-1.71,4.2-3.19,6.07-1.61,2.04-1.67,8.4.49,10.04l8.14,6.19c.66.5,1.46,2.47,1.27,3.23s-2.25,2.08-2.91,1.7l-6.98-4.12c-.3,9.26-2.28,18.21-6.31,26.41l-35.98.42c-8.71.1-17.95-1.89-26.42-1.34-3.16.2-4.28.25-7.41-.9-9.1-3.35-19.45-1.56-29.1-2.76-13.16-1.64-25.21-1.11-37.99-1.92l-11.64-.74-25.38-2.11-39.34-1.73c-2.7,1.7-5.31,1.81-7.7-.73l-30.9-2.11-56.89-5.97-34.19.02c-20.29.01-39.92,2.53-60.36.32-18.45-1.99-36.44-.88-54.97-1.52l-43.19-1.5-46.22-1.71-48.55-2.34-67.35-1.47-46.73.4c-1.33.01-4.86,1.2-5.38.02s.82-4.03,1.15-5.43c1.76-7.48,1.98-15.51,1.55-23.27l-.89-15.97,18.6,2.48,31.61,1.8-.78-4.46c-.15-.84,2.47-2.4,3.12-1.87l6.93,5.71h-.01ZM1498.9,256.79l-.04-9.36-14.3-10.94c3.28,8.11,6.8,15.56,14.34,20.3h0ZM1479.23,246.57l18.01,20.49c1.1-5.81-4.09-7.02-6.39-10.01-3.34-4.36-6.05-9.03-11.62-10.47h0ZM1483.98,267.98c3.25,3.95,5.63,7.81,11.78,4.84l-19.75-18.53-13.05-10.95c5.34,10.2,13.86,15.94,21.02,24.63h0ZM1472.46,234.11l7.47,4.79c-1.21-4.7-3.52-6.01-7.47-4.79ZM1447.9,240.13l22.71,30.13c1.04,1.38,2.45,4.15,3.76,3.89l6.58-1.33-21.25-23.38c-3.23-3.56-7.31-6.69-11.81-9.31h.01ZM1467.13,240.23l.41-7.08-8.21.6,7.8,6.49h0ZM1429.89,255.44l8.4,12.03-.46,4.96,29.31,1.88c-11.72-12.33-22.6-23.27-36.53-32.12l20.01,21.24.39,3.97c.09.88-3.74,1.52-4.48.95l-16.64-12.9h0ZM1422.21,229.96l12.85,9.29,12.76,9.24-13.77-17.98c-3.54-.65-8.32-.78-11.83-.55h-.01ZM1399.13,228.96c1,1.83,2.89,1.84,4.85.89l15.78,10.65-10.48-11.71-10.15.17h0ZM1408.66,264.51c.68.68.16,4.61-.09,4.97l10.69-.18-7.39-5.68-15.5-13.17-.74,1.12,13.03,12.94ZM1368.36,241.52l-1.98-5.52c-1.81-5.04,6.06-.16,11.43-3.75,9.32,5.72,18.82,12.41,27.28,19.37,4.32,3.56,7.02,8.24,12.9,9.56l-31.58-31.84-25.86-1.84-14.5-.58,22.31,14.6h0ZM1398.69,269.01l7.4.21c-8.73-9.05-16.49-17.14-26.9-24.88,2.55,8.04,14.1,14.05,19.5,24.67ZM1357.33,243.95l13.66,12.71,9.27,9.68c2.17.96,6.39,1.55,10.07,1.46-13.1-13.02-26.45-24.39-42.45-33.73,1.3,5.11,5.92,6.6,9.45,9.88h0ZM1363.26,266.95h9.26l-6.85-5.56-2.4,5.56h-.01ZM1340.53,248.31c5.9,6.78,12.37,12.04,20.06,16.69-5.72-6.94-12.19-12.29-20.06-16.69ZM1332.54,255.96c3.36,2.94,5.15,5.52,4.79,9.51l13.51.72-32.48-23.98c3.38,6,8.65,9.41,14.18,13.75h0ZM1335.68,227.63l3.32,2.06c.09.06.77-.86,1.71-1.99l-5.03-.07h0ZM1334.61,236.67l-1.94-6.14c-.25-.81,1.11-2.02,2.45-3.9l-19.4.81,18.89,9.22h0ZM1325.6,261.89c2.31,2.29,4.9,3.67,8.4,2.54l-23.3-17.3,14.9,14.76h0ZM1312.95,263.61l6.07.03-4.51-4.72-1.56,4.69h0ZM1314.35,226.4c-.92.12-3.64,1.18-3.03,1.34l2.42.64c.41.11,1.03-2.02.62-1.97h-.01ZM1287.08,246.16l13.76,13.23c.99,1.2,2.11,4.28,3.55,4.23l7.18-.22-9.46-7.77-15.05-9.47h.02,0ZM1278.04,225.56l11.62,7.9c5.06-3.1,9.02-.73,13.52,2.74l-3.96-9.86-21.18-.78ZM1255.66,232.38c1.86,2.22,3.99,4.47,6.22,6.12l29.75,22.03c-2.34-4.02-6.53-6.17-9.57-9.42-7.71-8.24-15.9-14.53-26.39-18.72h-.01ZM1274.65,258.51c2.44,2.17,5.94,3.55,8.99,3.51l-31.2-23.28,22.21,19.77ZM1254.41,225.63l4.18,2.57c.82.51,2.92-1.26,4.01-1.92l9.81,4.54-2.28-5.53-15.72.34h0ZM1248.1,248.15l12.11,9.75c2.46,1.98,5.89,3.13,9.47,3.2l-10.66-9.22c-6.58-5.69-14.13-10.29-22.3-14.16l11.37,10.44h.01ZM1235.86,252.44l7.42,7.32,10.23-.12c-10.58-8.36-21.5-15.15-34.13-20.74l16.48,13.54h0ZM1238.79,226.72l9.47,3.91,1.16-5.02-25.9-1.58,9.97,6.03,1.88-3.43c.34-.62,2.68-.2,3.41.1h.01ZM1218.89,250.39l-.34,1.57,8.13,6.14,1.98-.87-9.76-6.85h-.01ZM1200.94,226.92c12.58-.86,17.77,7.3,26.76,9.92l-13.52-12.43c-6.05-1.74-13.93-1.47-20.65-1.51,1.61,1.3,5.44,3.88,7.4,4.02h.01ZM1192.52,228.82c3.93,4.65,7.36,8.01,12.3,11.74-2.6-5.28-6.23-10.15-12.3-11.74ZM1189.05,251.53l-8.06-4.08,6.7,6.04,15.87.93-13.88-10.21-19.73-13.54-.85,1.38,22.31,15.8c.54.38.81,2.36.37,2.71s-2.23,1.23-2.74.97h.01ZM1173.82,253.71l4.68-.92c.46-.09-1.15-1.66-1.53-1.94l-3.41-.82c-.81-.19-.6,3.85.26,3.68h0ZM1146.06,223.26l9.4,5.95c.64.4,3.07.73,3.27.08l.98-3.2c.33-1.06,2.18-3.44,3.25-3.15l4.63,1.27,3.25,1.01c.62.19.74-2.63.16-2.93s-2.17-.72-3.05-.72l-35.32-.05,8.28,5.95.75-4.61c.12-.76,3.68-.07,4.41.39h-.01ZM1128.99,231.01l-.1,1.03,26.24,18.56c.95.67,2.06,3.18,2.96,2.93l2.84-.79-19.49-14.03-12.46-7.7h.01ZM1125.4,246.15c-.52,1.95-1.55,4.18-2.23,3.84l-3.15-1.59-4.44-2.24c3.53,3.74,5.02,5.38,6.78,9.49l27.28-1.56-6.77-5.51c-1.15,1-2.65,2.48-3.48,2.23s-2.38-1.15-3.37-1.81l-23.08-15.47c-3.84-2.57-8.47-4.61-13.69-6.75l26.16,19.38h-.01ZM1122.72,220.51c2.8,3.92,5.63,4.5,8.07,1.26l-8.07-1.26ZM1079.34,252.47l-19.72-11.45c4.11,4.24,7.07,7.36,8.92,11.6l22.29,1.2,26.66,1.09-13.34-9.85c-1,1.37-3,3.69-4.11,3.14l-4.28-2.14-29.12-14.29,15.44,12.94c-.4,2.61-1.49,6.03-2.73,7.77h-.01ZM1103.16,222.72c5.86-6.29,11.54,4.17,11.17-3.21l-18.03-1.27,6.86,4.48h0ZM1076.9,217.65l8.92,3.88c-1.43-3.73-5.14-5.62-8.92-3.88ZM1050.79,217.35l12.4,6.59,10.32,4.91-12.15-11.72-10.57.22ZM1037.61,250.29c-.66-.28-2.24-.72-2.36-.06-.08.44-.4,2.26-.37,2.3.04.05,2.33.43,2.85.42l25.28-.2-13.2-7.38-5.77,2.76c-.99.47-1.43,4.29-2.46,3.85l-3.97-1.7h0ZM1029.62,218.75c.62.33,2.21.19,2.9.04.46-.1-.35-2.36-.8-2.39l-7.48-.48,5.39,2.83h-.01ZM966.94,245.09l-9.78-4.79c.99,2.05,1.24,5.56-.6,6.85l-18.98-10.83c-3.25-1.85-6.46-3.79-10.12-5.27l18.81,14.1c1.85,1.39,2.95,4.17,5.94,4.3l15.26.65,27.4,1,36.87.5-12.88-7.89-.38,4.65-7.57,1.05-55.87-33.89c7.26,6.85,15.1,13.2,24.55,18.28,12.26,6.59,15.98,13.65,12.36,14.2-.65.1-2.43.05-3.36-.34l-23.42-9.72,3.84,3.66c.72.69-1.04,3.98-2.05,3.49h-.02ZM1006.78,214.76l22.85,14.05.77-.89-14.31-9.59c-.57-1.36-1.52-4.11-2.77-4.03l-6.54.46h0ZM928.76,213.26l18.28,8.58,23.69,12.75-26.94-21.1-20.84-1.37,1.55,2.36c.33.5,3.68-1.5,4.26-1.23h0ZM903.19,228.82l21.61,19.25,12.47.21-14.83-8.54-19.25-10.92h0ZM904.02,219.31l10.43,6.34-.27-5.42c-.06-1.17,4.09-1.21,5.16-1.15l-6.07-7.21-26.66,1.83c8.14,5.72,12.61,2.69,17.41,5.61h0ZM884.44,239.77c.71.55,1.02,3.57.16,3.71-.65.11-2.85.03-3.64-.49l-22.03-14.59,16.16,18.58,38.55.08-25.54-16.75,6.6,6.99,1.8,3.4c.32.61-2.72,2.29-3.39,1.89l-21.26-12.65,12.6,9.84h0ZM873.89,213.83l18.9,14.24,1.04-1.24-14.06-11.05c-1.98-1.55-2.9-4.14-5.88-1.95ZM857.01,214.34l18.27,11.42-7.03-11.93-11.24.51h0ZM858.06,243.55c2.38,2.65,5.45,3.65,9.29,1.82l-16.99-10.4,7.7,8.59h0ZM831.99,216.67l21.21,13.99-12.5-14.68c-1.59-1.86-6.87-1.14-8.71.69ZM838.51,241.95l-.09,3.09,14.77,1.15-24.99-16.67,10.31,12.43h0ZM812.5,244.55l-6.72-6.34c-.8,1.21-1.72,2.86-2.51,2.83l-2.95-.11c.97,3.11,4.33,5.41,8.12,5.23l26.55-1.24-16-10.33,3.38,4.96c.67.98.05,4.67-1,4.25l-4.19-1.68c-.48,1.18-3.67,3.39-4.7,2.42h.02ZM817.65,215.3l10.57,7.37-8.04-9.23-2.53,1.86h0ZM801.68,214.02l11.43,10.17c2.12,1.89,4.55,3.55,6.98,4.74l-11.13-15.27-15.19-.69,3.9,3.63c.55.51,2.27-1.2,4.01-2.59h0ZM791.15,214.53c.67,0,1.22-.54,1.22-1.22s-.54-1.22-1.22-1.22-1.22.54-1.22,1.22.54,1.22,1.22,1.22ZM790.42,219.1c.26-2.73.24-2.52-.05.5-.12,1.23-.08.78.05-.5Z"/>
    <path class="st23" d="M777.76,327.63c3.93,3.67-1.03,9.02,2.96,14.32l2.6-3.83c.58-.85,2.7-.36,4.4-.16l-1.03-4.99c2.45-1.85,3.23-2.4,5.69-5.05-2.67,0-7.33.97-10.26,1.64-.97-.04-1.44-3.11-.63-3.73s3.32-2.37,4.41-2.5l18.09-2.15,29.82-.7c12.01-.28,23.35,1.43,35.34,2.92l23.74,2.96,40.52,2.75,17.1,2.6.91-5.19c.17-.98,3.09-1.03,3.79-.63l2.16,24.62c.36,4.14,1.27,10.5-1.4,13.62-11.17,4.59-22.55-3.38-34.28,1.88-3.44-1.44-7.67-2.05-11.79-1.6l-8.76-.98c-18-2.01-34.81.67-52.37,2.99l-19.1-.84-40.96-.83c-3.45-.07-6.01,1.01-8.57,3.89l-7.34-3.06,3.54-4.24c.77-.93-.86-3.65-.97-5.44l-1.64-26.2c-.06-1.03,3.33-2.7,4.02-2.05v-.02h.01ZM942.97,353.42c.96,3.48,3.07,6.92,8.01,6.82l-8.01-6.82ZM933.76,341.06c5.56-2.12,8.12-.52,12.89,1.67l-4.75-7.24-19.14-2.87,11.01,8.45h-.01ZM896.98,340.7l20.44,16.03c2.75,2.16,5.07,4.03,9.5,1.93l-16.62-10.16c-4.42-2.7-8.02-6-13.31-7.8h-.01ZM917.64,337.35l.68-4.95-10.52-.81,9.84,5.76ZM892.79,331.62l14.69,9.13c-2.5-3.66-3.78-5.37-2.4-9.17l-12.29.04ZM891.97,356.09c2.24,2.23,5.73,2.97,8.06,1.45l-20.52-13.83,12.46,12.38h0ZM876.3,355.1c3.1,2.13,5.16,4.66,8.47,2.35l-31.31-19.64.02,1.64,22.82,15.65ZM862.01,328.48l9.74,4.4c5.07-3.83,11.5,2.51,11.18.4l-.4-2.65-28.55-4.93c-4.24-.73-8.81-.7-14.17-.44l24.93,13.56c-1.56-4.23-6.59-5.62-2.74-10.35h.01ZM852.13,351.84l5.65,8.8,14.68-2.23-9.86-6.32,2.37,4.38c.36.67-1.62,2.81-2.25,2.39l-2.82-1.87-7.78-5.16h.01ZM855.43,346.29l-5.94-3.51c-5.84-3.46-9.85-9.77-17.14-10.7l21.83,15.56c1.45,1.04,3.78,2.05,6.83,3.3l-5.59-4.66h.01ZM836.42,361.38l16.11-.02-14.36-8.18,1.59,5.29c.29.98-2.51,2.24-3.34,2.91h0ZM823.21,353.6c2.03,1.61,2.85,3.76,3.78,7.07l9.6-.43-35.28-25.82-.93,1.09,22.83,18.09h0ZM790,345.89c4.72,6.66,9.93,10.22,15.19,14.83l18.21.14-14.51-9.86,2.5,4.35c.47.82-1.91,3.16-2.86,2.46-5.34-3.93-12.97-9.17-18.54-11.93h0ZM796.68,327.06l7.82,4.16c3.64-2.02,5.16-1.92,8.75-1.38l-3.52-4.71-13.06,1.93h.01ZM782.19,360.16l3.73.33c.4.04.16-1.04,0-1.47-1.44-1.15-2.29-1.93-3-1.61-.54.24-1.37,2.69-.73,2.75Z"/>
    <path class="st23" d="M782.07,304.5c.57-.76.74-2.81.23-3.55l-2.03-2.92s6.68-4.17,2.84-19.25l2.77-3.18.57-4.56c.15-1.24,3.33-.61,4.84-.46l27.85,2.62,36.42,1.48,29.75-.13,15.64,1.59,24.33,2.08,18.71,1.85,24.57,1.08c2.2.1,6.72,2.75,8.4,4.4.88.87-.34,4.11-1.41,4.72-1.2.69-2.98.87-5.91.77l1.51,21.17c.19,2.62-.14,5.27-.87,8.28l-47.27-5.04c-8.55-.91-16.85-2.12-25.26-.76-3.93-2.38-8.64-3.64-12.45.98-5.2-5.78-11.17-3.67-17.4-3.83l-19.6-.5-31.52-2.54-23.5.34c-3.29.05-8.59,1.02-11.47,2.45-.82.41-3.34-2.23-2.76-3.01l3.03-4.06v-.02h-.01ZM965.85,311.59l-.78-11.69-4.55,1.63c1.59-.57,1.28,7.33,5.33,10.06ZM963.08,292.85l1.89,4.95-1.45-12h-15.25c8.08,7.5,14.27,5.65,14.81,7.05ZM952.04,314.49l6.37.13-6.11-4.66-.25,4.53h-.01ZM916.55,289.99l13.16,7.64-6.9-6.86c1.26-1.26,4.01-2.22,4.92-1.5l3.14,2.51,15.73,9.45-13.66-12.99c.99-1.51,2.33-2.88,3.25-2.71l4.44.78c.87-.26-2.5-2.52-3.67-2.59l-32.98-1.93,12.57,8.19h0ZM911.49,299.67l6.52,6.43c.19,1.15.23,3.63,1.2,3.79l4.82.8,21.33,2.73-14.83-9.05-2.54,3.69c-.5.73-2.99-.95-3.85-1.42l-12.66-6.96h0ZM933.46,299.21l-.76-.02h-.79l-.76.02.76.02h.79l.76-.02ZM898.34,308.27l4.61.46c-6.69-5.04-12.72-9.71-21-12.55l16.39,12.09ZM898.93,285.92l2.99-4.78-15.11-.79,12.12,5.57ZM878.95,282.71l5.79-4.06-24.01.95c4.35,5.38,8.05-2.9,18.22,3.11h0ZM864.48,304.93c1.16.9,4.17,1.4,5.93,1.27l-15.46-10.19-.68.98,10.21,7.93h0ZM832.77,280.73c3.6.12,7.2,2.21,10.23,2.97,4.55,1.15,10.17,1.37,14.18,3.45l11,5.71-11.07-7.92-2.91-5.37-28.04-1.64c1.48,2.05,2.98,2.66,6.62,2.79h-.01ZM823.87,283.55l17.2,16.46c4.09,4.84,9.39,7.94,15.74,6.03l-20.39-15.25-12.55-7.24ZM852.96,294.54l-.76-.02h-.79l-.76.02.76.02h.79l.76-.02ZM805.51,300.14c-.66,3.24,1.69,4.27,4.12,4.2l15.41-.47-18.5-13.97,5.57,10.82c-1.61,1.47-5.07.52-6.61-.58h.01ZM803.65,277.83l14.5,8.72-6.38-8.79-8.12.07ZM788.23,277.24l-.02-.76-.02.76v.79l.02.76.02-.76v-.79Z"/>
    <path class="st23" d="M1467.65,642.74c-1.11-2.46-1.83-4.46-1.41-5.67s3.68-2.42,5.11-2.44l17.63-.31c8.06-.14,16.19.79,24.39-.66,9.41-1.66,18.45-1.21,27.93-.85l16.41.62,39.92,1.67,15.41-.1c12.46-.08,24.22-.04,36.91,1.67,3.56.48,7.02-.04,11.34-.56l2.18,12.64,2.42,3.16c.64.83-.98,3.22-1.7,4.28l2.02,24.77c-8.59.77-14.83.1-22.74-.29l-45.96-2.29-39.3-2.19-8.81-.7-41.95-2.44-32.62-2.91c-1.62-.14-3.96-.26-4.99-.78s.42-3.73,1.1-4.99l-2.48-13.33c-.36-1.92-.02-6.52-.82-8.29h0ZM1652.72,661.21l-7.69-7.13-1.02.91,17.16,18.43-2.46-17.46c-2.13-.87-3.73-.38-1.54,1.37l-.05,4.76c0,.84-3.63-.17-4.39-.87h-.01ZM1636.33,662.02l11.73,11.95c2.17,2.21,5.96,3.07,8.65,2.33l-8.06-9.15c-7.23-8.2-16.34-14.68-25.43-19.69l13.12,14.55h0ZM1643.55,647.38c-.3-6.35-5-8.06-10.06-7.48l10.06,7.48ZM1625.03,673.62c2.04.94,4.46,1.51,6.41,1.33-9.54-8.95-17.79-16.29-28.7-23.21,6.54,8.95,14.39,14.61,22.29,21.88h0ZM1628.3,644.56l.64-5.12-9.49.36,8.86,4.76h-.01ZM1612.69,673.99l3.52.96c.68.19,1.68-1.06,1.75-1.49l-3.71-2.65c-.47-.33-1.15,2.01-1.55,3.18h-.01ZM1610.66,651.25l-.11-5.68c1.1.01,2.28-4.6,1.22-5.1-3.96-1.19-10.31-.86-14.7.42l13.59,10.35h0ZM1563.67,668.52c-2.03,2.39-4.7,2.23-5.92,1.2l-14.73-12.41c-4.27-3.6-10.16-6.24-15.9-7.85l19.47,15.89c6.39,5.21,10.99,5.81,19.58,6.12l15.92.56c9.77.35,17.92,2.62,27.62,1.85l-15.62-11.72,2.6,4.23c.5.82-.44,2.53-1.72,3.9l-11.3-7.36-.14,5.18c-.06,2.18-7.23-2.3-7.51-1.89l-2.71,4.02-38.72-29.44c4.99,11.7,20.38,15.47,29.06,27.72h.02ZM1576.56,642.25l9.2-1.98-13.5-1.61c1.88,1.56,4.57,3.81,4.3,3.58h0ZM1538.98,638.19l.65,1.26,8.29.3c1.44.99,3.53.99,1.61-1.52l-10.56-.05h.01ZM1543.85,670.2c-.22-.46-.82-1.73-1.24-1.98l-5.84-3.49c2.63,6.3,7.75,6.83,7.08,5.47ZM1522.76,669.35l9.86-.11-9.5-7.27,1.4,4.47c.23.72-1.24,2.26-1.76,2.91h0ZM1517.67,640.54l11.27,3.75-4.15-7.3-14.58,2.11c2.21,1.99,4.25,1.8,7.47,1.44h-.01ZM1487.69,649.68l23.43,19.03,9.63-.25-12.48-7.87-26.42-16.97c1.49,2.28,3.81,4.4,5.84,6.05h0ZM1489.62,662.41c2.66,3.94,6.03,6.18,11.2,4.39l-17.74-14.09,6.55,9.7h-.01ZM1486.41,638.54l-.86,1.98,7.75,4.46c-2.62-2.98-4.53-4.8-6.88-6.44h-.01ZM1479.28,660.21l2.79,5.26c.49.92,3.88.5,4.63.11l-7.42-5.37Z"/>
    <path class="st23" d="M1283.17,579.53c-1.87-7.63-2.06-16.06-1.6-24.25l.83-14.85c10.41-4.08,23.12,2.73,39.22-.79,3.04-.66,5.57-1.74,8.49-.71,4.5,1.59,8.99,2.73,13.63,2.78l35.83.41,30,.82,39.94,1.68,27.5,1.75-.54,13.52-2.66,23.7-24.56-1.63-15.23-1.05-23.88-1.81-25.26-.29-30.3-.83-47.71-1.53c-8.27-.26-15.17.44-23.71,3.06v.02h.01ZM1463.27,551.01l5.74,2.68c.82.38,2.73-1.23,3.55-2.45l-9.29-.23ZM1470.87,563.9c1.06-5.89-3.44-5.86-6.69-6.71,1.71,2.25,4.35,4.85,6.69,6.71ZM1439.93,559.36l15.23,18.34,14.44,1.35,1.54-8.45-3.73,2.1c-.72.41-2.54-1.69-3.23-2.17l-5.21-3.61,3.14,5.61c.55.98-1.12,3.36-2.52,4.09-6.72-6.17-12.66-12.86-19.67-17.25h.01ZM1456.68,553.03l.59-3.03-12.26-1.2c1.53,3.69,11.79,3.61,11.67,4.23h0ZM1413.44,556.17c3.11,5.88,8.43,9.03,14.01,12.62l2.7,3.59c.59.79-1.3,2.78-2.04,3.71l20.1.36-5.32-5.04-3.46,3.79-25.99-19.03ZM1429.68,555.21c.35-3.33.59-4.59,1.4-6.64l-10.21-.1,8.81,6.74h0ZM1399.53,558.26l17.71,13.82c2.68,2.09,4.98,3.98,9.1,2.61-10.1-8.28-20.05-15-32.03-20.82l5.22,4.39h0ZM1394.22,547.55l10.46,6.69c.46-1.78,1.02-4.7,2.14-4.63l5.87.36c-.04-.57-2.89-2.46-4.31-2.46l-14.16.04h0ZM1371.7,555.37l16.36,14.6c1.1.98,2.38,3.68,3.7,3.58l5.45-.41-11.56-10.44c-3.72-3.36-8.37-5.94-13.95-7.33h0ZM1395.82,561.24l-10.98-7.83-1.28,1.79,10.98,7.83,1.28-1.79ZM1331.64,545.95l13.72,13.86,14.35,13.67,11.4.35c-8.7-4.24-17.11-8.45-24.74-14.98l-5.8-6.84c-2.43-2.87-4.27-5.47-8.94-6.05h.01ZM1348.64,547.42l18.13,11.68.79-.9-9.13-7.94c-2.94-2.55-5.14-5.79-9.78-2.84h-.01ZM1314.48,553.85l-.14,1.32,18.8,14.7c2.41,1.89,4.49,2.86,7.73,2.27l-15.08-10.23-11.31-8.06h0ZM1318.31,572.04l7.44-.79-11.7-8.54c2.93,4.52,3.66,5.55,4.26,9.33h0ZM1316.14,549.75c.67-5.47-4.03-4.92-5.88-4.31l5.88,4.31ZM1308.18,570.79c.94,1.37,5.35,1.04,5.97.2l-13.34-10.95,7.37,10.74h0ZM1301.44,572.01c.37-3.29-2.82-6.43-6.41-8.42,1.78,2.95,3.05,4.76,6.41,8.42ZM1290.37,546.54h2.97c.39-.01.48-.63,1.01-2.79l-8.98.45c1.26,2.31,3.07,2.35,4.99,2.34h.01Z"/>
    <path class="st15" d="M964.36,385.4l9.48,4.05c.29-.81.49-3.07,1.29-3.43l5.09-2.21-11.51.47c-1.61.07-1.84-4.88-.17-4.95l34.17-1.44,21.75-1.13,21.17-.51,46.39.93,23.5.56,14.98.2,27.19,3.43c2.04.26,5.73,1.77,7.45,2.89l.93,12.32c.76,10.09.45,24.68-3.33,26.88-.92.54-3.21.66-4.51.42-12.4-2.32-24.23-2.47-36.91-2.62l-40.71-.48-15.22-.3-38.97,2.32-33.41-.36-9.31-.04-17.46-.22c.16-3.97.94-10.39-.6-13.07-2.37-4.12-2.82-6.14-2.45-10.32l1.18-13.38h-.01ZM1160.23,400.68c.4,1.02,1.07,3.62.31,4.07l-3.04,1.82,4.5,4.13-1.15-18.96c-.08-1.32-.52-4.95-1.77-5.01l-4.47-.21,5.61,14.15h.01ZM1140.26,402.41l13.47,12.02c.89.79,1.17,4.04,2.29,4.3,1.31.31,4.26.07,4.4-1.08l.63-5.15c-2.2-.15-4.08-.53-5.98-1.62l-14.82-8.47h0ZM1132.99,416.58l9.79-.39-7.66-4.64-2.13,5.03ZM1102.9,390.43c2.83-5.73,11.6-5.16,17.93.07.17-1.05,3.08-4.36,4.25-3.65l11.42,6.95-9.42-11.21-12.71-.03-25.24-.57,13.76,8.44h0ZM1096.41,397.34l-.41,1.79,18.71,11.79.93-1.09-19.23-12.49h0ZM1083.11,400.95l22.12,15.67,9.43-.2-13.35-7.94-35.99-18.82,17.79,11.3h0ZM1027.46,389.7c.58-2.86,1.71-6.13,2.88-6.46l12.52,4.62c.5-.82,1.64-3.42,2.7-3.42h4.89c3.7-1.38,8.03-3.02,11.85-1.25l18.09,8.37c-3.08-4.91.18-9.8-4.8-9.9l-25.44-.48c-11.92-.23-22.89-1.02-34.33,1.78l11.63,6.74h.01ZM1071.89,402.33l7.59,3.53c-7.36-5.92-14.49-10.74-23.8-13.85,4.55,4.62,9.9,7.39,16.21,10.33h0ZM1017.14,398.88l20.45,10.92c1.2.64,2.23,3.6,2.01,4.68-.18.86-3.03,2.05-3.86,1.68l-14.58-6.54,10.18,8.65,37.85-3.25-6.9-4.22c-2.02,1.32-4.16,2.69-5.28,2.07l-5.18-2.91c0,.53-3.05,4.07-4.21,3.39l-39.38-23.08c.72,4.52,4.82,6.44,8.9,8.62h0ZM1013.03,417.82l9.37-.48-18.81-12.75-11.65-6.92c6.15,7.25,15.76,8.9,21.09,20.15h0ZM998.83,394.44c5.05,4.56,9.57,7.72,15.24,10.57-3.93-5.31-9.15-8.42-15.24-10.57ZM998.94,417.52l7.41-.3-14.01-9.05c3.14,3.8,4.27,5.02,6.61,9.35h0ZM998.4,388.4l1.46-5.94-9.12,1.25,7.66,4.69ZM985.82,413.7c2.78,2.69,5.29,4.23,8.49,3.41l-18.98-15.97c.81,6.22,6.18,8.39,10.49,12.56ZM971.63,413.68c-.3,1.01-.8,3.68.1,3.66l4.93-.12-5.03-3.55h0Z"/>
    <path class="st15" d="M979.49,484.12c-5.15.02-9.43.57-14.02,1.93l.6-17.06.19-28.73,11.3-1.12c3.49-1.18,5.37-.95,8.89-.49l24.28,3.22c3.21.43,6.2-.73,8.3-2.5,4.44-3.74,8.98,2.19,12.8,2.31l31.12.97c7.14.22,13.26.31,20.45.25l37.79-.31,29.27,1.89c7.55.49,14.63.54,21.69-.26l9.77,1.31,42.21.82c21.06.41,41.58,1.22,61.47,8.63l-3.49,3.9c-.73.82-.58,3.76-.02,4.77,1.89,3.33.62,6.76.63,10.06.02,7.42,2.81,14.03.33,21.73-10.8.81-20.73-.26-31.35-1.31l-30.14-2.98-45.51-.39,4.74,6.99c-1.56,2.09-5.43,2.15-7.15.86l-9.74-7.31c-9.63-.66-19.88,1.09-29.74-.24-16.56-2.24-32.11-4.1-48.64-4.18l-11.37-.05-23.65-1.06c-2.94-.13-4.49.11-7.2-.47-6.35-1.36-13.2-1.43-19.96-1.4l-43.84.21h0ZM1263.56,489.07l-16.44-14.73-.83.94,14.61,15.16,18.73.16-2.76-18.16-8.97-2.44,3.94,6.46-4.45,2.54,5.04,7.29-8.87,2.78h0ZM1248.36,452.56l5.75,4.82c8.37-3.49,11.67,9.77,20.38,8.43l-7.33-5.4c-1.14-.84-1.75-3.61-1.91-5.59l-16.89-2.26h0ZM1246.15,489l3.86-1.01-9.57-8.2,5.7,9.21h.01ZM1229.3,451.4l-34.9-.75,40.44,31.56c-4.51-9.52-22.7-20.45-17.43-25.68,1.31-1.3,5.54,1.18,6.64,2.27l6.91-.52-1.66-6.89h0ZM1217.84,478.16c2.21,2.11,3.61,4.89,4.64,7.9l10.07,1.2-22.09-18.88c-2.78-2.38-5.44-4.44-9.54-6.36l16.91,16.13h.01ZM1215.13,486.24c1.09-.49,2.26-1.09,1.99-1.39l-1.57-1.71c-4.29-4.66-9.27-8.78-14.82-11.98l14.41,15.08h-.01ZM1176.08,464.01l19.15,18.56c3.09,2.99,6.32,4.21,10.71,3.14l-5.2-4.06c-8.07-6.3-15.29-12.89-24.67-17.64h.01ZM1169.7,475.77c3.2,5.66,8.02,10.4,13.56,10.42l-13.56-10.42ZM1165.74,450.64l14.05,9.43-7.67-8.36c-.75-.81-2.44-2.37-3.42-2.05-.89.29-3.3,1.09-2.96.98ZM1158.2,475.78l12.27,10.56,1.62-.91-14.75-12.91c-2.61-2.29-7.08-4.39-10.39-5.9l11.25,9.17h0ZM1131.17,465.23l-10.54-9.4c-.77-.68-1.35-2.59-1.2-3.44.12-.64,2.54-1.23,3.26-1.04l13.06,3.47c.74-1.45,3.31-4.13,4.32-3.55l12.31,7.08-5.24-5.82c-1.35-2.74-2.75-3.23-5.91-3.54-15.97-1.53-30.53-2.45-46.8-1.67l2.85,2.74c.53.51,1.98-4.82,13.56,2.43l20.35,12.75h-.02ZM1087.6,449.94c2.36,4.18,6.02,6.65,10.03,8.83,14.06,7.65,26.69,15.96,37.85,27.81l16.28-.23-14.66-10.17-2.57,3.23c-.54.68-3.29-.63-3.92-1.04-14.13-10.25-27.44-20.19-43.01-28.42h0ZM1081.17,467.4l-.29,1.64,10.21,7.04c1.89,1.31,3.55,3.86,4.15,6.21l21.48,1.32-19.2-12.89-.81,1.22,7.43,4.95c1.03.68,1.27,4.17.11,4.42-.92.2-2.71-.33-3.59-.91l-19.49-13.01h0ZM1095.64,469.53l-.76-.02h-.79l-.76.02.76.02h.79l.76-.02ZM1028.69,448.23c11.94,11.07,23.54,18.71,36.3,26.91,2.83,1.82,5.79,4.71,7.62,6.97l17.76.09-6.51-5.31-1.95,3.43c-.45.78-2.9-.49-3.7-1.04l-17.84-12.37-25.86-18.61c-1.65-1.19-4.64-1.57-5.83-.06h0ZM1045.49,472c.64.45,2,2.69,1.51,3.23l-2.61,2.88c.62.6,4,2.42,5.52,2.49l14.62.67-24.35-16.26-20.13-11.1,25.43,18.1h0ZM1001.25,476.76l-14.28-9.57,5.58,9.03c-.23.76-2.42,2.38-3.18,1.88l-2.56-1.7-3.73,1.62c-.9.39-2.83-2.13-3.71-2.58l-8.27-4.23.35,8.26,63.27-.47-43.1-29.5c2.29,6.87,8.27,9.35,13.26,13.5l12.05,10.59c.87.76,1.3,2.86,1.16,3.7s-3.2.93-3.92.37l-13.23-10.18-.93.9,4.39,4.42c.61.61.67,2.96.42,3.75s-2.85.7-3.58.21h.01ZM986.64,456.61l11.77,10.37c-2.49-4.69-6.13-8.88-11.77-10.37ZM970.98,464.78l2.94-6.16-2.42-5.38c-.4-.89,2.91-1.73,4.89-2.09l-4.78-7.76c-1.81,8.17-1.79,13.28-.64,21.39h.01Z"/>
  </g>
  <g>
    <path class="st11" d="M1590.83,266.67l8.54-18.22-13.84-7.04c-.45-1.2-.8-4.33-.27-5.55.62-1.42,4.2-2.22,5.58-3.15l14.14-9.44c1.22-.82,4.84-.26,6.04.54s2.55,4.6,1.96,6.1l-6.52,16.48c5.8,7.11,5.65,15.37-1.07,22.01-2.77,2.74-8.79,5.14-11.97,4.34-1.49-.37-3.35-4.48-2.59-6.09v.02h0ZM1591.69,238.48l10.6,6.43,6.5-17.21-6.64,2.12c1.36,1.48,2.73,3.66,2.2,4.91-.44,1.04-3.02,2.23-4.27,2.43l-8.39,1.32h0ZM1595.8,267.96c5.14-1.02,7.39-3.42,8.77-6.09,1.82-3.52,2.03-6.54-.88-10.51-3.58,5.26-5.93,10.45-7.89,16.61h0Z"/>
    <path class="st13" d="M1545.91,247.66c3.99-3.93,6.98-7.93,9.74-13.44-6.69-.71-12.85,8.01-14.43,4.56l-1.16-2.53c-.26-.57,9.16-7.93,17.13-6.94,2.24.28,3.68,6.28,2.46,8.12l-6.94,10.43c4.16.94,10.31,2.2,13.25,4.85,4.07,3.67,1.21,8.8-1.44,11.97-11.41,13.64-20.39,10.24-18.99,7.65,2-3.7,13.1-2.25,17.9-15.77-8.3-5.65-23.66-2.84-20.05-6.4l2.53-2.49h0Z"/>
    <path class="st14" d="M1621.88,253.55c-.78-.44-2.12-2.51-2.07-3.31s1.24-2.98,1.99-3.34l12.47-5.99c.72-.35,3.72,1.69,3.41,2.44-.41,1-1.73,2.54-2.81,2.98l-9.02,3.72,7.11,3.99c1.92,1.08,4.76,3.82,5.21,5.82s-1.25,6.36-2.82,7.61l-3.98,3.17c-1.09.87-4.51-2.07-3.61-3.09l6.28-7.09-12.17-6.91h.01Z"/>
    <path class="st1" d="M1570.49,264.64c-.1-1.85,4.86-4.42,6.67-3.8,1.5.51,1.28,4.58.04,5.61-1.61,1.33-6.57.83-6.71-1.8h0Z"/>
    <path class="st4" d="M1010.16,291.78c-1.88-4.85,5.16-9.03,8.31-9.42.9-.11,2.88,2.06,2.45,2.81-.53.93-2.1,2.67-3.03,3.2l-2.72,1.53c-.51.29,1.94,1.49,2.54,1.67l9.07,2.69c2.24,9.43-7.35,20.59-14.5,18.13-.75-.26-1-2-1.21-3.82,6.14-.49,11.01-4.85,11.04-11.06-3.84-.32-10.56-2.14-11.95-5.72h0Z"/>
    <path class="st14" d="M1017.3,356.14c-2.26.14-3.54.14-4.35-.17-1.01-.39-1.61-3.99-1.14-4.91,5.02.79,11.81-1.28,11.76-6.96-2.96-2.58-6.45-5.61-9-8.9,10.63-8.96,17.98-3.43,15.24-2.03l-2.85,1.45-4.97,2.04c3.89,2.18,7.57,5.24,6.45,9.51-1.18,4.5-6.41,8.5-11.14,9.96h0Z"/>
    <path class="st18" d="M1000.5,303.28l-2.93-24.35c-.08-.7.2-3.04.38-3.71.24-.89,2.75-1.23,3.24-.44s1.08,2.58,1.26,4.19l2.82,25.07c.09.77-1.11,3.55-1.77,3.54l-3.58-.09c-.89-.02-.24-2.25.57-4.21h.01Z"/>
    <path class="st19" d="M991.4,347.26l-.83-23.95c-.06-1.69.1-3.83,1.17-4.37s3.84,1.81,3.86,2.99l.55,26.73c.02.88-1.62,2.63-2.4,2.27s-2.32-2.7-2.35-3.68h0Z"/>
    <path class="st10" d="M1693.51,673.2c-10.5-9.23-6.26-25.76,3.85-34.12l18.4,6.72c1.69.62,4.05,1.79,4.77,2.97.83,1.37.27,5.39-.62,6.76l-11.42,17.65c-3.47,5.37-10.41,4.04-14.98.02ZM1701.77,671.55c2.42-.64,6.22-4.58,7.41-6.72l7.54-13.63-7.53-2.48c-2.99-.98-5.72-2.43-8.69-4.4-3.99,1.65-6.57,6.08-7.82,10.96-1.78,6.96.83,15.02,9.09,16.26h0Z"/>
    <path class="st13" d="M1745.13,655.87l-.73-23.87c7.17-3.18,18.65-3.69,19.52.75.3,1.51-2.18,4.05-3.69,3.5-3.41-1.24-7.47-1.66-10.88-1.51l.52,15.33c15.12,4.54,21.83,26.8,12.85,26.98l-14.99.3c-.94.02-2.81-.72-3.56-1.25s1.8-3.33,2.77-3.38l15.01-.84c-.76-6.75-5.3-13.42-10.9-16.27l-2.99,2.3c-.69.53-2.9-.89-2.94-2.03h0Z"/>
    <path class="st4" d="M1788.58,673.26c.31,5.14-8.25,12.61-14.1,8.46-.77-.54,1.05-3.43,2-3.44,2.54-.04,7.74-2.96,7.32-5.61l-9.55-10.27c2.26-5.37,11.76-8.43,15.26-7.1.78.29,1.57,2.19,1.13,2.89s-2.13,1.63-2.98,1.86l-7.81,2.13c4.36,4.12,8.43,5.99,8.74,11.09h0Z"/>
    <path class="st22" d="M1733.66,661.96c-.21-1.1,3.32-2.57,4.34-2.41s2.78,1.73,3.09,3.15c.19.89-2.27,2.52-3.2,2.54-1.17.03-3.95-1.77-4.23-3.29h0Z"/>
    <path class="st20" d="M1537.33,563.78l4.08-7.24c-4.33-2.69-9.57-4.77-11.35-9.71-1.18-3.26,8.36-8.9,15.64-5.42l11.47-.83-11.25,20.12c3.14,5.35,2.04,10.48-1.83,15.02-2.92,3.42-10.35,4.74-12.77.13-2.6-4.97,4.03-8.53,6.03-12.07h-.02ZM1544.9,553.34l3.58-7.3-7.66,3.42,4.09,3.88h0ZM1535.65,573.43c.72.68,4.94.12,5.29-.98l1.21-3.8c-3.38,1.7-5.44,2.83-6.49,4.78h-.01Z"/>
    <path class="st13" d="M1493.24,572.65c-8.5-5.89-6.7-22.53-1.19-30.41,4.33-6.2,22.56-1.59,22.94,7.72.33,8.15-3.24,17.58-9.34,23.24-3.37,3.13-9.38,1.55-12.41-.55ZM1495.28,568.31c1.63,1.31,6.92,2.18,8.19.52,4.1-5.36,8.06-13.34,6.28-20.26-2.64-3.1-9.18-4.81-13-4.42-5.41,7.12-6.19,20.35-1.47,24.17h0Z"/>
    <path class="st14" d="M1570.8,570.81c-4.29-2.46-9.37-5.58-10.92-9.8-.54-1.47,2.44-4.63,3.88-5.07,1.65-.5,5.02.29,6.57,2.01-.1.97-2.18,3.9-3.03,4.9l9.49,6.46c-2.76,8.89-14.08,15.69-21.64,12.19-.76-.35.23-3.47.8-3.72,4.69.25,11.69-1.29,14.86-6.97h0Z"/>
    <circle class="st21" cx="1524.66" cy="563.17" r="2.87"/>
    <path class="st10" d="M1757.87,149.57l13.24-21.19,3.19,2.16c.68.46-.47,2.75-.96,3.49l-10.55,16.37,16.94-.92c4.59-8.2-2.99-12.86-1.57-17,.98-2.86,8.94,1.81,7.74,15.47,1.6,1.21,3.14,2.44,3.71,3.27.68.99-3.01,2.79-4.07,3.54-1.42,3.94-2.88,11.98-1.83,16.08l2.09,8.16c.48,1.88-3.21,5.87-5.31,5.55-2.44-2.13-2.88-7.45-2.54-10.6l2.14-19.61-18.44,1.26c-1.15.08-3.45-.8-4.01-1.52s-.46-3.45.21-4.53l.02.02h0Z"/>
    <path class="st13" d="M1827.94,151.33c-7.43-2.21,1-7.11,3.37-15.9-8.53-2.58-10.14,2.84-14.2,5.57-.73.49-2.36-2.94-2-3.74,2.79-6.32,14.18-10.95,19.6-4.9,2.75,4.02-1.04,10.94-3.6,14.71,3.18.89,8.49,2.52,9.76,4.88.94,10.19-5.01,19.37-12.73,25.36-11.28,0-13.66-5.99-11.56-6.45.77-.17,2.34-.32,3.16-.14l7.27,1.61c5.15-4.83,8.35-10.93,9.69-18.38l-8.76-2.61h0Z"/>
    <path class="st4" d="M1863.16,168.19c-6.04-4.4-12.81-3.01-14.27-7.35-2.07-6.16,6.8-14.75,16.54-13.9,2.84,9.8-8.39,1.68-12.21,12,5.23,1.65,10.3,2.89,13.94,6.44,2.81,2.74.77,8.35-1.59,11.06-3.01,3.45-9.38,3.62-13.82,1.54-.65-.3-.24-3.06.47-3.14l3.91-.44,5.47-.61c1.33-.15,2.63-4.81,1.56-5.6h0Z"/>
    <path class="st5" d="M1799.53,177.44c-1.68.02-4.11-1.93-4-3.08.13-1.46.92-4.67,1.88-5.63l2.75-2.75c.7-.7,3.73,1.44,3.33,2.34l-3.97,9.12h.01Z"/>
    <path class="st13" d="M1208.05,401.2c-.69-.89-1.66-4.68-.96-5.68l13.95-19.94c.53-.76,4.26,1.14,3.88,1.87l-2.29,4.38,3.68,1.39c.86.32.43,2.9.54,3.94l.81,7.62-.9,11.84c-.08,1.08-.8,2.93-1.45,3.62s-3.14-1.53-3.19-2.47l-.47-8.73c-4.47,1.13-9.31,1.99-13.6,2.16h0ZM1222.26,393.05l-1.03-9.92-8.95,13.32,9.98-3.4Z"/>
    <path class="st14" d="M1257.68,402.12c-2.79-4.64-13.09-4.25-13.89-11.25-.71-6.28,6.55-10.66,11.4-10.64.92,0,3.08,2.19,2.55,2.83-3.14,3.79-7.15,2.05-9.52,6.58,3,5.51,11.98,4.26,13.75,10.49,1.95,6.88-9.83,18.18-18.7,14.37-2.33-1-1.61-4.7.36-5.94,2.34-1.47,3.57-1.17,6.7.94,2.36-.55,6.08-4.37,7.36-7.39h-.01Z"/>
    <path class="st19" d="M1181.17,407.47l-1.24-24.27c-.05-.91,1.81-3.08,2.71-3.17s2.59,1.75,2.61,2.68l.42,23.23c.02.83-.45,2.85-.69,3.56-.32.95-3.75-1.01-3.8-2.03h-.01Z"/>
    <path class="st5" d="M1199.72,409.79l-1.4-9.05c1.56-1.39,5.28.43,5.75,2.49.64,2.85.14,5.1-4.34,6.56h-.01Z"/>
    <path class="st10" d="M1302.28,473.37c1.47-1.21.94-7.43-.6-9.36l-5.73-7.18c-.6,2.76-1.7,6.17-3.11,6.01-2.23-.25-3-4.9-2.19-7.01.66-1.7,3.84-3.63,6.07-3.36,4.44.54,14.95,13.83,9.96,23.96l5.5,9.11c.5.83.14,3.35-.45,4.03s-3.06-.23-3.5-1l-3.44-6.01-6.05,8.33c-.45.61-3.34.66-4.06.41-.96-.33-2.43-2.75-2.2-3.8l2.13-9.86c.52-2.43,3.68-3.76,7.68-4.26h-.01Z"/>
    <path class="st13" d="M1340.53,461.74l2.6-5.19c10.46,5.07,16.1,16.54,9.74,24.25-2.87,3.48-9.77,5.71-13.3,1.99-5.38-5.68-2.19-14.77.95-21.04h.01ZM1343.21,479.02c1.38,1.59,6.32-.54,6.89-2.46,1.55-5.27-.78-10.85-4.82-11.41-3.36,2.44-5.59,9.81-2.07,13.86h0Z"/>
    <path class="st4" d="M1358.96,471.47c-2.33-1.32-1.59-6.78-.18-8.62,1.88-2.46,6.98-4.45,9.15-3.13.59.36.98,3.11.34,3.38l-2.96,1.26c-9.95,4.25,6.66,5.63,8.02,11.57,1.55,6.77-6.5,12.76-11.26,13.5-.91.14-3-1.21-3.51-1.86-3.29-4.23,11.1-2.18,9.74-10.82l-9.35-5.29h.01Z"/>
    <path class="st22" d="M1323.6,477.93c-1.84-1.73.48-7.44,3.17-7.6,1.66-.09,3.5,3.3,2.8,4.54-.95,1.68-4.74,4.2-5.96,3.05h-.01Z"/>
  </g>
</svg>