<?xml version="1.0" encoding="UTF-8"?>
<svg id="Layer_1" xmlns="http://www.w3.org/2000/svg" version="1.1" viewBox="0 0 1920 700">
  <!-- Generator: Adobe Illustrator 30.3.0, SVG Export Plug-In . SVG Version: 2.1.3 Build 182)  -->
  <defs>
    <style>
      .st0 {
        fill: #070707;
      }

      .st1 {
        fill: #050505;
      }

      .st2 {
        fill: #010101;
      }

      .st3 {
        fill: #a1a1a1;
      }

      .st4 {
        fill: #1e1e1e;
      }

      .st5 {
        fill: #0d0d0d;
      }

      .st6 {
        fill: #1d1d1d;
      }

      .st7 {
        fill: #a0a0a0;
      }

      .st8 {
        fill: #141414;
      }

      .st9 {
        fill: #060606;
      }

      .st10 {
        fill: #0b0b0b;
      }

      .st11 {
        fill: #121212;
      }

      .st12 {
        fill: #040404;
      }

      .st13 {
        fill: #9f9f9f;
      }

      .st14 {
        fill: #080808;
      }

      .st15 {
        fill: #a3a3a3;
      }

      .st16 {
        fill: #282828;
      }

      .st17 {
        fill: #0c0c0c;
      }

      .st18 {
        fill: #a2a2a2;
      }

      .st19 {
        fill: #1f1f1f;
      }

      .st20 {
        fill: #2a2a2a;
      }

      .st21 {
        fill: #0a0a0a;
      }

      .st22 {
        fill: #9e9e9e;
      }

      .st23 {
        fill: #191919;
      }

      .st24 {
        fill: #090909;
      }

      .st25 {
        fill: #1a1a1a;
      }

      .st26 {
        fill: #161616;
      }

      .st27 {
        fill: #0e0e0e;
      }
    </style>
  </defs>
  <g>
    <path class="st13" d="M736.97,419.12c-4.73,5.31-9.86,8.54-16.94,10.75l2.27,30.62c.06.86-.85,2.99-1.66,3.21-4.56,1.26-9.89-27.03-7.73-43.7,1.18-9.13,9.94-18.09,16.69-17.92,3.96.1,6.99,2.23,8.45,5.41,2.98-3.55,6.26-6.61,9.21-7.09,5.1-.83,9.95.31,12.76,3.84,4.3,5.41,6.23,11.22,4.42,17.82-1.48,5.41-5.72,9.07-11.18,12.98l-4.91,3.52,1.7,21.87c.07.86-1,2.91-1.72,3.37s-2.8-1.21-3-2.03l-5.36-21.08-2.99-21.57h-.01ZM745.84,417.43l2.39,15.03c10.32-4.5,15.07-13.16,10.48-21.84-2.38-4.51-5.5-6.26-10.44-5.61-3.14.41-5.9,4.28-6.22,8.07.37.6,3.62,3.27,3.79,4.36h0ZM720.32,424.51c6.13-1.95,11.61-4.53,13.4-10.28.53-1.7.13-5.17-.93-6.24-3.06-3.12-9.81.5-13.52,7.39l1.05,9.13Z"/>
    <path class="st7" d="M620.54,440.21c1.38.79,4.37,2.19,5.86,2.52,2.68.58,2.21-7.65,8.99-6.75l-1.31-28.62-2.03-10.92c-.16-.88,2.86-2.41,3.4-1.7l2.57,3.43,1.95,33.38c6.87-4.91,14.17-9,20.52-4.35l6.53-31.33.47-6.2c7.01,1.83,6.82-6.04,11.85-6.23,1.69-.06,4.43,3.11,4.72,5.11l6.13,42.07c1.11,7.62-6.18,21.66-8.66,18.5-2.77-3.54,6.71-11.16,3.1-24.43l-17.96,3.93c-.16,15.25-7.16,24.77-8.25,21.54l-1.86-5.55c-2.84,2.03-7.18,4.7-11.37,5.36-5.23.83-9.94-2.88-11.84-6.67l-5.22,4.26c-1.95,1.59-14.16-1.61-14.17-14.16,0-7.27,5.5-14.68,10.86-13.93,3.84.54,4.77,10.11,1.01,17.71l-5.3,3.04h.01ZM667.66,422.77l16.91-2.88-5.52-31.1c-4.28,4.78-6.3,10.07-7.6,16.15l-3.8,17.83h.01ZM637.28,440.52c1.82,4.67,6.91,5.89,11.34,3.53,4.95-2.63,8.19-8.02,7.69-14.42-4.19.38-8.64,2-11.68,4.59l-7.36,6.3h0Z"/>
    <path class="st3" d="M569.5,405.95c.32-1.07,4.09-.34,4.49,1.08l7.79,27.44,2.23-12.72c.23-1.32,1.96-3.92,3.28-4.17,5.93-1.1,8.77,17.49,16.68,27.54,2.48-18.94.4-35.61-1.17-53.76.11-.69,1.1-2.86,1.71-2.51l2.97,1.7,1.94,51.96c-.81,3.79-1.87,7.77-5.62,9.33-7.69-7.53-10.93-17.21-15.3-27.41l-2.45,18.96c-.15,1.14-1.2,3.22-1.84,3.8s-2.42.21-3.83-.12l-9.19-32.15c-1.67-1.83-2.51-6.26-1.7-8.97h.01Z"/>
    <path class="st3" d="M620.84,201.43c1.46,1.82,3.2,3.66,4.54,3.96,5.21,1.16,7.76-6.01,13.06-8.12l-.35-34.25c-1.14-1.54-2.27-3.41-1.96-4.49s3.02-2.49,3.97-1.88,2.6,3.2,2.62,4.35l.5,30.37c2.43-2.48,7.5-5.82,10.62-4.13,8.39,4.52,9.35,23.18,1.76,24.63-8.36,1.6-14.9-10.36-16.61-8.97l-3.41,2.78c-3.34,2.72-6.9,5.1-11.4,4.33-3.56-.6-7-4.7-8.38-8.78-2.92-8.62-1.68-17.93,6.2-23.07,1.42-.93,4.64-1.67,6.06-1.24,6.47,1.94,4.46,18.34-7.22,24.52h0ZM642.51,199.18l11.82,9.12c3.28-7.27,1.7-12.31-2.82-17.41l-9.01,8.29h.01ZM620.1,196.54c5.6-4.07,7.22-9.2,6.73-14.96-6.46,1.36-9.47,8.97-6.73,14.96Z"/>
    <path class="st3" d="M575.42,193.6c-4.18-8.02-8.97-11.81-5.49-13.92,1.12-.68,4.1.48,4.69,1.69l13.25,27.04,2.14-19.49c.1-.95,1.32-3.04,2.02-3.64,3.69-3.18,5.83,9.84,11.87,17.21l3.34-26.44c.51-4.03,1.88-8.52,4.05-12.32.88-1.54,5.24,1.02,5.17,2.97-.06,1.53-1.76,3.6-3.56,4.98l-4.52,37.98c-.14,1.16-1.66,4.15-2.66,3.68s-2.33-2.12-3.08-3.4l-8.36-14.17-1.37,13.37c-.23,2.24-6.54,5.46-7.59,3.45l-9.91-19h0Z"/>
    <path class="st13" d="M720.54,209.41l1.07,19.75c.05.95-1.3,3.17-2.16,3.38-1.07.26-2.72-1.97-2.81-3.37l-2.24-34.28c-.17-.97-2.65-3.4-1.83-3.85l4.28-2.31c2.19-1.18,5.34-6.23,7.91-6.09,5.91.32,9,5.19,11.22,10.32,3-8.73,9.47-13.69,17.01-12.5,8.49,1.34,12.61,7.58,12.54,16.64-.03,4.84-1.12,10.17-4.58,13.53s-8.82,4.45-14.89,4.63l.95,18.28c.05.9-3.76,1.87-3.97.97l-1-4.13-6.42-24.22c-3.29,4.1-7.21,5.58-15.11,3.24h.03ZM745.76,210.16c4.97.46,9.25-.58,11.85-3.06,2.89-2.75,3.29-7.35,3.16-11.19-.2-5.92-2.84-9.64-7.87-10.67-4.63-.95-9.88,2.1-10.94,6.75.65,1.16,2.24,3.98,2.38,5.27l1.43,12.9h0ZM720.67,204c3.96,1.71,7.73,2.2,9.63,1.02,3.19-6.94,1.47-14.83-4.91-17.33-2.69-1.05-5.49,8-4.72,16.31h0Z"/>
    <path class="st7" d="M687.2,195.39c-2.88,8.9-9.2,22.02-11.32,19.81l-2.11-2.2,5.66-29.92c2.68-7.54,5.67-13.7,9.99-20.2,1.94-2.92,2.99-6.77,6.03-9.65,1.33-1.26,5.16,2.43,5.48,4.48,2.61,16.33,6.76,56.26-2.33,54.35-3.81-.8-.08-4.84.02-6.54l.9-14.58-12.34,4.44h.02ZM688.54,189.77l10.88-4.18-3.36-25.66-7.51,29.84h-.01Z"/>
    <path class="st7" d="M690.63,535.46c-.37,1.09-4.85.49-4.62-.6l4.05-19.15,7.55-25.87,7.28-8c1.19-1.31,3.75-3.1,5.16-2.74s3.84,3.16,4.17,4.63c3.56,16.18,5.37,47.29-2.75,55.16-.51.49-3.11-1.19-2.83-2.06,2-6.32,5.33-17.36,2.91-25.36l-15.31,7.39-5.6,16.58v.02ZM697.69,512.43c6.98-3.08,8.79-4.05,14.64-5.37l-3.18-23.38c-4.46,4.98-5.84,9.33-7.64,14.69l-3.83,14.07h.01Z"/>
    <path class="st7" d="M756.7,536.34l7.74-1.3-3.17-17.17-3.34-1.84c-.8-.44.85-2.95,1.76-3.17l5.09-1.22c1.12-.27,1.09-3.94,2.13-5.01,3.87-3.96,10.74-1.31,15.19,2.44,6.42,5.4,14.14,11.84,12.8,21.51-6.15,5.85-15.86,7.49-25.21,8.82l3.88,31.46c-.19.71-.67,2.57-1.18,2.45l-3.5-.81-4.29-32.41c-2.95.34-6.44.63-7.92-3.77l.02.02ZM769.43,534.8c8.05-1.16,14.25-2.98,21.37-6.15-1.71-7.32-5.69-11.07-11.06-15.18-2.73-2.08-6.29-4.83-9.66-3.42-1.72,8.24-1.48,15.75-.65,24.74h0Z"/>
    <path class="st7" d="M729.43,522.05c-.2-2.26-2.1-5.23-3.24-6.95l3.75-4.41c1.23-2.87,2.5-5.43,4.21-7.12,1.58-1.56,7.06-1.97,8.75-.52,7.67,6.57,9.18,20.97,3.17,25.28-2.63,1.88-6.49,2.09-10.48,1.35l2.01,29.52c.07,1.07-1.21,3.27-1.94,3.8s-2.77-1.67-2.87-2.76l-3.37-38.2h0ZM734.93,522.32c1.4,2.26,5.74,3.6,7.4,2.75,6.23-3.2.41-20.43-4.07-18.32-4.33,2.04-5.56,11.96-3.33,15.56h0Z"/>
    <path class="st3" d="M570.87,506.09l2.58-4.37c.46-.78,2.78,1.83,2.82,2.43,1.79,11.7,4.54,21.99,9.03,32.73l.52-26.88c.02-.95.86-3.18,1.66-3.68.99-.62,3.77.69,4.58,1.48l11.8,35.35c2.6-4.5,3.57-8.27,4.55-12.81,1.03-15.87.21-30.98-2.02-46.8l.97-3.06c.21-.68,2.61-.92,2.93-.29s.92,2.28.96,3.1l2.29,40.49c.5,8.86-4.92,25.52-9.05,25.4-.89-.03-3.23-1.19-3.58-2.11l-5.68-14.7-4.64-13.8-.84,21.61c-.05,1.32-1.83,3.9-2.92,4.24s-3.23-.46-4.76-1.22l-11.21-37.1h.01Z"/>
    <path class="st18" d="M641.35,482.29c-.16-.91.52-3.18,1.33-3.25,1.02-.09,3.42,1.59,3.55,2.71l3.95,32.87c2.61-2.3,6.73-5.34,9.8-5.87,7.53-1.31,11.47,3.38,12.78,9.58,1.54,7.26-.3,15.14-6.67,18.63s-14.46,2.68-19.49-3.3l-2.22-34.16-3.04-17.21h0ZM649.82,529.98c4.21,5.33,12.19,5.94,16.41.68,3.26-4.06,3.48-13.19-.93-16.2-5.71-3.89-11.12,2.37-12.7,7.12l-2.78,8.39h0Z"/>
    <path class="st18" d="M634.57,504.28c3.32,6.5-1.36,17.19-4.21,22.22-.4.7-4.15,2.04-3.53,2.49l3.13,2.28c.94.69,3.41,1.76,4.54,1.95,3.04.51,4.16-4.95,7.63-3.46.81.35.85,2.88.29,3.77-3.08,4.89-9.72,5.59-14.7,2.17-3.85-2.64-7.99-5.75-9.08-9.03-1.89-5.65-.84-10.49,1.81-15.26,2.41-4.34,8.34-9.76,14.13-7.12h0ZM627.8,522.81l3.62-14.38c-7.81,2.46-9.25,8.78-9,15.4l5.38-1.02Z"/>
  </g>
  <g>
    <path class="st7" d="M1303.93,549.98l11.08-.75-1.16,1.83,20.56-.69,23.2.69c.93.03,2.8,1.14,3.35,1.79s-2.04,2.86-2.97,2.86l-23.75-.2-22.02-.19-29.39.4-33.94.52-7.23,1.55c-1.22.26-3.81-2.34-3.51-3.56s2.69-2.55,4.14-2.58l33.29-.68,28.34-.98h.01Z"/>
    <path class="st0" d="M1423.86,513.19c-2.32,1.21-5.46,1.48-6.11-.2-.52-1.35,2.33-3.66,4.66-4.93l-1.92-15.98c-.1-.81,1.38-3,2.13-2.74s2.66,1.92,2.76,2.71l1.52,11.85c12.8.43,16.75,7.23,13.54,7.85-4.63.9-7.79-4.45-12.3-1.97l4.82,26.4c.16.86-1.73,3.58-2.56,3.45-1.05-.17-2.07-1.75-2.33-3.18l-4.21-23.24v-.02Z"/>
    <path class="st0" d="M1456.36,511.2l7.61,1.42c2.37.44,5.47,1.11,6.96,2.15s2.27,5.71,1.72,7.48c-2.08,6.71-7,11.6-13.86,13.07-3.08.66-7.4-1.09-8.61-3.95-3.06-7.26-.96-15.68,6.18-20.16h0ZM1456.12,530.17c6.83.95,12.66-5.9,11.83-12.24-3.94-.25-8.54.26-12.45,1.54-2.79.91-3.04,10.19.62,10.71h0Z"/>
    <path class="st18" d="M1729.68,538.16l27.1,2.03,10.52.8c11.64.88,22.85,3.39,34.46,2.95,9.49-.36,18.07.54,27.42,2l20.77,3.25-.22,3.42c-.07,1.01-3.26,1.83-4.29,1.62l-27.45-5.56c-17.73.61-34.5-.12-51.81-3.15l-39.06-2.35-.82-3.43c-.19-.77,2.4-1.65,3.39-1.58h-.01Z"/>
    <path class="st9" d="M1730.39,506.12c7.93-5.78,15.3-13.97,12.74-24.09-6.53-3.94-11.9,4.4-15.8,1.71-2.34-1.61,2.58-6.45,12.14-7.63,4.89-.61,8.4,2.63,8.84,6.78.82,7.66-2.22,14-7.47,20.31,5.22.48,8.76,2.18,10.98,5.67s2.15,8.42.2,12.16c-3.02,5.8-8.45,8.95-15.02,9.05-4.52.07-10.03-5.01-8.57-9.68,1.41-.97,4.32,1.52,5.72,3.1,3.13,3.54,8.36,1.42,11.25-1.41,2.74-2.67,5.49-7.72,1.54-11.86-2.96-3.11-9.89-2.49-14.24-.62-.88.38-3.15-2.87-2.31-3.47v-.02Z"/>
    <path class="st9" d="M1823.78,480.12c10.17-9.88,17.19-7.93,16.57-5.47l-1.02,4.02c-.25.97-3.56-.65-4.59-.75-6.33,3.07-12.46,8.82-11.1,14.07.37,1.44,4.06,2.42,5.75,2.22,7.93-.96,6.11-11.08,9.84-13.65,1-.69,3.59,1.72,3.77,3.1l2.26,18.33,3.58,23.67c.17,1.14-.96,4.19-1.69,3.7l-3.14-2.08-4.72-34.72c-2.84,3.39-6.27,6.5-9.41,6.58-3.56.09-8.82-1.45-10.16-4.38-2.62-5.73.25-10.93,4.06-14.62v-.02Z"/>
    <path class="st0" d="M1802.94,479.21c-9.79-1.7-18.13,7.78-19.18,2.25-.19-.98,1.23-3.17,2.22-3.47l13.61-4.07c1.56-.47,5.41,1.19,6.33,2.47,4.34,6.04-3.12,15.69-9.86,23.05l6.85,3.65c4.49,2.39,6.88,7.31,4.22,12.23-4.63,8.57-15.43,14.4-22.87,10.17-.8-.46-.96-2.75-.81-4.57,7.04,2.6,12.33.64,17.16-4.29,1.45-1.48,3.42-5.79,2.38-7.69l-12.69-7.4c1.23-7.44,11.15-11.56,12.64-22.35v.02Z"/>
    <path class="st10" d="M1767.81,525.41c-4.17,6.39-9.08-46-5.51-48.07.96-.56,3.72,1.52,3.99,2.62-.6,14.89.36,28.05,3.33,42.68l-1.81,2.77h0Z"/>
    <path class="st12" d="M1596.18,509.66c1.47-3.68,5.06-6.57,7.71-7.46,4.08-1.36,7.92-.18,11.43,1.61l-1.2-12.14c-.09-.88,1.08-2.85,1.82-3.02s3.21,1.13,3.35,2.09l3.64,24.56c.92,6.2,2.93,11.96,4.96,17.61l2.46,2.21c.69.62-.36,2.58-.99,3.26s-3.89.3-4.27-.59l-4.6-10.83c-2.76,6.71-11.62,11.72-18.49,6.6-6.98-5.2-9.22-15.36-5.82-23.89h0ZM1599.81,513.3c-1.25,6.48.18,13.62,5.73,16.79,4.66,2.66,9.84-1.76,10.94-6.47l-4-2.3c2.78-4.46,2.44-10.32-1.8-13.99-3.62-3.13-9.85.67-10.86,5.96h0Z"/>
    <path class="st1" d="M1538.52,533.66c-11.54-10.37-5.94-33.72,7.44-45.82-.74-.81-.72-4.81.41-4.79,11.95.27,21.46,16.02,23.67,29.23,1.8,10.76-3.84,19.29-13.8,22.55-5.66,1.86-12.64,3.39-17.72-1.17ZM1542.68,530.74c3.61,2.33,9.5.66,13.19-.78,7.1-2.76,10.72-8.79,9.6-16.47-1.27-8.67-5.75-17.23-11.83-23.07l-6.98,3.62c-10.33,10.53-13.44,30.59-3.99,36.7h.01Z"/>
    <path class="st0" d="M1638.92,525.63c-.67.39-3.41.34-4.03.08s-1.76-2.14-1.2-2.51l3.4-2.24c3.89-2.57,4.25-8.8,2.14-13.53-8.87,3.63-9.11,20.65-1.87,24.9,9.88,5.79,15.5-2.51,17.68.76.53.79-.34,2.92-1.43,3.65-7.5,4.98-19.06,2.49-23.61-5.56-3.72-6.58-2.97-14.98.11-21.49,1.68-3.54,7.32-8.88,11.26-5.89,6.44,4.89,4.83,17.65-2.44,21.84h-.01Z"/>
    <path class="st24" d="M1662.54,511.21c-5.99,11.45,2.96,19.16.11,24.69-.5.98-4.28-.05-4.49-1.14l-2.46-13.29c-.94-5.05,1.55-9.6,3.42-13.67,3.07-6.7,11.79-7.54,16.09-4.33.53.4,1.28,3.05.7,3.24-4.58,1.55-9.35-3.2-13.37,4.5Z"/>
    <path class="st21" d="M1582.38,504.64c-4.09,13.15,3,24.9-.26,30.07-.48.76-3.52.17-3.67-.72l-1.86-11.36.2-15.55c.05-3.79,3.19-7.07,6.69-7.13,2.6-.04,7.21,3.93,5.62,6.8-.76,1.36-4.38-.29-6.73-2.11h.01Z"/>
    <path class="st12" d="M855.06,538.3l-5.36,14.81c-5.6-.66-4.08-5.08-3.66-8.19,2.33-17.3,11.86-54.47,24.15-53.57,1.78.13,4.74,3.14,4.88,5.31l1.99,31.27,1.05,30.41-1.86,3.15c-.41.7-3.1-2.17-3.13-3.06l-.87-26.09c-9.54-.98-12.12,6.15-17.2,5.95h0ZM856.03,532.41c6.41-3.24,10.09-4.35,16.16-5.41l-2.23-31.34c-10.33,5.23-12.11,25.36-13.93,36.75Z"/>
    <path class="st12" d="M929.8,532.86l-4.88-30.02,1.81-1.41c.59-.46,2.25,1.31,2.57,2.14l4.36,11.55c3.14,8.32,5.36,16.8,3.89,25.74-1.56,9.5,2.09,11.9-.24,14.27-.77.78-2.9-.51-4.67-1.68-3.06,3.69-8.77,8.24-13.73,4.89-8.35-5.63-8.76-19.39-1.77-25.88,3.98-3.69,7.91-3.26,12.65.39h0ZM919.67,536.61c-3.99,4.37-3.7,15.41,1.98,17.5,5.96,1.25,12.06-8.1,9.02-12.51l-3.63-.15c-1.41-.06.1-5.68-3.77-6.73-.7-.19-2.7.92-3.6,1.89Z"/>
    <path class="st12" d="M886.41,538.84c2.51-6.89,7.55-9.92,14.34-9.19l-4.25-21.13c-.15-.75.05-2.91.77-2.95l3.41-.21c4.56,10.65,7.91,20.61,8.64,32.16-1.24,6.01.07,12.64,2.01,17.87l.49,2.9c.13.78-3.13.97-3.52.28l-3.43-6.04c-2.77,3.5-7.83,8.52-12.61,6.27-7.32-3.44-8.48-12.79-5.86-19.96h0ZM897.78,534.44c-6.26.83-7.26,6.2-7.8,9.55s.99,9.15,3.68,10.49c5.09-.02,8.48-4.63,9.49-8.81l-3.7.42c-2.49.28,2.64-12.21-1.67-11.64h0Z"/>
    <path class="st1" d="M1270.98,519.48c-.56-13.58-7.27-24.9-9.88-20.19l-2.2,3.96-1.45,2.6c-.45.81-3.48.75-3.53-.18-.32-5.49,3.37-10.75,7.85-11.55,10.63-1.9,12.36,15.21,14.69,28.4l11.81,16.57c1.82,2.55,6.16,5.33,2,8.83-1.92-.59-4.68-3.75-6.1-5.89l-8.5-12.8-4.78,16.56c-.36,1.23-2.78,2.81-3.8,2.94-5.28.72-7.23-14.54-1.99-26.35.5-1.12,3.59-2.24,5.87-2.91h.01ZM1267.52,541.07c2.49-5.82,3.18-10.76,2.97-16.56-4.32,4.12-4.2,11.23-2.97,16.56Z"/>
    <path class="st9" d="M1315,549.23l-11.08.75.6-4.73c7.47,1.42,15.54-1.74,18.92-8.51,2.78-5.57,1.13-12.93-2.75-17.36-5.32-6.08-13.21,5.44-14.17,3.18l-1.25-2.92c-.87-2.03-2.42-5.08-3.29-6.11-3.31.66-6.07-.08-6.43-2.17-.42-2.5,1.4-4.41,3.71-6.02,18.74-12.99,21.08-6.17,18.41-4.15-3.89,2.94-8.42,1.12-12.85,6.81l4.14,7.56c3.37-2,7.15-3.47,10.23-2.6,2.87.81,5.36,3.54,7.36,6.2,2.93,6.26,4.06,12.36,1.32,19.77-2.19,3.91-7.03,9.9-12.87,10.3h0Z"/>
    <path class="st9" d="M1339.18,499.99l2-4.91c.46-1.12,5.32,0,5.01,1.26-1.95,8-8.65,11.4-8.14,18.95l13.07.74-3.18-12.99c-.15-.6-.08-1.81-.03-2.32.08-.76,3.95-.19,4.14.55l3.66,14.18,8.95.06c.4,4.96-3.68,6.3-8.36,6.07l1.41,13.56c.07.68-.19,2.42-.73,2.47l-3.53.28-2.03-16.71-9.19-.56c-2.14-.13-6.27-1.68-8.61-2.74-1.5-7.09,1.86-11.8,5.54-17.88h.02Z"/>
    <path class="st0" d="M1234.86,510.06l-2.68-15.92c-.12-.72,2.41-2.76,2.98-2.26.76.68,1.96,2.53,2.12,3.77,1.2,9.02,3.45,17.65,5.53,26.76l3.88,16.94c.22.94-1.79,4.21-2.48,3.74-.86-.59-1.82-2.18-2.12-3.4l-7.23-29.63Z"/>
    <path class="st1" d="M1010.82,523.24c5.68-3.22,7.9-7.48,10.55-12.52,3.77-7.17,6.26-14.86,2.34-23.1-5.58.69-9.99,4.19-14.06,8.03-9.47,8.93-4.54,18.22-8.35,18.59s-4.12-10.6,1.81-18.24c6.48-8.34,17.95-16.22,23.44-11.46,9.51,8.24-.01,36.96-14.98,43.16l2.38,20.84c.14,1.24-1.58,3.79-2.41,3.69-1.03-.13-2.27-1.81-2.39-2.87l-1.82-16.55-3.19-21.27c-.12-.79,2.66-2.54,3.09-1.97s1.55,2.2,1.69,3.02l1.88,10.67.02-.02Z"/>
    <path class="st12" d="M1090,540.01c-3.38-2.25-5.81-5.55-5.8-8.84.02-6.3,6.81-12.08,14.12-14.53l-2.01-22c-.05-.59,2.56-2.09,2.96-1.66l2.44,2.64c2.11,15.96,6.93,30.44,14.03,45.09-5.38,1.4-6.97-2.82-8.28-6.88-.56,1.66-1.74,5.68-3.16,6.81-3.76,3-10.13,2.15-14.31-.63h.01ZM1089.49,532.35c.97,4.59,10.02,7.66,12,3.72s-1.53-9.32-3.59-13.56c-3.81-.12-9.64,3.95-8.4,9.84h-.01Z"/>
    <path class="st24" d="M1171.67,537.78l9.72-1.84c-.11-2.85-.48-7.78-1.36-10.57-2.01-6.37-.86-13.3-5.76-26.41-.51-1.36-3.04-4.13-2.22-5.23,1.82-2.43,6.18.02,6.83,2.63l5.17,20.62,7.87-5.62c.51-.36,2.84-.05,2.95.57.15.82-.11,3.34-.8,3.8l-8.85,5.95.5,19.35-6.09-.78c-7.23,3.66-17.06,3.39-21.03-1.39-4.37-5.28.92-15.97,8.18-23.16l2.88,2.18c2.44,1.84-9.32,8.09-7.59,18.57,2.6.83,7.36,1.76,9.59,1.34h.01Z"/>
    <path class="st9" d="M1059.4,544.23c-4.86-5.46-1.56-12.75,2.6-16.93s10.78-6.22,15.43-4.39c1.73.68,2.22,4.58,2.78,5.99,1.23,3.08,3.05,6.64,2.06,9.68-2.85,8.71-17.97,11.17-22.88,5.65h0ZM1063.37,541.19c3.09,2.36,10.31.6,12.99-1.75.85-.75,2.01-3.65,1.48-4.6s-2.05-2.08-3.31-2.91l-5.33-3.52c-4.25.21-10.21,8.36-5.83,12.78h0Z"/>
    <path class="st14" d="M1117.62,519.81c.05-.79,3.2-2.09,3.41-1.5,2.5,6.88.93,14.31,6.44,21.58,9.47-5.4,6.19-15.44,8-20.38.24-.66,2.4-1.11,2.97-.71,3.1,2.15-1.76,12.24,7.45,20.48.62.55,1.36,2.63,1.48,3.29.16.88-3.01,2.01-3.6,1.34l-6.42-7.38c-1.59,2.49-4.52,6.18-7.98,7.56-6.64,2.66-12.57-11.99-11.76-24.29h.01Z"/>
    <path class="st9" d="M1039.66,529.1l-.9,16.93c-.03.59-2.04,1.78-2.6,1.6-.74-.24-2.5-1.86-2.61-2.75l-1.93-15.27c-.73-5.79,1.45-11.19,5.25-14.28,5.09-4.14,16-4.63,16.36,1.02.23,3.55-9-2.44-15.05,4.29-2.2,2.45-1.8,5.44,1.48,8.46h0Z"/>
  </g>
  <g>
    <path class="st3" d="M1030.18,462.56c-1.19-.26-1.75-3.7-.85-4.24,1.08-.65,3.29-.64,4.87-.23l16.03,4.2,8.17-.64,30.16-1.52,28.56-1.11,31.5-.48,1.63,3.42c.36.75-2.42,1.75-3.29,1.69-12.26-.79-24.45.76-36.7.93l-21.85.3-31.13,1.58c-2.43.12-6.39.66-8.67.16l-18.43-4.07h0Z"/>
    <path class="st12" d="M860.43,400.64c-8.6,2.17-12.29,13.83-13.79,24.07-.95,6.53,2.52,11.12,6.13,15.94l8.91,11.9c3.92,3.57,12.36.98,16.28-2.43,4.76-4.14,8.31-10.9,8.78-17.33,1.2-16.22-7.3-38.92-19.39-35.95-.88.22-3.45-.66-3.29-1.47s1.51-2.67,2.53-3.03c14.36-5.07,24.6,18.93,25.18,36.6l3.95,1.34c3.01-8.42,7.75-14.55,14.36-12.32,2.14.72,5.03,4.2,5.63,6.37.16.56-1.52,2.91-1.99,2.56l-2.73-2.02-3.74-2.5c-.89-.6-3.41,1.72-4.05,2.76-5.57,9.01-.35,18.57-4.49,22.24-.74.66-2.75-1.38-3.02-2.34l-3.3-11.5c-3.33,7.78-5.27,15.99-12.31,20.88-5.91,4.1-14.57,6.59-20.87,2.51-3.46-2.24-5.82-8.8-8.69-11.55-8.39-8.06-10.41-17.48-7.22-28.63,2.58-9.01,7.4-18.54,16.27-22.48,1.05-.39,3.7,1.27,3.69,2.43s-1.65,3.64-2.86,3.95h.03Z"/>
    <path class="st1" d="M918.4,453.34c-9.24-15.39,4.09-34.08,10.64-30.87,1.25.61,2.17,2.15,4.12,4.94l-1.42-12.85-2.52-13.55c-.12-.64.9-3.6,1.48-3.42l3.44,1.06,3.99,24.77c1.16,7.22,2.68,14.99,5.77,21.61.79,1.7,2.99,3.72,2.5,5.11-.6,1.69-4.95,3-5.5,1.52l-4.3-11.65c-2.64,5.49-4.44,9.64-8.5,13.18-2.15,1.87-8.18,2.66-9.68.16h-.02ZM922.61,450.78c6.01-3.09,9.21-9.43,8.79-14.36-2.29-1.91-3.77-5.03-4.3-9.6-7.03,5.25-9.7,16.41-4.49,23.95h0Z"/>
    <path class="st1" d="M947.14,439.77c-.88.13-1.87-3.18-1.07-3.51l3.74-1.53-3.04-11.43c-.55-2.06,1.96-6.23,3.82-7.06,1.96-.87,6.42-.43,7.93,1.12,5.64,5.8,5.62,13.91-.79,18.96,3.28,5.76,8.37,10.07,15.28,8.9l1.28-7c6.77-4.42,2.73-14.19,9.16-17.06,6.52-2.9,17.93,4.5,14.88,7.17s-6.58-4.19-13.54-2.88c-4.49,10.32,2.78,20.64-1.43,23.1-1.2.7-3.98-2.71-4.72-4.23-1.31,3.28-4.62,6.27-8.65,5.92-7.6-.67-12.44-5.47-16.38-11.41l-6.46.96v-.02ZM955.15,432.17c2.34-2.37,3.14-5.17,2.65-7.21s-2.7-4.4-5.03-4.74c-2.06,3.65-.74,8.89,2.38,11.95Z"/>
    <path class="st1" d="M1380.2,437.78c-3.63-8.27-.29-16.23,6.9-20.52,2.86-1.71,6.77-3.05,9.39-3.73l-3.49-26.54c-.1-.76,1.39-3.25,2.16-3.18,1.03.1,2.96,1.7,3.1,2.77l5.03,36.43,3.92,14.26c.25.99-3.09,2.88-3.61,2.03l-2.89-4.72c-2.39,6.95-8.66,7.41-15.12,7.45-4.24.03-9.41,1.47-13.97-.06-6.81-2.27-10.42-8.7-10.17-15.52.2-5.36,5.27-14.06,11.59-12.75,4.83,1.01,4.17,7.53,3.05,10.37-1.52,3.86-4.51,6.34-9.22,6.97,1.74,5.29,7.47,8.19,13.33,6.72v.02ZM1383.93,427.88c-1.83,4.55.5,8.96,4.34,9.5s7.37-1.95,8.52-5.61c1.66-5.28,1.93-8.8-3.21-12.46-3.65,1.2-7.97,4.41-9.65,8.58h0ZM1365.62,425.87c2.73.03,4.36-.64,5.81-2.78.8-1.17.87-3.12-.38-5.82l-5.44,8.6h0Z"/>
    <path class="st1" d="M1298.31,420.77c1.38-7.33,9.02-11.6,15.65-8.69,2.12.93,3.77,5.64,3.23,7.59-.18.65-2.44,2.41-2.82,1.86l-1.66-2.44-2.06-3.04c-.47-.7-3.14,0-3.97.48-3.35,1.96-4.8,6.61-3.96,10.82.66,3.29,4.55,5.83,8.81,6.85l-.67-7.44-.23-2.5c-.07-.76,2.54-.91,3.52-.78l7.11,16.98c6.52,15.58,7.24,44.71-6.57,53.75-5.62,3.68-12.17,2.61-16.64-1.91-3.53-3.56-6.38-9.36-5.98-14.39,2.19-1.21,4.69,1.24,5.27,3.78,1.34,5.89,6.52,11.75,13.03,9.39,13.73-5,12.72-37.32,4.89-53.4-5.26,2.13-9.59.09-13.29-2.87-4.08-3.28-4.67-8.7-3.66-14.03h0Z"/>
    <path class="st1" d="M1243.79,419.31c3.6,3.63,13.81,3.11,15.34,10.56.78,3.82,1.65,6.91,4.74,8.86,5.67,3.58,18.06-5.11,16.48-11.87-1.23-5.27-15.85-3.37-25.18-6.62-.75-3.95,2.22-7.99,5.23-9.72l9.57-5.51c.96-.55,3.14-1.14,4.1-1.02s2.19,2.67,2.39,3.66l-16.22,8.71,18.63,3.31c1.92.34,4.8,2.94,5.75,4.56,3.79,6.48-3.91,16.75-14.61,19.82-4.68,1.34-9.46-1-11.93-4.3-2.01,3.24-4.34,5.84-7.41,6.55-3.6.83-8.98-2.33-9.49-6.89-.07-.64,1.59-1.99,2.12-1.63l2.84,1.92,2.89,1.95c1.22.82,6.76-3.82,6.26-9.21-.56-6.08-12.58-5.63-15.58-10.57-3.52-5.82,2.59-14.7,9.03-13.68,1.23.2,1.9,4.01.87,4.66l-4.71,3c-.74.47-1.77,2.84-1.13,3.48l.02-.02Z"/>
    <path class="st9" d="M1330.17,440.95l-.8-19.84c-.03-.73.35-2.23.62-2.86.36-.84,3.61-.39,3.75.51l1.12,7.22,5.41-10.16c.42-.79,3.19-2.05,4.11-1.9,1.16.18,3.52,2.03,3.79,3.21l5.43,23.58c.22.95-.2,2.67-.63,3.4-.53.92-3.72-.33-4.08-1.91l-5.13-22.82c-3.19,5.05-4.19,9.05-6.06,14.49l-2.82,8.18c-.29.84-2.2,1.95-3,1.93s-1.65-2.11-1.69-3.03h-.02Z"/>
    <path class="st0" d="M1212.92,433.31c-6.33,2.95-10.19-5.45-9.4-10.65.66-4.35,2-7.7,4.44-10.26,2.23-2.33,8.25-4.25,10.51-1.65l5.96,6.83,5.43,21.84c.22.89-2,2.98-2.62,2.44s-2.03-2.16-2.3-3.05l-2.92-9.75-9.1,4.23v.02ZM1210.45,428.3c3.73,1.71,10.74-4.24,8.68-7.39l-4.29-6.54c-5.43-.18-9.45,10.72-4.38,13.93h-.01Z"/>
    <path class="st11" d="M1288.01,434.06l.55-8.07.53-2.55c.16-.78,3.51.34,3.66,1.12,1.87,9.82-2.17,13.98-3.56,12.25-.47-.58-1.23-2.04-1.18-2.76h0Z"/>
    <path class="st8" d="M1290.91,404.77c-3.95.84-4.87-6.15-1.74-9.99.71-.87,4.03,1.63,3.73,2.72l-1.99,7.26h0Z"/>
    <path class="st9" d="M1103.85,408.97c1.58-2.59,1.73-7.9.83-11.01-4.46-.02-8.13,2.8-10.4,6.42-.77,1.23-5.62-.09-5.08-1.36,2.5-5.84,9.72-10.42,16.01-9.79,4.29.43,5.54,6.81,4.83,10.64-1.46,7.94-5.64,13.94-10.21,20.97l9.52-1.17c1.41-.17,4.62.62,5.72,1.5,5.03,4.02,1.6,19.88-8.66,23.66-4.16,1.53-12.25-1.54-15.19-4.95-.46-.53.79-2.46,1.49-2.51,4.53-.35,8.76,4.6,12.54,2.86,5.94-2.73,8.12-9.61,6.81-15.8l-16.46,1.66c-1.73-.17-1.51-5.17-.58-6.69l8.83-14.42h0Z"/>
    <path class="st9" d="M1041.89,429.96c8.35-17.13,5.18-29.78,1.56-27.95l-9.56,4.83c-.72.36-3.01.19-3.64-.33-2.42-1.99,6.76-9.08,14.35-9.23,9.49-.19,9.12,20.03,1.99,34.16,3.77-.08,9,.15,11.18,1.68,4.45,3.12,3.3,7.91,1.04,11.63-5.2,8.55-19.31,14.12-23.56,8.04-.5-.71,1.74-2.45,2.64-2.4,8.05.45,17.23-3.46,18.45-13.19l-10.63-1.15c-1.31-.14-3.22-.49-4.05-.97-1.03-.61-.4-3.82.23-5.12h0Z"/>
    <path class="st0" d="M1131.26,421.27c-3.68,1.72-8.36,2.9-11.68,1.63-6.67-2.55-7.22-15.6.37-22.3,2.8-2.47,8.99-4.61,12.3-1.47l3.71,10.12c.16,8.08.51,15.22,2.36,23.21l2.9,12.58c.22.94-2.17,3.13-3.01,2.86-1.05-.34-2.52-2.25-2.68-3.4l-1.25-9.16-3.02-14.08h0ZM1120.69,417.85c1.79,2.39,8.32-.15,9.42-2.68,2.68-6.19-2.59-12.52-4.22-12.39-4.54.37-9.21,9.7-5.19,15.07h-.01Z"/>
    <path class="st17" d="M1067.67,400.08l.51-5.06c.12-1.21,4.34,1.02,4.43,2.27l3.21,45.49.42,2.88c.11.78-1.51,2.35-2.13,1.87l-3.1-2.41-3.35-45.05h0Z"/>
  </g>
  <g>
    <path class="st22" d="M349.88,440.16c-6.23-3.88-7.66-12.3-6.96-18.79l5.53-9.28c3.52-5.91,10.65-6.91,17.07-5.17,5.52,1.49,9.15,6.53,11.01,13.22,2.86,10.33-4.44,20.94-15.58,23.03-2.73-.47-8.38-1.61-11.07-3.01h0Z"/>
    <path class="st22" d="M361.52,540.47c-4.89.27-15.43-5.96-16.58-15.48-1.01-8.4.87-14.44,7.01-19.49,4.71-3.87,13.97-6.21,19.92-1.56,5.16,4.03,7.48,14.43,4.94,20.28-3.2,7.37-9.54,15.92-15.29,16.25h0Z"/>
  </g>
  <g>
    <path class="st9" d="M454.29,431.05c-.78-.6-3.34-1.61-3.21-2.43l.69-4.4c-.93-4.05-3.5-11.35-2.63-16.17.66-3.67,5.33-7.41,8.65-7.58,1.38-.07,2.81,3.94,2.22,5.18-.79,1.65-2.97,2.64-6.25,3.34-.4,4.1,1.26,10.53,3.58,14.65,3.5-1.75,7.81.24,7.56,3.76-.14,1.4-4.19,1.3-6.14.71,4.4,12.7,2.12,27.55-6.31,28.51-2.03.23-4.8-1.77-6.36-4.25l7.93-1.86c3.1-5.38,3.05-13.02.28-19.47h0Z"/>
    <path class="st9" d="M478.29,444.28c-9.42-2.96-8.66-19.26-2.92-23.31,1.76-1.24,5.17-1.3,7.85-1.11,8.19.57,13.71,7.37,12.66,14.83s-9.65,12.08-17.59,9.58h0ZM476.5,436.48c1.8,4.49,6.66,4.34,10.29,3.04,2.23-.8,5.09-4.33,4.47-7.51-.48-2.46-2.28-5.53-3.84-6.33-3.99-2.05-10.64,2.34-11.48,4.39-.47,1.14.04,5.13.56,6.41h0Z"/>
    <path class="st0" d="M415.24,442.02l-1.83-9.81c-.21-1.1-.33-2.95-.21-3.84s2.79-1.54,3.33-.83l2.15,2.8.69,3.66c1.51-4.31,4.96-11.38,10.27-9.61,11.22,3.73,13.13,24.45,6.66,24.79-4.23.22,3.74-13.77-8.81-20.99l-6.3,14.27c-.5,1.14-2.11,2.98-3.19,3.26s-2.54-2.43-2.77-3.69h0Z"/>
    <path class="st21" d="M394.75,408.92c-.16-1.13.78-4.32,1.53-3.84l3.06,1.95,5.42,39.55-1.79,2.42c-.53.71-2.81-1.35-2.96-2.41l-5.26-37.67Z"/>
    <path class="st9" d="M455.34,535.73l-3.62-16.67c-1.11-5.11,1.59-13.18,7.15-13.78,4.42-.48,5.72,5.91,5.1,9.02l-.75,3.73c-.17.85-2.36.61-3.47.37l-1.28-7.82c-1.47,1.86-2.68,5.93-2.13,8.28l3.17,13.39,4.85-1.92c1.08-.43,3.83,2.84,2.83,3.46l-5.12,3.18c-1.18.73-.99,4.4-.58,6.03,2.89,11.45.36,24.09-6.57,24.09-.98,0-2.39-2.02-2.53-2.78,1.99-1.6,5.61-5,5.44-7.35l-1.24-16.29-5.14,1.63c-1.07.34-2.34-1.77-2.79-3.36l6.67-3.23v.02Z"/>
    <path class="st0" d="M480.54,532.69l-2.3-3.47c3.82-4.64,10.68-5.46,15.6-.95,5.39,4.95,8.06,13.77,5.73,21.12-1.3,4.12-5.48,7.5-8.51,8.38-4.64,1.35-10.3.3-13.28-3.31-5.35-6.48-4.28-16.16,2.76-21.78h0ZM482.15,537.89c-3.45,2.87-4.36,10.26-.47,13.71,3.36,2.98,8.5,2.49,11.33-.28,4.79-4.68,2.68-15.01-2.32-19.59-2-1.83-5.65-1.91-7.87-.7l4.75,1.47c.9.28,1.11,2.5,1.11,3.81,0,1.1-1.63,4.15-2.61,3.64l-3.93-2.05h.01Z"/>
    <path class="st14" d="M420.07,550.45l-1.35-15.3c-.15-1.69-.76-3.66-.68-4.83.1-1.4,4.92-1.22,5.23.15l1.39,6.02,4.19-7.19c.77-1.33,4.69-2.25,6.05-1.66,6.51,2.82,7.89,16.8,5.45,26.09-.18.69-3.25,1.42-3.47.74-1.94-5.74,2.7-15.05-3.94-22.83-3.37,5.2-5.38,12.34-8.03,17.63l-1.48,2.95c-.38.76-3.25-.59-3.35-1.77h-.01Z"/>
    <path class="st21" d="M401.15,547.65l-4.29-41.11c-.08-.8.36-2.71.72-3.31.48-.81,3.07.49,3.8,1.21l4.58,43.13-1.06,3.12c-.21.61-2.28.94-2.84.61-.75-.44-.69-1.56-.91-3.65h0Z"/>
  </g>
  <g>
    <circle class="st20" cx="187.67" cy="436.31" r="2.31"/>
    <path class="st1" d="M195.58,403.12c3.69-3.75,10.35-5.92,15.68-4.28,3.02,10.57-8.78-.63-12.56,9.25l4.06,11.78c7.21-4.99,15.93,2,20.12,11.03.78-11.99,7.8-27.24,14.69-26.98,1.05.04.81,3.73-.18,4.57-5.13,4.36-9.09,13.05-9.21,19.9,4.05-.15,8.67-.37,11.25.51,5.73,1.95,6.19,8.05,5.4,12.88-.85,5.2-3.34,8.81-8.01,10.02-4.18,1.08-10.26-.97-11.74-5.96l-2.54-8.53c-2.9,6.57-13.54,10.69-18.21,7.74-.93-.59-.71-4.02.21-4.37,4.57.71,11.56.22,13.28-5.19,1.82-5.71-5.46-13.05-10.83-12.26-2.18,1.7-4.43,3.26-6.97,4.34l-4.57-14.53c-1.15-3.2-3.89-5.83.14-9.93h-.01ZM229.53,444.65c.33,1.68,4.85,3.43,6.36,2.68,5.99-3,5.21-12.61,2.61-13.61-3.19-1.23-7.71-.8-11.22-.32l2.25,11.25Z"/>
    <path class="st9" d="M84.3,429.53c.23-.82,2.31-3.5,3.02-3.2l4.41,1.86c4.33-7.43,6.06-18.82,2.34-27.65-6.01-1.72-10.21,4.77-11.98,9.63l-1.14,3.12c-.24.65-2.77.17-3.13-.42-2.21-3.63,3.48-14.21,10.79-16.87,1.61-.59,6.14-.51,7.62.33,6.87,3.91,5.28,24.39-.71,36.06l5.79,10.36c.3.54-1.54,2.72-2.14,2.58s-2.22-.71-2.53-1.27l-3.43-6.15-6.03,8.25c-.56.76-3.99,1.1-4.79.59-1-.63-1.97-3.16-1.62-4.4l3.54-12.83h-.01Z"/>
    <path class="st9" d="M127.96,431.95c-4.25-7.69-.65-16.79,4.87-22.89,1.9-2.1,6.41-2.71,9.37-1.87,2.71.77,5.69,4.26,7.03,7.16,3.28,7.11,2.16,13.36-3.45,18.44-4.65,4.21-13.98,6.11-17.81-.84h-.01ZM134.31,415.28c-2.73,2.69-5.28,11.63-1.85,14.83,4.46,4.15,10.87-.16,12.97-4.25,2.29-4.46-.36-10.57-3.41-13.6l-3.36,3.53-4.35-.5h0Z"/>
    <path class="st9" d="M155.6,423.3c-1.88-8.65,2.99-25.29,8.48-26.61,4.77-1.14-4.43,12.19-4.52,23.71,3.01-.34,6.85-1.56,8.78-3.17l2.48-16.22c.47-.71,3.24-1.47,3.59-.56.47,1.22,1.02,3.96.85,5.13l-.68,4.66c-.17,1.16,1.73,2.16,3.65,3.56l-4.86,6.38c-2.78,3.66.3,12.87-3.81,12.79-.89-.02-2.37-1.97-2.37-2.92l-.03-6.66c-3.53,1.78-9.92,2.68-11.56-.08h0Z"/>
    <path class="st10" d="M254.42,442.66l-5.22-31.09c-.46-.62-.63-3.74.2-3.62,1.04.14,2.7.74,4.31,1.42l5.28,31.59c-.11,1.99-1.39,5.72-2.93,6.2-.94.29-3.19-.09-3.87-.52s.43-2.31,2.24-3.98h-.01Z"/>
    <path class="st19" d="M120.59,434.03l-1.87-3.12c-.4-.66.87-2.58,1.62-2.42,3.04.65,4.66,1.67,5.4,4.97.17.76-1.4,2.28-2.18,2.23s-2.56-.95-2.98-1.66h.01Z"/>
    <path class="st11" d="M112.02,408.79c-1.15-1.27,3.2-4.71,5.36-3.76,1.05.46,1.35,3.85.62,4.77-.98,1.23-3.74,1.46-5.97-1.01h-.01Z"/>
    <path class="st1" d="M87.96,220.85c6.54-7.83,2.79-20.95-3.83-28.64-3.32-3.85-9.55,1.06-9.85,4.04-.08.81-3.3,1.66-3.61.91s-.82-3.04-.52-3.96c1.65-5.05,11.71-9.88,16.68-4.88,7.88,7.91,12.82,23.42,5.99,34.45l9.66,11.78c.46.56.11,3.97-.6,4.11l-3.93.77c-.76.15-3.68-1.37-3.35-2.06l1.74-3.62c-.78-1.37-4.33-4.87-6.1-6.12-4.24,5.86-8.81,11.53-13.45,10.15-3.4-1.01-2.7-10.46.59-16.22,1.56-2.72,6.71-2.46,10.57-.72h.01ZM79.39,233l6.66-8.14c-2.42-.17-4.83-.28-5.42-.08,0,0-1.24,8.22-1.24,8.22Z"/>
    <path class="st9" d="M159.88,230.23l-2.13-2.91c-.51-.7.82-2.92,1.68-2.86,4.09.26,4.74,5.2,7.81,4.74,2.25-.34,7.11-6.46,7.35-10.91.12-2.3-4.21-6.24-6.18-5.33l-1.94,2.88c-.46.69-3.5.18-3.52-.73l-.43-29.14c4.24-6.13,14.73-2.88,18.5.64.54.5,1.51,3.79.87,4.07l-3.19,1.4c-2.78-4.39-6.99-5.56-11.9-4.18l.52,19.07c5.58,1.21,9.48,4.13,11.09,7.71,3.29,7.3-4.74,18.27-10.12,19.21-2.78.48-6.78-1.42-8.41-3.65h0Z"/>
    <path class="st0" d="M207.46,210.44l-1.87-19.87,13.6-4.44c.7-.23,3.88.52,3.83,1.24l-.25,3.94c-.12,1.8-6.13-1.57-12.09,3.5l1.05,11.06c2.4-1.49,5.74-2.59,8.17-1.88,5.48,1.61,7.69,20.33.98,26.75-2.19,2.1-9.12.23-11.71-1.2l-2.77-1.53c-.57-.32-.6-2.34-.04-2.68.75-.45,2.87-.7,3.85-.42l8.48,2.37c2.03-7.24,1.94-11.77-.11-19.42l-6.21,3.7-2.38,1.44c-.54.32-2.47-1.93-2.53-2.56h0Z"/>
    <path class="st0" d="M128.51,224.47c-3.91-10.37.87-20.9,9.24-26.55,10.06,4.88,14.16,17.79,10.92,27.19-1.27,3.7-6.73,5.14-10.19,5.3-3.11.14-8.49-1.99-9.98-5.93h0ZM133.17,222.89c2.14,3.96,9.65,3.7,11.02.05,2.3-6.14-.3-15.92-6.23-18.83-5.23,3.37-7.97,12.91-4.79,18.78h0Z"/>
    <path class="st24" d="M228.58,220.3l14.12-27.2-10.85,3.15c-1.1.32-3.52-.32-4-1.25s1.28-3.32,2.31-3.58l13.45-3.33c1.13-.28,4.13.99,4.42,2.04s-.11,3.63-.62,4.61l-14,26.48-1.81,3.18c-.53.93-3.7-2.79-3.02-4.1h0Z"/>
    <path class="st27" d="M255.68,219.87l3.73-22.19v-4.14c0-.83,2.15-.89,2.98-.76s2.56,2.45,2.39,3.36l-4.25,23.6c-.13.72-1.95,2.31-2.43,2.72s-2.55-1.78-2.42-2.59h0Z"/>
    <path class="st25" d="M110.24,231.09c-.7-.8,1.12-3.52,2.23-4.01,1.29-.57,4.2.18,4.43,1.47.26,1.44-.22,4.59-1.45,5.02s-4.14-1.26-5.21-2.48h0Z"/>
    <circle class="st6" cx="191.5" cy="227.85" r="3.41"/>
    <circle class="st23" cx="107.56" cy="200.12" r="3.02"/>
    <path class="st12" d="M99.99,535.1c-.19-10.49-3.34-24.28-9.84-24.2-6.14.08-6.82,12.49-10.66,10.45s2.53-14.51,9.58-15.03c13.88-1.03,17.89,23.77,13.83,40.18,2.81,1.47,4.82,3.3,4.77,5.11-.07,2.58-1.54,6.98-4.17,6.62-2.12-.29-3.76-4.69-3.98-6.78-3.61,3.73-8.58,7.22-14.08,7.41-4.09.14-7.14-3.59-6.62-7.53.97-7.46,4.48-14.34,10.52-18.56,3.47-2.43,7.13-1.09,10.65,2.34h0ZM83.93,554.17c7.9.02,14.35-6.57,13.56-12.21-.29-2.08-2.93-5.91-5.04-5.61-5.66,3.77-9.46,10.5-8.53,17.82h.01Z"/>
    <path class="st9" d="M173.31,532.38c.77-5.16.06-11.24-2.07-17.09-2.99.74-5.52,4.4-6.26,6.62-.3.89-4.01,1.39-4.13.46l-.48-3.73c2.31-3.69,6.68-7.83,10.57-8.11,2.22-.16,5.95,4.21,6.16,6.37l1.61,17.09c4.15,7.05,10.39,16.18,7.44,21.44-.51.92-3.5-.14-3.69-1.29-.56-3.4-2.72-9.36-4.66-13.06l-6.64,16.48c-.45,1.13-3.19,2.48-4.2,2.74-7.88,2-7.68-22.84,6.36-27.91h-.01ZM167.12,555.14l6.17-18.19c-5.81,4.96-7.43,11.16-6.17,18.19Z"/>
    <path class="st0" d="M221.55,530.81c-2.17-3.68-12.53,1.6-12.41-.73.28-5.25,5.11-9.19,5.63-16.98-8.68-4.52-12.17,5.81-16.05,4.42-4.36-1.56,4.42-11.54,14.35-10.4,3.99.46,7.24,4.49,6.18,8.22l-2.64,9.26c1.9.16,5.98.78,7.5,1.86,1.7,1.21,3.12,5.13,3.2,8.01.23,8.73-8.31,17.87-17.15,17.01l-7.85-.77c-1.72-.17-4.58-3.19-5.23-4.92-.24-.65,1.89-3.12,2.43-2.67l2.47,2.02c5.31,4.34,14.17,1.69,18.07-3.08,2.17-2.66,3.65-7.59,1.5-11.24h0Z"/>
    <path class="st9" d="M137.09,546.46c-3.77-7.41-2.71-14.75-2.12-22.75.2-2.74-.12-7.46,1.93-8.62,3.03-1.71,7-.59,9.47,1.31,9.09,7.02,14.53,18.86,9.46,29.75-1.58,3.4-6.19,6.24-9.3,6.35-3.71.13-7.67-2.55-9.44-6.04ZM146.37,547.84c1.48-.19,4.56-2.27,5.18-3.68,3.92-8.97-.46-19.5-9-24.05-7.14,10.81-2.68,28.55,3.82,27.73Z"/>
    <path class="st9" d="M251.1,517.91l7.75-14.94-6.55,1.81c-1.16.32-3.2-1.49-4.51-3.56,3.43-1.8,7.94-3.07,12.12-2.83,3.34.2,3.96,5.74,2.67,8.13l-7.33,13.59,11.89.1c1.7.01,5.15.97,6.2,2.2,4.61,5.38-2.41,19.71-15.47,24.14-1.07.36-4.35-.09-4.41-1.03-.07-1.18,0-4.14.11-4.3,8.87,1.27,17.59-9.06,15.9-16.14l-14.7-.37c-1.05-.03-3.18-1.48-3.75-2.22s-.4-3.61.1-4.59h-.02Z"/>
    <path class="st9" d="M228.94,531c-4.67-1.43,9.89-11.29,7.92-21.42l-7.99,4.7c-.68.4-3.17.15-3.71-.44-.73-.78.36-3.44,1.29-3.95l8.22-4.52c.84-.46,3.88-.5,4.74,0,4.49,2.59,2.74,12.15-2.55,19.63l9.05-.69c3.35-.26,5.22,5.29,3.73,8.83-3.08,7.35-12.25,16.79-17.53,15.3-1.17-.33-2.3-1.77-3.67-4.2l7.25-1.14c4.74-3.11,8.56-7.53,9.83-14.22l-13.27,2.51c-.87.16-2.58-.17-3.3-.39h0Z"/>
    <path class="st16" d="M119.2,542.41c.61-2.65,5.19-3.35,6.43-1.68.75,1.01-.39,3.9-1.55,4.34-1.56.59-5.21-1.18-4.87-2.66h0Z"/>
    <circle class="st4" cx="117.97" cy="523.06" r="2.9" transform="translate(-405.23 640.4) rotate(-89.93)"/>
  </g>
  <g>
    <path class="st7" d="M1303.9,295.27c-.05-.98.4-3,.66-3.64.33-.86,3.59.14,3.69,1.17l1.97,19.92,16.21-.42,5.11-7.01c.92-1.27,5.01-1.1,6.44-.44,1.64.75,3.18,4.81,2.28,6.73-1.95,4.18-4.63,5.83-9.13,8.03.75,2.32,2.95,5.81,5.02,6.82,2.44,1.19,8.32.66,9.26-.99-.54-7.21.23-14.22,4.71-17.98,5.21-4.37,11.74-7.04,18.91-3.68-.03-9.78-.02-25.93,5.33-28.36.73-.33,2.63,1.85,2.89,2.98,1.99,8.59-.65,19.71-1.79,29.23-.87,7.19,2.95,16.21,5.1,22.42,1.3.62,4.47,3.13,3.93,4.12-1.43,2.63-7.31,1.46-8.6-2.59l-4.82-15.2c-3.49,7.26-7.49,14.5-14.51,16.57-2.47.73-7.86-1.42-10.29-1.39-5.17.06-9.93.98-14.26-2.13-3.19-2.29-4.79-6.19-6.09-11.65-3.94-1.48-10.35-.94-15.14.26l1.45,17.92c.08,1.01-1.37,3.42-2.2,3.56s-2.3-1.76-2.4-2.69l-1.99-17.44c-.37-3.28-.7-4.37-.86-7.45l-.87-16.66h0ZM1355.56,328.64c8.37-5.14,14.7-17.62,9.67-20.8-3.65-2.3-9.78.55-12.26,3.54s-3.01,7.5-3.34,12.37l5.94,4.89h-.01Z"/>
    <path class="st15" d="M1281.35,302.6c1.35-1.13,6.23.02,6.78,1.84,1.9,6.25-1.23,13.97-7.33,17.26-.2,1.59.17,4.63,1.02,5.75,2.45,3.22,8.36,3.25,14.05-2.02.48-.44,2.73-1.01,3.38-1.01s1.96,1.5,1.61,2.05l-1.87,2.89c-3.08,2.78-6.07,4.4-10.04,5.03-7.6,1.21-12.41-3.96-13.6-11.31-2.7.03-7.09-1.59-7.38-4.2-.26-2.37,4.07-2.37,6.33-.63,1.2-5.92,1.57-11.04,7.04-15.64h0Z"/>
    <path class="st18" d="M1031.19,329.54l5.42-5.39c.39-8.71.54-18.39-2.55-26.68l-1.23-3.3c-.25-.67,1.16-1.85,1.86-1.92,5.47-.57,6.3,15.62,7.09,26.93l9.92-6.6c.53-.35,2.56.01,2.97.5.55.65-.26,2.88-1,3.45l-12.08,9.24c.09,7.97-.13,16.2-4.7,19.77-.74.58-3.05-1.57-2.68-2.56,1.09-2.92,2.53-8.92,2.55-11.25l-4.17,1.88c-.94.43-2.14-3.32-1.39-4.07h-.01Z"/>
    <path class="st3" d="M1423.3,252.19l-3.24-2.63c-1.07-.87-5.06.72-6.3,1.95-3.18,3.18-4.66,11.04-1.32,16.14.76,1.15,3.24,3.02,4.53,3.02,4.02-.02,11.79-10.46,11.18-15.96l-3.08-27.95c-.42-3.82.18-11.11,2.33-13.82,6.94-8.78,16.6,20.66,6.33,44.08l3.45,12.93c.16.59,1.74,2.22,2.16,2.67.57.59-1.86,2.84-2.7,2.52-3.06-1.17-5.46-6.73-6.1-10.81l-6.96,8.13c-1.19,1.39-4.86,3.03-6.72,3.06-6.03.09-5.56-6.48-13.9-4.46-5.59,1.36-13.49.68-16.56-5.15-2.76-5.25-1.08-12.9.82-18.38,1.15-3.31,6.19-7.27,9.13-4.06,5.88,6.41,2.19,17.55-5.58,20.92,4.88,3.37,10.82,3.01,15.61.92-1.72-8.76.64-17.13,8.86-20.02,1.94-.68,5.88-.82,7.52-.11,2.11.91,3.76,4.19,4.35,6.69l-3.85.34.04-.02Z"/>
    <path class="st18" d="M1324.07,248.77l-4.27,2.54c-1.1.65-4.92,1.01-5.01-.27.62-3.34,4.51-5.9,8.46-7.45l-3.62-20.51c-.17-.97-3.2-3.12-2.62-3.78l2.24-2.57c.73-.83,4.12.97,4.35,2.26l4.19,23.13c10.59,4.68,17.64,15.85,15.54,27.84-.53,3.05-3.86,7.06-6.74,5.45-1.28-.72.95-4.34,1.51-5.81,2.88-7.51-2.02-17.59-9.02-21.22l-.56,24.56c-.02.76-1.83,3.21-2.41,3.68s-1.77.2-3.17-.2c1.32-9.42,1.58-16.71,1.12-27.64h.01Z"/>
    <path class="st3" d="M1346.63,265.76l-1.65-4.95c-.32-.97,3.82-1.51,4.16-2.48l3.95-11.41c.24-.69,2.14-2,2.85-2.17.94-.22,3.18,1.54,3.44,2.62l3.64,15.37,4.49-15.55c.45-1.56,3.15-3.78,4.59-3.91s4.3,2.25,4.61,3.77l2.94,14.31c.24,1.15.33,3.47,1.13,3.88l4.61,2.35c1.57.8-2.33,4.68-3.9,4.39s-4.65-2.46-5.02-4.07l-4.38-18.88-4.59,15.45c-.92,3.1-3.85,6.7-7.44,6.05l-4.16-16.45-4.73,14.13c-.22.67-3.14,1.77-3.36,1.1l-1.19-3.57v.02Z"/>
    <path class="st18" d="M1260.07,336.15l-2.04-49.24,2.5-1.75c.79-.55,2.15,2.46,2.3,3.3l1.95,46.69-2.02,3.36c-.46.76-2.73-1.87-2.68-2.36h0Z"/>
    <path class="st18" d="M1015.39,337.68l1-18.65.45-3.17c.1-.72,2.71-1.18,3.11-.57s1.28,2.74,1.23,3.56l-1.17,19.95c-.04.61-1.71,1.64-2.28,1.86s-2.4-2.15-2.36-2.97h.02Z"/>
    <path class="st18" d="M838.15,285.77c1.67-3.86,3.87-10.77,3.12-15l-3.71-20.89-18.42,8.58c-1.13.53-3.69-.3-3.71-1.18s1.22-2.88,2.12-3.3l34.31-16.22,11.15-7.14,3.24.61c.75.14.05,2.9-.68,3.36l-12.39,7.78-11.16,5.4,3.79,21.83c1.83,10.51-4.29,22.96-7.67,16.17h.01Z"/>
    <path class="st15" d="M911.5,254.82c-1.11,6.89-5.4,9.19-11.4,10.97-.35,2.66.58,7.81,2.33,9.8,13.6,4.58,18.06-8.98,23.23-7.21s-15.54,20-26.42,10.36c-7.7-6.82-4.62-30.32,8.02-30.66,2.01-.05,4.66,4.12,4.24,6.75h0Z"/>
    <path class="st3" d="M872.56,271.66l.73-28.81c.04-1.43.57-3.27,1.46-3.82s3.41,1.66,3.39,2.7l-.35,16.28c2.24-1.7,4.46-3.39,6.44-4.13,7.96-2.95,11.44,22.05,6.72,27.07-.6.63-3.03-1.64-3.08-2.52-.39-6.5,2.45-14.35-3.68-20.42l-7.29,14.89c-.42.85-2.31,2.09-3.14,2.15s-1.22-2.15-1.19-3.39h-.01Z"/>
    <path class="st7" d="M904.83,327.37l-12.03,2.17c-1.15.21-4.08-.75-3.91-1.75s1.8-2.54,2.84-2.81l11.17-2.86-10.26-19.39c-.99-1.86-2.52-6.39-1.15-8.13,2.64-3.34,10.37,4.08,9.63,5.39l-2.13,3.81,8.92,18.08,11.98-1.55c3.09-.4,6.33-3.23,10.08-6.37l6.72,8.69c1.64-2.67,3.69-6,5.5-7.1,2.39-1.46,6.92.8,8.62,3.43,3.23-8.28,8.29-15.53,14.56-12.56,1.72.81,3.68,3.91,3.98,6.38.83,6.83-5.87,14.72-13.38,17.26.09,1.61,1.99,6.65,3.9,7.95,7.87,5.35,15.26-5.83,18.68-5.41.8.1,1.09,3.12.61,3.83-4.57,6.76-15.04,9.79-21.64,6.05-7.02-3.98-4.51-16.69-12.92-22.77-6.68,4.84-3.44,15.66,1.29,24.64-.38,1.1-4.06,1.76-4.67.79l-2.91-4.55c-4.74,7.82-16.99,5.24-20.44,1.59-3.96-4.18-3.19-10.66-1.62-16.53l-6.99.84c2.23,14.7,5.15,25.42-5.92,36.33-1.61,1.58-5.64,3.18-7.57,3.02-2.14-.17-6.03-2.35-7.37-4.39l-1.8-2.74c-.47-.72,1.28-2.66,2.14-2.6,3.14.24,5.77,7.83,10.59,3.83,3.45-2.86,7.68-8.64,7.27-13.15l-1.78-19.43h.01ZM962.32,319.74c2.43-2.17,3.16-7.32.67-9.27-5.36,2.18-8.2,8.23-6.72,14.67l6.04-5.4h.01ZM920.92,337.96c1.92,2.92,10,4.49,11.73,1.64,3.53-5.85.52-12.49-2.4-18.41-3.58,1-7.55,3.22-9.13,6.04s-2.07,7.88-.2,10.74h0Z"/>
    <path class="st3" d="M826.07,295.58c-.14-.8,1.26-3.11,1.89-3.1.84,0,2.65,1.45,2.83,2.5l4.61,26.8,5.86-4.9c1.11-.93,4.39-1.99,5.74-1.67,6.41,1.53,9.33,15.5,8.61,25.02-.56,7.32-5.64,12.12-12.62,12.93-4.72.55-8.69-1.36-11.38-4.8-2.9-3.73-1.29-7.81-.32-12.44,1.4-6.7-.6-13.72-1.77-20.46l-3.45-19.87h0ZM837.41,335.82c-2.19,2.77-4.24,7.2-1.67,10.36,2.14,2.63,7.22,2.7,10.19,1.34,7.54-3.46,6.12-17.62.7-27.83-5,1.03-8.12,5.94-8.85,10,.68.9,2.29,2.77,1.79,3.4l-2.16,2.74h0Z"/>
    <path class="st18" d="M872.55,310.3c6.09,7.32-1.77,21.01-10.92,24.4,7.41,13.24,24.38,2.81,23.42,5.59l-1.41,4.1c-9.52,4.33-20.07,2.12-26.03-6.51-1.29-11.26,3.76-22.67,14.95-27.58h-.01Z"/>
    <path class="st18" d="M1563.22,280.94c2.1-20.53-.09-39.76-3.55-59.87l2.11-2.93c.62-.86,2.89,2.09,3.02,3.23l3.97,34.61c5.35-1.33,10.25-5.49,14.2-10.53,3.77,2.42,1.74,6.94-1.24,8.81l-12.8,8.03-1.38,20.86c-.06.92-2.68,2.51-3.48,2.25-1.01-.32-1.44-2.57-.84-4.47h0Z"/>
    <path class="st3" d="M1493.88,268.4c-4.69-10.05-1.34-20.31,9.02-24.33l12.97,2.73c3.07,10.3-2.09,20.18-10.37,25.48-4.62,2.95-9.39.89-11.61-3.88h-.01ZM1501.54,268.55c8.3-2.87,11-11.44,10.37-18.83l-10.13,3.98c-2.69,1.06-4.82,5.03-5.09,7.25s2.26,8.51,4.86,7.61h-.01Z"/>
    <path class="st3" d="M1524.97,248.98c3.98.94,1.3,10.84,7.44,20.04,2.01-1.09,5.9-3.09,6.56-4.7l5.92-14.41c.28-.69,2.69-2,3.16-1.47,3.68,4.12,2.5,12.96,8.46,26.9.33.77.09,2.74-.18,3.51s-3.6-.41-3.88-1.26l-6.04-17.83c-2.18,5.09-4.86,9.14-9.12,12.29-2.69,1.99-6.54,1.93-8.72-.97-3.91-5.2-5.98-11.78-5.91-18.11l.03-3.1c0-.62,1.68-1.04,2.29-.9h-.01Z"/>
    <path class="st18" d="M1101.01,330.32c.95-18.71,20.3-24.13,21.02-20.23l.66,3.59c.18.96-3.63.48-4.7.66-7.32,1.26-13.54,10.42-11.82,18.02,1.12,4.96,8.86,6.32,13.22,5.24l16.1-3.99c-4.46-7.7-5.14-16.27.21-22.43,2.81-3.24,6.24-5.84,9.62-6.01,4.79-.25,8.22,1.81,11.11,5.65,5.77,7.66,5.22,19.16-2.95,24.59-4.87,3.24-11.34,2.46-15.75-.41-4.43,6.24-20.14,8.78-28.02,6.53-5.46-1.55-9-5.55-8.72-11.21h.02ZM1139.41,316.27c-2.82,4.48-3.83,8.18-.73,13.04,2.31,3.63,8.46,4.74,12.61,1.7,5.63-4.13,5.45-12.11,1.23-17.54-2-2.57-4.89-4.14-8.09-3.32-2.07.53-3.64,3.92-5.03,6.11h.01Z"/>
    <path class="st3" d="M1166.83,329.73l-.52-20.63c-.02-.79,1.56-2.73,2.15-3.05s2.54.88,2.56,1.55l.38,9.3,5.03-11.85c.27-.65,2.73-1.59,3.41-1.38.89.29,2.54,1.89,2.76,3.01l3.28,16.62,10.97-16.69c.53-.8,2.68-2.12,3.63-2.07,1.18.07,3.47,2.33,3.56,3.65l1.75,25.47c.06.92-.19,3.04-.33,3.68s-1.68.88-2.32.75c-.86-.17-2.02-2.11-2.07-3.03l-1.15-23.37-12.19,15.95c-1.38,1.8-5.99-.45-6.4-2.26l-2.92-12.84-5.82,18.87c-.27.87-2.4,2.46-3.26,2.59-1.07.17-2.43-2.16-2.48-4.29l-.02.02Z"/>
    <path class="st7" d="M1221.18,337.22c-1.77,10.92,6.27,15.74,3.14,20.56-.59.91-3.08,1.25-5.02,1.13-5.17-17.38-4.43-42.96,9.85-53.22,1.43-1.03,5.1-1.58,6.58-1.25,7.37,1.63,6.65,23.1-6.75,31.69-1.72,1.1-5.9,1.06-7.79,1.09h0ZM1222.23,331.12c.25,5.31,17.3-3.95,12.26-22.86-8.02,4.22-12.74,12.84-12.26,22.86Z"/>
    <path class="st18" d="M1104.99,260.98c-3.41-.29-10.09-2.95-9.14-7.49,1.58-7.5,10.28-12.18,17.64-11.69l-.29,5.15c-6.17-.25-10.44,1.66-12.96,7.9,8.48,3.23,15.53-.68,20.09,5.54,1.52-8.72,8.45-17,18.86-15.16l4.19,19.86c.61,2.87,3.34,4.55,6.27,5.66.67,1.11-1.69,4.6-3.12,4.68s-4.08-1.44-4.77-2.71l-3.08-5.65c-3.6,3.34-6.71,5.28-10.53,4.99s-6.96-3.9-8.01-8.59c-2.41,6.09-7.56,11.08-14.57,13.13-2.96.87-8.1-1.63-7.57-4.6.34-1.31,3.99-.8,5.71-.62,5.02.53,9.29-3.99,11.9-9.5l-10.63-.91h.01ZM1127.86,266.69c4.8,2.15,8.01-3.7,8.63-6.33.7-3-.18-8.95-2.9-10.06-6.93.51-11.86,13.65-5.73,16.39Z"/>
    <path class="st7" d="M1217.6,248.55c7.2,6.78,2.99,16.88,1.25,15-3.79-4.11-.22-11.43-6.92-11.66-1.08,3.17-1.79,8.82-1.14,12.45.9,5.02,7.19,7.55,10.83,4.95l1.91-8.52c.18-.79,2.81-1.89,2.68-2.69l-.64-3.93c-.18-1.07,3.04-2.98,3.55-2.01l2.59,5c2.89-4.09,7.1-9.34,13.32-7.3,9.42,3.08,13.83,18.23,9.47,17.26-.85-.19-2.03-1.39-2.55-2.26l-4.89-8.11c-.83-1.38-4.47-2.79-5.99-2.42s-4,2.74-4.49,4.24l-4.38,13.37c-3.38-.46-3.78-3.93-3.92-7.22-1.15,3.16-2.62,7.75-4.97,9.11-3.37,1.95-8.68,1.4-11.9-.84-8.51-5.93-6.23-21.61-1.93-24.8,1.57-1.16,6.63-1.03,8.11.38h.01Z"/>
    <path class="st3" d="M1181.44,261.41c-.11-.84-2.9-2.75-3.61-3.21-.89-.59,2.46-3.6,2.3-4.76l-3.13-22.62-4.71-4.61c.82-.86,2.84-2.21,4.01-2.26,1.4-.06,4.36,2.23,4.62,3.69l3.78,20.85c12.03-.9,18.85,20.31,12.23,26.68-.8.77-3.18-2.24-2.93-3.55,1.4-7.11.11-15.43-8.54-18.83l1.97,18.79c.1.99-.37,3.01-.69,3.75s-3.45.12-3.56-.68l-1.75-13.26v.02Z"/>
    <path class="st3" d="M1037.21,272.41c-5.3-1.24-4.36-21.89,7.57-26.44l8.29,5.15,3.93,26.35c.15,1.02-.73,3.03-1.52,3.36s-2.84-1.37-2.98-2.21l-2.58-15.06c-2.2,4.02-5.97,10.44-12.72,8.86h0ZM1039.23,268.12c2.42-1.16,6.59-5.14,6.33-7.65l-1.02-9.69c-5,4.67-5.88,10.95-5.31,17.34h0Z"/>
    <path class="st3" d="M976.16,262.51c-4.58-.68-.19-4.37,5.91-9.04l-2.68-18.7c-.65-.94-1.6-2.15-1.21-2.73l1.56-2.32c.52-.77,3.9,1.47,4.03,2.4l2.61,18.41c2.87-1.1,8.67-2.65,11.65-2.93.8-.08,1.94,3.41,1.17,3.67l-3.82,1.28c-2.31.78-7.98,2.1-7.95,5.51l.23,24.82c0,1.05-2.82,3.21-3.39,2.56s-1.2-2.29-1.21-3.17l-.31-22.07c-1.84.86-5.07,2.54-6.59,2.31h0Z"/>
    <path class="st3" d="M1061.96,269.34l2.17-21.09-2.59-2.65c-.52-.54.31-2.54,1.03-2.76s3.53-.07,4.04.49c1.46,1.6,2.22,5.96,2.5,9l7.77-6.96c3.02-2.7,7.11-.56,8.97,2.75,3.64,6.49,5.28,18.13,1.52,23.27-.49.66-3.19-.68-3.13-1.6.37-5.53,1.59-15.52-4-20.87-10.99,6.18-9.49,20.85-18.29,20.42h0Z"/>
    <path class="st18" d="M1009.39,278.23c-.05.96-2.48,3.11-3.14,2.59s-1.75-2.43-1.73-3.53l.34-16.44c.08-3.78-.05-4.2,2.38-7.08,2.47-2.92,5.22-7.87,8.92-9.1,5.72-1.9,10.02,4.24,11.25,8.55.23.81-.17,3.04-.58,3.7-1.95,3.14-4.21-5.35-8.57-8.14-4.89,3.08-7.65,8.22-7.97,13.85l-.89,15.59h-.01Z"/>
    <path class="st15" d="M1152.15,260.36c1.09-13.23,14.61-21.07,16.29-17.55,2.14,4.5-14.58,7.62-10.57,20.59,7.58,6.02,13.65-3.68,17.39-3.29,3.05.32-2.32,10.28-13.11,10.11-6.16-.09-10.5-3.75-10-9.86h0Z"/>
    <path class="st15" d="M1197.41,243.69l-.31-8.2c-.03-.75-.7-2.85-.02-3.08l3.57-1.19c.9-.3,2.21,2.81,2.09,3.76l-1.13,9.45c-.07.61-1.72,1.7-2.3,1.91s-1.87-2.01-1.9-2.66h0Z"/>
  </g>
  <path class="st2" d="M339.11,219.99c-8.12-9.77-7.99-26.12-3.81-29.27,4.63-3.48,10.73-7.91,16.67-7.95,6.52-.04,14.59,5.92,17.31,11.44,6.15,12.45-2.57,24.8-13.92,29.2-6.67,2.58-11.52,2.27-16.25-3.42Z"/>
  <g>
    <path class="st1" d="M407.07,213.06c-.22,1.94,5.83,3.12,7.69,1.92l15.31-9.86c.97-.62,3.78,1.86,3.26,2.74s-1.93,2.71-2.85,3.26l-12.19,7.29c-4.98,2.98-11.9,2.29-16.47-1.93l5.33-40.12-.04-7.17c9.91-3.32,24.31-9.17,27.59-4.68.55.75.53,3.84-.37,3.72l-4.6-.65-17.55,4.86-2.47,22.62c8.41-5.04,21.23-8.41,24.94-4.28.43.48.39,2.99-.26,3l-3.69.06c-4.01.07-8.95.94-12.62,2.42l-9.57,3.87-1.44,12.93h0Z"/>
    <path class="st14" d="M480.87,201.91c-3.42-10.54,4.43-16.73,6.48-15.96l4.32,1.62c2.27.85,6.26,1.55,7.91,2.78,4.26,3.2,5.12,14.25.38,18.2-2.68,2.23-6.83,2.83-10.43,1.6-4.38-1.5-7.53-4.72-8.67-8.24h0ZM485.76,192.62c-1.62,2.63-1.15,7.38.52,9.87,1.35,2.01,6.18,3.97,9.17,3.19s3.53-6.25,2.67-9.07c-.62-2.04-3.58-3.51-6.36-4.75l-2.89-1.28c-.5-.22-2.7,1.37-3.11,2.03h0Z"/>
    <path class="st21" d="M447.7,209.06c.04,1.08-2.41,3.42-3.28,3.21-4.63-1.1-.5-9.73-3.7-21.17l6.03-6.49c.7-.76,2.72-2.47,3.73-2.31,1.21.19,3.15,1.66,4.35,2.72.76.67.78,4.65-.26,4.49s-2.28-.63-4.72-1.56c-1.51,2.26-2.66,7.28-2.51,11.24l.37,9.87h0Z"/>
    <path class="st5" d="M465.59,189.72c-3.91,11.84,3.12,18.58-1.48,20.99-7.39,3.87-6.48-26.93,2.61-28.8,2.5-.51,6.98.56,8.49,1.99.4.38.62,3.51.07,3.56-.82.07-2.19.12-3.02-.02l-4.36-.77c-.91-.16-2.01,2.17-2.3,3.06h-.01Z"/>
    <path class="st21" d="M525.44,187.41c-9.49,10.53-2.4,20.7-4.83,24.74-.55.92-3.45-.75-3.8-1.83-5.25-15.99,5.58-32.05,13.64-29.13.68.25,1.4,2.58.75,2.95l-5.75,3.27h-.01Z"/>
  </g>
  <g>
    <path class="st9" d="M1038.97,187.7c-9.77-14.4-3.35-29.86,1.74-28.68,1.23.28,2.99,1.78,4.15,2.96l-6.11,5.02c4.37-1.38,8.61-3.46,12.3-3.1,6.58.63,8.88,6.75,7.17,11.97-1.92,5.89-4.78,11.18-10.24,14.14-3.21,1.73-7.08.55-9.01-2.3h0ZM1039.01,174.01c-.33,4.22,2.37,9.59,5.27,12.34,6.74-3.07,11.37-10.78,8.5-17.03-3.91-2.06-11.62.88-13.77,4.68h0Z"/>
    <path class="st0" d="M999.42,168.28l8.98-4.91-1.78-20.68-1.33-3.96c-.31-.91,2.1-1.93,3.07-2s2.76,1.85,2.86,3.08l1.68,19.78,8.76-4.98c.91-.52,3.92-.3,4.17.55.31,1.07-.72,2.99-1.77,3.62l-10.57,6.29,2.83,22.3c.12.96-.65,3.09-1,3.74s-3.27-.43-3.36-1.1l-2.76-21.15c-3.6,1.06-5.93,4.26-9.77-.6v.02Z"/>
    <path class="st12" d="M1150.64,186.85l-1.96,1.14c-.56.33-2.61-1.15-2.82-1.76l-3.05-8.81-4.46,8.48c-.56,1.07-3.31,2.55-4.52,2.66s-4-1.75-4.35-2.94l-4.49-15.08-11.69,3.27c1.76,10.74,3.83,19.46,3.27,29.56-.39,7.05-5.14,14.17-12.41,14.72-8.87.67-16.7-8.44-16.97-18.5,2.19-1.32,4.92,1.06,5.45,3.53,1.39,6.47,6.8,11.98,13.9,9.33,8.69-3.25,5.16-24.51,1.88-36.94-1.88.16-4.63-.24-4.33-1.19s1.77-2.98,2.9-4.42l-3.41-14.58c-2.65-11.35-1.69-23.54,3.76-23.8s9.15,10.45,9.95,19.34c.41,4.56-2.75,9.52-7.76,8.49l2.16,9.5,16.86-3.25,5.16,18.29c6-7,4.14-16.46,8.18-17.4,1.16-.27,3.39,1.81,3.77,3.1l4.05,13.88.92,3.38h0ZM1109.13,157.05l3.82-5.2-4.56-15.01c-3.05,6.43-1.55,13.1.74,20.2h0Z"/>
    <path class="st1" d="M1173.94,175.09c-5.33-13.11-13.06-38.09-5.54-42.42,2.53-1.46,6.03-.78,9.05.54,4.15,1.82,7.31,7.65,5.82,10.61-.57,1.13-4.92,2.02-5.38.98s-.46-2.55-.43-4.81c.02-1.97-4.44-3.92-6.66-3.42-.57,2.71-1.34,7.21-.62,9.62l8.03,26.75c4.66-1.08,9.4-2.56,13.46-.84,4.24,6.81,4.75,17.03,1.8,16.71-.82-.09-2.33-1.45-2.51-2.35l-2.12-10.7-9.21,1.69c1.38,6.56,1.98,12.55.09,18.73-1.68,5.47-7.19,9.5-13.05,7.58-3.5-1.15-6.91-5.67-7.22-8.62-.95-8.83,5.8-14.99,14.51-20.06h-.02ZM1174.95,195.79c1.75-5.93,1.46-10.37.31-15.83-5.92,2.99-9.88,6.67-11.2,12.41-.65,2.84,2.01,6.64,4.26,7.14,1.82.4,5.98-1.52,6.63-3.73h0Z"/>
    <path class="st24" d="M1201,139.22l-.63-3.73c-.12-.73,1.79-1.49,2.5-1.27s2.41,1.93,2.53,2.76l2.18,14.37c.96,15.01,2.72,28.58,5.78,43.21l-2.19,2.25c-.56.57-2.72-1.92-2.85-2.73l-4.16-27.56-3.16-27.3h0Z"/>
    <path class="st14" d="M1213.23,143.02c-.15-.64.15-2.55.43-3.11,1.23-2.48,5.95,2.35,7.08,14.43l3.85,41.11c.09.96-.71,2.82-1.34,3.53s-3.25-1.57-3.36-2.78l-3.73-40.58-2.92-12.59h-.01Z"/>
    <path class="st14" d="M1150.64,186.85l-.92-3.38v-4.17l-2.73-28.45-2.34-13.83c.65-.63,3.54-.89,4.23-.09.55.64,1.85,2.92,1.94,3.98l2.37,28.15,2.83,18.16-5.38-.37h0Z"/>
    <path class="st25" d="M1183.99,153.24c-.14-.98.91-3.14,1.76-3.58,1.06-.55,4.55.37,4.6,1.41-.31,1.79-.82,2.89-1.58,3.36-.95.59-4.63-.1-4.78-1.19Z"/>
    <path class="st3" d="M1490.99,197.69l-13.06,2.16-3.42.42c-.73.09-1.59-2.08-1.27-2.75s1.88-2.03,2.67-2.17l12.39-2.21c16.35-1.25,31.93.37,48.2.82l44.06,1.22,14.55.31,14.28-1.51c1.64-.17,3.96.59,4.83,1.66s.1,5.88-1.18,5.42c-2.16-.78-5.8-2.02-7.65-1.82l-9.14.99-16.17-.13-42.95-1.29-20.46-.95-25.69-.18h.01Z"/>
    <path class="st9" d="M1542.69,157.91c9.22-5.62,18.37-15.45,14.96-23.47-9.07-2.34-13.9,5.72-19.68,6.24-.87.08-2.64-2.34-1.94-2.86l3.3-2.41c5.11-3.74,15.16-9.42,21.23-4.36s1.1,15.64-3.08,20.24l-7.61,8.39c5.03,1.8,13.24,3.3,17.11,7.11,5.79,5.7-.33,12.61-5.38,15.45-16.32,9.18-24.97,1.35-22.74-1.76,2.5-3.48,5.34,5.47,19.17-1.68,3.18-1.64,6.58-4.11,6.63-8.27-6.9-3.95-14.64-6-22.67-7.65-1.43-.29-.57-4.19.71-4.96h-.01Z"/>
    <path class="st9" d="M1486.32,156.81c-9.77-2.26,11.82-10.77,8.89-23.25-2.48-5.43-12.55.08-14.05,5.16-.98.76-4.1-1.25-3.87-2.46,1.18-6.06,14.01-13.02,20.7-7.71,5.53,4.39,1.81,15.94-6.3,24.04l12,4.19c6.64,2.32,6.82,11.75,3.15,16.66-7.12,9.53-21.7,13.26-27.91,7.49-.84-.78-.9-5.29.06-4.88l4.11,1.73c7.42,3.12,17.37-1.83,20.84-9.11,2.14-4.49-1.36-8.12-5.43-9.06l-12.2-2.82v.02Z"/>
    <path class="st1" d="M1578.37,146.95c.08-9.68,5.51-17.12,15.05-17.28,2.61-.04,7.57,3.29,8.27,5.73l1.86,6.54c1.6,14.89,3.54,29.11,6.84,43.7.03.85-.02,2.9-.73,2.95l-3.58.25-6.22-36.74c-4.27,3.26-10.51,6.87-16.59,5.64-3.97-.81-4.94-6.53-4.9-10.78h0ZM1584.08,153.17c6.08.2,12.73-2.52,13.86-7.72-1.37-2.61-1.77-5.21-1.23-8.63-.09-1.93-5.52-2.72-7.66-1.64-5.81,2.91-7.15,10.9-4.97,18h0Z"/>
    <path class="st10" d="M1523.11,175.83c.36-12.47-1.02-24.5-2.51-36.81l-.37-3.03c-.08-.63,1.79-1.18,2.39-.95,4.83,1.77,5.54,28.87,5.27,41.72-.03,1.3-3.06,3.47-3.88,2.83s-.96-1.95-.9-3.76h0Z"/>
    <path class="st1" d="M945.36,194.93c1.23,1.98,6.82.16,7.96-1.62,8.64-13.6-.68-26.99,2.28-47.83.11-.8,2.1-2.88,2.66-3.39,4.7-4.24,5.29,25.84,4.47,41.1-.15,2.79,2.52,7.21,3.82,9.3.51.81-2.06,3.27-2.86,2.69l-3.69-2.68c-5.27,6.93-12.34,10.73-17.8,6.42-2.06-1.63-2.96-5.49-3.18-8.82-.55-8.13,5.19-16.53,11.93-17.51,1.27-.18,3.59,1.14,4.09,1.89s-.17,3.47-1.06,3.48l-4.05.08c-5.18,2.29-8.51,10.55-4.58,16.9h0Z"/>
    <path class="st9" d="M828.47,168.56c-.42-1.52,2.79-4.34,4.13-5.21l24.27-15.67c1.38,1.53,2.11,5.08,1.1,5.61l-5.21,2.7c-6.88,3.56-13.86,9.09-19.46,13.68l3.38,12.72,10.62-6.85c2.43-1.56,6.73-3.49,9.13-3.54.75-.02,3.24,2.1,2.74,2.67-2.75,3.16-4.96,1.7-10.42,5.73-4.06,2.99-7.37,4.8-12.18,6.81l2.33,20.85.58,3.02c.16.82-1.75,2.33-2.39,1.8l-2.8-2.34-3.66-34.03-2.17-7.94h0Z"/>
    <path class="st9" d="M862.44,201.8c-6.26-.53-6.91-6.3-5.71-10.91,1.81-6.98,6.59-14.9,14.64-13.51l7.28,2.13,3.87,16.28c.5,2.11,3.65,5.2-1.21,7.07-1.63-2.26-3.59-6.62-5.32-10.8-2.41,4.65-7,10.29-13.55,9.73h0ZM862.67,197.71c7.2-2.17,9.72-7.84,10.6-12.71l-5.77-2.67c-4.21,3.25-9.01,10.37-4.83,15.38h0Z"/>
    <path class="st0" d="M903.3,165.34l-1.28-16.53c-.17-2.21-1.27-3.98-1.07-5.22.24-1.49,5.86-1.11,5.93.39l.99,20.77,4.67,40.32c-.5.81-2.29,2.67-3.08,2.24s-1.84-2.44-1.93-3.34l-4.23-38.63h0Z"/>
    <path class="st9" d="M916.89,176.8c1.66-2.15,4.67-3.93,6.46-4.29s6.34,1.08,6.92,3.03c2.04,6.81-1.89,14.06-8.79,17.33,3.95,6.07,11.1,3.18,10.9,7.11-.19,3.71-11.94,2.75-16.21-6.58-2.48-5.42-3.14-11.59.72-16.6h0ZM919.62,187.47c4.1-.19,7.97-6.61,5.89-10.3-5.34.14-8.16,6.76-5.89,10.3Z"/>
    <path class="st26" d="M887.83,201.09c-1.1-3.32,1.05-5.78.95-15.32,0-.8.72-2.27,1.18-2.75,2.22-2.33,6.39,7.03,1.65,16.92-.38.8-3.52,1.96-3.78,1.16h0Z"/>
    <path class="st8" d="M889.22,170.44c-1.16.11-2.52-2.84-2.42-4s2.43-3.39,3.71-3.09c1,.24,2.1,2.86,1.78,3.82s-2.06,3.17-3.07,3.26h0Z"/>
    <path class="st1" d="M1267.37,187.74c-2.97-12.09-.98-22.89,3.88-33.57-1.26-13.32,15.85-25.06,27.36-20.25,13.25,5.54,16.81,19.76,12.42,32.52-4.94,14.38-14.37,26.9-29.64,31.49-6.42,1.93-12.49-3.95-14.02-10.19h0ZM1276.32,192.77c2.13.92,6.13.26,8.12-.8,11.84-6.3,18.21-15.39,22.35-27.63,3.72-11-.35-24.12-12.53-26.74-4.1-.88-9.13.71-9.7,4.78-14.69,13.98-18.21,46.06-8.25,50.38h.01Z"/>
    <path class="st12" d="M1348.18,159.38c3.81-3.57,7.16-3.58,12.44-1.57l-1.87-25.96c-.06-.83,2.46-2.56,2.88-1.99.57.78,1.83,2.86,1.95,3.82l5.36,43.58,4.05,2.3c1.61,2.43-3.02,7.76-5.91,5.57-1.7-1.7-2.52-7.1-2.94-10.09-4.83,7.63-11.28,12.47-17.34,8.3-5.84-4.01-6.55-16.53,1.38-23.95h0ZM1352,161.99c-4.91,4.3-7.02,12.2-2.65,16.96,2.48,2.7,7.11-.71,8.56-2.91,2.38-3.61-.38-5.93-.85-9.54l-.62-4.77c-.11-.88-3.75-.34-4.44.26h0Z"/>
    <path class="st9" d="M1381.06,151.63c1.19-.72,5.24-.92,6.24,0,5.94,5.46-.92,15.76-7.95,23.66.33,3.06,4.64,5.88,7.48,5.44,7.81-1.24,7.85-5.53,11.32-6.37.94-.23,2.03,2.98,1.32,4.14-3.92,6.36-16.72,10.16-22.19,2.51l-5.3-7.41,2.1-9.68c1.05-4.84,1.97-9.27,6.98-12.29h0ZM1378.63,168.15c3.89-3.81,6.53-7.89,5.82-12.88-5.07,2.76-6.08,7.72-5.82,12.88Z"/>
    <path class="st14" d="M1324.06,185.96c-.06,1.33-2.86,3.64-3.67,2.94s-1.51-2.73-1.4-3.96l2.85-29.54c.26-2.66,3.4-6.35,5.57-8.19,2.8-2.37,6.9-2.25,9.72-.87,2.42,1.19,5.45,6.51,2.89,8.83-1.66.42-3.86-2.46-5.55-4.62-1.39-1.78-7,1.75-7.38,4.29l-2.35,15.74-.69,15.38h.01Z"/>
    <path class="st21" d="M1407.71,160.07c-2.67,13.73,1.74,26.86-2.45,26.42-1.08-.11-2.5-1.9-2.66-3.16l-1.56-11.89c-.32-2.41,1.41-7.18,1.71-9.97.7-6.61,6.96-13.97,12.22-14.89,3.67-.64,8.99,1.1,10.95,3.55.53.66.49,4.01-.33,3.92-4.8-.55-5.81-3.3-9.49-2.89-3.23.36-7.97,6.73-8.39,8.9h0Z"/>
  </g>
</svg>